<svg width="56" height="57" viewBox="0 0 56 57" fill="none" xmlns="http://www.w3.org/2000/svg">
<path fill-rule="evenodd" clip-rule="evenodd" d="M2 4.28418C2 3.17961 2.89543 2.28418 4 2.28418H52C53.1046 2.28418 54 3.17961 54 4.28418V52.2842C54 53.3887 53.1046 54.2842 52 54.2842H4C2.89543 54.2842 2 53.3887 2 52.2842V4.28418ZM4 3.78418H52C52.2761 3.78418 52.5 4.00804 52.5 4.28418V52.2842C52.5 52.5603 52.2761 52.7842 52 52.7842H38.4723V35.2564H45.0001C45.6904 35.2564 46.2501 34.6968 46.2501 34.0064V27.6175C46.2501 26.9272 45.6904 26.3675 45.0001 26.3675H38.4723V20.0897H45.0001C45.6904 20.0897 46.2501 19.5301 46.2501 18.8397V12.8397C46.2501 12.1494 45.6904 11.5897 45.0001 11.5897H39.3334C33.9486 11.5897 29.5834 15.955 29.5834 21.3397V26.3675H25.7778C25.0875 26.3675 24.5278 26.9272 24.5278 27.6175V34.0064C24.5278 34.6968 25.0875 35.2564 25.7778 35.2564H29.5834V52.7842H4C3.72386 52.7842 3.5 52.5603 3.5 52.2842V4.28418C3.5 4.00804 3.72386 3.78418 4 3.78418ZM31.0834 52.7842H36.9723V35.0064C36.9723 34.316 37.5319 33.7564 38.2223 33.7564H44.7501V27.8675H38.2223C37.5319 27.8675 36.9723 27.3079 36.9723 26.6175V19.8397C36.9723 19.1494 37.5319 18.5897 38.2223 18.5897H44.7501V13.0897H39.3334C34.777 13.0897 31.0834 16.7834 31.0834 21.3397V26.6175C31.0834 27.3079 30.5237 27.8675 29.8334 27.8675H26.0278V33.7564H29.8334C30.5237 33.7564 31.0834 34.316 31.0834 35.0064V52.7842Z" fill="black"/>
</svg>
