<svg width="37" height="40" viewBox="0 0 37 40" fill="none" xmlns="http://www.w3.org/2000/svg">
<g clip-path="url(#fae)">
<path d="M11.0059 30.7683L5.08354 30.7683C4.85279 30.7683 4.81434 30.8836 4.81434 31.1144L4.81434 34.9985C4.81434 35.7292 5.23736 36.1907 5.89113 36.1907C6.50645 36.1907 6.92948 35.6523 6.92948 34.9985L6.92948 32.9988L11.0059 32.9988C11.5443 32.9988 12.0058 32.4988 12.0058 31.8835C12.0058 31.2682 11.5443 30.7683 11.0059 30.7683ZM11.6212 25.6535L5.85268 25.6535C5.23736 25.6535 4.77588 26.1919 4.77588 26.7303L4.77588 29.8068C4.77588 29.8838 4.85279 30.0376 5.00662 29.9222L6.73719 28.9608C6.85256 28.8839 6.89102 28.807 6.89102 28.6916L6.89102 27.9224L11.6212 27.9224C12.1596 27.9224 12.6211 27.4225 12.6211 26.8072C12.6211 26.1919 12.1596 25.6535 11.6212 25.6535ZM24.9658 29.9222L26.6964 28.9608C26.8118 28.8839 26.8502 28.807 26.8502 28.6531L26.8502 27.9224L31.542 27.9224C32.0804 27.884 32.5034 27.384 32.5034 26.8072C32.5034 26.2303 32.042 25.6919 31.542 25.6919L25.7734 25.6919C25.1581 25.6919 24.6966 26.2303 24.6966 26.7687L24.6966 29.8453C24.7351 29.8838 24.812 29.9991 24.9658 29.9222ZM30.696 32.9603C31.2344 32.9603 31.6574 32.4604 31.6574 31.8835C31.6574 31.2682 31.2344 30.7683 30.696 30.7683L25.0043 30.7683C24.812 30.7683 24.7351 30.8452 24.7351 31.0375L24.7351 34.7678C24.7351 35.5754 25.1581 36.1523 25.8119 36.1523L31.5805 36.1523C32.1189 36.1523 32.5419 35.6523 32.5419 35.037C32.5419 34.4217 32.0804 33.9218 31.5805 33.9218L26.8502 33.9218L26.8502 32.9988L30.696 32.9603ZM17.9282 30.7298L14.8132 30.7298C14.544 30.7298 14.3517 30.8452 14.2748 31.0759L12.4673 34.5371C12.3519 34.7294 12.3135 34.8832 12.3135 35.0755C12.3135 35.6908 12.775 36.1907 13.3903 36.1907C13.8902 36.1907 14.1594 35.9215 14.4286 35.46L14.5824 35.1908L15.7361 32.9603L17.8897 32.9603C18.4281 32.9603 18.8896 32.4604 18.8896 31.8451C18.8512 31.2298 18.4281 30.7683 17.9282 30.7298ZM23.6198 34.5755L19.3127 26.2688C18.9665 25.6535 18.582 25.3843 18.0051 25.3843C17.4667 25.3843 17.0437 25.6535 16.6976 26.2688L15.0439 29.4223C14.967 29.6146 15.0439 29.7299 15.2747 29.6146C15.3131 29.6146 17.0437 28.8839 17.7359 28.5762C17.9282 28.4993 18.0436 28.5762 18.1589 28.7685L21.6585 35.46C21.9277 35.8831 22.1585 36.1907 22.6969 36.1907C23.3122 36.1907 23.7737 35.6908 23.7737 35.0755C23.7737 34.9216 23.7352 34.7678 23.6198 34.5755Z" fill="#BBBBBB"/>
<path d="M0.46875 37.9597L1.12252 37.9597L1.58401 38.9981L2.08395 37.9597L2.73772 37.9597L2.73772 39.9595L2.19932 39.9595L2.19932 38.8442L1.81475 39.7672L1.39172 39.7672L1.00715 38.8442L1.00715 39.9595L0.46875 39.9595L0.46875 37.9597ZM4.5452 39.9595L4.46829 39.6903L3.7376 39.6903L3.62223 39.9595L3.00692 39.9595L3.81452 37.9597L4.46829 37.9597L5.23743 39.9595L4.5452 39.9595ZM3.89143 39.1903L4.31446 39.1903L4.12217 38.6135L3.89143 39.1903ZM7.42948 39.9595L6.66034 39.9595L6.27577 39.2673L6.08348 39.4595L6.08348 39.9595L5.46817 39.9595L5.46817 37.9597L6.08348 37.9597L6.08348 38.6904L6.66034 37.9597L7.39102 37.9597L6.6988 38.7289L7.42948 39.9595ZM7.73714 37.9597L9.35234 37.9597L9.35234 38.4212L8.39091 38.4212L8.39091 38.6904L9.27542 38.6904L9.27542 39.1903L8.39091 39.1903L8.39091 39.4595L9.39079 39.4595L9.39079 39.9595L7.73714 39.9595L7.73714 37.9597ZM10.4291 37.9597L12.1212 37.9597L12.1212 38.4597L11.5828 38.4597L11.5828 39.9595L10.9675 39.9595L10.9675 38.4597L10.4291 38.4597L10.4291 37.9597ZM12.4674 37.9597L13.1211 37.9597L13.1211 38.7289L13.698 38.7289L13.698 37.9597L14.3518 37.9597L14.3518 39.9595L13.698 39.9595L13.698 39.2288L13.1211 39.2288L13.1211 39.9595L12.4674 39.9595L12.4674 37.9597ZM14.7748 37.9597L16.39 37.9597L16.39 38.4212L15.4286 38.4212L15.4286 38.6904L16.3131 38.6904L16.3131 39.1903L15.4286 39.1903L15.4286 39.4595L16.4284 39.4595L16.4284 39.9595L14.7748 39.9595L14.7748 37.9597ZM18.9666 38.0751C19.1204 38.152 19.2358 38.2674 19.3127 38.4212C19.3896 38.575 19.4281 38.7289 19.4281 38.9596C19.4281 39.1519 19.3896 39.3442 19.3127 39.498C19.2358 39.6518 19.082 39.7672 18.9666 39.8441C18.8512 39.921 18.6205 39.9595 18.4282 39.9595L17.5822 39.9595L17.5822 37.9597L18.4282 37.9597C18.6205 37.9597 18.8128 37.9982 18.9666 38.0751ZM18.7359 39.3057C18.8128 39.2288 18.8512 39.075 18.8512 38.9596C18.8512 38.8058 18.8128 38.6904 18.7359 38.6135C18.6589 38.5366 18.582 38.4981 18.4282 38.4981L18.1975 38.4981L18.1975 39.498L18.4282 39.498C18.582 39.4595 18.6589 39.3826 18.7359 39.3057ZM19.7742 37.9597L20.3895 37.9597L20.3895 39.9595L19.7742 39.9595L19.7742 37.9597ZM20.9279 37.9597L22.4662 37.9597L22.4662 38.4212L21.5817 38.4212L21.5817 38.8058L22.3893 38.8058L22.3893 39.3057L21.5817 39.3057L21.5817 39.9595L20.9279 39.9595L20.9279 37.9597ZM22.8123 37.9597L24.3891 37.9597L24.3891 38.4212L23.4661 38.4212L23.4661 38.8058L24.3121 38.8058L24.3121 39.3057L23.4661 39.3057L23.4661 39.9595L22.8123 39.9595L22.8123 37.9597ZM24.6583 37.9597L26.3119 37.9597L26.3119 38.4212L25.312 38.4212L25.312 38.6904L26.1965 38.6904L26.1965 39.1903L25.312 39.1903L25.312 39.4595L26.3119 39.4595L26.3119 39.9595L24.6583 39.9595L24.6583 37.9597ZM27.8502 39.9595L27.6194 39.4595L27.3887 39.4595L27.3887 39.9595L26.7734 39.9595L26.7734 37.9597L27.6964 37.9597C27.9656 37.9597 28.1578 38.0366 28.3117 38.152C28.4655 38.2674 28.5424 38.4597 28.5424 38.6904C28.5424 38.8442 28.504 38.9596 28.4655 39.075C28.427 39.1903 28.3501 39.2673 28.2348 39.3442L28.6193 39.9979L27.8502 39.9979L27.8502 39.9595ZM27.3503 38.9211L27.6579 38.9211C27.7348 38.9211 27.7733 38.8827 27.8117 38.8442C27.8502 38.8058 27.8886 38.7289 27.8886 38.6904C27.8886 38.6135 27.8502 38.575 27.8117 38.5366C27.7733 38.4981 27.7348 38.4597 27.6579 38.4597L27.3503 38.4597L27.3503 38.9211ZM28.8501 37.9597L30.4653 37.9597L30.4653 38.4212L29.5038 38.4212L29.5038 38.6904L30.3499 38.6904L30.3499 39.1903L29.5038 39.1903L29.5038 39.4595L30.5037 39.4595L30.5037 39.9595L28.8501 39.9595L28.8501 37.9597ZM32.1958 37.9597L32.7727 37.9597L32.7727 39.9595L32.2343 39.9595L31.5036 38.9211L31.5036 39.9595L30.9268 39.9595L30.9268 37.9597L31.4267 37.9597L32.1958 38.9596L32.1958 37.9597ZM34.3494 38.5366C34.2725 38.4981 34.1956 38.4597 34.1187 38.4597C34.0418 38.4597 33.9649 38.4981 33.9264 38.5366C33.8495 38.575 33.811 38.6519 33.7726 38.6904C33.7341 38.7673 33.7341 38.8442 33.7341 38.9596C33.7341 39.0365 33.7726 39.1134 33.7726 39.2288C33.811 39.3057 33.8495 39.3442 33.9264 39.3826C34.0033 39.4211 34.0418 39.4595 34.1187 39.4595C34.1956 39.4595 34.2725 39.4211 34.3494 39.3826C34.4264 39.3442 34.5033 39.2673 34.5802 39.2288L34.9263 39.6518C34.8109 39.7672 34.6956 39.8826 34.5417 39.9595C34.3879 40.0364 34.2341 40.0749 34.0802 40.0749C33.888 40.0749 33.7341 40.0364 33.5803 39.9595C33.4265 39.8826 33.3111 39.7287 33.2342 39.5749C33.1573 39.4211 33.1188 39.2288 33.1188 39.0365C33.1188 38.8442 33.1573 38.6519 33.2342 38.4981C33.3111 38.3443 33.4649 38.2289 33.5803 38.152C33.7341 38.0751 33.9264 38.0366 34.1187 38.0366C34.2725 38.0366 34.4264 38.0751 34.5417 38.152C34.6956 38.2289 34.8109 38.3058 34.8878 38.4212L34.5417 38.8827C34.5033 38.6519 34.4264 38.575 34.3494 38.5366ZM35.234 37.9597L36.8491 37.9597L36.8491 38.4212L35.8493 38.4212L35.8493 38.6904L36.7338 38.6904L36.7338 39.1903L35.8493 39.1903L35.8493 39.4595L36.8876 39.4595L36.8876 39.9595L35.234 39.9595L35.234 37.9597Z" fill="#BBBBBB"/>
<path d="M6.69885 23.8459C7.19879 23.8459 7.77565 23.4998 8.00639 23.1152L20.7741 4.9635C21.0433 4.54047 21.0433 3.8867 20.8126 3.46367L19.082 0.310191C18.8513 -0.112837 18.4667 -0.112837 18.236 0.310191L5.73742 23.0383C5.50668 23.4614 5.69896 23.8459 6.16045 23.8459L6.69885 23.8459ZM10.3523 23.1537C10.0446 23.5383 10.1984 23.8459 10.6599 23.8459L11.506 23.8459C11.9675 23.8459 12.3136 23.5767 12.6597 23.2306L24.6198 12.3857C24.966 12.0781 25.2352 11.4627 24.966 11.0397L23.4661 8.34772C23.1969 7.88624 22.8508 7.96315 22.5432 8.34772L10.3523 23.1537ZM14.8517 23.8459C14.3903 23.8459 14.5056 23.6536 14.9287 23.3844L26.1966 15.7699C27.1965 15.1162 27.3118 15.3469 27.581 15.7699L28.6963 17.7697C28.927 18.1927 28.6578 18.6158 28.2348 18.808L17.2361 23.4998C16.8131 23.6921 16.3516 23.8459 16.1208 23.8459L14.8517 23.8459ZM19.5051 23.8459C19.0436 23.8459 19.0051 23.769 19.3128 23.7306L30.0423 21.9615C30.773 21.8462 30.9653 21.9231 31.1191 22.2307L31.5806 23.0768C31.8113 23.4998 31.5421 23.8459 31.0806 23.8459L19.5051 23.8459Z" fill="#BBBBBB"/>
</g>
<defs>
<clipPath id="fae">
<rect width="36.4189" height="39.9954" fill="white" transform="translate(0.46875 0.00244141)"/>
</clipPath>
</defs>
</svg>
