<svg width="102" height="16" viewBox="0 0 102 16" fill="none" xmlns="http://www.w3.org/2000/svg">
<g clip-path="url(#reform)">
<path d="M76.2238 16.001L92.5759 16.001C92.6343 16.001 93.3935 16.001 93.7439 15.1834L94.4447 13.7818L89.1887 13.7818L89.1887 10.2193C89.1887 9.92734 88.9551 9.69374 88.6631 9.69374L88.4295 9.69374C88.1375 9.69374 87.8455 9.92734 87.8455 10.2193L87.8455 13.7234L87.6703 13.7818L81.7135 13.7818L81.7135 3.67853L75.7566 15.9426L75.6982 16.001L76.2238 16.001ZM89.1887 3.85373C89.1887 3.56173 88.9551 3.32813 88.6631 3.32813L88.4295 3.32813C88.1375 3.32813 87.8455 3.56173 87.8455 3.85373L87.8455 5.31373C87.8455 5.60573 88.0791 5.83933 88.4295 5.83933L88.6631 5.83933C88.9551 5.83933 89.1887 5.60573 89.1887 5.31373L89.1887 3.85373Z" fill="#BBBBBB"/>
<path d="M85.3927 8.35049L93.9775 8.35049C94.6783 8.35049 95.2623 8.93449 95.2623 9.57689L95.2623 12.2049L101.044 0.641671C101.102 0.524871 101.161 0.29127 101.102 0.11607C100.986 -0.000730234 100.869 -0.000730237 100.752 -0.000730239L84.3999 -0.000730597C84.3415 -0.000730598 83.5823 -0.000730615 83.2319 0.816871L82.6479 2.04327L94.0359 2.04327C94.7367 2.04327 95.3207 2.62728 95.3207 3.26968L95.3207 5.95608C95.3207 6.59849 94.7367 7.18249 94.0359 7.18249L85.4511 7.18249C85.1591 7.18249 84.8671 7.41609 84.8671 7.70809L84.8671 7.88329C84.8671 8.11689 85.1007 8.35049 85.3927 8.35049ZM10.1733 13.6649L10.2901 13.4897L10.2901 9.46009L10.2317 9.22649L10.1149 9.10969L9.93972 8.93449L9.70612 8.87609L9.47252 8.75929C9.12211 8.75929 8.83011 8.75929 8.47971 8.70089C8.12931 8.70089 7.83731 8.64249 7.48691 8.64249L7.42851 8.64249L7.07811 8.35049L6.96131 8.23369L6.96131 7.76649L7.13651 7.53289L7.37011 7.41608L8.36291 7.41608C8.71331 7.35768 9.00532 7.35769 9.41412 7.35769L9.58932 7.29928L9.88132 7.18248L9.93972 7.06568L10.0565 6.94888L10.0565 6.89048C10.0565 6.83208 10.1149 6.77368 10.1733 6.71528L10.1733 3.38648L10.1149 3.15288L10.1149 2.91927L9.93972 2.74407L9.64772 2.56887L9.53092 2.51047L9.41412 2.45207L1.6469 2.45207L1.4717 2.56887L1.4133 2.56887C1.3549 2.62727 1.2965 2.68567 1.2381 2.68567C1.2381 2.68567 1.1797 2.74407 1.1213 2.74407L1.0045 2.97767C0.946095 3.09447 0.946095 3.15287 0.887695 3.21128L0.887695 13.1977L1.0045 13.5481C1.0045 13.6065 1.0629 13.6649 1.1213 13.6649C1.1797 13.7233 1.1797 13.7817 1.2381 13.7817L1.3549 13.8985L1.5301 14.0153L4.2165 14.0153L4.3917 13.9569L4.6253 13.8401L4.8589 13.5481C4.91731 13.4313 4.9173 13.4313 4.9757 13.2561L4.9757 9.75209C5.03411 9.57689 5.09251 9.40169 5.09251 9.28489L5.15091 9.22649L5.38451 9.10969L5.73491 9.05129L6.08531 9.22649L6.14371 9.46009L6.20211 9.69369L6.20211 13.0809C6.20211 13.1393 6.26051 13.1977 6.26051 13.2561C6.26051 13.3145 6.26051 13.3729 6.31891 13.3729L6.49411 13.7233L6.61091 13.8401L6.84451 13.9569L7.31171 14.0153L9.58932 14.0153L9.88132 13.8985L9.99812 13.7817C10.0565 13.7817 10.1149 13.7233 10.1733 13.6649ZM6.02691 7.12408L5.73491 7.24088L5.44291 7.24088L5.15091 7.12408L5.03411 6.94888C4.9757 6.94888 4.9757 6.83208 4.9173 6.77368L4.97571 6.59848L4.97571 4.55448L5.09251 4.32088L5.20931 4.20408L5.44291 4.08728L5.85171 4.08728L6.02691 4.20408L6.08531 4.26248C6.14371 4.37928 6.20211 4.55448 6.26051 4.72968L6.26051 6.83208L6.02691 7.12408ZM20.8605 13.7817L20.9773 13.6065L21.0357 13.4897L21.0357 12.2049C21.0357 12.0881 21.0357 12.0297 20.9773 11.9129L20.7437 11.5625L20.7437 11.5041C20.6853 11.4457 20.6269 11.3873 20.5685 11.3873L20.5101 11.3873C20.3349 11.3873 20.1597 11.3289 19.9261 11.3289C19.8093 11.3289 19.4589 11.3289 18.9333 11.2705C18.5245 11.2705 17.8821 11.2121 17.1813 11.2121L17.1229 11.2121L16.9477 11.1537L16.6557 10.8617L16.5973 10.6281C16.5389 10.5697 16.5389 10.4529 16.5389 10.2193L16.5389 10.1609L16.7141 9.81049C16.8309 9.69369 16.8893 9.63529 17.0645 9.51849L17.1813 9.46009C17.7653 9.40169 18.4661 9.40169 19.0501 9.34329C19.5173 9.34329 19.9261 9.28489 20.3933 9.28489L20.6269 9.16809C20.6269 9.16809 20.6853 9.10969 20.7437 9.10969C20.8021 9.05129 20.8605 9.05129 20.8605 8.99289L20.9773 8.70089L20.9773 7.18249L20.9189 7.06568C20.9189 7.06568 20.9189 7.00728 20.8605 7.00728C20.8021 6.94888 20.8021 6.89048 20.7437 6.89048L20.7437 7.00728C20.7437 7.00728 20.6269 6.94888 20.5101 6.94888C19.6925 6.89048 18.8165 6.89048 17.9989 6.89048L17.6485 6.89048L17.2397 6.83208L16.8893 6.71528L16.4805 6.42328L16.4805 5.54728L16.7725 5.25528L17.0645 5.19688L17.3565 5.08008L20.1597 5.08008L20.5101 4.96328C20.6269 4.90488 20.6853 4.84648 20.8605 4.84648L20.9189 4.67128L21.0357 4.37928L21.0357 3.26968L20.9773 2.97767C20.9189 2.91927 20.8605 2.91928 20.8605 2.80247L20.8021 2.68567L20.5685 2.51047L20.1597 2.45207L12.9181 2.45207L12.7429 2.51047L12.5093 2.86087L12.3341 3.21128L12.3341 13.4313L12.3925 13.6649L12.5677 13.8985L12.8013 14.0153L12.9181 14.0737L20.4517 14.0737L20.6269 13.9569L20.8605 13.7817ZM28.6862 9.46009C29.2118 9.46009 29.6206 9.40169 29.9126 9.40169C30.263 9.40169 30.555 9.40169 30.6718 9.34329C30.9054 9.34329 31.0806 9.34329 31.2558 9.28489L31.3726 9.16809L31.6062 8.93449L31.723 8.81769C31.723 8.70089 31.7814 8.58409 31.8398 8.46729L31.8398 7.41609L31.7814 7.41609C31.723 7.35769 31.6646 7.29929 31.6062 7.18249L31.3726 7.00728L31.0806 6.89048L28.803 6.89048L28.219 6.77368L28.0438 6.59848L27.9854 6.48168L27.9854 5.83928L28.0438 5.66408L28.0438 5.48888L28.3358 5.25528L28.5694 5.25528C28.6278 5.25528 28.6862 5.25528 28.6862 5.19688C29.2702 5.13848 29.8542 5.13848 30.4382 5.08008L31.139 5.02168L31.3142 4.96328L31.4894 4.84648L31.6062 4.72968C31.6062 4.67128 31.6646 4.61288 31.7814 4.55448L31.8398 4.32088L31.8398 3.03608C31.8398 2.97768 31.8398 2.97768 31.7814 2.91928L31.6062 2.74407L31.2558 2.51047L31.1974 2.51047C31.139 2.51047 31.0806 2.51047 31.0222 2.45207L23.8974 2.45207L23.7222 2.51047L23.5469 2.62727C23.4886 2.68567 23.4302 2.74407 23.3134 2.80247L23.1966 2.91927L23.1381 3.03608L23.0797 3.26968L23.0797 13.2561L23.1966 13.5481L23.4885 13.8985C23.6054 13.9569 23.7222 14.0153 23.839 14.0153L27.1678 14.0153L27.4598 13.8985C27.5182 13.8401 27.5766 13.7817 27.7518 13.7233L27.8686 13.5481L27.9854 13.3729L27.9854 11.7961C27.9854 11.3289 27.9854 10.8033 28.0438 10.2193L28.1606 9.86889L28.511 9.51849C28.511 9.57689 28.5694 9.51849 28.6862 9.46009ZM43.403 13.1977L43.403 12.9057L43.4614 12.5553L43.4614 3.44488C43.403 3.32808 43.403 3.32808 43.3446 3.26968L43.3446 3.15288L43.2862 3.03608L43.111 2.80248L42.9358 2.62727L42.819 2.51047L34.8766 2.51047C34.7598 2.51047 34.643 2.56887 34.5262 2.56887L34.4678 2.62727C34.351 2.68567 34.2926 2.74407 34.1758 2.80247L34.0006 2.97768L33.8838 3.21128L33.8254 3.38648L33.8254 13.3145L34.0006 13.7817L34.1758 13.8985L34.351 14.0153L34.8766 14.1321L42.5854 14.1321L42.8774 14.0153C42.9942 13.8985 43.1694 13.7817 43.2278 13.7233L43.403 13.1977ZM39.2566 11.7961L39.1982 12.0881L38.9062 12.3217L38.4974 12.3217L38.147 12.0881C38.0302 11.9713 38.0302 11.8545 37.9718 11.7377L37.9718 4.55448L38.0302 4.37928L38.3222 4.08728L38.7894 4.08728L39.0814 4.20408L39.2566 4.55448L39.2566 11.7961ZM50.7614 13.0809C50.8198 13.1977 50.8198 13.2561 50.8198 13.3145L50.8198 13.4313L50.995 13.7817L51.1702 13.9569L51.287 14.0153L51.7542 14.1321L54.0318 14.1321L54.3238 14.0153L54.4406 13.9569C54.499 13.8985 54.499 13.8401 54.5574 13.8401L54.6742 13.7233L54.791 13.5481L54.791 9.51849L54.7326 9.34329L54.4406 8.99289L54.207 8.87609L53.915 8.75929C53.5646 8.75929 53.2726 8.75929 52.9222 8.70089L52.6886 8.70089C52.455 8.70089 52.163 8.64249 51.9294 8.64249L51.871 8.64249L51.5206 8.40889L51.4038 8.29209L51.4038 7.82489L51.579 7.59129L51.8126 7.47449L52.8054 7.47449C53.1558 7.47449 53.4478 7.41609 53.7398 7.41609L53.7982 7.41609L53.9734 7.35769L54.207 7.24089L54.2654 7.18249L54.3822 7.06569L54.4406 7.00729C54.4406 6.94889 54.499 6.89048 54.5574 6.83208L54.5574 5.25528C54.499 4.90488 54.499 4.61288 54.5574 4.20408C54.6158 3.38648 54.6158 2.91928 53.7982 2.74408L53.6814 2.68567L45.9726 2.68567L45.8558 2.74407L45.739 2.74407C45.6806 2.80248 45.6222 2.80248 45.6222 2.86088C45.5638 2.91928 45.5054 2.91928 45.447 2.91928L45.2718 3.21128C45.2134 3.32808 45.2134 3.38648 45.2134 3.38648L45.2134 13.3145L45.3302 13.6649C45.3302 13.7233 45.447 13.8401 45.447 13.8985L45.6222 14.0737L45.7974 14.1905L46.031 14.2489L48.4838 14.2489L48.6006 14.1905L48.8342 14.0737L48.951 13.8401C49.0094 13.7233 49.0094 13.6649 49.0678 13.4897L49.0678 9.98569C49.1262 9.81049 49.1846 9.63529 49.1846 9.51849L49.243 9.46009L49.4766 9.34329L49.827 9.28489L50.1774 9.46009L50.2942 9.69369L50.3526 9.92729L50.3526 11.6209C50.7614 12.0297 50.7614 12.5553 50.7614 13.0809ZM50.5278 7.12409L50.2358 7.24089L49.9438 7.24089L49.6518 7.12409L49.535 7.00729C49.4766 7.00729 49.4766 6.89048 49.4182 6.71528L49.3598 6.59848L49.3598 4.61288L49.4766 4.37928L49.5934 4.26248L49.8854 4.08728L50.2358 4.14568L50.411 4.26248L50.5278 4.32088C50.6446 4.43768 50.6446 4.61288 50.703 4.72968L50.703 6.83208L50.5278 7.12409ZM71.6103 13.6649L71.7271 13.5481L71.7271 13.3145L71.7855 13.0225L71.7855 3.21128L71.6687 2.97768L71.4935 2.74408C71.4351 2.74408 71.4351 2.68568 71.3767 2.68568C71.3183 2.62728 71.2599 2.56888 71.2015 2.56888C71.0847 2.56888 71.0847 2.51048 71.0263 2.51048C70.9679 2.51048 70.9095 2.45207 70.8511 2.45207L56.7766 2.45207L56.7766 12.9641L56.8934 13.3145L57.0102 13.4897L57.1854 13.7233L57.3022 13.8401L57.5358 13.9569L57.6526 14.0153L60.339 14.0153L60.5726 13.8985L60.7478 13.7233L60.8646 13.5481L60.8646 4.67128L61.0398 4.32088L61.3318 4.14568L61.4486 4.14568C61.5654 4.14568 61.6238 4.20408 61.7406 4.20408L61.799 4.20408L62.0326 4.32088L62.091 4.37928C62.2078 4.55448 62.2078 4.72968 62.2662 4.90488C62.2662 6.36488 62.2662 7.82489 62.3246 9.22649L62.3246 13.4897C62.3246 13.5481 62.3246 13.6065 62.383 13.6065C62.383 13.6649 62.4414 13.7233 62.4414 13.7233L62.5582 13.8401C62.6166 13.8985 62.675 13.9569 62.7334 13.9569L62.7918 13.9569L63.1422 14.0737L65.9455 14.0737L66.0623 14.0153C66.1791 13.9569 66.2375 13.8985 66.3543 13.8401L66.4711 13.6649L66.4711 13.4313L66.5295 13.3145L66.5295 11.9713C66.5295 9.51849 66.5879 7.00729 66.5879 4.61288L66.5879 4.55448L66.7631 4.20408L66.8799 4.08728L67.3471 4.08728L67.5223 4.20408L67.6391 4.26248L67.7559 4.61288L67.7559 8.81769C67.7559 10.0441 67.8143 11.5041 67.8143 13.0225L67.8143 13.1393L67.8727 13.1977C67.8727 13.2561 67.9311 13.3145 67.9895 13.4313L68.1063 13.6065L68.2231 13.7817L68.4567 13.9569L68.5735 14.0153L71.2015 14.0153L71.5519 13.8985L71.6103 13.6649Z" fill="#BBBBBB"/>
</g>
<defs>
<clipPath id="reform">
<rect width="100.273" height="16.0016" fill="white" transform="translate(0.887695 -0.000732422)"/>
</clipPath>
</defs>
</svg>
