<svg width="56" height="57" viewBox="0 0 56 57" fill="none" xmlns="http://www.w3.org/2000/svg">
<path fill-rule="evenodd" clip-rule="evenodd" d="M39 26.5521C40.3333 27.3219 40.3333 29.2464 39 30.0162L21.6667 40.0236C20.3333 40.7934 18.6667 39.8312 18.6667 38.2916L18.6667 18.2768C18.6667 16.7372 20.3333 15.7749 21.6667 16.5447L39 26.5521ZM38.25 28.7172L20.9167 38.7246C20.5833 38.917 20.1667 38.6765 20.1667 38.2916L20.1667 18.2768C20.1667 17.8919 20.5833 17.6513 20.9167 17.8438L38.25 27.8512C38.5833 28.0436 38.5833 28.5247 38.25 28.7172Z" fill="black"/>
<path fill-rule="evenodd" clip-rule="evenodd" d="M2 4.28418C2 3.17961 2.89543 2.28418 4 2.28418H52C53.1046 2.28418 54 3.17961 54 4.28418V52.2842C54 53.3887 53.1046 54.2842 52 54.2842H4C2.89543 54.2842 2 53.3887 2 52.2842V4.28418ZM4 3.78418H52C52.2761 3.78418 52.5 4.00804 52.5 4.28418V52.2842C52.5 52.5603 52.2761 52.7842 52 52.7842H4C3.72386 52.7842 3.5 52.5603 3.5 52.2842V4.28418C3.5 4.00804 3.72386 3.78418 4 3.78418Z" fill="black"/>
</svg>
