<svg width="32" height="32" viewBox="0 0 32 32" fill="none" xmlns="http://www.w3.org/2000/svg">
<path fill-rule="evenodd" clip-rule="evenodd" d="M16.0359 0.5C16.3649 0.49999 16.7716 0.499977 17.1414 0.546529L17.5125 0.593245L17.892 2.92884C18.1704 2.96357 18.4486 3.01043 18.7264 3.06935L19.8725 0.974675L20.2476 1.06911C20.9615 1.24886 21.669 1.51672 22.3269 1.82589L22.6757 1.98981L22.2519 4.29444C22.5069 4.42308 22.7604 4.56477 23.006 4.71979L24.7793 3.18905L25.094 3.39279C25.7231 3.80009 26.3006 4.29348 26.8273 4.82384L27.1013 5.09983L25.8713 7.1502C26.0702 7.36281 26.2591 7.58082 26.437 7.81035L28.6623 6.94838L28.8826 7.29347C29.2678 7.89692 29.6625 8.55801 29.9727 9.22728L30.1355 9.57867L28.3119 11.0736C28.4225 11.326 28.5316 11.5916 28.6232 11.871L31.0084 11.8281L31.1044 12.2148C31.2794 12.9195 31.4098 13.665 31.4966 14.4079L31.5434 14.8085L29.2932 15.5781C29.2997 15.7217 29.2997 15.8589 29.2997 15.9843V16.0157C29.2997 16.1411 29.2997 16.2783 29.2932 16.4219L31.5434 17.1915L31.4966 17.5921C31.4098 18.335 31.2794 19.0805 31.1044 19.7852L31.0084 20.1719L28.6 20.1285C28.5096 20.3838 28.4127 20.655 28.3059 20.9215L30.1281 22.4153L29.9776 22.7617C29.6656 23.48 29.2667 24.1048 28.8913 24.693L28.6623 25.0516L26.4198 24.183C26.2327 24.4092 26.0463 24.6246 25.8622 24.8346L27.1104 26.9154L26.8116 27.1912C26.2942 27.6689 25.728 28.1518 25.1142 28.5934L24.7941 28.8237L22.9942 27.27C22.7614 27.4119 22.5091 27.5633 22.2509 27.7004L22.6757 30.0102L22.3269 30.1741C21.6617 30.4867 20.9577 30.7083 20.291 30.9181L19.8839 31.0462L18.7179 28.9151C18.6821 28.9221 18.6459 28.9292 18.6092 28.9363C18.3799 28.9811 18.1358 29.0287 17.893 29.0651L17.5125 31.4068L17.1414 31.4535C16.7717 31.5 16.4064 31.5 16.037 31.5H16.0063C15.6773 31.5 15.2706 31.5 14.9008 31.4535L14.5297 31.4068L14.1503 29.0712C13.8718 29.0364 13.5937 28.9896 13.3158 28.9306L12.1697 31.0253L11.7947 30.9309C11.0807 30.7511 10.3732 30.4833 9.71535 30.1741L9.36658 30.0102L9.79035 27.7056C9.53539 27.5769 9.2818 27.4352 9.03621 27.2802L7.26294 28.811L6.94825 28.6072C6.31914 28.1999 5.74159 27.7065 5.21498 27.1762L4.94524 26.9045L6.1328 24.8542C5.93237 24.6402 5.74203 24.4208 5.56291 24.1896L3.33758 25.0516L3.11729 24.7065C2.7321 24.1031 2.33738 23.442 2.02726 22.7727L1.86444 22.4213L3.69231 20.923C3.58471 20.6612 3.48737 20.3982 3.39385 20.1287L0.99148 20.1719L0.895506 19.7852C0.720558 19.0805 0.590118 18.335 0.503338 17.5921L0.456543 17.1915L2.70673 16.4219C2.70022 16.2783 2.70023 16.1411 2.70024 16.0157L2.70024 16C2.70024 15.8514 2.71227 15.7061 2.72242 15.5835L0.456543 14.8085L0.503338 14.4079C0.590118 13.665 0.720558 12.9195 0.895506 12.2148L0.99148 11.8281L3.39988 11.8715C3.49035 11.6162 3.58718 11.345 3.69403 11.0785L1.86444 9.57867L2.02726 9.22728C2.33738 8.55801 2.7321 7.89692 3.11729 7.29347L3.33758 6.94838L5.58011 7.81702C5.76856 7.58918 5.95618 7.37234 6.14162 7.16098L4.93646 5.08031L5.23062 4.80875C5.74806 4.33106 6.3142 3.84815 6.92801 3.40661L7.24817 3.1763L9.04803 4.73C9.2808 4.5881 9.5331 4.43667 9.79129 4.29955L9.36658 1.98981L9.71535 1.82589C10.3806 1.51324 11.0846 1.29169 11.7514 1.08184L12.1583 0.953776L13.3243 3.08486C13.3601 3.07791 13.3964 3.07083 13.433 3.06368C13.6623 3.01892 13.9064 2.97128 14.1493 2.93495L14.5297 0.593245L14.9008 0.546529C15.2706 0.499981 15.6359 0.499991 16.0053 0.5L16.0359 0.5ZM16.6482 1.50923C16.4457 1.50027 16.2329 1.5 16.0211 1.5C15.7886 1.5 15.5851 1.50025 15.3941 1.5087L15.0134 3.85196L14.6243 3.88461C14.3116 3.91086 14.0197 3.96826 13.6998 4.03119C13.5249 4.06559 13.3416 4.10164 13.142 4.13515L12.7913 4.19401L11.6755 2.15482C11.2652 2.28623 10.8699 2.4199 10.4912 2.57653L10.9133 4.87209L10.5593 5.03417C10.2 5.19863 9.84142 5.4175 9.47713 5.63985C9.40358 5.68474 9.32979 5.72977 9.25573 5.77453L8.94513 5.96221L7.1963 4.45257C6.85185 4.71575 6.52146 4.99294 6.20487 5.27501L7.36766 7.28253L7.12941 7.55246C6.78988 7.93715 6.45977 8.31131 6.13054 8.72577L5.90162 9.01395L3.74268 8.17769C3.51455 8.54716 3.29559 8.92448 3.10341 9.30126L4.9138 10.7853L4.75612 11.1347C4.59806 11.4849 4.46615 11.857 4.33155 12.2366C4.29496 12.3398 4.25817 12.4436 4.2206 12.5476L4.09908 12.8842L1.77572 12.8424C1.68424 13.2593 1.60815 13.69 1.54765 14.1248L3.74256 14.8755V15.233C3.74256 15.3816 3.73052 15.5269 3.72037 15.6496L3.7197 15.6577C3.70883 15.7891 3.70024 15.8963 3.70024 16C3.70024 16.2622 3.70134 16.4769 3.73585 16.6854L3.80497 17.1031L1.54765 17.8752C1.60815 18.31 1.68424 18.7407 1.77572 19.1576L4.10933 19.1156L4.22499 19.465C4.39182 19.9691 4.55482 20.4193 4.75612 20.8653L4.9138 21.2147L3.10341 22.6987C3.29559 23.0755 3.51455 23.4528 3.74268 23.8223L5.92514 22.9769L6.1496 23.2999C6.42397 23.6946 6.74139 24.0555 7.10935 24.4261L7.37908 24.6978L6.19744 26.7378C6.51309 27.0359 6.84207 27.3123 7.1842 27.5579L8.96604 26.0197L9.28523 26.2448C9.6782 26.5218 10.1157 26.7628 10.5593 26.9658L10.9133 27.1279L10.4906 29.4269C10.8759 29.5935 11.2717 29.7406 11.668 29.859L12.8062 27.7787L13.1813 27.8731C13.6634 27.9945 14.1443 28.0751 14.6243 28.1154L15.0134 28.148L15.394 30.4908C15.5965 30.4997 15.8093 30.5 16.0211 30.5C16.2537 30.5 16.4572 30.4998 16.6481 30.4913L17.0289 28.148L17.4179 28.1154C17.7307 28.0891 18.0225 28.0317 18.3424 27.9688C18.5173 27.9344 18.7006 27.8984 18.9003 27.8649L19.251 27.806L20.3667 29.8452C20.777 29.7138 21.1723 29.5801 21.551 29.4235L21.1289 27.1279L21.483 26.9658C21.8422 26.8014 22.2008 26.5825 22.5651 26.3601C22.6387 26.3153 22.7124 26.2702 22.7865 26.2255L23.0971 26.0378L24.8459 27.5474C25.1887 27.2856 25.5175 27.0098 25.8326 26.7292L24.6284 24.7219L24.8705 24.4475C25.21 24.0629 25.5402 23.6887 25.8694 23.2742L26.0983 22.9861L28.2592 23.8231C28.492 23.4531 28.711 23.0891 28.9021 22.7034L27.0861 21.2147L27.2438 20.8653C27.4019 20.5151 27.5338 20.143 27.6684 19.7634C27.705 19.6602 27.7418 19.5564 27.7793 19.4524L27.9008 19.1158L30.2242 19.1576C30.3157 18.7407 30.3918 18.31 30.4523 17.8752L28.1949 17.1031L28.2641 16.6854C28.2986 16.4769 28.2997 16.2622 28.2997 16C28.2997 15.7378 28.2986 15.5231 28.2641 15.3146L28.1949 14.8969L30.4523 14.1248C30.3918 13.69 30.3157 13.2593 30.2242 12.8424L27.8603 12.8849L27.7643 12.4983C27.6501 12.038 27.4582 11.6097 27.2438 11.1347L27.0861 10.7853L28.8965 9.30126C28.7043 8.92448 28.4854 8.54716 28.2572 8.17769L26.0748 9.02306L25.8503 8.70014C25.576 8.3054 25.2585 7.94446 24.8906 7.57389L24.6165 7.2979L25.8403 5.25795C25.526 4.96144 25.1985 4.68653 24.858 4.44213L23.0762 5.98027L22.757 5.75525C22.364 5.47822 21.9265 5.23722 21.483 5.03417L21.1289 4.87209L21.5516 2.57306C21.1663 2.40646 20.7706 2.25942 20.3742 2.14102L19.236 4.22135L18.861 4.12691C18.3788 4.00552 17.8979 3.92489 17.4179 3.88461L17.0289 3.85196L16.6482 1.50923Z" fill="#8C754B"/>
<path fill-rule="evenodd" clip-rule="evenodd" d="M15.0654 5.42047V12.0181L14.7339 12.1367C13.1416 12.7066 11.9852 14.18 11.9852 15.9366C11.9852 16.1911 12.0215 16.4518 12.0646 16.754L12.1121 17.0868L6.47133 20.3801L6.25411 19.8458C5.76542 18.6438 5.5 17.3113 5.5 15.9366C5.5 10.6101 9.39926 6.25985 14.4921 5.50539L15.0654 5.42047ZM16.9346 5.46275L17.5079 5.54768C22.602 6.30232 26.5 10.696 26.5 15.9789C26.5 17.3535 26.2346 18.686 25.7459 19.8881L25.5287 20.4224L19.8879 17.1291L19.9354 16.7962C19.9785 16.4941 20.0148 16.2334 20.0148 15.9789C20.0148 14.1702 18.8925 12.7099 17.2795 12.1836L16.9346 12.071V5.46275ZM14.0654 6.59733C9.73781 7.50896 6.5 11.3169 6.5 15.9366C6.5 16.9781 6.6681 17.9901 6.97967 18.9253L11.0291 16.5611C11.0045 16.3614 10.9852 16.1502 10.9852 15.9366C10.9852 13.846 12.282 12.1049 14.0654 11.3267V6.59733ZM17.9346 6.63983V11.3593C19.7643 12.1054 21.0148 13.859 21.0148 15.9789C21.0148 16.1925 20.9955 16.4037 20.9709 16.6034L25.0203 18.9676C25.3319 18.0324 25.5 17.0204 25.5 15.9789C25.5 11.3985 22.2611 7.55444 17.9346 6.63983ZM16 14.3224C15.0957 14.3224 14.3481 15.0701 14.3481 15.9789C14.3481 16.8876 15.0957 17.6353 16 17.6353C16.9043 17.6353 17.6519 16.8876 17.6519 15.9789C17.6519 15.0278 16.9465 14.3224 16 14.3224ZM13.3481 15.9789C13.3481 14.5198 14.5414 13.3224 16 13.3224C17.5008 13.3224 18.6519 14.4775 18.6519 15.9789C18.6519 17.4379 17.4586 18.6353 16 18.6353C14.5414 18.6353 13.3481 17.4379 13.3481 15.9789ZM13.1089 18.746L13.3802 18.9892C14.0918 19.6273 14.9806 19.9987 16.0671 19.9612L16.0758 19.9609H16.0844C17.0945 19.9609 17.9952 19.5873 18.7155 18.9794L18.9853 18.7518L24.642 22.0544L24.2811 22.5064C22.3349 24.9443 19.367 26.5 16.0422 26.5C12.7206 26.5 9.70712 24.9467 7.79987 22.5021L7.44805 22.0511L13.1089 18.746ZM8.95581 22.3288C10.6842 24.2795 13.2406 25.5 16.0422 25.5C18.8407 25.5 21.3631 24.2816 23.1236 22.3259L19.08 19.965C18.2463 20.5795 17.2273 20.959 16.0931 20.9609C14.8761 21.001 13.8387 20.6239 12.9957 19.9701L8.95581 22.3288Z" fill="#8C754B"/>
</svg>
