<svg width="37" height="40" viewBox="0 0 37 40" fill="none" xmlns="http://www.w3.org/2000/svg">
<g clip-path="url(#clip0)">
<path d="M10.5377 30.7683L4.61527 30.7683C4.38453 30.7683 4.34607 30.8836 4.34607 31.1144L4.34607 34.9985C4.34607 35.7292 4.7691 36.1907 5.42287 36.1907C6.03819 36.1907 6.46121 35.6523 6.46121 34.9985L6.46121 32.9988L10.5377 32.9988C11.0761 32.9988 11.5375 32.4988 11.5375 31.8835C11.5375 31.2682 11.0761 30.7683 10.5377 30.7683ZM11.153 25.6535L5.38442 25.6535C4.7691 25.6535 4.30762 26.1919 4.30762 26.7303L4.30762 29.8068C4.30762 29.8838 4.38453 30.0376 4.53836 29.9222L6.26893 28.9608C6.3843 28.8839 6.42276 28.807 6.42276 28.6916L6.42276 27.9224L11.153 27.9224C11.6914 27.9224 12.1529 27.4225 12.1529 26.8072C12.1529 26.1919 11.6914 25.6535 11.153 25.6535ZM24.4976 29.9222L26.2282 28.9608C26.3435 28.8839 26.382 28.807 26.382 28.6531L26.382 27.9224L31.0737 27.9224C31.6121 27.884 32.0352 27.384 32.0352 26.8072C32.0352 26.2303 31.5737 25.6919 31.0737 25.6919L25.3052 25.6919C24.6899 25.6919 24.2284 26.2303 24.2284 26.7687L24.2284 29.8453C24.2668 29.8838 24.3438 29.9991 24.4976 29.9222ZM30.2277 32.9603C30.7661 32.9603 31.1891 32.4604 31.1891 31.8835C31.1891 31.2682 30.7661 30.7683 30.2277 30.7683L24.536 30.7683C24.3438 30.7683 24.2668 30.8452 24.2668 31.0375L24.2668 34.7678C24.2668 35.5754 24.6899 36.1523 25.3436 36.1523L31.1122 36.1523C31.6506 36.1523 32.0736 35.6523 32.0736 35.037C32.0736 34.4217 31.6121 33.9218 31.1122 33.9218L26.382 33.9218L26.382 32.9988L30.2277 32.9603ZM17.4599 30.7298L14.3449 30.7298C14.0757 30.7298 13.8834 30.8452 13.8065 31.0759L11.999 34.5371C11.8837 34.7294 11.8452 34.8832 11.8452 35.0755C11.8452 35.6908 12.3067 36.1907 12.922 36.1907C13.4219 36.1907 13.6911 35.9215 13.9603 35.46L14.1142 35.1908L15.2679 32.9603L17.4215 32.9603C17.9599 32.9603 18.4214 32.4604 18.4214 31.8451C18.3829 31.2298 17.9599 30.7683 17.4599 30.7298ZM23.1516 34.5755L18.8444 26.2688C18.4983 25.6535 18.1137 25.3843 17.5369 25.3843C16.9985 25.3843 16.5754 25.6535 16.2293 26.2688L14.5757 29.4223C14.4987 29.6146 14.5757 29.7299 14.8064 29.6146C14.8449 29.6146 16.5754 28.8839 17.2677 28.5762C17.4599 28.4993 17.5753 28.5762 17.6907 28.7685L21.1903 35.46C21.4595 35.8831 21.6902 36.1907 22.2286 36.1907C22.8439 36.1907 23.3054 35.6908 23.3054 35.0755C23.3054 34.9216 23.267 34.7678 23.1516 34.5755Z" fill="#E28530"/>
<path d="M0 37.9597L0.65377 37.9597L1.11526 38.9981L1.6152 37.9597L2.26897 37.9597L2.26897 39.9595L1.73057 39.9595L1.73057 38.8442L1.346 39.7672L0.92297 39.7672L0.538399 38.8442L0.538399 39.9595L-4.37064e-08 39.9595L0 37.9597ZM4.07645 39.9595L3.99954 39.6903L3.26885 39.6903L3.15348 39.9595L2.53817 39.9595L3.34577 37.9597L3.99954 37.9597L4.76868 39.9595L4.07645 39.9595ZM3.42268 39.1903L3.84571 39.1903L3.65342 38.6135L3.42268 39.1903ZM6.96073 39.9595L6.19159 39.9595L5.80702 39.2673L5.61473 39.4595L5.61473 39.9595L4.99942 39.9595L4.99942 37.9597L5.61473 37.9597L5.61473 38.6904L6.19159 37.9597L6.92227 37.9597L6.23005 38.7289L6.96073 39.9595ZM7.26839 37.9597L8.88359 37.9597L8.88359 38.4212L7.92216 38.4212L7.92216 38.6904L8.80667 38.6904L8.80667 39.1903L7.92216 39.1903L7.92216 39.4595L8.92204 39.4595L8.92204 39.9595L7.26839 39.9595L7.26839 37.9597ZM9.96038 37.9597L11.6525 37.9597L11.6525 38.4597L11.1141 38.4597L11.1141 39.9595L10.4988 39.9595L10.4988 38.4597L9.96038 38.4597L9.96038 37.9597ZM11.9986 37.9597L12.6524 37.9597L12.6524 38.7289L13.2292 38.7289L13.2292 37.9597L13.883 37.9597L13.883 39.9595L13.2292 39.9595L13.2292 39.2288L12.6524 39.2288L12.6524 39.9595L11.9986 39.9595L11.9986 37.9597ZM14.306 37.9597L15.9212 37.9597L15.9212 38.4212L14.9598 38.4212L14.9598 38.6904L15.8443 38.6904L15.8443 39.1903L14.9598 39.1903L14.9598 39.4595L15.9597 39.4595L15.9597 39.9595L14.306 39.9595L14.306 37.9597ZM18.4979 38.0751C18.6517 38.152 18.7671 38.2674 18.844 38.4212C18.9209 38.575 18.9593 38.7289 18.9593 38.9596C18.9593 39.1519 18.9209 39.3442 18.844 39.498C18.7671 39.6518 18.6132 39.7672 18.4979 39.8441C18.3825 39.921 18.1517 39.9595 17.9595 39.9595L17.1134 39.9595L17.1134 37.9597L17.9595 37.9597C18.1517 37.9597 18.344 37.9982 18.4979 38.0751ZM18.2671 39.3057C18.344 39.2288 18.3825 39.075 18.3825 38.9596C18.3825 38.8058 18.344 38.6904 18.2671 38.6135C18.1902 38.5366 18.1133 38.4981 17.9595 38.4981L17.7287 38.4981L17.7287 39.498L17.9595 39.498C18.1133 39.4595 18.1902 39.3826 18.2671 39.3057ZM19.3055 37.9597L19.9208 37.9597L19.9208 39.9595L19.3055 39.9595L19.3055 37.9597ZM20.4592 37.9597L21.9974 37.9597L21.9974 38.4212L21.1129 38.4212L21.1129 38.8058L21.9205 38.8058L21.9205 39.3057L21.1129 39.3057L21.1129 39.9595L20.4592 39.9595L20.4592 37.9597ZM22.3436 37.9597L23.9203 37.9597L23.9203 38.4212L22.9973 38.4212L22.9973 38.8058L23.8434 38.8058L23.8434 39.3057L22.9973 39.3057L22.9973 39.9595L22.3436 39.9595L22.3436 37.9597ZM24.1895 37.9597L25.8432 37.9597L25.8432 38.4212L24.8433 38.4212L24.8433 38.6904L25.7278 38.6904L25.7278 39.1903L24.8433 39.1903L24.8433 39.4595L25.8432 39.4595L25.8432 39.9595L24.1895 39.9595L24.1895 37.9597ZM27.3814 39.9595L27.1507 39.4595L26.92 39.4595L26.92 39.9595L26.3046 39.9595L26.3046 37.9597L27.2276 37.9597C27.4968 37.9597 27.6891 38.0366 27.8429 38.152C27.9968 38.2674 28.0737 38.4597 28.0737 38.6904C28.0737 38.8442 28.0352 38.9596 27.9968 39.075C27.9583 39.1903 27.8814 39.2673 27.766 39.3442L28.1506 39.9979L27.3814 39.9979L27.3814 39.9595ZM26.8815 38.9211L27.1892 38.9211C27.2661 38.9211 27.3045 38.8827 27.343 38.8442C27.3814 38.8058 27.4199 38.7289 27.4199 38.6904C27.4199 38.6135 27.3814 38.575 27.343 38.5366C27.3045 38.4981 27.2661 38.4597 27.1892 38.4597L26.8815 38.4597L26.8815 38.9211ZM28.3813 37.9597L29.9965 37.9597L29.9965 38.4212L29.0351 38.4212L29.0351 38.6904L29.8812 38.6904L29.8812 39.1903L29.0351 39.1903L29.0351 39.4595L30.035 39.4595L30.035 39.9595L28.3813 39.9595L28.3813 37.9597ZM31.7271 37.9597L32.3039 37.9597L32.3039 39.9595L31.7655 39.9595L31.0349 38.9211L31.0349 39.9595L30.458 39.9595L30.458 37.9597L30.958 37.9597L31.7271 38.9596L31.7271 37.9597ZM33.8807 38.5366C33.8038 38.4981 33.7269 38.4597 33.6499 38.4597C33.573 38.4597 33.4961 38.4981 33.4577 38.5366C33.3807 38.575 33.3423 38.6519 33.3038 38.6904C33.2654 38.7673 33.2654 38.8442 33.2654 38.9596C33.2654 39.0365 33.3038 39.1134 33.3038 39.2288C33.3423 39.3057 33.3807 39.3442 33.4577 39.3826C33.5346 39.4211 33.573 39.4595 33.6499 39.4595C33.7269 39.4595 33.8038 39.4211 33.8807 39.3826C33.9576 39.3442 34.0345 39.2673 34.1114 39.2288L34.4575 39.6518C34.3422 39.7672 34.2268 39.8826 34.073 39.9595C33.9191 40.0364 33.7653 40.0749 33.6115 40.0749C33.4192 40.0749 33.2654 40.0364 33.1115 39.9595C32.9577 39.8826 32.8423 39.7287 32.7654 39.5749C32.6885 39.4211 32.6501 39.2288 32.6501 39.0365C32.6501 38.8442 32.6885 38.6519 32.7654 38.4981C32.8423 38.3443 32.9962 38.2289 33.1115 38.152C33.2654 38.0751 33.4577 38.0366 33.6499 38.0366C33.8038 38.0366 33.9576 38.0751 34.073 38.152C34.2268 38.2289 34.3422 38.3058 34.4191 38.4212L34.073 38.8827C34.0345 38.6519 33.9576 38.575 33.8807 38.5366ZM34.7652 37.9597L36.3804 37.9597L36.3804 38.4212L35.3805 38.4212L35.3805 38.6904L36.265 38.6904L36.265 39.1903L35.3805 39.1903L35.3805 39.4595L36.4189 39.4595L36.4189 39.9595L34.7652 39.9595L34.7652 37.9597Z" fill="#E28530"/>
<path d="M6.2301 23.8459C6.73004 23.8459 7.3069 23.4998 7.53764 23.1152L20.3054 4.9635C20.5746 4.54047 20.5746 3.8867 20.3438 3.46367L18.6133 0.310191C18.3825 -0.112837 17.998 -0.112837 17.7672 0.310191L5.26867 23.0383C5.03793 23.4614 5.23021 23.8459 5.6917 23.8459L6.2301 23.8459ZM9.88352 23.1537C9.57586 23.5383 9.72969 23.8459 10.1912 23.8459L11.0372 23.8459C11.4987 23.8459 11.8448 23.5767 12.1909 23.2306L24.1511 12.3857C24.4972 12.0781 24.7664 11.4627 24.4972 11.0397L22.9974 8.34772C22.7282 7.88624 22.3821 7.96315 22.0744 8.34772L9.88352 23.1537ZM14.383 23.8459C13.9215 23.8459 14.0369 23.6536 14.4599 23.3844L25.7278 15.7699C26.7277 15.1162 26.8431 15.3469 27.1123 15.7699L28.2276 17.7697C28.4583 18.1927 28.1891 18.6158 27.7661 18.808L16.7673 23.4998C16.3443 23.6921 15.8828 23.8459 15.6521 23.8459L14.383 23.8459ZM19.0363 23.8459C18.5748 23.8459 18.5364 23.769 18.844 23.7306L29.5735 21.9615C30.3042 21.8462 30.4965 21.9231 30.6503 22.2307L31.1118 23.0768C31.3426 23.4998 31.0734 23.8459 30.6119 23.8459L19.0363 23.8459Z" fill="#E28530"/>
</g>
<defs>
<clipPath id="clip0">
<rect width="36.4189" height="39.9954" fill="white" transform="translate(0 0.00244141)"/>
</clipPath>
</defs>
</svg>
