<svg width="91" height="20" viewBox="0 0 91 20" fill="none" xmlns="http://www.w3.org/2000/svg">
<g clip-path="url(#clip0)">
<path d="M70.8221 10.6631L70.8221 3.52393L67.8815 3.52393L67.8815 12.845L68.6059 12.845L70.8221 12.845L77.181 12.845L77.181 10.6631L70.8221 10.6631Z" fill="#01A346"/>
<path d="M39.5107 5.92504L39.5107 12.845L42.226 12.845L42.226 3.52393L37.6433 3.52393L35.0568 8.98394L32.4704 3.52393L27.8877 3.52393L27.8877 12.845L30.6029 12.845L30.6029 5.92504L34.0641 12.845L36.0496 12.845L39.5107 5.92504Z" fill="#01A346"/>
<path d="M54.01 5.70045L54.01 3.52393L46.6692 3.52393L45.4296 3.52393L43.7339 3.52393L43.7339 12.845L45.4296 12.845L46.6692 12.845L54.01 12.845L54.01 10.6631L46.6692 10.6631L46.6692 9.11763L53.5539 9.11763L53.5539 7.21919L46.6692 7.21919L46.6692 5.70045L54.01 5.70045Z" fill="#01A346"/>
<path d="M90.1938 14.1392L27.9468 14.1392L27.9468 16.2248L90.1938 16.2248L90.1938 14.1392Z" fill="#01A346"/>
<path d="M90.0114 4.83942C89.9416 4.6683 89.8504 4.51856 89.7431 4.38487C89.2977 3.79127 88.5894 3.40625 87.7845 3.40625L86.2551 3.40625C86.0941 3.40625 85.9277 3.40625 85.7668 3.40625L84.6828 3.40625L83.4218 3.40625L82.4505 3.40625C82.252 3.40625 82.0534 3.40625 81.8549 3.40625L80.347 3.40625C79.6655 3.40625 79.0484 3.68431 78.603 4.13352C78.1576 4.51855 77.8947 5.10146 77.8947 5.98918L77.8947 10.3208C77.8947 11.262 78.1898 11.8609 78.6835 12.2406C79.1181 12.6471 79.703 12.8931 80.347 12.8931L81.2807 12.8931C81.6617 12.9091 82.0534 12.9091 82.4505 12.9091L83.4218 12.9091L84.6828 12.9091L85.7882 12.9091C86.1424 12.9091 86.4912 12.9091 86.8239 12.8931L87.7791 12.8931C88.5089 12.8931 89.1635 12.5722 89.6089 12.0695C89.8021 11.8717 89.9524 11.631 90.0543 11.3262C90.1509 11.0641 90.2046 10.7807 90.2046 10.4866L90.2046 5.81272C90.2207 5.46511 90.1455 5.13355 90.0114 4.83942ZM81.1466 10.5775C80.8031 10.5775 80.5241 10.3208 80.5241 10.0053L80.5241 6.31004C80.5241 5.99453 80.8031 5.73783 81.1466 5.73783L86.9634 5.73783C87.3068 5.73783 87.5859 5.99453 87.5859 6.31004L87.5859 10.0053C87.5859 10.3208 87.3068 10.5775 86.9634 10.5775L81.1466 10.5775Z" fill="#01A346"/>
<path d="M55.11 3.52391L55.11 12.845L58.0506 12.845L58.0506 5.82877L62.9123 5.82877C63.4114 5.82877 63.7655 6.3582 63.7655 6.82345C63.7655 7.32079 63.4275 7.75395 62.7675 7.75395L58.496 7.75395L64.0982 12.845L67.3394 12.845L63.5455 9.4866C66.2554 9.4866 66.4808 7.83417 66.4808 6.52933C66.4808 3.96778 65.1446 3.51855 63.3792 3.51855L55.11 3.51855L55.11 3.52391Z" fill="#01A346"/>
<path fill-rule="evenodd" clip-rule="evenodd" d="M24.227 10.3018C24.227 10.3018 24.2326 10.1755 24.2326 10.0492L24.2326 9.95036C24.227 9.82407 24.227 9.69781 24.227 9.69781C24.205 8.86872 24.1387 7.1666 23.8848 5.05817C23.6585 3.42744 23.079 2.25791 22.1572 1.58805C21.3896 1.02485 20.52 0.915648 20.0356 0.854812L20.0156 0.852298C16.196 0.46795 14.2918 0.308709 12.393 0.292237L12.0729 0.292237C10.1687 0.308709 8.2644 0.47344 4.45036 0.852298L4.44055 0.853546C3.9635 0.914221 3.0817 1.02638 2.30877 1.58805C1.387 2.25791 0.807425 3.42195 0.581122 5.05817C0.321701 7.1666 0.255482 8.86872 0.238923 9.69781C0.238923 9.69781 0.233398 9.82407 0.233398 9.95036L0.233398 10.0492C0.238918 10.1755 0.238923 10.3018 0.238923 10.3018C0.261002 11.1309 0.32722 12.833 0.581122 14.9414C0.807425 16.5722 1.387 17.7417 2.30877 18.4115C3.07635 18.9747 3.94593 19.0839 4.43036 19.1448L4.45036 19.1473C8.26992 19.5316 10.1742 19.6909 12.0729 19.7073L12.3986 19.7073C14.2973 19.6909 16.196 19.5261 20.0156 19.1473L20.0254 19.146C20.5025 19.0854 21.3843 18.9732 22.1572 18.4115C23.079 17.7417 23.6585 16.5776 23.8848 14.9414C24.1443 12.833 24.2105 11.1309 24.227 10.3018ZM3.64361 16.2352L7.64675 16.2352L11.1133 13.7539L12.9431 16.2352L15.8515 16.2352L18.4219 10.4811L18.4327 16.2352L20.7938 16.2352L20.7938 3.83923L17.9819 5.86603L14.2632 14.0213L11.6069 10.4811L3.64361 16.2352ZM5.94569 6.79117L5.94569 14.3421L3.58996 16.016L3.58996 3.52372L5.03882 3.52372C6.40919 3.52372 7.06484 4.33479 7.34013 4.67532C7.34403 4.68016 7.34787 4.6849 7.35162 4.68954L9.91127 8.17622L11.4138 4.866C11.666 4.29914 12.4924 3.52372 13.9788 3.52372L20.783 3.52372L17.6278 5.8981L13.5441 5.8981L11.4943 10.3153L9.60002 11.679L5.94569 6.79117Z" fill="#01A346"/>
<path d="M24.4323 9.70058L24.4269 9.70058C24.4001 8.52408 24.3035 6.89303 24.0942 5.12294C23.5415 1.08008 21.0141 0.711105 19.8657 0.566717C16.2597 0.208421 14.3225 0.0372836 12.4014 0.0212405C12.3478 0.0212405 12.2995 0.0212405 12.2458 0.0212405C12.1921 0.0212405 12.1331 0.0212405 12.0794 0.0212405C10.1584 0.0372836 8.2212 0.20842 4.61516 0.566716C3.46681 0.705756 0.939377 1.07473 0.386666 5.12294C0.17202 6.89303 0.0754197 8.52408 0.0539551 9.70058L0.0485838 9.70058C0.0485838 9.79684 0.0485838 9.90381 0.0485838 10.0108C0.0485838 10.1177 0.0485838 10.2247 0.0485838 10.3209L0.0539551 10.3209C0.0807857 11.4974 0.177386 13.1285 0.386665 14.8986C0.939376 18.9414 3.46681 19.3104 4.61516 19.4548C8.2212 19.8131 10.1584 19.9842 12.0794 20.0003C12.1331 20.0003 12.1814 20.0003 12.2351 20.0003C12.2887 20.0003 12.3478 20.0003 12.4014 20.0003C14.3225 19.9842 16.2597 19.8131 19.8657 19.4548C21.0141 19.3157 23.5415 18.9468 24.0942 14.8986C24.3088 13.1285 24.4054 11.4974 24.4269 10.3209L24.4323 10.3209C24.4323 10.2247 24.4323 10.1177 24.4323 10.0108C24.4323 9.90381 24.4323 9.79684 24.4323 9.70058ZM23.901 10.0589C23.901 10.1819 23.8956 10.3049 23.8956 10.3049C23.8795 11.1124 23.8152 12.7702 23.563 14.8237C23.3429 16.4173 22.7795 17.551 21.8833 18.2034C21.1267 18.7542 20.2628 18.8612 19.8013 18.92C16.0879 19.289 14.242 19.4494 12.396 19.4655C12.396 19.4655 12.2351 19.4655 12.2297 19.4655L12.0794 19.4655C10.2335 19.4494 8.38218 19.2943 4.66882 18.92C4.20197 18.8612 3.3434 18.7596 2.58678 18.2034C1.69063 17.551 1.12717 16.412 0.907164 14.8237C0.660322 12.7702 0.595944 11.1124 0.57448 10.3049C0.57448 10.3049 0.574475 10.1819 0.569108 10.0589C0.569108 10.0482 0.569108 10.0161 0.569108 10.0161C0.569108 10.0161 0.569108 9.97331 0.569108 9.96261C0.569108 9.83961 0.57448 9.71664 0.57448 9.71664C0.590578 8.90913 0.654956 7.25135 0.907164 5.19783C1.12718 3.60422 1.69063 2.47049 2.58678 1.81807C3.3434 1.26726 4.20734 1.16031 4.66882 1.10149C8.37682 0.732495 10.2281 0.572054 12.0794 0.556011L12.0741 0.556011C12.0741 0.556011 12.2351 0.556011 12.2404 0.556011L12.3907 0.556011C14.2366 0.572054 16.0879 0.727148 19.8013 1.10149C20.2682 1.16031 21.1267 1.26191 21.8833 1.81807C22.7795 2.47049 23.3429 3.60956 23.563 5.19783C23.8098 7.25135 23.8742 8.90914 23.8956 9.71664C23.8956 9.71664 23.8956 9.83961 23.901 9.96261C23.901 9.97331 23.901 10.0054 23.901 10.0054C23.901 10.0054 23.901 10.0482 23.901 10.0589Z" fill="#01A346"/>
</g>
<defs>
<clipPath id="clip0">
<rect width="90.2582" height="20.0004" fill="white" transform="translate(0 -0.000244141)"/>
</clipPath>
</defs>
</svg>
