<svg width="101" height="28" viewBox="0 0 101 28" fill="none" xmlns="http://www.w3.org/2000/svg">
<g clip-path="url(#clip0)">
<path d="M2.15214 22.633C1.86136 22.5605 1.86136 21.6903 1.86136 21.5453C1.86136 21.2552 1.86136 20.9651 1.93406 20.6751C1.93406 20.53 2.00675 20.385 2.00675 20.24C2.00675 19.8774 2.15214 19.5148 2.29753 19.2248C2.37022 19.1523 2.37022 19.0072 2.37022 18.9347C2.661 18.1371 3.02448 17.3394 3.38795 16.5417L3.67873 15.9616C3.67873 15.5265 3.89681 15.2364 4.1149 14.8739L4.40568 14.3663C4.62376 14.0037 4.84185 13.6411 5.13263 13.2785C5.20532 13.1335 5.27801 12.9885 5.35071 12.916C5.4234 12.8434 5.4234 12.7709 5.4961 12.6984C5.4961 12.6259 5.56879 12.6259 5.56879 12.5534C5.64149 12.4809 5.64149 12.4084 5.71418 12.3358C5.71418 12.2633 5.64149 12.1183 5.56879 12.0458C5.4961 11.9008 5.4234 11.8282 5.4234 11.6832C5.4961 11.5382 5.71418 11.4657 5.78688 11.4657C6.07766 11.4657 6.22305 11.3931 6.44113 11.2481C6.65922 10.9581 6.8773 10.7405 7.02269 10.4505C7.09538 10.3054 7.16808 10.1604 7.31347 10.0879L7.96772 9.2177C8.11311 9.07267 8.2585 8.85512 8.40389 8.71009L8.54928 8.56506C8.62197 8.49254 8.91275 8.12997 8.91275 7.98494L8.76736 7.98494C8.54928 7.98494 8.3312 8.05745 8.11311 8.12997C7.96772 8.12997 7.89503 8.20248 7.82233 8.20248L7.60425 8.20248C6.58652 8.275 5.64149 8.42003 4.84185 8.63757C4.33298 8.7826 3.96951 8.92764 3.67873 9.07267C3.53334 9.14518 3.38795 9.14518 3.31526 9.2177C3.02448 9.29021 2.80639 9.43524 2.58831 9.58027C2.44292 9.65279 2.37022 9.7253 2.29753 9.79782C2.07944 10.0154 1.86136 10.3054 1.49789 10.3054L1.42519 10.3054C1.06172 10.2329 0.552855 9.87033 0.48016 9.43524C0.262075 8.34751 1.57058 7.62236 2.51561 7.40482C3.53334 7.18727 4.47837 6.89721 5.35071 6.67967C5.56879 6.67967 5.78688 6.60715 6.00496 6.53464C6.44113 6.38961 6.8773 6.24458 7.38616 6.17206C7.67694 6.09955 7.96772 6.09955 8.2585 6.09955C8.54928 6.09955 8.76736 6.09955 9.05814 6.02703C9.27623 5.95452 9.49431 5.95452 9.6397 5.95452C9.78509 5.95452 9.93048 5.882 10.1486 5.882C10.3666 5.80949 10.6574 5.30188 10.7301 5.08434C10.7301 4.9393 10.8028 4.86679 10.8028 4.72176C10.8028 4.57673 10.8755 4.4317 10.8755 4.28667C11.0209 3.99661 11.1663 3.92409 11.3117 3.77906C11.4571 3.70655 11.6025 3.63403 11.7479 3.63403C11.8932 3.63403 11.9659 3.63403 12.1113 3.70655C12.4021 3.85158 12.7656 3.99661 12.8383 4.57673C12.8383 4.86679 12.7656 5.08434 12.7656 5.30188C12.6929 5.44691 12.6929 5.59194 12.6929 5.73697C12.6929 5.95452 12.8383 6.02703 13.1291 6.17206C13.4925 6.31709 13.7833 6.46212 14.0741 6.67967L14.1468 6.75218C14.2195 6.8247 14.3649 6.89721 14.4376 6.89721C14.5829 6.96973 14.6556 7.04224 14.801 7.11476C15.2372 7.3323 15.6734 7.76739 16.0368 8.12997C16.4003 8.42003 16.6184 8.92764 16.8365 9.43524C16.9819 9.94285 16.9092 10.523 16.6184 11.0306C16.1095 11.9733 15.3826 12.6259 14.4376 12.916C13.7106 13.1335 12.6929 13.4236 11.6752 13.4961L11.0209 13.4961C10.6574 13.4961 10.0759 13.4961 9.7124 13.4236C9.49431 13.3511 9.27623 13.3511 9.05814 13.3511C8.84006 13.3511 8.69467 13.4236 8.54928 13.4961C8.04042 13.7861 7.74964 14.3663 7.38616 14.9464C7.24077 15.1639 7.09538 15.454 6.94999 15.6715C6.8773 15.8166 6.65922 16.1066 6.58652 16.1791C6.51383 16.2517 6.44113 16.3967 6.44113 16.4692C6.36844 16.5417 6.36844 16.6142 6.29574 16.6867C6.15035 16.9768 5.93227 17.1944 5.71418 17.4844C5.35071 17.992 4.91454 18.4996 4.62376 19.0072C4.47837 19.2973 4.33298 19.5148 4.1149 19.7324C3.96951 19.9499 3.82412 20.1675 3.67873 20.4575C3.53334 20.7476 3.31526 20.8926 3.16987 21.1102C3.02448 21.2552 2.87909 21.4002 2.80639 21.5453C2.7337 21.6903 2.58831 21.9078 2.51561 22.1254C2.44292 22.4154 2.29753 22.633 2.15214 22.633ZM10.0032 10.5955L10.2213 10.5955C11.1663 10.4505 11.9659 10.0879 12.911 9.7253L13.4198 9.50776C14.0741 9.29021 15.1645 8.85512 15.3099 8.20248C15.3099 8.05745 15.3099 7.98494 15.1645 7.91242C14.5829 7.54985 13.856 7.40482 13.4925 7.25979L12.7656 7.11476C12.6202 7.11476 12.5475 7.04224 12.4748 7.04224C12.3294 7.04224 12.184 7.04224 12.1113 7.11476C11.8932 7.25979 11.7479 7.62236 11.6025 7.91242C11.5298 8.12997 11.3844 8.34751 11.3117 8.49254C11.1663 8.63757 11.0936 8.85512 11.0209 9.00015C10.8755 9.2177 10.7301 9.50776 10.5847 9.7253C10.512 9.79782 10.4393 9.87033 10.4393 9.94285C10.3666 10.0154 10.294 10.0879 10.294 10.2329C10.1486 10.3779 10.0759 10.523 10.0032 10.5955Z" fill="#DA3828"/>
<path d="M16.691 9.29014C16.5456 8.85505 16.2548 8.34744 15.964 8.05738C15.6006 7.69481 15.1644 7.33223 14.8009 7.11468C14.5828 6.96965 14.292 6.82462 14.074 6.75211C13.7832 6.60708 13.4197 6.38953 13.1289 6.2445C12.8382 6.09947 12.5474 6.02696 12.5474 5.66438C12.5474 5.30181 12.8382 5.01175 12.7655 4.57666C12.6928 4.21408 12.4747 3.99654 12.1112 3.85151C11.8931 3.77899 11.675 3.77899 11.457 3.85151C11.3116 3.92402 11.1662 3.99654 11.0208 4.2866C10.9481 4.57666 10.9481 4.7942 10.8754 5.08426C10.8027 5.30181 10.5119 5.95444 10.2211 5.95444C9.85767 6.02696 9.63958 6.02696 9.13072 6.09947C8.54916 6.17199 7.9676 6.17199 7.38604 6.2445C6.73179 6.46205 6.07754 6.67959 5.42329 6.82462C4.47825 7.11468 3.46053 7.40474 2.51549 7.54977C1.78855 7.76732 0.480041 8.41996 0.625431 9.43517C0.698125 9.79774 1.13429 10.0878 1.42507 10.1603C1.86124 10.2328 2.15202 9.72523 2.4428 9.43517C2.80627 9.14511 3.16975 9.07259 3.60592 8.92756C3.96939 8.78253 4.33286 8.6375 4.76903 8.49247C5.71406 8.27493 6.73179 8.1299 7.74952 8.05738C7.9676 8.05738 8.76725 7.76732 8.98533 7.91235C9.13072 8.05738 8.62186 8.6375 8.47647 8.78253C8.11299 9.21762 7.74952 9.65271 7.45874 10.1603C7.16796 10.5954 6.94988 11.0305 6.5864 11.3206C6.36832 11.4656 6.15023 11.5381 5.93215 11.6106C5.85945 11.6106 5.64137 11.6106 5.56867 11.6831C5.56867 11.8282 5.85945 12.1182 5.85945 12.2633C5.85945 12.4808 5.71406 12.5533 5.64137 12.6983C5.49598 12.9159 5.42329 13.1334 5.2779 13.351L4.40556 14.6563C4.18747 15.0913 3.8967 15.4539 3.67861 15.889C3.24244 16.8317 2.73358 17.8469 2.4428 18.7896C2.29741 19.2247 2.15202 19.6598 2.07933 20.0949C2.07933 20.53 1.93394 20.9651 1.93394 21.4002C1.93394 21.7627 2.00663 22.3428 2.15202 22.3428C2.29741 22.4154 2.58819 21.4727 2.80627 21.1101C3.09705 20.7475 3.46053 20.4575 3.67861 20.0224C3.96939 19.5148 4.33286 19.0797 4.62364 18.5721C4.91442 18.0645 5.35059 17.4843 5.71406 16.9767C5.93215 16.7592 6.07754 16.4691 6.29562 16.1791C6.36832 16.034 6.44101 15.889 6.5864 15.6715C6.6591 15.5264 6.73179 15.3814 6.94988 15.1639C7.45874 14.4387 7.82221 13.4235 8.54916 12.9884C8.91263 12.7709 9.4215 12.8434 9.78497 12.9159C10.3665 13.0609 11.3116 12.9884 11.675 12.9884C12.6201 12.9159 13.5651 12.6983 14.4374 12.4083C15.4552 12.1182 16.1094 11.3206 16.4729 10.5954C16.7637 10.3053 16.9091 9.79774 16.691 9.29014ZM13.4197 9.72523C12.402 10.0878 11.3843 10.5229 10.2938 10.7404C10.0758 10.813 10.0031 10.7404 9.78497 10.7404L9.71228 10.7404C9.85767 10.5954 10.0031 10.3779 10.1484 10.2328C10.2938 10.0878 10.3665 9.87026 10.5119 9.72523C10.8027 9.36265 11.0208 8.92756 11.2389 8.56499C11.5296 8.20241 11.675 7.47726 12.1112 7.11468C12.3293 6.96965 12.6201 6.96965 12.9108 7.04217C13.2016 7.11468 13.347 7.11468 13.6378 7.1872C14.2194 7.33223 14.8736 7.47726 15.3825 7.83984C15.5279 7.98487 15.6006 8.05738 15.6006 8.27493C15.3825 9.00008 14.074 9.43517 13.4197 9.72523ZM12.2566 20.8925C12.1112 20.8925 11.9658 20.82 11.9658 20.53C11.8931 20.1674 12.0385 19.8048 12.1112 19.4422L12.1839 19.2972C12.2566 19.0797 12.3293 18.9346 12.402 18.7896L12.4747 18.6446C12.6928 18.2095 12.9108 17.7744 13.1289 17.4118L13.2743 17.1943C13.6378 16.5416 14.074 15.889 14.5101 15.3089L14.8009 14.8738C14.8736 14.7288 15.019 14.5837 15.0917 14.4387C15.3098 14.0761 15.5279 13.7136 15.8186 13.4235C16.3275 12.8434 16.9091 12.1182 17.1271 11.3206C17.1271 11.3206 17.2725 10.813 17.3452 10.6679C17.4179 10.5229 17.5633 10.5229 17.636 10.5229C17.8541 10.5229 18.0722 10.7404 18.1449 10.8855C18.5083 11.248 18.581 11.8282 18.581 12.1907L18.581 12.4083C18.581 12.6258 18.6537 12.9159 18.581 13.1334C18.5083 13.4235 18.4356 13.7136 18.2903 13.9311L18.2176 14.0761C17.8541 14.8738 17.4179 15.744 16.7637 16.7592C16.6183 17.0493 16.4002 17.2668 16.1821 17.4843C16.0367 17.6294 15.8913 17.7744 15.8186 17.9194L15.7459 17.8469C15.6732 17.9919 15.5279 18.137 15.2371 18.3545L15.019 18.5721C14.8736 18.7171 14.8009 18.7896 14.6555 18.8621C14.292 19.1522 13.9286 19.3697 13.6378 19.5873L13.4924 19.7323L13.2743 19.9499L13.2016 20.0949C13.0562 20.2399 12.9835 20.3849 12.8382 20.53C12.5474 20.7475 12.402 20.8925 12.2566 20.8925Z" fill="#DA3828"/>
<path d="M12.2561 19.2972C12.3288 19.0796 12.4015 18.9346 12.4742 18.6446C12.6923 18.137 12.9831 17.6293 13.2738 17.1943C13.71 16.3966 14.2916 15.5989 14.8004 14.8738C15.0912 14.4387 15.4547 13.8586 15.8182 13.4235C16.327 12.8434 16.9813 12.0457 17.1267 11.248C17.1267 11.103 17.2721 10.7404 17.3447 10.6679C17.5628 10.3778 17.7809 10.6679 17.9263 10.8129C18.2171 11.1755 18.2898 11.6831 18.3625 12.0457C18.3625 12.3357 18.4352 12.6258 18.3625 12.9159C18.2898 13.2059 18.1444 13.5685 17.999 13.8586C17.5628 14.8013 17.054 15.6714 16.5451 16.4691C16.2543 16.9042 15.8908 17.1943 15.6001 17.5568C15.4547 17.7019 15.382 17.8469 15.0185 18.137C14.8004 18.282 14.655 18.4995 14.437 18.6446C14.0735 18.9346 13.7827 19.1522 13.4192 19.3697C13.2738 19.5147 13.1284 19.5873 12.9831 19.8048C12.8377 19.9498 12.6923 20.1674 12.5469 20.3849C12.3288 20.6025 12.038 20.8925 11.9653 20.4574C12.038 20.0949 12.1834 19.5873 12.2561 19.2972ZM19.8891 22.1253C19.5983 22.1253 19.3075 22.0528 19.0167 21.8352C18.5806 21.5452 18.2898 21.2551 17.999 20.82C17.7809 20.4574 17.5628 20.0223 17.4174 19.5873C17.3447 19.2247 17.1994 18.9346 17.1267 18.6446C17.1267 18.572 17.054 18.4995 16.9813 18.427C16.8359 18.282 16.7632 18.137 16.6905 17.9919C16.6905 17.8469 16.6905 17.7744 16.7632 17.7019C16.9086 17.5568 17.1267 17.5568 17.3447 17.5568L17.4901 17.5568C18.0717 17.5568 18.5806 17.9194 19.0894 18.2095C19.2348 18.282 19.3075 18.3545 19.4529 18.427C19.5983 18.4995 19.671 18.572 19.7437 18.6446C19.9618 18.7896 20.1071 18.9346 20.3979 18.9346L20.616 18.9346C21.2703 18.9346 21.9972 18.4995 22.0699 17.8469C22.1426 17.2668 21.7791 16.9767 21.4157 16.6141C20.0345 15.3814 20.1071 13.351 20.7614 11.9732C20.7614 11.9007 20.8341 11.8281 20.8341 11.7556C20.9068 11.6106 20.9795 11.3931 21.1249 11.248C21.1976 11.103 21.2703 11.0305 21.343 10.8854C21.4157 10.8129 21.4883 10.6679 21.561 10.5954C21.9245 10.0878 22.5061 9.65269 22.8695 9.29011C22.8695 9.29011 23.7419 8.49245 24.3961 8.34742C24.7596 8.34742 25.0504 8.2749 25.4139 8.2749L25.9954 8.2749C26.4316 8.34742 27.0132 8.41993 27.3039 8.85502C27.5947 9.2176 27.522 9.65269 27.2312 10.0878C27.2312 10.0878 27.0858 10.4504 26.6497 10.8129L26.577 10.8854C26.5043 10.958 26.3589 11.103 26.0681 11.248C25.9227 11.3205 25.7773 11.3931 25.5593 11.4656C25.5593 11.4656 25.1231 11.5381 24.9777 11.6106L24.7596 11.6831C24.6142 11.6831 24.4688 11.7556 24.3234 11.7556C23.8873 11.9007 23.3057 12.1907 23.0149 12.4808L22.7969 12.6983L22.5788 12.9159C22.288 13.2059 21.9972 13.5685 21.7064 14.0761C21.4883 14.5112 21.4883 14.9463 21.7064 15.3089C21.8518 15.5989 22.0699 15.889 22.288 16.1065C22.4334 16.2516 22.5788 16.4691 22.7242 16.6141C23.0149 17.0492 23.0876 17.8469 23.0876 18.282C23.0149 18.8621 22.5788 19.5873 22.3607 19.8048C22.2153 20.0223 21.9972 20.2399 21.8518 20.4574C21.7064 20.6025 21.561 20.82 21.4157 20.965C21.343 21.0376 21.343 21.1101 21.2703 21.1826C21.0522 21.4726 20.8341 21.7627 20.5433 21.9077C20.2525 22.0528 20.1071 22.1253 19.8891 22.1253Z" fill="#DA3828"/>
<path d="M19.3077 18.5719C19.6712 18.7895 19.8893 19.007 20.3254 19.0795C21.0524 19.1521 22.0701 18.717 22.1428 17.8468C22.2155 17.1941 21.852 16.9041 21.4159 16.5415C20.18 15.3813 20.18 13.4959 20.8343 12.0456C20.9797 11.7555 21.0524 11.538 21.1978 11.3204L21.6339 10.6678C21.9974 10.2327 22.5063 9.72509 22.9424 9.43503C22.9424 9.43503 23.7421 8.70988 24.3963 8.49233C24.9052 8.3473 25.3414 8.3473 25.8502 8.41982C26.2137 8.49233 26.7953 8.56485 27.0133 8.92742C27.2314 9.29 27.1587 9.65257 26.9407 9.94263C26.9407 9.94263 26.7953 10.3052 26.3591 10.5953C26.2137 10.7403 26.141 10.8853 25.7775 11.0304C25.7048 11.1029 25.5595 11.1754 25.2687 11.2479C25.2687 11.2479 24.8325 11.3204 24.6871 11.3929C24.469 11.4655 24.2509 11.4655 24.0329 11.538C23.5967 11.683 22.9424 11.9731 22.6517 12.2631L22.2155 12.6982C21.852 13.0608 21.5612 13.4959 21.3432 13.931C21.1251 14.3661 21.1251 14.8737 21.3432 15.3088C21.6339 15.8164 21.9974 16.1789 22.3609 16.614C22.579 16.9766 22.7244 17.7017 22.6517 18.1368C22.579 18.6444 22.2882 19.2246 21.9974 19.5871C21.7066 20.0222 21.3432 20.3848 21.0524 20.7474C20.8343 21.0374 20.6162 21.4725 20.2527 21.6901C19.8166 21.9076 19.3077 21.8351 18.8715 21.545C18.4354 21.3275 18.2173 20.9649 17.9265 20.6024C17.7084 20.2398 17.4903 19.8772 17.4176 19.4421C17.3449 19.1521 17.1996 18.7895 17.1269 18.4994C17.0542 18.2819 16.6907 18.1368 16.6907 17.9193C16.618 17.6292 17.0542 17.6292 17.2723 17.6292C18.1446 17.7743 18.7261 18.2094 19.3077 18.5719ZM19.5985 8.85491L19.5258 8.78239C19.3077 8.49233 19.6712 7.62215 19.6712 7.54964C19.8166 6.96952 20.0347 6.53442 20.3254 6.09933C20.4708 5.88179 20.6162 5.73676 20.6889 5.51921C20.7616 5.37418 20.8343 5.22915 20.9797 5.08412C21.1251 4.86658 21.2705 4.57652 21.4159 4.21394C21.4159 4.14143 21.4159 4.14143 21.4885 4.06891C21.4885 3.70634 21.6339 3.19873 21.9974 3.19873L22.0701 3.19873L22.1428 3.27125C22.2155 3.48879 22.2882 3.63382 22.3609 3.85137C22.4336 4.06891 22.579 4.35897 22.579 4.57652L22.6517 4.79406C22.7244 5.15664 22.7971 5.4467 22.7971 5.88179L22.7971 6.31688C22.7971 6.67945 22.7971 7.04203 22.579 7.40461C22.2882 7.8397 21.852 8.12976 21.6339 8.27479C21.2705 8.49233 20.907 8.56485 20.6162 8.56485L20.2527 8.56485C20.1073 8.56485 20.0347 8.63736 19.962 8.63736C19.8893 8.63736 19.8166 8.70988 19.7439 8.70988L19.5985 8.70988L19.5985 8.85491Z" fill="#DA3828"/>
<path d="M20.3986 6.17202C20.6167 5.80945 20.8347 5.51939 21.0528 5.22933C21.2709 4.93927 21.4163 4.64921 21.489 4.28663C21.5617 4.06909 21.6344 3.34394 21.9979 3.41645C22.0705 3.85154 22.3613 4.28663 22.434 4.72172C22.5067 5.22933 22.6521 5.51939 22.5794 6.02699C22.5067 6.5346 22.6521 6.96969 22.3613 7.4773C22.1432 7.83987 21.7798 8.12993 21.489 8.34748C21.1982 8.56502 20.8347 8.56502 20.544 8.63754C20.3986 8.63754 20.2532 8.56502 20.1078 8.63754C19.9624 8.63754 19.817 8.78257 19.6716 8.78257C19.3808 8.9276 19.6716 7.69484 19.7443 7.62233C19.8897 7.04221 20.1078 6.60712 20.3986 6.17202ZM24.1787 22.4154L24.106 22.3429C23.8879 21.9803 24.6876 19.5873 24.6876 19.4423C25.051 18.5721 25.4872 17.5569 26.0688 16.6142C26.0688 16.5417 26.1415 16.5417 26.1415 16.4692C26.2141 16.3967 26.2868 16.2516 26.2868 16.1791L25.778 16.1791C25.3418 16.1791 24.8329 16.0341 24.6149 16.0341C24.106 15.889 23.5971 15.8165 23.161 15.3814C22.9429 15.0914 22.7248 14.4387 23.0156 14.0762C23.0883 14.0037 23.161 14.0037 23.2337 14.0037C23.3791 14.0037 23.4517 14.1487 23.5244 14.2212C23.5244 14.2937 23.5971 14.2937 23.5971 14.3662C23.6698 14.5113 23.8152 14.5113 23.9606 14.5113C24.3968 14.5113 24.8329 14.4387 25.1964 14.3662L25.5599 14.2212C25.9961 14.0762 26.4322 13.9311 26.9411 13.7861C27.45 13.6411 27.8861 13.4235 28.1042 13.206C28.395 12.9159 28.5404 12.6259 28.7585 12.3358C28.8312 12.1908 28.9039 12.0457 28.9765 11.9732C29.0492 11.8282 29.1219 11.6832 29.2673 11.6107C29.4127 11.4656 29.4854 11.2481 29.6308 11.1031C29.7762 10.8855 29.9216 10.5954 30.1397 10.3779C30.2124 10.2329 30.3578 10.0878 30.4304 9.94281C30.5758 9.72527 30.7212 9.50772 30.7939 9.36269C30.8666 9.21766 31.012 9.00011 31.1574 8.78257C31.2301 8.71005 31.3028 8.56502 31.3755 8.49251C31.5936 8.27496 31.8116 7.9849 31.8116 7.62233L31.8116 7.25975C31.8116 6.89718 31.8843 6.5346 32.1751 6.31706C32.2478 6.24454 32.3932 6.24454 32.4659 6.24454C32.7567 6.24454 33.0475 6.5346 33.1928 6.75215C33.5563 7.54981 33.3382 8.34748 33.0475 9.00011C32.9021 9.58023 32.6113 10.0878 32.3205 10.668C32.2478 10.813 32.1751 10.8855 32.1024 11.0305C31.8843 11.3206 31.6663 11.6832 31.5936 12.0457C31.739 12.0457 31.8843 11.9732 32.1024 11.9007C32.3205 11.8282 32.4659 11.8282 32.6113 11.7557C32.7567 11.7557 32.8294 11.6832 32.9748 11.6832C33.3382 11.6107 33.7017 11.4656 33.9925 11.3931L34.1379 11.3206C34.5014 11.2481 34.7194 11.0305 35.0102 10.7405L35.2283 10.5229C35.7372 10.1604 36.0279 9.94281 36.4641 9.79778C36.9003 9.58023 37.4818 9.50772 37.918 9.4352L37.918 9.29017L37.9907 9.21766C38.0634 9.14514 38.1361 9.07263 38.2815 9.07263C38.4269 9.07263 38.5723 9.14514 38.645 9.29017C38.863 9.65275 39.1538 10.3054 39.1538 10.7405L39.1538 11.5381C39.0811 11.9732 39.0084 12.1908 38.9357 12.1908C38.863 12.5534 38.4269 12.9884 38.0634 13.351C37.4818 13.9311 36.6095 14.1487 35.7372 14.3662L35.4464 14.4387C35.0829 14.5113 34.6467 14.5838 34.356 14.8013C33.9925 15.0189 33.7744 15.3814 33.629 15.8165L33.4109 16.2516C33.3382 16.4692 33.2655 16.6142 33.1202 16.7592C32.8294 17.1943 32.6113 17.6294 32.4659 18.0645C32.3932 18.3546 32.4659 18.7897 32.7567 18.8622C32.9021 18.8622 33.0475 18.9347 33.1928 18.9347C33.5563 18.9347 33.8471 18.8622 34.2106 18.7897C34.574 18.7171 34.9375 18.4271 35.2283 18.0645L35.3737 17.9195C35.5191 17.7019 35.6645 17.5569 35.8099 17.4119C35.9552 17.2668 36.0279 17.1218 36.1733 17.0493L36.246 16.9043C36.5368 16.5417 36.9003 16.1066 37.1911 15.6715C37.4818 15.3089 37.6999 14.9464 37.9907 14.5838C38.1361 14.4387 38.3542 14.2212 38.4996 14.0037C38.7903 13.7136 39.0084 13.4235 39.2265 13.1335L39.59 12.6259C40.0262 12.0457 40.4623 11.4656 40.8258 10.813C40.8985 10.668 41.0439 10.4504 41.1893 10.2329C41.262 10.1604 41.3347 10.0153 41.4074 9.79778L41.4074 9.72527C41.4074 9.58024 41.4801 9.29017 41.6254 9.21766L41.6981 9.21766C41.7708 9.21766 41.8435 9.21766 41.9162 9.29017C42.207 9.58023 42.2797 10.7405 42.2797 11.1031C42.2797 11.4656 42.1343 11.7557 42.0616 12.0457C41.9889 12.2633 41.9162 12.5534 41.8435 12.7709C41.9162 12.6984 42.0616 12.6259 42.1343 12.5534C42.207 12.4808 42.2797 12.4808 42.2797 12.4083C42.4251 12.3358 42.4978 12.2633 42.6432 12.1908C42.7886 12.1183 42.9339 11.9732 43.0793 11.9007C43.152 11.8282 43.2974 11.8282 43.3701 11.7557C43.5155 11.6832 43.6609 11.6107 43.879 11.4656C44.4605 11.1031 45.1148 10.7405 45.6963 10.4504C45.9144 10.3779 46.1325 10.3054 46.2779 10.1604L46.4233 10.0153C46.496 9.94281 46.5687 9.79778 46.7141 9.72527L47.2229 9.72527C47.5137 9.72527 47.7318 9.8703 47.8772 10.0153C48.2407 10.4504 48.3134 11.2481 48.2407 11.7557L48.168 11.9732C48.0226 12.9884 47.8045 14.0037 47.441 14.9464C47.2229 15.454 47.0775 15.889 46.8595 16.3967C46.7141 16.7592 46.496 17.0493 46.3506 17.3393C46.2052 17.5569 46.1325 17.7744 45.9871 17.992C45.551 18.7897 45.0421 19.4423 44.2425 19.9499L43.5882 20.385C43.4428 20.53 43.2247 20.6025 43.0793 20.7476C42.8612 20.8926 42.7886 20.8926 42.6432 20.9651L42.6432 21.1101C42.5705 21.1101 42.5705 21.1826 42.4978 21.1826C42.3524 21.2552 42.0616 21.4002 41.9162 21.4002C41.6981 21.4002 41.5527 21.3277 41.4801 21.1101C41.4074 20.9651 41.4074 20.675 41.4801 20.4575L41.4801 20.385C41.5527 20.0949 41.6254 19.5148 41.9162 19.1522L41.9889 19.0072C42.0616 18.8622 42.1343 18.7897 42.207 18.6446L42.4251 18.2095C42.4978 18.137 42.4978 18.0645 42.5705 17.992C42.7886 17.5569 43.0793 17.1943 43.3701 16.8317L43.8063 16.2516C44.0244 15.9616 44.2425 15.6715 44.3878 15.454C44.6059 15.1639 44.7513 14.8738 44.9694 14.6563C45.2726 14.1025 45.6126 13.5695 45.9871 13.061C46.0598 12.8434 46.2052 12.6984 46.2779 12.4808C46.3506 12.3358 46.4233 12.1183 46.5687 11.9732C46.6414 11.8282 46.7141 11.5381 46.496 11.3931C46.4233 11.3206 46.4233 11.3206 46.3506 11.3206C46.2779 11.3206 46.1325 11.3931 45.9871 11.4656C45.769 11.6107 45.4783 11.7557 45.2602 11.9732L44.824 12.1183C44.6059 12.2633 43.9517 12.6984 43.4428 13.1335C43.0066 13.4961 42.5705 13.9311 42.1343 14.3662L41.8435 14.6563L41.3347 15.1639L41.1166 15.3814L40.3896 16.1066C40.2442 16.2516 40.1715 16.3241 40.0989 16.4692C40.0262 16.5417 39.9535 16.6867 39.8081 16.7592L39.5173 17.0493L39.3719 17.1943C39.0811 17.4844 38.863 17.7744 38.645 17.992L38.4269 18.282C37.7726 19.0072 37.0457 19.7323 36.3187 20.3125C36.1733 20.385 36.1006 20.53 35.9552 20.675C35.8099 20.8201 35.6645 20.9651 35.5191 21.0376C35.3737 21.1826 35.2283 21.2552 35.0102 21.2552C34.7921 21.2552 34.574 21.1101 34.356 20.8201C34.2833 20.7476 34.2833 20.6025 34.2106 20.53C34.2106 20.4575 34.1379 20.385 34.1379 20.3125C34.1379 20.3125 34.0652 20.3125 33.9925 20.4575C33.7017 20.8201 33.3382 20.9651 32.9021 20.9651C32.6113 20.9651 32.3205 20.8926 32.0297 20.675C31.8116 20.53 31.6663 20.385 31.5209 20.1674C31.2301 19.7323 31.0847 19.2973 30.9393 18.5721C30.8666 17.992 30.8666 17.4844 30.9393 16.9768L30.9393 16.8317C31.012 16.1791 31.2301 15.744 31.5209 15.1639C31.8116 14.6563 32.1024 14.0762 32.5386 13.5686C32.6113 13.4961 32.684 13.4235 32.7567 13.2785C32.6113 13.351 32.4659 13.351 32.3932 13.4235L32.2478 13.4961C32.0297 13.5686 31.8843 13.7136 31.5209 13.9311C31.3028 14.0762 31.0847 14.2212 30.8666 14.4387C30.5758 14.6563 30.2851 14.8738 29.8489 15.1639C29.4854 15.3814 29.1946 15.9616 29.0492 16.3967C28.9765 16.5417 28.9039 16.6142 28.9039 16.6867C28.8312 16.8317 28.7585 16.9768 28.6131 17.1218C28.4677 17.4119 28.2496 17.7019 28.1042 17.992L27.8134 18.4996C27.3773 19.2247 26.8684 19.9499 26.2868 20.6025C25.9961 20.9651 25.7053 21.2552 25.3418 21.5452C25.1964 21.6903 25.051 21.7628 24.9783 21.8353L24.8329 21.9803C24.8329 21.9803 24.7603 22.0528 24.7603 22.1253C24.6149 22.3429 24.4695 22.4879 24.3241 22.4879L24.1787 22.4154ZM37.6999 10.5954C37.5545 10.5954 37.3365 10.668 37.1911 10.7405C37.0457 10.813 36.4641 11.2481 36.3187 11.4656C36.0279 11.7557 35.8099 12.0457 35.5918 12.3358C35.5191 12.4808 35.3737 12.6259 35.2283 12.7709C35.1556 12.9159 35.0829 13.061 35.2283 13.206L35.3737 13.206C35.5191 13.206 35.6645 13.1335 35.8099 13.061C36.246 12.6984 36.6822 12.4808 37.1911 12.1908L37.4818 12.0457C37.918 11.7557 38.2088 11.3206 38.2815 11.0305C38.2815 10.958 38.2815 10.8855 38.2088 10.813C38.0634 10.668 37.918 10.5954 37.6999 10.5954Z" fill="#DA3828"/>
<path d="M46.7867 9.94269C46.5686 10.0152 46.5686 10.2328 46.4232 10.3778C46.2778 10.5228 45.9871 10.6678 45.8417 10.7404C45.1874 11.0304 44.6059 11.393 44.0243 11.7556C43.8062 11.9006 43.5154 12.0456 43.2246 12.1907C42.9339 12.3357 42.6431 12.5532 42.3523 12.6983C42.2069 12.7708 41.8434 13.1334 41.6254 13.0608C41.6254 12.4082 41.9888 11.9006 42.0615 11.248C42.0615 10.6678 41.9161 9.43509 41.6254 9.5076C41.48 9.58012 41.48 9.87018 41.48 10.0152C41.48 10.3053 41.3346 10.4503 41.2619 10.5228C41.1165 10.6678 41.0438 10.9579 40.8984 11.1029C40.4622 11.9006 39.8807 12.6257 39.2991 13.4234C38.9357 13.931 38.3541 14.4386 38.0633 14.8737C37.7725 15.2363 37.4818 15.5989 37.2637 15.9614C36.9729 16.3965 36.6094 16.8316 36.3186 17.1942C36.1733 17.4117 36.0279 17.5568 35.8825 17.7018C35.7371 17.8468 35.519 18.1369 35.3736 18.3544C35.0828 18.717 34.7194 19.0071 34.2832 19.0796C33.7743 19.1521 33.1928 19.2971 32.7566 19.1521C32.3931 19.0796 32.3204 18.4995 32.3931 18.2094C32.5385 17.7018 32.7566 17.2667 33.0474 16.8316C33.1928 16.6141 33.2655 16.324 33.4109 16.1065C33.6289 15.5989 33.7743 15.1638 34.2832 14.8012C34.7194 14.5111 35.2282 14.5111 35.7371 14.3661C36.5367 14.2211 37.4091 14.0035 37.9906 13.4234C38.2814 13.1334 38.7176 12.6257 38.7903 12.3357C38.7903 12.3357 38.9357 12.1181 38.9357 11.6831C38.9357 11.4655 39.0084 11.4655 39.0084 10.8854C39.0084 10.4503 38.7176 9.87018 38.4995 9.43509C38.4268 9.36257 38.2087 9.21754 38.136 9.36257C38.136 9.36257 38.2087 9.5076 37.9906 9.65263C37.4818 9.65263 36.9729 9.79766 36.6094 9.94269C36.1733 10.1602 35.8825 10.3053 35.4463 10.6678C35.0828 10.9579 34.7194 11.3205 34.2832 11.4655C33.847 11.6105 33.4836 11.6831 33.0474 11.8281C32.7566 11.9006 32.5385 11.9006 32.2477 11.9731C32.0297 12.0456 31.8116 12.1181 31.5208 12.1181C31.5208 11.538 32.0297 11.0304 32.2477 10.5228C32.5385 10.0152 32.8293 9.43509 32.9747 8.92748C33.1928 8.20233 33.5562 7.33215 33.1928 6.46197C33.0474 6.17191 32.6839 5.88185 32.3931 6.09939C32.0297 6.31694 32.175 6.96957 32.1024 7.33215C32.0297 7.83975 31.5935 8.20233 31.3754 8.49239C31.0846 8.85497 30.9392 9.29006 30.6485 9.72515C30.3577 10.1602 30.0669 10.5228 29.8488 10.8854C29.6307 11.1754 29.4126 11.538 29.2673 11.8281C28.9765 12.2632 28.7584 12.6983 28.3949 13.1334C28.1041 13.4959 27.5953 13.641 27.1591 13.786C26.5775 13.931 26.0687 14.1486 25.4871 14.2936C25.1237 14.4386 24.6875 14.4386 24.2513 14.4386C24.0332 14.4386 23.8878 14.3661 23.8151 14.2211C23.6698 14.076 23.6698 13.786 23.4517 14.0035C23.1609 14.2936 23.379 14.8737 23.5971 15.0913C23.9605 15.5264 24.4694 15.5989 24.9783 15.7439C25.269 15.8164 25.9233 15.9614 26.3595 15.8889C26.5049 15.8889 26.7229 15.8164 26.7956 15.9614C26.7956 16.1065 26.5775 16.3965 26.5775 16.469C26.0687 17.3392 25.6325 18.3544 25.1963 19.2971C25.051 19.5872 24.324 22.0527 24.6148 22.0527C24.7602 22.0527 24.9783 21.6901 25.051 21.6176C25.269 21.4726 25.4144 21.3276 25.5598 21.1825C25.9233 20.8925 26.2141 20.6024 26.5049 20.2398C27.2318 19.4422 27.7407 18.572 28.3222 17.7018C28.613 17.2667 28.8311 16.8316 29.1219 16.324C29.34 15.9614 29.7034 15.0187 30.1396 14.7287C30.8665 14.2211 31.3027 13.8585 31.8843 13.4959C32.2477 13.2059 32.4658 13.1334 32.7566 12.9883C32.7566 12.9883 33.3382 12.7708 33.4836 12.8433C33.4836 12.8433 33.2655 13.2059 33.0474 13.3509C32.6112 13.786 32.3204 14.3661 32.0297 14.8737C31.7389 15.3813 31.5208 15.8889 31.4481 16.469C31.3754 17.0492 31.3754 17.6293 31.4481 18.2094C31.5208 18.717 31.6662 19.2971 31.957 19.7322L32.3931 20.1673C32.9747 20.6024 33.6289 20.5299 34.1378 19.9498C34.574 19.5147 34.574 19.9498 34.7921 20.3123C35.0101 20.6749 35.3009 20.82 35.6644 20.5299C35.9552 20.3123 36.1733 20.0948 36.464 19.8047C37.191 19.2246 37.9179 18.4995 38.4995 17.7743C38.7903 17.4843 39.1537 17.0492 39.4445 16.6866L39.8807 16.2515C40.0988 16.034 40.2442 15.7439 40.4622 15.5989L41.1892 14.8737C41.4073 14.6562 41.6254 14.3661 41.9161 14.1486C42.425 13.641 43.0066 13.0608 43.5154 12.6257C43.9516 12.2632 44.5332 11.8281 44.9693 11.6105C45.2601 11.393 45.6963 11.1029 45.987 10.9579C46.2778 10.8129 46.4959 10.7404 46.714 10.8854C46.9321 11.1029 46.9321 11.4655 46.7867 11.6831C46.5686 12.0456 46.4232 12.4082 46.2051 12.7708C45.9871 13.1334 45.6963 13.5684 45.4055 14.0035C45.1147 14.4386 44.8966 14.8737 44.6059 15.2363C44.3878 15.5264 44.0243 16.1065 43.7335 16.3965C43.4427 16.8316 43.0793 17.2667 42.8612 17.7018C42.7158 17.9194 42.5704 18.1369 42.4977 18.3544C42.425 18.572 42.3523 18.717 42.2069 18.862C41.9888 19.2246 41.8434 19.6597 41.7708 20.0948C41.7708 20.2398 41.6981 20.5299 41.7708 20.7474C41.9888 21.1825 42.4977 20.82 42.7885 20.6749C43.0066 20.6024 43.0793 20.5299 43.2973 20.3849C43.6608 20.0948 44.0243 19.8773 44.4605 19.5872C45.1874 19.0796 45.6963 18.427 46.1324 17.6293C46.4232 17.1217 46.7867 16.6141 47.0048 16.034C47.2229 15.5264 47.3683 15.0913 47.5863 14.5837C47.9498 13.5684 48.1679 12.4807 48.3133 11.393C48.2406 10.9579 47.9498 9.43509 46.7867 9.94269ZM35.0828 12.6257C35.519 12.1181 35.7371 11.7556 36.1733 11.3205C36.1733 11.3205 36.9729 10.6678 37.1183 10.5953C37.5545 10.3778 38.0633 10.4503 38.2814 10.6678C38.5722 10.9579 38.2087 11.6831 37.5545 12.1181C36.9729 12.4807 36.3913 12.7708 35.8825 13.2059C35.6644 13.3509 35.2282 13.4234 35.1555 13.2784C34.9374 13.0608 34.9374 12.7708 35.0828 12.6257Z" fill="#DA3828"/>
<path d="M47.8771 23.648C47.8044 23.648 47.659 23.5755 47.5864 23.3579C47.441 22.9228 47.5864 22.4152 47.659 21.9801L47.7317 21.7626C47.8771 21.1825 48.0952 20.5298 48.4587 19.8047C49.1129 18.4269 49.7672 17.2667 50.4941 16.1789C50.7122 15.8164 50.9303 15.5263 51.1484 15.3088C51.2938 15.1637 51.3665 14.9462 51.5119 14.8011C51.6573 14.5836 51.8026 14.4386 51.948 14.221C52.1661 14.0035 52.3115 13.7859 52.4569 13.4959C52.7477 12.9883 53.1112 12.5532 53.4746 12.0456C53.7654 11.6105 54.1289 11.1754 54.4197 10.7403C54.4924 10.6678 54.565 10.5228 54.6377 10.4502C54.7104 10.3777 54.7104 10.3052 54.7831 10.2327L52.8204 10.2327C52.3842 10.2327 51.948 10.1602 51.73 9.94263L51.5846 9.7976L51.73 9.72509C51.948 9.58006 52.3842 9.50754 52.4569 9.50754C52.675 9.43503 52.8204 9.43503 53.0385 9.36251L53.1838 9.36251C53.62 9.29 54.1289 9.14497 54.7104 8.85491L54.8558 8.78239C55.0012 8.70988 55.1466 8.63736 55.292 8.63736C55.3647 8.56485 55.4374 8.56485 55.4374 8.49233C55.4374 8.41982 55.5101 8.3473 55.6555 8.27479L56.1643 8.27479C56.7459 8.12976 57.2548 7.47712 57.5455 7.11455C57.6909 6.897 57.8363 6.67945 57.9817 6.53442L58.0544 6.46191C58.1271 6.38939 58.1998 6.31688 58.1998 6.24436C58.2725 6.17185 58.2725 6.09933 58.3452 6.02682C58.3452 6.02682 58.4179 5.9543 58.4179 5.88179C58.636 5.73676 58.7813 5.4467 58.7813 5.37418C58.7813 5.37418 58.7087 5.30167 58.2725 5.30167C58.0544 5.30167 57.8363 5.30167 57.6182 5.22915C57.3275 5.22915 57.0367 5.15664 56.7459 5.15664L56.4551 5.15664C56.0189 5.15664 55.6555 5.15664 55.2193 5.08412L54.8558 5.08412C54.6377 5.08412 54.4197 5.08412 54.2016 5.15664C53.9835 5.15664 53.7654 5.22915 53.5473 5.22915L53.1112 5.22915C51.8753 5.22915 50.7122 5.37418 49.6218 5.51921L49.2583 5.59173C48.8222 5.66424 48.386 5.66424 47.9498 5.80927L47.8771 5.88179C47.3683 6.02682 47.0775 6.17185 47.1502 6.60694C47.1502 6.67945 47.2229 6.75197 47.2229 6.82448C47.2956 6.96952 47.3683 7.18706 47.3683 7.33209C47.2956 7.62215 46.9321 7.69467 46.6413 7.76718L46.4959 7.76718C46.2778 7.8397 46.1325 7.8397 45.9871 7.8397L45.2601 7.8397C45.1147 7.8397 45.042 7.8397 44.9693 7.76718C44.6059 7.62215 44.2424 7.18706 44.097 6.897C44.0243 6.60694 44.0243 6.24436 44.097 6.02682C44.2424 5.80927 44.3878 5.59173 44.6059 5.37418C45.042 4.93909 45.6236 4.79406 46.1325 4.72155C46.5686 4.64903 47.0048 4.504 47.5137 4.35897C47.8044 4.28646 48.0952 4.14143 48.386 4.06891C49.1856 3.77885 49.9126 3.48879 50.7849 3.41628C52.0207 3.27125 53.0385 3.19873 54.0562 3.19873L57.4001 3.19873C57.909 3.19873 58.3452 3.19873 58.7087 3.27125L58.854 3.27125C60.2352 3.41628 61.6164 3.48879 62.9976 3.77885C63.143 3.77885 63.2157 3.77885 63.3611 3.85137C63.5792 3.85137 63.7973 3.92388 64.0154 3.9964L64.2335 4.06891C64.6696 4.21394 65.1785 4.35897 65.6147 4.64903C65.76 4.72155 65.9054 4.86658 66.0508 4.93909C66.3416 5.08412 66.6324 5.30167 66.9232 5.59173C67.1412 5.9543 67.3593 6.24436 67.3593 6.82449C67.3593 7.91221 66.9232 8.78239 66.1235 9.36251C65.76 9.65257 65.3239 9.94263 64.9604 10.1602C64.9604 10.1602 64.5969 10.3777 64.1608 10.5228C63.9427 10.5953 63.6519 10.6678 63.4338 10.7403C63.0703 10.8128 62.7069 10.8853 62.2707 11.0304L61.8345 11.1029C61.6891 11.1029 61.6164 11.1754 61.4711 11.1754C61.3257 11.2479 61.1803 11.2479 61.0349 11.2479C60.9622 11.2479 60.8168 11.3204 60.7441 11.3204L60.8168 11.3929C60.9622 11.538 61.1076 11.683 61.253 11.7555C61.6164 11.9731 61.9072 12.1906 62.198 12.5532L62.4888 12.8432C62.5615 12.9158 62.7069 12.9883 62.7796 13.0608C62.9976 13.2783 63.2157 13.4959 63.3611 13.7859C63.5065 14.0035 63.6519 14.221 63.7973 14.5111C63.87 14.7286 63.9427 14.8737 64.0154 15.0187L64.0881 15.1637C64.2335 15.6713 64.4515 16.1789 64.3062 16.6865C64.1924 17.2488 63.9664 17.7825 63.6417 18.2558C63.317 18.7292 62.9002 19.1326 62.4161 19.4421L62.1253 19.5871C61.7618 19.8047 61.3984 20.0222 60.9622 20.2398C60.7441 20.3848 60.3806 20.5298 60.1625 20.6024C59.9445 20.6749 59.6537 20.7474 59.4356 20.8199L59.0721 20.8924C58.636 21.0374 58.1998 21.11 57.6909 21.1825L57.3274 21.1825C57.1821 21.1825 57.0367 21.1825 56.8913 21.11C56.7459 21.0374 56.6005 20.9649 56.4551 20.8199L56.3097 20.6749C56.0189 20.4573 55.5828 20.0222 55.292 19.5871C55.0012 19.1521 55.0012 18.5719 55.0739 18.0643L55.0739 17.9193C55.0739 17.2667 55.0739 16.5415 55.7282 16.1789C56.1643 15.9614 56.4551 15.6713 56.5278 15.2362L56.5278 15.1637C56.5278 15.0912 56.5278 14.9462 56.6005 14.8737L56.6732 14.8011L56.8186 14.8737C57.2548 15.1637 57.4728 15.4538 57.6182 15.9614C57.6182 16.0339 57.6909 16.1064 57.6909 16.1789C57.7636 16.324 57.8363 16.469 57.8363 16.6865L57.8363 16.8316C57.8363 16.9766 57.909 17.2667 57.9817 17.3392C58.1271 17.5567 58.4179 17.7017 58.854 17.7017L59.581 17.7017C60.0172 17.7017 60.4533 17.6292 60.8168 17.4842C61.0349 17.4117 61.253 17.2667 61.4711 17.1216C61.6164 17.0491 61.8345 16.9041 61.9799 16.7591L62.1253 16.6865C62.5615 16.324 62.7796 15.9614 62.8523 15.5263C62.9976 14.5836 62.1253 13.8584 61.3257 13.2058L61.1076 13.0608C60.8168 12.8432 60.526 12.6257 60.1625 12.4807C59.7991 12.2631 59.3629 12.1181 58.9267 11.9731C58.4906 11.828 58.1271 11.828 57.6909 11.7555C57.4001 11.7555 57.1821 11.9005 56.964 12.1906C56.8186 12.3356 56.7459 12.5532 56.6005 12.6982C56.4551 12.9158 56.3097 13.1333 56.0916 13.4234C55.7282 13.8584 55.4374 14.2935 55.1466 14.7286L54.8558 15.1637C54.7831 15.3088 54.7104 15.4538 54.6377 15.5263C54.4197 15.8889 54.2743 16.1789 53.9108 16.614C53.7654 16.7591 53.62 16.9766 53.4746 17.1216C53.2565 17.4117 53.0385 17.6292 52.8204 17.9193C52.5296 18.2094 52.0934 18.7895 51.6573 19.2246L51.4392 19.4421C51.2938 19.5871 51.2211 19.7322 51.0757 19.8772C50.9303 20.0947 50.7122 20.2398 50.5668 20.4573C50.2761 20.8199 50.058 21.0374 49.7672 21.4C49.5491 21.6176 49.4037 21.8351 49.2583 22.0527C49.0402 22.3427 48.8222 22.6328 48.5314 22.9228C48.4587 22.9953 48.4587 22.9953 48.386 23.1404C48.386 23.3579 48.1679 23.648 47.8771 23.648ZM59.9445 8.41982C60.2352 8.41982 60.6714 8.3473 60.9622 8.27479L61.3257 8.27479C62.7796 8.12976 64.3061 7.47712 65.2512 6.897C65.8327 6.60694 65.9054 6.38939 65.9054 6.31688C65.9054 6.24436 65.8327 6.17185 65.76 6.09933C65.3966 5.88179 64.8877 5.80927 64.4515 5.80927L64.3062 5.80927C64.0154 5.73676 63.7246 5.73676 63.4338 5.66424C62.6342 5.51921 61.7618 5.4467 60.8895 5.37418L60.4533 5.37418C60.2352 5.37418 60.1625 5.37418 60.0899 5.4467C60.0172 5.59173 60.0899 5.80927 60.0899 6.02682C60.0899 6.24436 60.1625 6.38939 60.0899 6.60694C60.0899 6.60694 60.0899 7.04203 59.9445 7.62215L59.9445 7.69467C59.7991 8.05724 59.7991 8.27479 59.7991 8.3473C59.8718 8.41982 59.8718 8.41982 59.9445 8.41982Z" fill="#DA3828"/>
<path d="M67.214 6.82447C67.214 6.31687 67.0686 6.02681 66.7051 5.66423C66.3417 5.22914 65.8328 5.08411 65.3966 4.72154C64.9605 4.43148 64.3789 4.21393 63.87 4.0689C63.5793 3.92387 63.2158 3.99639 62.925 3.92387C61.4711 3.63381 60.0899 3.5613 58.636 3.41626C57.2548 3.27123 55.8009 3.41626 54.4197 3.41626C53.1839 3.41626 51.8754 3.48878 50.6396 3.63381C49.5492 3.77884 48.4587 4.21393 47.441 4.57651C47.0049 4.64902 46.5687 4.72154 46.0598 4.86657C45.551 4.93908 44.9694 5.08411 44.6059 5.44669C44.4605 5.59172 44.2425 5.80926 44.1698 6.02681C44.0971 6.24435 44.0971 6.53441 44.1698 6.82447C44.3151 7.11453 44.6059 7.54962 44.9694 7.62214C45.1875 7.69465 45.4783 7.62214 45.6963 7.62214C45.9871 7.62214 46.2052 7.62214 46.496 7.54962C46.7141 7.47711 47.2229 7.47711 47.2956 7.18705C47.2229 7.04202 47.0049 6.75196 47.0049 6.60693C46.9322 5.95429 47.441 5.80926 47.9499 5.66423C48.4587 5.5192 49.0403 5.44669 49.6219 5.37417C50.9304 5.22914 52.1662 5.08411 53.5474 5.08411C54.0562 5.08411 54.5651 4.93908 55.074 4.93908C55.6555 5.0116 56.1644 5.0116 56.6733 5.0116C57.2548 5.0116 57.7637 5.08411 58.3452 5.08411C58.4906 5.08411 58.9268 5.08411 58.9995 5.30166C59.0722 5.5192 58.7087 5.88178 58.636 6.02681C58.4906 6.17184 58.4179 6.38938 58.2725 6.53441C58.1272 6.75196 57.9091 6.89699 57.7637 7.11453C57.4002 7.54962 56.8913 8.27478 56.3098 8.41981C56.1644 8.49232 55.8736 8.34729 55.7282 8.41981C55.5828 8.49232 55.5828 8.70987 55.3647 8.78238C55.2194 8.8549 54.9286 8.92741 54.7832 8.99993C54.2743 9.21747 53.7655 9.3625 53.2566 9.50753C52.9658 9.58005 52.8931 9.58005 52.5297 9.65256C52.5297 9.65256 52.0935 9.72508 51.8754 9.87011C52.0935 10.0877 52.675 10.0877 53.0385 10.0877C53.4747 10.0877 53.9109 10.1602 54.347 10.0877C54.4924 10.0877 55.1467 9.94262 54.9286 10.2327C54.7832 10.3777 54.6378 10.5953 54.5651 10.7403C53.9109 11.683 53.1839 12.5532 52.6023 13.4959C52.3116 13.931 51.9481 14.366 51.5846 14.8011C51.2938 15.2362 51.0031 15.5988 50.5669 16.2514C49.8399 17.4117 49.113 18.5719 48.5314 19.8772C48.2407 20.4573 47.9499 21.1099 47.8045 21.7626C47.6591 22.1977 47.5137 22.8503 47.6591 23.2854C47.8772 23.8655 48.3134 22.9953 48.5314 22.7778C48.9676 22.3427 49.3311 21.8351 49.7673 21.3275C50.058 20.9649 50.3488 20.7474 50.6396 20.3848C50.9304 20.0222 51.2211 19.7322 51.5119 19.3696C52.0208 18.7895 52.5297 18.1368 52.8931 17.7743C53.2566 17.3392 53.6201 16.9041 53.9109 16.469C54.4197 15.8889 54.5651 15.5263 54.9286 15.0187C55.2921 14.4386 55.6555 13.7859 56.1644 13.2783C56.4552 12.9157 56.6733 12.4807 56.964 12.0456C57.1821 11.7555 57.4002 11.538 57.7637 11.538C58.2725 11.538 58.636 11.6105 59.0722 11.7555C59.5084 11.9005 59.9445 12.0456 60.3807 12.2631C60.8169 12.4807 61.1803 12.7707 61.5438 13.0608C62.2708 13.6409 63.2885 14.4386 63.1431 15.5263C63.0704 16.0339 62.7796 16.469 62.4161 16.759C62.1981 16.9041 62.0527 17.1216 61.8346 17.2666C61.6165 17.4117 61.3984 17.5567 61.1803 17.6292C60.6715 17.8468 60.1626 17.8468 59.6537 17.8468C59.1449 17.8468 58.4906 17.9193 58.1272 17.4842C57.9818 17.3392 57.9818 16.9766 57.9818 16.759C57.9091 16.469 57.8364 16.324 57.7637 16.0339C57.6183 15.5988 57.4002 15.3087 57.0367 15.0187C56.964 15.0912 56.964 15.2362 56.964 15.3813C56.8913 15.8889 56.5279 16.1789 56.0917 16.3965C55.5101 16.6865 55.5101 17.4117 55.5101 17.9918C55.5101 18.4994 55.4374 19.0795 55.7282 19.5871C55.9463 19.9497 56.3825 20.3848 56.746 20.6749C56.8913 20.8199 57.0367 20.9649 57.2548 21.0374C57.4729 21.1099 57.7637 21.1099 57.9818 21.0374C58.5633 20.9649 59.1449 20.8199 59.7264 20.6749L60.3807 20.4573C60.5988 20.3848 60.9622 20.1672 61.1803 20.0947C61.6892 19.8772 62.1254 19.5871 62.6342 19.2971C63.652 18.7169 64.2335 17.7017 64.4516 16.6865C64.5243 16.1789 64.3789 15.6713 64.2335 15.2362C64.1608 15.0187 64.0881 14.8011 63.9427 14.5836C63.7973 14.2935 63.652 14.076 63.5066 13.8584C63.2885 13.6409 63.1431 13.4233 62.925 13.2058C62.7796 13.0608 62.5615 12.8432 62.3434 12.6982C62.0527 12.4081 61.7619 12.1906 61.3984 11.973C61.1803 11.828 60.9622 11.6105 60.7442 11.4654C60.6715 11.2479 60.8896 11.1754 61.1076 11.1754C61.3984 11.1029 61.6165 11.0303 61.9073 10.9578C62.5615 10.8128 62.9977 10.7403 63.5066 10.5953C63.7246 10.5227 64.0154 10.4502 64.2335 10.3777C64.597 10.2327 65.0332 10.0151 65.0332 10.0151C65.3966 9.87011 65.8328 9.50753 66.1963 9.21747C66.7778 8.70987 67.214 7.83968 67.214 6.82447ZM65.2512 7.04202C64.0154 7.69465 62.6342 8.27478 61.3257 8.41981C61.0349 8.41981 59.7991 8.78238 59.7264 8.56484C59.6537 8.41981 59.8718 7.83968 59.9445 7.69465C60.0899 7.11453 60.0899 6.67944 60.0899 6.67944C60.1626 6.31687 59.9445 5.80926 60.0899 5.44669C60.1626 5.15663 60.7442 5.22914 60.9622 5.30166C62.1254 5.37417 63.2158 5.5192 64.3062 5.73675C64.8151 5.80926 65.3966 5.80926 65.7601 6.09932C66.4144 6.38938 65.6147 6.82447 65.2512 7.04202ZM65.8328 21.4725C65.0332 21.4725 64.5243 20.3123 64.5243 19.8047C64.4516 18.7169 64.6697 17.7017 65.1785 16.6865L65.3239 16.3965C65.542 15.9614 65.7601 15.5263 66.0509 15.1637C66.4144 14.6561 66.7778 14.1485 67.1413 13.7134C67.5775 13.1333 67.8682 12.6982 68.159 12.1906L68.5952 11.538C68.7406 11.3929 68.886 11.1754 68.9587 11.0303L69.1768 10.5953C69.3221 10.3052 69.4675 10.0151 69.6856 9.72508C69.7583 9.65256 69.7583 9.58005 69.831 9.43502C70.0491 9.14496 70.1945 8.70987 70.7033 8.70987L70.9214 8.70987C71.4303 8.70987 71.7211 8.99993 71.7938 9.58005C71.8665 10.0877 71.5757 10.5227 71.2849 10.8853C71.1395 11.1029 71.0668 11.3204 70.9214 11.538C70.8487 11.7555 70.776 11.973 70.6306 12.1181C70.1945 12.7707 69.9037 13.4233 69.5402 14.076C69.3948 14.2935 69.3221 14.5111 69.1768 14.7286C69.1041 14.8736 69.0314 15.0187 68.886 15.1637C68.6679 15.4538 68.4498 15.8163 68.3771 16.1064L68.4498 16.0339C68.5225 15.9614 68.5225 15.8889 68.5952 15.8889C68.7406 15.7438 68.886 15.5988 69.0314 15.5263C69.1041 15.4538 69.2494 15.3813 69.3221 15.3087C69.7583 14.9462 70.1218 14.4386 70.6306 13.931C71.2122 13.2783 71.9392 12.6982 72.5934 12.1906L73.175 11.7555C73.5384 11.4654 73.8292 11.2479 74.3381 11.1754L74.4835 11.1754C74.8469 11.1754 75.3558 11.2479 75.6466 11.6105C76.3008 12.2631 76.0101 13.2783 75.8647 14.076L75.792 14.366C75.5012 15.4538 75.1377 16.469 74.7016 17.4117C74.2654 18.3544 73.6838 19.152 73.1023 19.9497C72.8842 20.3123 72.448 20.6023 72.1572 20.8924L71.9392 21.1099C71.7211 21.3275 71.4303 21.545 71.0668 21.545C70.9214 21.545 70.7033 21.4725 70.558 21.4C70.2672 21.255 69.9764 20.8199 69.9037 20.4573C69.831 20.2398 69.9037 20.0947 69.9037 19.9497C69.9037 19.8772 69.9037 19.8047 69.9764 19.7322C69.9764 19.6596 69.9764 19.5146 70.0491 19.4421C70.0491 19.2971 70.0491 19.152 70.1218 19.007C70.2672 18.4994 70.7033 18.1368 71.0668 17.7743C71.2849 17.6292 71.5757 17.1216 71.9392 16.5415C72.2299 16.1064 72.448 15.7438 72.7388 15.3813C73.1023 14.8736 73.393 14.5111 73.6111 14.076C73.6838 14.0035 73.6838 13.931 73.7565 13.8584C73.9746 13.5684 74.1927 13.1333 74.12 12.8432L74.0473 12.7707C73.9019 12.7707 73.6838 12.9883 73.5384 13.0608L73.4657 13.1333C73.1023 13.4233 72.8842 13.6409 72.5934 14.0035C72.448 14.1485 72.3026 14.366 72.1572 14.5111C72.0118 14.7286 71.7938 14.8736 71.6484 15.0912C71.5757 15.2362 71.503 15.3087 71.4303 15.3813C71.4303 15.4538 71.3576 15.5263 71.2849 15.5988C71.2122 15.7438 71.0668 15.8889 70.9941 15.9614L70.9214 16.1064C70.6307 16.5415 70.2672 16.9041 69.9764 17.3392L69.5402 17.8468C69.1041 18.4994 68.6679 19.0795 68.159 19.7322L68.0863 19.8047C67.7956 20.1672 67.5048 20.5298 67.0686 20.7474C66.9232 20.8199 66.8505 20.8924 66.7051 21.0374C66.487 21.255 66.1963 21.4 65.9055 21.4725C65.9055 21.4 65.9055 21.4725 65.8328 21.4725Z" fill="#DA3828"/>
<path d="M65.2514 16.6866C65.5422 16.179 65.7602 15.6714 66.1237 15.1638C66.4872 14.6562 66.8507 14.1486 67.2141 13.7135C67.5776 13.2059 67.9411 12.7708 68.2319 12.1907C68.45 11.7556 68.8134 11.393 69.0315 11.0305C69.2496 10.5954 69.4677 10.1603 69.7585 9.7252C70.0492 9.36262 70.1946 8.85502 70.6308 8.7825C71.1397 8.70999 71.5031 9.00005 71.5758 9.50765C71.6485 10.0153 71.3577 10.3778 71.067 10.7404C70.7762 11.103 70.7035 11.6106 70.4854 11.9732C69.9039 12.8433 69.5404 13.7135 69.0315 14.5837C68.7407 15.0913 68.2319 15.8165 68.1592 16.3966C68.45 16.3241 68.5226 16.1065 68.668 15.9615C68.8861 15.744 69.1769 15.5264 69.395 15.3089C69.8312 14.8738 70.2673 14.4387 70.7035 13.9311C71.4304 13.1334 72.3028 12.4808 73.1751 11.9007C73.5386 11.6106 73.9021 11.3205 74.4109 11.248C74.7744 11.1755 75.356 11.3205 75.574 11.6106C76.2283 12.2632 75.8648 13.4235 75.6467 14.1486C75.356 15.1638 75.0652 16.179 74.5563 17.1217C74.1201 18.0644 73.5386 18.7896 72.957 19.5873C72.6662 20.0223 72.1574 20.3849 71.7939 20.7475C71.4304 21.1101 71.067 21.3276 70.5581 21.0376C70.2673 20.82 70.0492 20.4574 69.9765 20.1674C69.9038 19.8773 69.9765 19.8048 70.0492 19.5873C70.1219 19.3697 70.1219 19.0796 70.1946 18.8621C70.34 18.427 70.7762 18.0644 71.067 17.7019C71.285 17.5568 71.6485 16.9767 72.012 16.3966C72.2301 16.034 72.5209 15.6714 72.8116 15.3089L73.684 14.0036C73.8294 13.641 74.3382 13.0609 74.1928 12.6258C73.9748 12.1907 73.5386 12.6258 73.3205 12.8433C72.957 13.1334 72.7389 13.351 72.4482 13.786C72.1574 14.1486 71.7939 14.5112 71.5031 14.8738C71.3577 15.0913 71.285 15.2363 71.1397 15.3814C70.9943 15.5264 70.8489 15.744 70.7762 15.889C70.4854 16.3241 70.1219 16.6866 69.8312 17.1217C69.1769 17.9919 68.5953 18.7896 68.0138 19.5873C67.723 19.9498 67.4322 20.3124 66.9961 20.6025C66.6326 20.82 66.2691 21.2551 65.9056 21.2551C65.1787 21.3276 64.6698 20.3124 64.5971 19.6598C64.5244 18.6446 64.7425 17.6293 65.2514 16.6866ZM75.0652 20.5299C74.9198 20.5299 74.8471 20.4574 74.7017 20.3849C74.1928 19.8773 74.629 18.9346 74.8471 18.572C74.9198 18.427 74.9925 18.282 75.1379 18.0644C75.2106 17.8469 75.356 17.6293 75.5013 17.4118C75.574 17.2668 75.6467 17.1217 75.7194 17.0492C75.7921 16.9042 75.8648 16.7592 75.9375 16.6866C76.0102 16.5416 76.1556 16.3966 76.2283 16.179C76.4464 15.8165 76.6645 15.4539 76.8825 15.1638L77.1733 14.8013C77.5368 14.2936 77.9003 13.786 78.3364 13.351C78.6999 12.9159 79.0634 12.4808 79.3542 12.0457C79.5723 11.7556 79.7903 11.4656 80.0084 11.248C80.1538 11.0305 80.3719 10.8129 80.5173 10.6679C80.8081 10.2328 81.1715 9.7252 81.4623 9.21759C81.6077 9.00005 81.7531 8.85502 81.8258 8.70999C81.9712 8.49244 82.1893 8.2749 82.3347 7.98484C82.6254 7.54975 82.7708 7.11466 82.9889 6.53454C83.0616 6.31699 83.0616 6.17196 83.0616 5.95442L83.0616 5.80939C82.9889 5.51932 82.9889 5.30178 83.0616 5.15675C83.1343 5.01172 83.2797 5.01172 83.3524 5.01172C83.7886 5.01172 84.0793 6.09945 84.0793 6.17196C84.3701 7.18717 84.0793 8.20238 83.8612 9.21759L83.7886 9.58017C83.5705 10.5229 83.1343 11.4656 82.7708 12.3357L82.6254 12.6983C82.262 13.641 81.8985 14.2211 81.4623 14.8013C81.3169 15.0188 81.1715 15.2363 81.0988 15.4539C80.5173 16.4691 80.0084 16.9042 80.0084 16.9042C79.7903 17.1943 79.4996 17.4118 79.2088 17.5568C79.0634 17.6293 78.918 17.7744 78.7726 17.8469C78.4091 18.137 78.1184 18.4995 77.7549 18.7896C77.3914 19.1522 77.0279 19.5147 76.6645 19.8048C76.5918 19.8773 76.4464 19.9498 76.3737 20.0223L76.1556 20.2399C76.0102 20.3849 75.7921 20.4574 75.574 20.5299C75.356 20.4574 75.2106 20.5299 75.0652 20.5299Z" fill="#DA3828"/>
<path d="M74.9923 18.6446C75.2103 18.282 75.3557 17.9194 75.5738 17.5568C75.7192 17.3393 75.7919 17.0492 76.01 16.7592C76.3008 16.2516 76.5915 15.744 76.955 15.2364C77.3912 14.6562 77.8274 14.0036 78.3362 13.4235C78.6997 12.9884 79.0632 12.5533 79.354 12.0457C79.7174 11.5381 80.1536 11.103 80.5171 10.5954C80.8078 10.1603 81.1713 9.6527 81.5348 9.1451C81.8256 8.71 82.1163 8.34743 82.4071 7.91234C82.6979 7.40473 82.8433 6.96964 83.0614 6.46204C83.1341 6.24449 83.2068 6.02695 83.1341 5.8094C83.1341 5.66437 82.9887 5.22928 83.0614 5.08425C83.3522 4.64916 83.7156 5.88192 83.7883 6.02695C84.0791 7.18719 83.7883 8.2024 83.4975 9.36264C83.2068 10.4504 82.7706 11.4656 82.3344 12.4808C81.8256 13.7135 81.3167 14.2937 80.8078 15.2364C80.2263 16.2516 79.7174 16.6141 79.7174 16.6141C79.354 17.0492 78.9178 17.2668 78.5543 17.6294C77.8274 18.2095 77.1731 19.0071 76.5189 19.5873C76.3008 19.7323 76.2281 19.8773 76.01 20.0224C75.8646 20.1674 75.7192 20.2399 75.5011 20.3124C75.283 20.3849 75.1377 20.4574 74.9923 20.3124C74.4107 19.8773 74.7742 19.0797 74.9923 18.6446ZM78.7724 21.4727L78.5543 21.4727L78.4816 21.4001C78.4089 21.1826 78.5543 20.82 78.9905 19.9498C78.9905 19.8773 79.0632 19.8773 79.0632 19.8048C79.1359 19.7323 79.1359 19.6598 79.2086 19.5148C79.2813 19.2972 79.4266 19.0071 79.572 18.7896C79.6447 18.7171 79.6447 18.6446 79.7174 18.5721C79.7901 18.4995 79.7901 18.3545 79.9355 18.282C80.0809 18.137 80.2263 17.8469 80.3717 17.7019C80.4444 17.6294 80.4444 17.5568 80.5171 17.5568C80.5898 17.4118 80.6625 17.3393 80.7352 17.2668C80.8078 17.1943 80.8078 17.1218 80.8805 17.0492C81.0986 16.7592 81.3167 16.3966 81.5348 16.1065C82.0437 15.3089 82.6252 14.5112 83.2068 13.8586C83.3522 13.7135 83.4249 13.5685 83.4975 13.496L83.5702 13.351C83.6429 13.2059 83.861 13.0609 84.0064 12.8434L84.0791 12.7708C84.2972 12.5533 84.5153 12.2632 84.6607 11.9732L84.8788 11.6831C85.0968 11.3931 85.3149 11.103 85.533 10.7404L86.1873 9.87025L86.26 9.72522C86.4053 9.50767 86.6234 9.21761 86.7688 8.92755C86.8415 8.78252 86.9142 8.71 86.9142 8.56497C86.9142 8.49246 86.9869 8.41994 86.9869 8.41994C86.9869 8.41994 87.0596 8.27491 87.1323 8.2024C87.1323 8.2024 87.2777 7.91234 87.2777 7.83982C87.4231 7.47725 87.5685 7.18719 87.7138 6.89713L87.7865 6.67958C87.8592 6.38952 88.0046 6.17198 88.0773 5.88192C88.15 5.59186 88.15 5.37431 88.15 5.15677L88.15 4.79419L88.4408 4.79419C88.5862 4.79419 88.7316 4.8667 88.877 5.01173C89.5312 5.88192 88.8043 9.21761 88.6589 9.6527C88.0773 11.5381 87.3504 13.641 86.1873 15.4539L86.1146 15.5264C85.6784 16.1791 85.2422 16.8317 84.7334 17.3393L84.588 17.4843L84.3699 17.7019C84.2245 17.8469 84.0791 18.0645 83.861 18.2095C83.4975 18.4995 83.1341 18.8621 82.6979 19.1522C82.5525 19.2247 82.4798 19.2972 82.3344 19.3697C82.1164 19.5148 81.8983 19.6598 81.7529 19.8048C81.6075 19.9498 81.3894 20.0949 81.244 20.1674C81.0986 20.2399 80.8805 20.3849 80.7352 20.53C80.4444 20.7475 80.0809 21.0376 79.7901 21.2551L79.6447 21.3276C79.2813 21.2551 79.0632 21.4727 78.7724 21.4727Z" fill="#DA3828"/>
<path d="M79.1358 19.8048C79.2812 19.4422 79.3539 19.1521 79.572 18.8621C79.7174 18.7171 79.7174 18.4995 79.8628 18.3545C80.0082 18.1369 80.3717 17.6293 80.3717 17.5568C80.517 17.3393 80.5897 17.2667 80.8078 17.0492C81.6075 15.9615 82.2617 14.8012 83.1341 13.786C83.2794 13.641 83.4248 13.4234 83.5702 13.2784C83.7156 13.1334 83.9337 12.8433 84.0791 12.6983C84.3699 12.3357 84.6606 11.9006 84.8787 11.6831C85.3149 11.103 85.7511 10.4503 86.1145 9.87021C86.1872 9.72518 86.5507 9.29009 86.6961 8.92751C86.7688 8.70997 86.9142 8.56494 86.9869 8.41991L87.1323 8.12985C87.205 7.98482 87.205 7.9123 87.2777 7.76727C87.423 7.4047 87.5684 7.11464 87.7138 6.75206C87.8592 6.38949 88.0046 6.09942 88.0773 5.73685C88.15 5.37427 88.15 5.08421 88.15 4.72164C89.3858 4.50409 88.4408 8.78248 88.2954 9.3626C87.7138 11.393 86.9869 13.4234 85.8238 15.1638C85.3876 15.8164 84.9514 16.5416 84.3699 17.0492C84.2245 17.1942 84.0791 17.2667 84.0064 17.4118C83.861 17.5568 83.7156 17.7744 83.4975 17.9194C83.1341 18.2094 82.7706 18.572 82.4071 18.8621C82.1163 19.0796 81.7529 19.2972 81.4621 19.5147C81.1713 19.8048 80.7351 19.8773 80.4443 20.1674C80.1536 20.3849 79.7901 20.675 79.4993 20.8925C79.2085 21.11 78.9178 21.3276 78.5543 21.2551C78.3362 21.2551 79.1358 19.8773 79.1358 19.8048ZM82.916 27.2013C82.7706 27.2013 82.6979 27.1288 82.6252 27.0563C82.4798 26.8387 82.6252 26.4037 82.7706 26.0411L83.6429 24.3007L84.2972 23.4305L84.5879 23.1405C84.9514 22.7054 85.2422 22.3428 85.6784 21.9802L86.0418 21.6902C86.4053 21.3276 86.7688 20.965 87.205 20.675L87.2777 20.6024C87.4957 20.4574 87.7138 20.3124 87.8592 20.0948C87.9319 19.9498 87.9319 19.8773 88.0046 19.7323L88.0046 19.5147C88.0046 19.2972 88.0773 19.0796 88.0773 18.8621C88.0773 18.572 88.15 18.2094 88.15 17.9194C88.3681 16.9042 88.7316 15.9615 89.095 15.0188L89.3131 14.3661C89.3858 14.1486 89.3858 13.9311 89.4585 13.786C89.5312 13.5685 89.6039 13.4234 89.6766 13.2059L89.8947 12.5533C90.0401 12.2632 90.1128 11.9006 90.1855 11.5381C90.3308 11.0305 90.2581 10.3778 89.8947 10.1603C89.822 10.1603 89.822 10.1603 89.7493 10.0878C89.6766 10.0878 89.5312 10.0152 89.3858 9.94272L89.1677 9.94272L89.1677 9.87021C89.1677 9.65266 89.3858 9.50763 89.6766 9.50763C89.9674 9.50763 90.4035 9.65266 90.5489 9.79769C90.9124 10.0878 91.1305 10.5228 91.2032 10.8854C91.2759 11.393 91.3486 11.9006 91.3486 12.4082C91.3486 12.8433 91.3486 13.496 91.2759 14.1486C91.2032 14.6562 91.1305 15.1638 90.9851 15.5989C90.9124 15.889 90.8397 16.2515 90.767 16.6141C90.767 16.8317 90.6943 17.0492 90.6943 17.1942C90.6216 17.5568 90.6216 17.7018 90.6216 17.7018C90.6943 17.7018 90.767 17.6293 90.8397 17.6293C91.1305 17.4843 91.2759 17.2667 91.494 17.1217C91.6393 16.9767 91.7847 16.9042 91.9301 16.7591C92.0755 16.6141 92.2209 16.5416 92.2936 16.3966L92.5844 16.1065L93.4567 15.3814C93.6748 15.1638 93.9656 14.9463 94.1837 14.7287L94.4744 14.4387L94.6925 14.2211L95.1287 13.786C95.7103 13.2784 96.2918 12.6983 96.8734 12.1182L97.1641 11.8281L97.7457 11.248C97.8911 11.103 97.9638 10.8854 97.9638 10.6679C97.9638 10.5228 98.0365 10.3778 98.1092 10.2328C98.1819 10.0152 98.4 9.94272 98.618 9.94272C98.9088 9.94272 99.1996 10.0878 99.4177 10.3053C99.7085 10.7404 99.7085 11.3205 99.5631 11.7556C99.345 12.4808 98.9088 13.1334 98.4727 13.786L98.1819 14.2211C98.0365 14.4387 97.9638 14.5837 97.8184 14.8012C97.3822 15.5264 96.8734 16.3241 96.2918 16.9042C95.9283 17.2667 95.6376 17.6293 95.3468 18.0644C94.9106 18.572 94.4744 19.1521 93.9656 19.6597L93.5294 20.0948L92.8025 20.82C92.439 21.11 92.0028 21.4001 91.5667 21.6177L91.4213 21.6902C90.2581 22.3428 89.095 22.9954 88.0046 23.503C87.7138 23.6481 87.4957 23.7931 87.205 23.9381C86.9142 24.0832 86.6234 24.2282 86.3326 24.4457C85.8965 24.6633 85.4603 24.9533 85.0968 25.2434C84.806 25.461 83.7883 26.4037 83.7883 26.4037C83.4248 26.9113 83.1341 27.1288 82.916 27.2013Z" fill="#DA3828"/>
<path d="M82.9163 26.041C83.1344 25.4609 83.4252 24.8808 83.7886 24.3732C84.0067 23.9381 84.3702 23.5755 84.7337 23.213C85.0971 22.7779 85.3879 22.4878 85.7514 22.0527C86.2603 21.5451 86.6964 21.11 87.2053 20.7474C87.4234 20.6024 87.7141 20.3849 87.8595 20.1673C88.0776 19.9498 88.0049 19.7322 88.0049 19.5147C88.0776 19.0071 88.0776 18.4995 88.1503 17.9919C88.3684 16.9767 88.7319 16.034 89.0954 15.0913C89.2407 14.6562 89.3134 14.2936 89.4588 13.8585C89.6042 13.4234 89.6769 12.9883 89.8223 12.6257C89.9677 12.2632 90.0404 11.9731 90.1131 11.6105C90.1858 11.1754 90.2585 10.3778 89.7496 10.0877C89.6042 10.0152 89.4588 10.0877 89.3134 9.87018C89.3861 9.43508 90.1858 9.72515 90.4039 9.87018C90.6946 10.0877 90.9854 10.5228 91.0581 10.8854C91.1308 11.3205 91.2035 11.9006 91.2035 12.3357C91.2035 12.6983 91.2035 13.2784 91.1308 14.0761C91.0581 14.5837 90.9854 15.0913 90.84 15.5264C90.6946 16.034 90.6219 16.6141 90.5492 17.1217C90.5492 17.2667 90.4039 17.6293 90.5492 17.7743C90.6946 17.9194 90.9127 17.7743 90.9854 17.7018C91.3489 17.4843 91.6397 17.1217 92.0031 16.9041C92.2939 16.6866 92.3666 16.5416 92.6574 16.2515C92.9482 16.034 93.239 15.7439 93.5297 15.5264C93.7478 15.3088 94.0386 15.0913 94.2567 14.8737L94.6929 14.4386C95.4198 13.786 96.1467 13.0608 96.8737 12.3357L97.746 11.4655C98.0368 11.1754 97.9641 10.7404 98.1095 10.3778C98.2549 10.0152 98.9091 10.1602 99.1272 10.5228C99.418 10.8854 99.3453 11.4655 99.1999 11.9006C98.9091 12.7708 98.3276 13.4959 97.8187 14.2936C97.2372 15.1638 96.6556 16.179 95.9287 16.9767C95.129 17.8468 94.4021 18.862 93.5297 19.6597L92.3666 20.82C91.9304 21.1825 91.4216 21.4726 90.9854 21.6901C89.895 22.3428 88.7319 22.9229 87.5688 23.503C86.9872 23.7931 86.4783 24.1556 85.8968 24.4457C85.4606 24.6633 85.0244 24.9533 84.661 25.3159C84.2248 25.6785 83.8613 26.041 83.4978 26.4036C83.3525 26.5486 83.0617 26.9112 82.7709 26.9112C82.4801 27.0563 82.7709 26.3311 82.9163 26.041Z" fill="#DA3828"/>
</g>
<defs>
<clipPath id="clip0">
<rect width="100.21" height="26.4027" fill="white" transform="translate(0 0.798584)"/>
</clipPath>
</defs>
</svg>
