<svg width="101" height="16" viewBox="0 0 101 16" fill="none" xmlns="http://www.w3.org/2000/svg">
<g clip-path="url(#clip0)">
<path d="M75.3361 16.001L91.6882 16.001C91.7466 16.001 92.5058 16.001 92.8562 15.1834L93.557 13.7818L88.301 13.7818L88.301 10.2193C88.301 9.92734 88.0674 9.69374 87.7754 9.69374L87.5418 9.69374C87.2498 9.69374 86.9578 9.92734 86.9578 10.2193L86.9578 13.7234L86.7826 13.7818L80.8258 13.7818L80.8258 3.67853L74.8689 15.9426L74.8105 16.001L75.3361 16.001ZM88.301 3.85373C88.301 3.56173 88.0674 3.32813 87.7754 3.32813L87.5418 3.32813C87.2498 3.32813 86.9578 3.56173 86.9578 3.85373L86.9578 5.31373C86.9578 5.60573 87.1914 5.83933 87.5418 5.83933L87.7754 5.83933C88.0674 5.83933 88.301 5.60573 88.301 5.31373L88.301 3.85373Z" fill="#D44627"/>
<path d="M84.505 8.35049L93.0898 8.35049C93.7906 8.35049 94.3746 8.93449 94.3746 9.57689L94.3746 12.2049L100.156 0.641671C100.215 0.524871 100.273 0.29127 100.215 0.11607C100.098 -0.000730234 99.981 -0.000730237 99.8642 -0.000730239L83.5122 -0.000730597C83.4538 -0.000730598 82.6946 -0.000730615 82.3442 0.816871L81.7602 2.04327L93.1482 2.04327C93.849 2.04327 94.433 2.62728 94.433 3.26968L94.433 5.95608C94.433 6.59849 93.849 7.18249 93.1482 7.18249L84.5634 7.18249C84.2714 7.18249 83.9794 7.41609 83.9794 7.70809L83.9794 7.88329C83.9794 8.11689 84.213 8.35049 84.505 8.35049ZM9.28562 13.6649L9.40242 13.4897L9.40242 9.46009L9.34402 9.22649L9.22722 9.10969L9.05202 8.93449L8.81842 8.87609L8.58482 8.75929C8.23442 8.75929 7.94242 8.75929 7.59202 8.70089C7.24162 8.70089 6.94962 8.64249 6.59922 8.64249L6.54082 8.64249L6.19042 8.35049L6.07361 8.23369L6.07361 7.76649L6.24881 7.53289L6.48242 7.41608L7.47522 7.41608C7.82562 7.35768 8.11762 7.35769 8.52642 7.35769L8.70162 7.29928L8.99362 7.18248L9.05202 7.06568L9.16882 6.94888L9.16882 6.89048C9.16882 6.83208 9.22722 6.77368 9.28562 6.71528L9.28562 3.38648L9.22722 3.15288L9.22722 2.91927L9.05202 2.74407L8.76002 2.56887L8.64322 2.51047L8.52642 2.45207L0.759202 2.45207L0.584001 2.56887L0.525601 2.56887C0.467201 2.62727 0.408801 2.68567 0.350401 2.68567C0.350401 2.68567 0.292001 2.74407 0.233601 2.74407L0.1168 2.97767C0.0584001 3.09447 0.0584001 3.15287 -7.02007e-08 3.21128L-2.88461e-07 13.1977L0.1168 13.5481C0.1168 13.6065 0.1752 13.6649 0.2336 13.6649C0.292 13.7233 0.292 13.7817 0.350401 13.7817L0.467201 13.8985L0.642401 14.0153L3.32881 14.0153L3.50401 13.9569L3.73761 13.8401L3.97121 13.5481C4.02961 13.4313 4.02961 13.4313 4.08801 13.2561L4.08801 9.75209C4.14641 9.57689 4.20481 9.40169 4.20481 9.28489L4.26321 9.22649L4.49681 9.10969L4.84721 9.05129L5.19761 9.22649L5.25601 9.46009L5.31441 9.69369L5.31441 13.0809C5.31441 13.1393 5.37281 13.1977 5.37281 13.2561C5.37281 13.3145 5.37281 13.3729 5.43121 13.3729L5.60641 13.7233L5.72321 13.8401L5.95681 13.9569L6.42402 14.0153L8.70162 14.0153L8.99362 13.8985L9.11042 13.7817C9.16882 13.7817 9.22722 13.7233 9.28562 13.6649ZM5.13921 7.12408L4.84721 7.24088L4.55521 7.24088L4.26321 7.12408L4.14641 6.94888C4.08801 6.94888 4.08801 6.83208 4.02961 6.77368L4.08801 6.59848L4.08801 4.55448L4.20481 4.32088L4.32161 4.20408L4.55521 4.08728L4.96401 4.08728L5.13921 4.20408L5.19761 4.26248C5.25601 4.37928 5.31441 4.55448 5.37281 4.72968L5.37281 6.83208L5.13921 7.12408ZM19.9728 13.7817L20.0896 13.6065L20.148 13.4897L20.148 12.2049C20.148 12.0881 20.1481 12.0297 20.0896 11.9129L19.856 11.5625L19.856 11.5041C19.7976 11.4457 19.7392 11.3873 19.6808 11.3873L19.6224 11.3873C19.4472 11.3873 19.272 11.3289 19.0384 11.3289C18.9216 11.3289 18.5712 11.3289 18.0456 11.2705C17.6368 11.2705 16.9944 11.2121 16.2936 11.2121L16.2352 11.2121L16.06 11.1537L15.768 10.8617L15.7096 10.6281C15.6512 10.5697 15.6512 10.4529 15.6512 10.2193L15.6512 10.1609L15.8264 9.81049C15.9432 9.69369 16.0016 9.63529 16.1768 9.51849L16.2936 9.46009C16.8776 9.40169 17.5784 9.40169 18.1624 9.34329C18.6296 9.34329 19.0384 9.28489 19.5056 9.28489L19.7392 9.16809C19.7392 9.16809 19.7976 9.10969 19.856 9.10969C19.9144 9.05129 19.9728 9.05129 19.9728 8.99289L20.0896 8.70089L20.0896 7.18249L20.0312 7.06568C20.0312 7.06568 20.0312 7.00728 19.9728 7.00728C19.9144 6.94888 19.9144 6.89048 19.856 6.89048L19.856 7.00728C19.856 7.00728 19.7392 6.94888 19.6224 6.94888C18.8048 6.89048 17.9288 6.89048 17.1112 6.89048L16.7608 6.89048L16.352 6.83208L16.0016 6.71528L15.5928 6.42328L15.5928 5.54728L15.8848 5.25528L16.1768 5.19688L16.4688 5.08008L19.272 5.08008L19.6224 4.96328C19.7392 4.90488 19.7976 4.84648 19.9728 4.84648L20.0312 4.67128L20.148 4.37928L20.148 3.26968L20.0896 2.97767C20.0312 2.91927 19.9728 2.91928 19.9728 2.80247L19.9144 2.68567L19.6808 2.51047L19.272 2.45207L12.0304 2.45207L11.8552 2.51047L11.6216 2.86087L11.4464 3.21128L11.4464 13.4313L11.5048 13.6649L11.68 13.8985L11.9136 14.0153L12.0304 14.0737L19.564 14.0737L19.7392 13.9569L19.9728 13.7817ZM27.7985 9.46009C28.3241 9.46009 28.7329 9.40169 29.0249 9.40169C29.3753 9.40169 29.6673 9.40169 29.7841 9.34329C30.0177 9.34329 30.1929 9.34329 30.3681 9.28489L30.4849 9.16809L30.7185 8.93449L30.8353 8.81769C30.8353 8.70089 30.8937 8.58409 30.9521 8.46729L30.9521 7.41609L30.8937 7.41609C30.8353 7.35769 30.7769 7.29929 30.7185 7.18249L30.4849 7.00728L30.1929 6.89048L27.9153 6.89048L27.3313 6.77368L27.1561 6.59848L27.0977 6.48168L27.0977 5.83928L27.1561 5.66408L27.1561 5.48888L27.4481 5.25528L27.6817 5.25528C27.7401 5.25528 27.7985 5.25528 27.7985 5.19688C28.3825 5.13848 28.9665 5.13848 29.5505 5.08008L30.2513 5.02168L30.4265 4.96328L30.6017 4.84648L30.7185 4.72968C30.7185 4.67128 30.7769 4.61288 30.8937 4.55448L30.9521 4.32088L30.9521 3.03608C30.9521 2.97768 30.9521 2.97768 30.8937 2.91928L30.7185 2.74407L30.3681 2.51047L30.3097 2.51047C30.2513 2.51047 30.1929 2.51047 30.1345 2.45207L23.0097 2.45207L22.8345 2.51047L22.6593 2.62727C22.6009 2.68567 22.5425 2.74407 22.4257 2.80247L22.3089 2.91927L22.2505 3.03608L22.1921 3.26968L22.1921 13.2561L22.3089 13.5481L22.6009 13.8985C22.7177 13.9569 22.8345 14.0153 22.9513 14.0153L26.2801 14.0153L26.5721 13.8985C26.6305 13.8401 26.6889 13.7817 26.8641 13.7233L26.9809 13.5481L27.0977 13.3729L27.0977 11.7961C27.0977 11.3289 27.0977 10.8033 27.1561 10.2193L27.2729 9.86889L27.6233 9.51849C27.6233 9.57689 27.6817 9.51849 27.7985 9.46009ZM42.5153 13.1977L42.5153 12.9057L42.5737 12.5553L42.5737 3.44488C42.5153 3.32808 42.5153 3.32808 42.4569 3.26968L42.4569 3.15288L42.3985 3.03608L42.2233 2.80248L42.0481 2.62727L41.9313 2.51047L33.9889 2.51047C33.8721 2.51047 33.7553 2.56887 33.6385 2.56887L33.5801 2.62727C33.4633 2.68567 33.4049 2.74407 33.2881 2.80247L33.1129 2.97768L32.9961 3.21128L32.9377 3.38648L32.9377 13.3145L33.1129 13.7817L33.2881 13.8985L33.4633 14.0153L33.9889 14.1321L41.6977 14.1321L41.9897 14.0153C42.1065 13.8985 42.2817 13.7817 42.3401 13.7233L42.5153 13.1977ZM38.3689 11.7961L38.3105 12.0881L38.0185 12.3217L37.6097 12.3217L37.2593 12.0881C37.1425 11.9713 37.1425 11.8545 37.0841 11.7377L37.0841 4.55448L37.1425 4.37928L37.4345 4.08728L37.9017 4.08728L38.1937 4.20408L38.3689 4.55448L38.3689 11.7961ZM49.8737 13.0809C49.9321 13.1977 49.9321 13.2561 49.9321 13.3145L49.9321 13.4313L50.1073 13.7817L50.2825 13.9569L50.3993 14.0153L50.8665 14.1321L53.1441 14.1321L53.4361 14.0153L53.5529 13.9569C53.6113 13.8985 53.6113 13.8401 53.6697 13.8401L53.7865 13.7233L53.9033 13.5481L53.9033 9.51849L53.8449 9.34329L53.5529 8.99289L53.3193 8.87609L53.0273 8.75929C52.6769 8.75929 52.3849 8.75929 52.0345 8.70089L51.8009 8.70089C51.5673 8.70089 51.2753 8.64249 51.0417 8.64249L50.9833 8.64249L50.6329 8.40889L50.5161 8.29209L50.5161 7.82489L50.6913 7.59129L50.9249 7.47449L51.9177 7.47449C52.2681 7.47449 52.5601 7.41609 52.8521 7.41609L52.9105 7.41609L53.0857 7.35769L53.3193 7.24089L53.3777 7.18249L53.4945 7.06569L53.5529 7.00729C53.5529 6.94889 53.6113 6.89048 53.6697 6.83208L53.6697 5.25528C53.6113 4.90488 53.6113 4.61288 53.6697 4.20408C53.7281 3.38648 53.7281 2.91928 52.9105 2.74408L52.7937 2.68567L45.0849 2.68567L44.9681 2.74407L44.8513 2.74407C44.7929 2.80248 44.7345 2.80248 44.7345 2.86088C44.6761 2.91928 44.6177 2.91928 44.5593 2.91928L44.3841 3.21128C44.3257 3.32808 44.3257 3.38648 44.3257 3.38648L44.3257 13.3145L44.4425 13.6649C44.4425 13.7233 44.5593 13.8401 44.5593 13.8985L44.7345 14.0737L44.9097 14.1905L45.1433 14.2489L47.5961 14.2489L47.7129 14.1905L47.9465 14.0737L48.0633 13.8401C48.1217 13.7233 48.1217 13.6649 48.1801 13.4897L48.1801 9.98569C48.2385 9.81049 48.2969 9.63529 48.2969 9.51849L48.3553 9.46009L48.5889 9.34329L48.9393 9.28489L49.2897 9.46009L49.4065 9.69369L49.4649 9.92729L49.4649 11.6209C49.8737 12.0297 49.8737 12.5553 49.8737 13.0809ZM49.6401 7.12409L49.3481 7.24089L49.0561 7.24089L48.7641 7.12409L48.6473 7.00729C48.5889 7.00729 48.5889 6.89048 48.5305 6.71528L48.4721 6.59848L48.4721 4.61288L48.5889 4.37928L48.7057 4.26248L48.9977 4.08728L49.3481 4.14568L49.5233 4.26248L49.6401 4.32088C49.7569 4.43768 49.7569 4.61288 49.8153 4.72968L49.8153 6.83208L49.6401 7.12409ZM70.7226 13.6649L70.8394 13.5481L70.8394 13.3145L70.8978 13.0225L70.8978 3.21128L70.781 2.97768L70.6058 2.74408C70.5474 2.74408 70.5474 2.68568 70.489 2.68568C70.4306 2.62728 70.3722 2.56888 70.3138 2.56888C70.197 2.56888 70.197 2.51048 70.1386 2.51048C70.0802 2.51048 70.0218 2.45207 69.9634 2.45207L55.8889 2.45207L55.8889 12.9641L56.0057 13.3145L56.1225 13.4897L56.2977 13.7233L56.4145 13.8401L56.6481 13.9569L56.7649 14.0153L59.4513 14.0153L59.6849 13.8985L59.8601 13.7233L59.9769 13.5481L59.9769 4.67128L60.1521 4.32088L60.4441 4.14568L60.5609 4.14568C60.6777 4.14568 60.7361 4.20408 60.8529 4.20408L60.9114 4.20408L61.1449 4.32088L61.2033 4.37928C61.3202 4.55448 61.3201 4.72968 61.3785 4.90488C61.3785 6.36488 61.3785 7.82489 61.4369 9.22649L61.4369 13.4897C61.4369 13.5481 61.437 13.6065 61.4953 13.6065C61.4953 13.6649 61.5537 13.7233 61.5537 13.7233L61.6705 13.8401C61.729 13.8985 61.7873 13.9569 61.8458 13.9569L61.9042 13.9569L62.2546 14.0737L65.0578 14.0737L65.1746 14.0153C65.2914 13.9569 65.3498 13.8985 65.4666 13.8401L65.5834 13.6649L65.5834 13.4313L65.6418 13.3145L65.6418 11.9713C65.6418 9.51849 65.7002 7.00729 65.7002 4.61288L65.7002 4.55448L65.8754 4.20408L65.9922 4.08728L66.4594 4.08728L66.6346 4.20408L66.7514 4.26248L66.8682 4.61288L66.8682 8.81769C66.8682 10.0441 66.9266 11.5041 66.9266 13.0225L66.9266 13.1393L66.985 13.1977C66.985 13.2561 67.0434 13.3145 67.1018 13.4313L67.2186 13.6065L67.3354 13.7817L67.569 13.9569L67.6858 14.0153L70.3138 14.0153L70.6642 13.8985L70.7226 13.6649Z" fill="#D44627"/>
</g>
<defs>
<clipPath id="clip0">
<rect width="100.273" height="16.0016" fill="white" transform="translate(0 -0.000732422)"/>
</clipPath>
</defs>
</svg>
