<svg width="100%" height="100%" viewBox="0 0 40 40" fill="none" xmlns="http://www.w3.org/2000/svg">
<path d="M20 39.7997C19 39.7997 17.9334 39.7331 16.9334 39.5331C6.13336 37.8664 -1.26664 27.7331 0.40003 16.9331C1.20003 11.6664 4.00003 7.06641 8.33336 3.99974C12.6 0.866411 17.8667 -0.400255 23.0667 0.399745C33.8667 2.06641 41.2667 12.2664 39.6 23.0664C38.0667 32.7997 29.6 39.7997 20 39.7997ZM19.9334 1.39974C16 1.39974 12.2 2.59974 9.00003 4.99974C5.00003 7.93308 2.33336 12.2664 1.60003 17.1331C2.98768e-05 27.2664 7.00003 36.7997 17.0667 38.3331C27.2 39.9331 36.7334 32.9331 38.2667 22.8664C39.8667 12.7331 32.8667 3.19974 22.8 1.66641C21.8667 1.46641 20.9334 1.39974 19.9334 1.39974Z" fill="#53565A"/>
<path d="M16.3334 21.2674C16.2 20.8674 16.1334 20.4674 16.1334 20.0008C16.1334 17.8674 17.8667 16.0674 20.0667 16.0674C20.5334 16.0674 20.9334 16.1341 21.3334 16.2674L22.2667 15.3341C21.6 15.0008 20.8 14.8008 20 14.8008C17.1334 14.8008 14.8667 17.1341 14.8667 19.9341C14.8667 20.7341 15.0667 21.4674 15.4 22.2008L16.3334 21.2674Z" fill="#53565A"/>
<path d="M27.6 14.7344C28.6667 16.2677 29.2667 18.1344 29.2667 20.001C29.2667 22.4677 28.3334 24.801 26.5334 26.5344C24.8 28.2677 22.4667 29.2677 20 29.2677C18.0667 29.2677 16.2 28.6677 14.7334 27.601L13.8667 28.4677C15.6 29.7344 17.7334 30.4677 20.0667 30.4677C22.8667 30.4677 25.5334 29.401 27.5334 27.401C29.5334 25.401 30.6 22.801 30.6 19.9344C30.6 17.6677 29.8667 15.5344 28.6 13.7344L27.6 14.7344Z" fill="#53565A"/>
<path d="M8.73336 28.8006C6.80002 26.4006 5.66669 23.3339 5.66669 20.0006C5.66669 12.0673 12.1334 5.66727 20 5.66727C23.3334 5.66727 26.4 6.8006 28.8667 8.73394L29.7334 7.86727C27.0667 5.73394 23.6667 4.46727 20 4.46727C11.4 4.4006 4.40002 11.4006 4.40002 20.0006C4.40002 23.6673 5.66669 27.0673 7.80002 29.7339L8.73336 28.8006Z" fill="#53565A"/>
<path d="M12.3333 25.2001C11.3333 23.7335 10.7333 21.9335 10.7333 20.0001C10.7333 14.8668 14.8667 10.7335 20 10.7335C21.8667 10.7335 23.7333 11.3335 25.2667 12.3335L26.1333 11.4668C24.3333 10.2001 22.2667 9.4668 20 9.4668C14.2 9.4668 9.46667 14.2001 9.46667 20.0001C9.46667 22.2668 10.2 24.4001 11.4667 26.1335L12.3333 25.2001Z" fill="#53565A"/>
<path d="M32.1334 10.2012L31.2667 11.0678C33.2 13.5345 34.4 16.6012 34.4 19.9345C34.4 27.8012 28 34.2678 20.0667 34.2678C16.7334 34.2678 13.6 33.1345 11.2 31.1345L10.3334 32.0012C13 34.1345 16.4 35.4678 20.1334 35.4678C28.7334 35.4678 35.7334 28.4678 35.7334 19.8678C35.6 16.2678 34.2667 12.8678 32.1334 10.2012Z" fill="#53565A"/>
<path d="M23.6666 18.6677C23.7999 19.0677 23.9333 19.5344 23.9333 20.001C23.9333 22.1344 22.1999 23.9344 19.9999 23.9344C19.5333 23.9344 19.0666 23.8677 18.6666 23.6677L17.7333 24.601C18.3999 24.9344 19.1999 25.1344 19.9999 25.1344C22.8666 25.1344 25.1333 22.801 25.1333 20.001C25.1333 19.201 24.9333 18.401 24.5999 17.7344L23.6666 18.6677Z" fill="#53565A"/>
<path d="M30.4362 8.47637L8.37463 30.541L9.27042 31.4367L31.3319 9.37203L30.4362 8.47637Z" fill="#C0A968"/>
</svg>
