<svg width="20" height="21" viewBox="0 0 20 21" fill="none" xmlns="http://www.w3.org/2000/svg">
<g clip-path="url(#clip0)">
<path fill-rule="evenodd" clip-rule="evenodd" d="M17.5 2.23535H2.50004C2.26992 2.23535 2.08337 2.4219 2.08337 2.65202V17.652C2.08337 17.8821 2.26992 18.0687 2.50004 18.0687H17.5C17.7302 18.0687 17.9167 17.8821 17.9167 17.652V2.65202C17.9167 2.4219 17.7302 2.23535 17.5 2.23535ZM2.50004 0.985352C1.57957 0.985352 0.833374 1.73154 0.833374 2.65202V17.652C0.833374 18.5725 1.57957 19.3187 2.50004 19.3187H17.5C18.4205 19.3187 19.1667 18.5725 19.1667 17.652V2.65202C19.1667 1.73154 18.4205 0.985352 17.5 0.985352H2.50004ZM16.25 5.15202C16.25 5.84237 15.6904 6.40202 15 6.40202C14.3097 6.40202 13.75 5.84237 13.75 5.15202C13.75 4.46166 14.3097 3.90202 15 3.90202C15.6904 3.90202 16.25 4.46166 16.25 5.15202ZM12.9167 10.152C12.9167 11.7628 11.6109 13.0687 10 13.0687C8.38921 13.0687 7.08337 11.7628 7.08337 10.152C7.08337 8.54119 8.38921 7.23535 10 7.23535C11.6109 7.23535 12.9167 8.54119 12.9167 10.152ZM14.1667 10.152C14.1667 12.4532 12.3012 14.3187 10 14.3187C7.69885 14.3187 5.83337 12.4532 5.83337 10.152C5.83337 7.85083 7.69885 5.98535 10 5.98535C12.3012 5.98535 14.1667 7.85083 14.1667 10.152Z" fill="#BBBBBB"/>
</g>
<defs>
<clipPath id="clip0">
<rect width="20" height="20" fill="white" transform="translate(0 0.152344)"/>
</clipPath>
</defs>
</svg>
