<svg width="100%" height="100%" viewBox="0 0 56 56" fill="none" xmlns="http://www.w3.org/2000/svg">
<path d="M28.0001 55.72C26.6001 55.72 25.1067 55.6267 23.7067 55.3467C8.58673 53.0133 -1.77327 38.8267 0.560066 23.7067C1.68007 16.3333 5.60007 9.89334 11.6667 5.60001C17.6401 1.21334 25.0134 -0.559991 32.2934 0.560009C47.4134 2.89334 57.7734 17.1733 55.4401 32.2933C53.2934 45.92 41.4401 55.72 28.0001 55.72ZM27.9067 1.96001C22.4001 1.96001 17.0801 3.64001 12.6001 7.00001C7.00007 11.1067 3.26673 17.1733 2.24007 23.9867C6.62506e-05 38.1733 9.80007 51.52 23.8934 53.6667C38.0801 55.9067 51.4267 46.1067 53.5734 32.0133C55.8134 17.8267 46.0134 4.48001 31.9201 2.33334C30.6134 2.05334 29.3067 1.96001 27.9067 1.96001Z" fill="#53565A"/>
<path d="M27 27L27 48L29 48L29 27L27 27Z" fill="#C0A968"/>
<path d="M25 29L31 29L31 27L25 27L25 29Z" fill="#C0A968"/>
<path d="M25 23L25 29L27 29L27 23L25 23Z" fill="#C0A968"/>
<path d="M29 23L29 29L31 29L31 23L29 23Z" fill="#C0A968"/>
<path d="M42.7224 37.7321L28 46.2321L29 47.9641L43.7224 39.4641L42.7224 37.7321Z" fill="#C0A968"/>
<path d="M39.9905 37L42.9905 42.1962L44.7225 41.1962L41.7225 36L39.9905 37Z" fill="#C0A968"/>
<path d="M45.1866 34L39.9905 37L40.9905 38.7321L46.1866 35.7321L45.1866 34Z" fill="#C0A968"/>
<path d="M47.1866 37.4641L41.9905 40.4641L42.9905 42.1962L48.1866 39.1962L47.1866 37.4641Z" fill="#C0A968"/>
<path d="M13.4641 37.7321L28.1865 46.2321L27.1865 47.9641L12.4641 39.4641L13.4641 37.7321Z" fill="#C0A968"/>
<path d="M16.196 37L13.196 42.1962L11.464 41.1962L14.464 36L16.196 37Z" fill="#C0A968"/>
<path d="M10.9999 34L16.196 37L15.196 38.7321L9.99989 35.7321L10.9999 34Z" fill="#C0A968"/>
<path d="M8.99989 37.4641L14.196 40.4641L13.196 42.1962L7.99989 39.1962L8.99989 37.4641Z" fill="#C0A968"/>
<path d="M7 28C7 25.2422 7.54318 22.5115 8.59853 19.9637C9.65388 17.4158 11.2007 15.1008 13.1508 13.1508C15.1008 11.2007 17.4158 9.65388 19.9636 8.59853C22.5115 7.54318 25.2422 7 28 7C30.7578 7 33.4885 7.54318 36.0364 8.59853C38.5842 9.65388 40.8992 11.2007 42.8492 13.1508C44.7993 15.1008 46.3461 17.4158 47.4015 19.9637C48.4568 22.5115 49 25.2422 49 28" stroke="#53565A" stroke-width="2"/>
<path d="M14 28C14 26.1615 14.3621 24.341 15.0657 22.6424C15.7693 20.9439 16.8005 19.4005 18.1005 18.1005C19.4005 16.8005 20.9439 15.7693 22.6424 15.0657C24.341 14.3621 26.1615 14 28 14C29.8385 14 31.659 14.3621 33.3576 15.0657C35.0561 15.7693 36.5995 16.8005 37.8995 18.1005C39.1995 19.4005 40.2307 20.9439 40.9343 22.6424C41.6379 24.341 42 26.1615 42 28" stroke="#53565A" stroke-width="2"/>
</svg>
