<svg width="44" height="57" viewBox="0 0 44 57" fill="none" xmlns="http://www.w3.org/2000/svg">
<path d="M43.1931 11.7765L42.4487 11.0321L32.7018 1.28521L31.9574 0.5408C31.6204 0.203835 31.1531 0.00976562 30.6752 0.00976562H2.65395C1.50884 0.00976562 0.275879 0.89418 0.275879 2.83487V37.6649V53.6317V54.0787C0.275879 54.8869 1.08884 55.6747 2.0505 55.9229C2.09878 55.9354 2.14512 55.9538 2.19533 55.9634C2.34595 55.9934 2.49947 56.0098 2.65395 56.0098H41.3461C41.5006 56.0098 41.6541 55.9934 41.8047 55.9634C41.8549 55.9538 41.9013 55.9354 41.9495 55.9229C42.9112 55.6747 43.7242 54.8869 43.7242 54.0787V53.6317V37.6649V13.5058C43.7242 12.7652 43.6353 12.2187 43.1931 11.7765ZM40.2821 11.596H32.1379V3.45183L40.2821 11.596ZM2.65395 54.0787C2.5854 54.0787 2.5236 54.0536 2.46278 54.0314C2.31216 53.96 2.20691 53.8093 2.20691 53.6317V39.596H41.7931V53.6317C41.7931 53.8093 41.6879 53.959 41.5373 54.0314C41.4764 54.0536 41.4146 54.0787 41.3461 54.0787H2.65395ZM2.20691 37.6649V2.83487C2.20691 2.62535 2.23878 1.9408 2.65395 1.9408H30.2629C30.2311 2.06246 30.2069 2.18797 30.2069 2.31832V13.527H41.4156C41.546 13.527 41.6705 13.5029 41.7922 13.471C41.7922 13.4855 41.7931 13.4913 41.7931 13.5058V37.6649H2.20691Z" fill="#53565A"/>
<path d="M15.2819 43.2116C14.9604 42.9481 14.5974 42.7492 14.1928 42.6179C13.7883 42.4856 13.3789 42.4199 12.9657 42.4199H10.1676V52.1485H11.752V48.6369H12.9271C13.4368 48.6369 13.9042 48.5625 14.3261 48.4129C14.748 48.2632 15.1091 48.0518 15.4084 47.7795C15.7077 47.5072 15.9404 47.1703 16.1084 46.7696C16.2755 46.3689 16.3595 45.9228 16.3595 45.4294C16.3595 44.9631 16.26 44.5431 16.0621 44.1685C15.8642 43.7939 15.6035 43.4762 15.2819 43.2116ZM14.6814 46.4259C14.5839 46.6943 14.4574 46.9028 14.299 47.0525C14.1407 47.2021 13.9669 47.3103 13.7777 47.3759C13.5884 47.4416 13.3963 47.4754 13.2032 47.4754H11.7511V43.621H12.9386C13.3432 43.621 13.6686 43.6848 13.9157 43.8122C14.1619 43.9396 14.3531 44.098 14.4902 44.2872C14.6264 44.4765 14.7162 44.6744 14.7606 44.881C14.804 45.0876 14.8262 45.2701 14.8262 45.4285C14.8262 45.8253 14.7779 46.1574 14.6814 46.4259Z" fill="#53565A"/>
<path d="M24.8521 43.845C24.4427 43.4144 23.9281 43.0678 23.3073 42.809C22.6864 42.5503 21.9671 42.4199 21.1493 42.4199H18.219V52.1485H21.9015C22.0241 52.1485 22.2133 52.133 22.4692 52.1021C22.7241 52.0712 23.006 52.0017 23.314 51.8907C23.622 51.7806 23.9407 51.6155 24.2709 51.3954C24.6011 51.1752 24.8975 50.874 25.162 50.4907C25.4266 50.1074 25.6438 49.6323 25.8157 49.0646C25.9875 48.4969 26.0735 47.8123 26.0735 47.0119C26.0735 46.4307 25.9721 45.8649 25.7703 45.3155C25.5666 44.7671 25.2615 44.2766 24.8521 43.845ZM23.6973 49.9568C23.2223 50.6432 22.448 50.986 21.3743 50.986H19.8034V43.6201H20.7274C21.4844 43.6201 22.1004 43.7195 22.5754 43.9174C23.0504 44.1154 23.427 44.3751 23.7041 44.6966C23.9812 45.0181 24.1675 45.3763 24.2651 45.7722C24.3616 46.1681 24.4099 46.5687 24.4099 46.9733C24.4099 48.2758 24.1724 49.2712 23.6973 49.9568Z" fill="#53565A"/>
<path d="M28.3705 52.1485H29.981V47.766H34.0468V46.6836H29.981V43.621H34.4552V42.4199H28.3705V52.1485Z" fill="#53565A"/>
<path d="M31.1029 22.1784C30.2156 22.1784 29.1264 22.2943 27.8607 22.5241C26.0938 20.6491 24.2496 17.9109 22.9481 15.2229C24.239 9.78796 23.5931 9.01844 23.3082 8.65541C23.0051 8.2692 22.5773 7.64258 22.0907 7.64258C21.887 7.64258 21.3309 7.73527 21.1098 7.80865C20.5536 7.99403 20.2543 8.42272 20.0149 8.98175C19.3322 10.5778 20.2688 13.2986 21.2324 15.3957C20.4088 18.6717 19.0271 22.5926 17.575 25.775C13.9157 27.4511 11.9721 29.0973 11.7964 30.6682C11.7327 31.2398 11.8678 32.0789 12.8729 32.8329C13.1481 33.0386 13.4706 33.1477 13.8066 33.1477C14.6514 33.1477 15.5049 32.5008 16.4927 31.1133C17.2129 30.1015 17.9863 28.7218 18.7935 27.0089C21.3791 25.8783 24.5779 24.8568 27.3171 24.2842C28.8426 25.7489 30.2088 26.4904 31.3829 26.4904C32.248 26.4904 32.9895 26.0926 33.5263 25.3405C34.0853 24.5575 34.2128 23.8565 33.9029 23.255C33.5311 22.5318 32.6149 22.1784 31.1029 22.1784ZM13.8278 31.5179C13.376 31.1713 13.402 30.9376 13.4117 30.8497C13.4715 30.3129 14.3125 29.36 16.3758 28.2004C14.8117 31.0892 13.9717 31.4725 13.8278 31.5179ZM21.7451 9.3863C21.7866 9.37278 22.754 10.4493 21.8378 12.4914C20.4609 11.0827 21.6504 9.41816 21.7451 9.3863ZM19.7493 24.8597C20.7293 22.5241 21.6408 19.9452 22.3311 17.5565C23.4154 19.5049 24.7179 21.3954 26.0213 22.9093C23.9609 23.3931 21.7673 24.0757 19.7493 24.8597ZM32.2055 24.3972C31.9081 24.8133 31.2631 24.823 31.0372 24.823C30.5226 24.823 30.3304 24.5169 29.5435 23.9115C30.1924 23.8285 30.8045 23.8073 31.2921 23.8073C32.1504 23.8073 32.3078 23.9338 32.4266 23.9975C32.4053 24.066 32.3493 24.1954 32.2055 24.3972Z" fill="#C0A968"/>
</svg>
