<svg width="25" height="24" viewBox="0 0 25 24" fill="none" xmlns="http://www.w3.org/2000/svg">
<path fill-rule="evenodd" clip-rule="evenodd" d="M20.0623 22H20.1931C20.8049 22 21.3917 21.7569 21.8243 21.3241C22.2569 20.8913 22.5 20.3043 22.5 19.6923V15.6308C22.5021 15.3253 22.4133 15.0261 22.2449 14.7713C22.0764 14.5165 21.836 14.3176 21.5541 14.2L18.6551 13.0385C18.3767 12.9213 18.0701 12.8888 17.7733 12.9449C17.4766 13.001 17.2029 13.1432 16.9865 13.3538L15.3178 15.0077C13.8641 14.749 12.5251 14.0493 11.4824 13.0035C10.4398 11.9577 9.74383 10.6164 9.48902 9.16154L11.1269 7.50769C11.3398 7.29436 11.4854 7.02316 11.5456 6.72776C11.6057 6.43237 11.5778 6.12581 11.4653 5.84616L10.2964 2.96923C10.1825 2.68298 9.9852 2.43755 9.73019 2.26474C9.47518 2.09193 9.17417 1.9997 8.86615 2H4.81369C4.75217 2 4.69091 2.00231 4.62991 2.00692C4.01993 2.05388 3.45357 2.34129 3.05542 2.80594C2.65726 3.27059 2.45991 3.87442 2.50679 4.48462C2.80668 8.37692 4.95211 21.1308 20.0623 22ZM4.51924 3.59613C4.61265 3.55776 4.71271 3.53816 4.81369 3.53846H8.87384L10.0273 6.43846L7.84343 8.64616L7.88956 9.01539C7.88956 9.08462 8.79695 15.7769 15.487 16.6154L15.8561 16.6615L18.063 14.4692L20.962 15.6308V19.6923L20.9605 19.74C20.9482 19.9436 20.8556 20.134 20.703 20.2693C20.5505 20.4046 20.3504 20.4737 20.1469 20.4615C6.6669 19.6923 4.39845 8.92308 4.04472 4.36923C4.04318 4.34821 4.04242 4.32692 4.04242 4.30539C4.04272 4.20437 4.06291 4.1044 4.10183 4.01119C4.14076 3.91798 4.19765 3.83335 4.26927 3.76213C4.34089 3.69092 4.42583 3.63451 4.51924 3.59613ZM22.0333 7.36667V9H15.5V2.46667H17.1333V6.2119L21.3452 2L22.5 3.15477L18.2881 7.36667H22.0333Z" fill="black"/>
</svg>
