<svg width="56" height="56" viewBox="0 0 56 56" fill="none" xmlns="http://www.w3.org/2000/svg">
<path d="M28.0001 55.72C12.6934 55.72 0.186768 43.3067 0.186768 28C0.186768 12.6934 12.6934 0.186707 28.0001 0.186707C43.3068 0.186707 55.8134 12.6934 55.8134 28C55.8134 43.3067 43.3068 55.72 28.0001 55.72ZM28.0001 1.96004C13.6268 1.96004 1.9601 13.6267 1.9601 28C1.9601 42.3734 13.6268 54.04 28.0001 54.04C42.3734 54.04 54.0401 42.3734 54.0401 28C54.0401 13.6267 42.3734 1.96004 28.0001 1.96004Z" fill="#53565A"/>
<path d="M35.8401 22.7733L35.7467 21.9333C35.6534 20.72 35.0001 17.8266 31.8267 16.24L31.0801 15.8666L31.9201 14.28L32.6667 14.6533C36.6801 16.7066 37.4267 20.2533 37.5201 21.7466L37.6134 22.5866L35.8401 22.7733Z" fill="#53565A"/>
<path d="M44.4266 22.2133C43.6799 21.1867 42.0932 20.5333 40.2266 20.3467C39.8532 18.48 38.8266 15.3067 35.4666 13.0667C35.7466 12.7867 36.0266 12.5067 36.2132 12.04C36.6799 11.9467 37.0532 11.6667 37.3332 11.2933C37.6132 10.92 37.9866 10.1733 37.4266 8.86666C37.3332 8.58666 37.1466 8.21332 36.6799 7.83999C35.9332 7.37332 34.9066 7.37332 33.5999 7.83999H33.4132L33.3199 7.93332C33.3199 7.93332 33.3199 7.93332 33.2266 7.93332C32.9466 7.93332 31.3599 8.11999 30.3332 8.21332C29.9599 7.83999 29.4932 7.65332 29.2132 7.46666L28.3732 7.09332L27.9999 7.93332C27.9999 7.93332 27.6266 8.67999 27.2532 9.89332C25.7599 11.0133 25.1066 12.6 25.1066 12.6933L24.5466 14.0933L25.3866 13.9067C25.1066 15.3067 24.3599 16.6133 24.3599 16.6133L23.4266 18.1067L25.1999 17.92C25.1999 17.92 25.1999 17.92 25.2932 17.92C25.2932 19.1333 25.7599 20.16 25.8532 20.16L26.4132 21.28L26.7866 20.8133C26.8799 21 26.8799 21.28 26.9732 21.56L27.2532 22.68L27.6266 22.4C27.0666 23.52 26.1332 25.2933 24.9199 26.4133C24.3599 26.9733 23.2399 28 22.7732 29.4933C22.6799 29.4933 22.6799 29.5867 22.4932 29.5867C19.9732 30.0533 19.5999 30.4267 18.2932 32.6667C17.8266 33.4133 17.2666 34.3467 16.4266 35.9333C16.1466 36.4 14.0932 37.1467 12.0399 37.7067L10.6399 38.08L11.6666 39.2C11.7599 39.2933 14.1866 41.9067 17.6399 40.9733C20.0666 40.2267 21.9332 38.7333 23.4266 36.12C23.7066 36.4933 24.0799 36.7733 24.4532 36.96C24.4532 37.3333 24.2666 37.8933 23.7999 38.7333C22.9599 39.76 23.7999 41.6267 24.1732 42.28C24.3599 42.84 24.7332 44.0533 24.7332 44.7067C24.7332 44.8933 24.7332 44.9867 24.8266 45.1733C24.8266 45.2667 24.8266 45.36 24.9199 45.4533C24.9199 45.64 25.1066 46.0133 25.9466 46.76C26.9732 47.6 27.9066 47.9733 28.7466 47.88C28.9332 47.88 29.2132 47.6933 29.4932 47.5067C29.4932 47.6 29.5866 47.6 29.5866 47.6933C29.7732 47.88 29.9599 48.16 30.0532 48.2533C30.3332 48.6267 30.7066 48.8133 31.0799 48.9067C31.4532 48.9067 31.7332 49 32.0132 49C32.7599 49 33.3199 48.8133 33.6932 48.5333C34.0666 48.2533 34.2532 47.88 34.2532 47.4133C34.2532 47.32 34.2532 47.2267 34.2532 47.1333C34.3466 46.6667 34.4399 45.92 33.9732 45.36C33.7866 45.08 33.5066 44.8933 33.1332 44.8C32.9466 44.3333 32.5732 43.4 32.1999 41.72C32.1999 41.6267 32.1999 41.5333 32.1999 41.3467C32.1999 40.7867 32.1999 39.9467 32.7599 38.64C32.8532 38.4533 32.9466 38.1733 33.0399 37.8C33.1332 37.52 33.1332 37.3333 33.2266 37.0533C33.3199 36.7733 33.4132 36.3067 33.5066 36.2133C34.2532 35.28 34.8132 33.6933 34.3466 31.8267C35.8399 30.9867 37.7999 29.3067 38.2666 27.16C39.0132 26.9733 39.6666 26.4133 40.4132 25.8533C40.4132 25.9467 40.4132 26.04 40.4132 26.2267C40.4132 26.4133 40.5066 27.0667 40.5066 27.2533C40.2266 28.1867 40.8799 29.3067 41.6266 30.3333C41.8132 30.52 41.9999 30.7067 42.1866 30.8C42.4666 30.8933 42.8399 30.8933 43.3066 30.7067C45.1732 30.1467 45.1732 28.1867 45.1732 26.6933C45.1732 26.2267 45.1732 25.76 45.1732 25.3867C45.2666 24.64 45.2666 23.3333 44.4266 22.2133ZM43.8666 24.8267C43.7732 25.2933 43.7732 25.8533 43.7732 26.32C43.7732 27.8133 43.6799 28.56 43.1199 28.7467C42.5599 27.9067 42.4666 27.5333 42.4666 27.44C42.6532 26.88 42.5599 26.32 42.4666 25.6667C42.4666 25.5733 42.4666 25.48 42.4666 25.48C42.4666 25.3867 42.4666 25.3867 42.4666 25.2933C42.4666 24.8267 42.4666 24.08 42.0932 23.7067C41.8132 23.4267 41.5332 23.24 41.2532 23.1467L40.7866 23.0533L40.4132 23.3333C40.1332 23.52 39.8532 23.8 39.6666 23.9867C38.8266 24.64 38.1732 25.2 37.7066 25.2H36.7732V26.1333C36.6799 28.28 34.2532 29.96 33.0399 30.52L32.1999 30.8L32.5732 31.64C33.3199 33.2267 32.7599 34.5333 32.2932 35.0933C31.9199 35.4667 31.8266 36.0267 31.6399 36.68C31.5466 36.8667 31.5466 37.1467 31.4532 37.3333C31.3599 37.6133 31.2666 37.8933 31.1732 38.08C30.5199 39.6667 30.5199 40.88 30.5199 41.44C30.5199 41.5333 30.5199 41.6267 30.5199 41.72L30.4266 41.9067L30.5199 42.0933C30.7999 43.4 31.1732 44.4267 31.4532 45.2667C31.8266 46.2933 32.0132 46.48 32.3866 46.6667H32.4799H32.5732C32.6666 46.6667 32.6666 46.6667 32.7599 46.6667C32.7599 46.76 32.7599 47.04 32.7599 47.1333C32.7599 47.2267 32.7599 47.4133 32.7599 47.5067C32.6666 47.5067 32.4799 47.6 32.1999 47.6C32.0132 47.6 31.7332 47.6 31.5466 47.6C31.4532 47.5067 31.2666 47.32 31.0799 47.04C30.8932 46.76 30.5199 46.3867 30.4266 46.2C29.6799 44.1467 28.8399 41.9067 28.6532 41.3467C28.6532 40.9733 28.8399 39.8533 29.0266 38.92L29.1199 37.9867L27.3466 37.7067L27.2532 38.64C26.8799 41.16 26.8799 41.3467 26.8799 41.44C26.8799 41.6267 26.8799 41.8133 28.6532 46.48C28.5599 46.5733 28.5599 46.5733 28.4666 46.6667C27.9066 46.5733 27.0666 45.8267 26.6932 45.4533C26.6932 45.36 26.5999 45.2667 26.5999 45.1733C26.5999 43.96 25.9466 42.0933 25.9466 42.0933V42C25.1999 40.88 25.1999 40.32 25.1999 40.2267L25.2932 40.04C26.2266 38.4533 26.5066 37.0533 26.1332 36.2133C25.9466 35.9333 25.6666 35.6533 25.3866 35.6533C25.1999 35.6533 24.5466 35.1867 24.3599 34.16L22.6799 33.9733C21.1866 37.1467 19.5066 38.92 16.9866 39.5733C15.7732 39.9467 14.7466 39.6667 13.9999 39.2933C15.5866 38.8267 17.3599 38.08 17.8266 37.1467C18.6666 35.56 19.2266 34.6267 19.6932 33.88C20.8132 31.92 20.8132 31.92 22.7732 31.64C23.7999 31.4533 24.1732 30.8933 24.2666 30.7067L24.3599 30.6133V30.52C24.7332 29.3067 25.6666 28.28 26.1332 27.9067C27.3466 26.88 28.2799 25.2933 28.8399 24.2667C30.0532 22.12 29.9599 21.6533 29.8666 21.4667L29.6799 20.9067H29.4932C29.4932 20.8133 29.3999 20.72 29.3999 20.6267L28.9332 19.04L28.3732 19.6C28.2799 19.1333 28.1866 18.76 28.1866 18.6667C28.1866 18.6667 28.1866 18.6667 28.1866 18.76L27.1599 18.5733C27.0666 18.2 26.9732 17.64 27.0666 17.1733C27.0666 17.1733 27.0666 17.08 27.1599 16.9867V16.8933L26.4132 16.3333C26.6932 15.68 27.0666 14.84 27.2532 13.8133L27.3466 13.44C27.3466 13.3467 27.4399 13.16 27.5332 12.9733L28.0932 11.76H27.6266C27.9066 11.3867 28.1866 11.1067 28.6532 10.8267L28.9332 10.64L29.0266 10.36C29.1199 9.98666 29.3066 9.61332 29.3999 9.23999L29.6799 9.70666L30.2399 9.61332C31.6399 9.51999 33.2266 9.33332 33.4132 9.33332C33.7866 9.33332 34.0666 9.23999 34.3466 9.05332C35.5599 8.67999 35.9332 8.86666 35.9332 8.95999L36.0266 9.05332C36.2132 9.51999 36.2132 9.79999 36.1199 9.79999C36.1199 9.89332 35.9332 9.89332 35.8399 9.89332H35.3732L35.0932 10.36C34.5332 11.3867 33.9732 11.8533 33.5999 12.04L32.2932 12.88L33.6932 13.6267C37.8932 15.7733 38.7332 19.6 38.8266 21.0933L38.9199 21.9333H39.7599C41.6266 21.9333 42.9332 22.5867 43.3999 23.1467C43.9599 23.8 43.8666 24.64 43.8666 24.8267Z" fill="#C0A968"/>
</svg>
