<svg width="100%" height="100%" viewBox="0 0 60 60" fill="none" xmlns="http://www.w3.org/2000/svg">
<path d="M30 59.7C13.6 59.7 0.199951 46.4 0.199951 30C0.199951 13.6 13.6 0.200012 30 0.200012C46.3999 0.200012 59.7999 13.6 59.7999 30C59.7999 46.4 46.3999 59.7 30 59.7ZM30 2.10001C14.6 2.10001 2.09995 14.6 2.09995 30C2.09995 45.4 14.6 57.9 30 57.9C45.3999 57.9 57.9 45.4 57.9 30C57.9 14.6 45.3999 2.10001 30 2.10001Z" fill="#53565A"/>
<path fill-rule="evenodd" clip-rule="evenodd" d="M38.0334 21.4565L21.9665 21.4565L14.0499 41.2576C13.5247 42.5712 14.4922 44 15.907 44H44.0929C45.5077 44 46.4752 42.5712 45.95 41.2576L38.0334 21.4565ZM21.9665 19.4565C21.1486 19.4565 20.4131 19.9546 20.1094 20.7141L12.1929 40.5151C11.1424 43.1424 13.0774 46 15.907 46H44.0929C46.9225 46 48.8575 43.1425 47.807 40.5151L39.8905 20.7141C39.5868 19.9546 38.8513 19.4565 38.0334 19.4565H21.9665Z" fill="#53565A"/>
<path fill-rule="evenodd" clip-rule="evenodd" d="M29.9999 10C27.4645 10 25.3999 12.068 25.3999 14.6304C25.3999 17.1929 27.4645 19.2609 29.9999 19.2609C32.5353 19.2609 34.5999 17.1929 34.5999 14.6304C34.5999 12.068 32.5353 10 29.9999 10ZM23.3999 14.6304C23.3999 10.9737 26.3497 8 29.9999 8C33.6501 8 36.5999 10.9737 36.5999 14.6304C36.5999 18.2872 33.6501 21.2609 29.9999 21.2609C26.3497 21.2609 23.3999 18.2872 23.3999 14.6304Z" fill="#53565A"/>
<path d="M24 28.1084H25.7526V32.3976L27.6721 28.1084H29.3532L27.5052 32.4578L29.5439 37.8675H27.7913L26.1818 33.4337L25.7526 34.1687V37.8675H24V28.1084Z" fill="#C0A968"/>
<path d="M33.1029 38C32.1888 38 31.5291 37.7149 31.1237 37.1446C30.7263 36.5663 30.5276 35.7349 30.5276 34.6506V31.3735C30.5276 30.257 30.7343 29.4177 31.1476 28.8554C31.5609 28.2851 32.2723 28 33.2817 28C34.2355 28 34.919 28.241 35.3323 28.7229C35.7457 29.1968 35.9523 29.9036 35.9523 30.8434V31.3494H34.2713V30.7952C34.2713 30.4418 34.2474 30.1606 34.1997 29.9518C34.16 29.743 34.0686 29.5823 33.9255 29.4699C33.7904 29.3574 33.5837 29.3012 33.3055 29.3012C33.0114 29.3012 32.7929 29.3735 32.6498 29.5181C32.5067 29.6627 32.4114 29.8474 32.3637 30.0723C32.3239 30.2972 32.3041 30.5904 32.3041 30.9518V35.0361C32.3041 35.5904 32.3756 36.004 32.5187 36.2771C32.6697 36.5502 32.9479 36.6867 33.3532 36.6867C33.7506 36.6867 34.0249 36.5422 34.1759 36.253C34.3348 35.9639 34.4143 35.5301 34.4143 34.9518V34.0361H33.3771V32.9157H36V37.8675H34.8554L34.7362 36.9157C34.4342 37.6386 33.8897 38 33.1029 38Z" fill="#C0A968"/>
</svg>
