<svg width="100%" height="100%" viewBox="0 0 41 40" fill="none" xmlns="http://www.w3.org/2000/svg">
<g clip-path="url(#clip0)">
<path d="M20.3334 39.7995C9.40007 39.7995 0.466736 30.9328 0.466736 19.9995C0.466736 9.06615 9.40007 0.132812 20.3334 0.132812C31.2667 0.132812 40.2001 9.06615 40.2001 19.9995C40.2001 30.9328 31.2667 39.7995 20.3334 39.7995ZM20.3334 1.39948C10.0667 1.39948 1.7334 9.73281 1.7334 19.9995C1.7334 30.2661 10.0667 38.5995 20.3334 38.5995C30.6001 38.5995 38.9334 30.2661 38.9334 19.9995C38.9334 9.73281 30.6001 1.39948 20.3334 1.39948Z" fill="#53565A"/>
<path d="M20.9333 22.5319V8.86523H19.6667V22.5319L17.2 20.3986V22.0652L20.3333 24.7319L23.4667 21.9986V20.3986L20.9333 22.5319Z" fill="#C0A968"/>
<path d="M20.6001 31.0656C20.5334 31.0656 20.4667 31.0656 20.4001 31.0656H20.2667C19.9334 31.0656 18.0001 31.1323 15 29.1323C11.6667 26.8656 6.00005 27.399 5.93338 27.399L5.80005 26.1323C6.06672 26.1323 11.9334 25.5323 15.6667 28.0656C18.4001 29.9323 20.1334 29.799 20.1334 29.799H20.2H20.4667C20.4667 29.799 22.2001 29.9323 24.9334 28.0656C26.5334 26.999 28.6667 26.3323 31.3334 26.1323C33.2667 25.999 34.8001 26.1323 34.8667 26.1323L34.7334 27.399C34.6667 27.399 29.0001 26.8656 25.6667 29.1323C23.0667 30.9323 21.2001 31.0656 20.6001 31.0656Z" fill="#53565A"/>
<path d="M20.6001 26.7316C20.5334 26.7316 20.4667 26.7316 20.4001 26.7316H20.2667C19.9334 26.7316 18.0001 26.7983 15 24.7983C11.6667 22.5317 6.00005 23.065 5.93338 23.065L5.80005 21.7983C6.06672 21.7983 11.9334 21.1983 15.6667 23.7316C18.4001 25.5983 20.1334 25.465 20.1334 25.465H20.2H20.4667C20.4667 25.465 22.2001 25.5983 24.9334 23.7316C26.5334 22.665 28.6667 21.9983 31.3334 21.7983C33.2667 21.665 34.8001 21.7983 34.8667 21.7983L34.7334 23.065C34.6667 23.065 29.0001 22.5317 25.6667 24.7983C23.0667 26.5316 21.2001 26.7316 20.6001 26.7316Z" fill="#53565A"/>
<path d="M16.0667 18.731C15.9334 18.6644 15.8 18.5977 15.6667 18.4644C11.9334 15.931 6.00005 16.4644 5.80005 16.531L5.93338 17.7977C6.00005 17.7977 11.6667 17.2644 15 19.531C15.4 19.7977 15.7334 19.9977 16.0667 20.1977V18.731Z" fill="#53565A"/>
<path d="M31.3333 16.5319C28.6667 16.7319 26.5333 17.3986 24.9333 18.4653C24.8 18.5319 24.6667 18.5986 24.5333 18.7319V20.1986C24.8667 19.9986 25.2 19.7986 25.6 19.5319C28.9333 17.2652 34.6 17.7986 34.6667 17.7986L34.8 16.5319C34.8 16.5319 33.2667 16.3986 31.3333 16.5319Z" fill="#53565A"/>
</g>
<defs>
<clipPath id="clip0">
<rect width="40" height="40" fill="white" transform="translate(0.333374)"/>
</clipPath>
</defs>
</svg>
