<svg width="100%" height="100%" viewBox="0 0 946 946" fill="none" xmlns="http://www.w3.org/2000/svg">
<path d="M717.053 72.4227C667.941 42.4369 612.884 21.2292 554.063 10.9803L558.162 15.8251L563.84 24.8076L565.45 26.4177L588.245 47.5181L590.703 52.433L587.398 53.2804L593.075 58.1106L592.313 62.1781L598.838 63.0255L593.075 63.7882L593.923 67.0931L602.058 68.7032L606.973 73.618L612.65 71.9233L611.04 73.618L610.193 74.3807L617.481 78.4484L621.548 79.2958L635.446 80.9059L641.886 88.1935L649.258 89.0409L650.021 77.6857L654.089 74.3807L649.258 67.0931L654.089 64.6356L650.869 60.5681L654.767 65.3136L652.479 69.5507L654.936 65.483L654.767 65.3136L656.546 62.1781L664.681 71.9233L661.461 75.9908L679.341 88.1935V79.2958L682.561 82.5159L686.629 78.4484L679.341 65.483L676.884 66.2457L679.341 63.7882L671.206 61.4155L669.596 57.348L674.426 58.958L677.731 54.8905H681.799L685.019 59.7207L694.001 63.0255L694.764 67.8558L716.797 72.7708L717.053 72.4227Z" fill="#0F100F"/>
<path d="M468.501 4.02162C469.999 4.00754 471.499 4.00049 473 4.00049C477.655 4.00049 482.294 4.06831 486.917 4.20301L488.167 7.69006L492.234 9.30017L476.812 20.7401L477.574 26.4177L466.219 25.5703L462.151 21.5027L460.541 19.0453L454.016 19.8927L448.339 12.605L468.501 4.02162Z" fill="#0F100F"/>
<path d="M409.82 8.21966C411.693 7.96745 413.57 7.72631 415.449 7.49628L418.171 9.30017L416.561 10.9102L409.273 10.1476L409.82 8.21966Z" fill="#0F100F"/>
<path d="M382.802 12.6657C386.965 11.8547 391.148 11.0988 395.35 10.3987L396.223 12.605H393.003L382.411 13.3677L382.802 12.6657Z" fill="#0F100F"/>
<path d="M358.949 17.9647C364.662 16.5375 370.416 15.2151 376.209 13.9996L376.733 15.8251L358.853 18.2826L358.949 17.9647Z" fill="#0F100F"/>
<path d="M344.762 21.7479C345.487 21.5421 346.214 21.338 346.941 21.1357L346.65 21.5027L344.762 21.7479Z" fill="#0F100F"/>
<path d="M326.971 27.1804C326.996 27.1722 327.021 27.1639 327.047 27.1557L327.075 27.1804H326.971Z" fill="#0F100F"/>
<path d="M238.079 66.9881C238.309 66.8548 238.539 66.7217 238.769 66.5888L240.047 68.7032L243.267 66.2457L240.047 70.3134L249.029 69.5507L261.232 74.3807L262.842 71.1606L264.452 75.9908L283.942 75.2281H288.857L296.145 72.7708L297.84 66.2457L304.28 65.483L300.212 63.7882L305.975 62.1781L311.652 63.0255L309.195 67.0931L319.787 64.6356L309.195 72.7708L316.482 69.5507L309.195 73.618L312.415 75.9908L318.177 70.3134L331.143 71.1606L329.532 82.5159L323.855 87.4308L328.685 97.176L332.753 93.1084L336.057 94.7185L336.82 103.701L331.99 102.091L336.82 105.311H332.753L339.278 110.989L337.668 113.446H329.532L338.515 114.294H339.278V115.056L336.057 122.429L328.685 118.361L331.143 121.581L323.855 124.039L334.447 127.259L320.55 131.326L325.295 132.682L323.855 132.174L332.753 131.326L328.685 133.784L326.312 133.021L323.855 136.241L332.753 134.631L323.008 139.462L327.922 141.072L333.6 136.241L336.057 139.462L327.16 142.766L335.21 146.834L327.922 160.647L328.685 150.054L324.617 145.986L325.465 160.647L320.55 159.799L317.33 166.324L313.262 160.647L315.72 150.054L312.415 146.834L310.805 159.799L304.28 156.579L310.805 164.714L292.077 160.647L304.28 167.172L303.517 168.782L301.907 171.239L308.347 173.612L305.975 180.137L295.382 177.679L292.077 168.782L291.315 166.324V168.782L290.467 176.069L286.4 168.782L285.637 167.934H281.569V168.782L283.942 173.612L270.977 169.544L261.232 165.477H255.469L259.537 167.934L255.469 172.002L254.707 169.544L253.859 167.172L252.249 169.544L250.639 173.612L244.114 174.459V163.104L237.589 165.477L236.826 170.392V171.239L235.979 170.392L234.369 165.477L231.911 171.239L231.064 172.849H223.776L224.624 171.239L229.454 163.867L224.624 169.544L225.386 164.714L222.929 169.544L218.099 168.782L216.489 172.002L215.641 175.307L212.421 172.849L213.184 172.002L215.472 168.951L212.421 172.002L214.031 166.324L215.641 168.782L218.099 165.477L211.574 164.714L205.896 167.172H211.574L208.354 171.239H203.439L201.829 165.477L207.506 159.799L205.896 165.477L209.116 159.799L205.896 159.036L212.421 154.969L205.896 158.189L203.439 154.122L207.506 150.054L203.439 153.274V148.444L200.981 156.579L200.219 149.207L195.303 151.664L197.761 156.579L193.694 159.036V153.274L192.846 156.579L189.626 155.732L192.846 158.189L185.558 165.477L182.254 163.867L183.101 167.934L179.881 165.477V168.782L174.966 167.172L168.441 170.392V167.172L173.356 166.324L168.441 163.867L179.881 159.036L190.389 145.986L186.321 149.207L185.558 145.986L179.881 155.732L176.576 150.901L180.643 147.597L173.356 142.766L170.898 152.512L168.441 144.376L166.831 147.597L165.983 149.207V150.054L169.288 156.579L163.611 168.782L162.763 167.934L149.713 153.274L148.103 141.072L150.561 138.699H147.34L148.376 134.503C149.657 133.274 150.945 132.052 152.24 130.837L157.086 128.869L153.655 129.516C177.801 107.057 204.319 87.1125 232.791 70.1007L237.589 71.1606L234.325 69.1885C235.553 68.4607 236.786 67.7384 238.021 67.0215L238.436 68.7032L238.079 66.9881Z" fill="#0F100F"/>
<path fill-rule="evenodd" clip-rule="evenodd" d="M22.9602 605.439C10.6204 563.44 4 518.993 4 473C4 444.661 6.51363 416.908 11.3301 389.953L12.264 390.887L10.654 396.564L15.4842 393.259V403.089L19.5518 390.039L22.0092 391.649L25.3141 385.972L22.8566 385.124L41.5843 372.922V373.769L44.8044 374.616L43.1943 378.684L46.4145 374.616L49.7194 377.836L48.0246 372.159L41.5843 372.922L46.4145 369.701L58.6171 376.227L47.2619 381.057V387.582L35.8219 385.124L26.9242 390.887L24.4666 399.022L28.5342 403.852L23.6193 406.309L35.0592 414.444L33.4491 430.715L37.5167 427.495L57.007 438.85L56.1596 446.985L63.532 450.205L57.8544 451.052L62.6846 451.9L65.9895 452.662L63.532 451.052V450.205L65.9895 447.832V448.595L70.0571 450.205L77.3448 446.985L68.3623 451.052L71.6672 454.272L83.8697 438.85L96.0724 433.172L101.75 435.63L99.2926 447.832L104.97 448.595L114.8 439.697L111.495 435.63L118.02 425.8L130.223 431.562L138.358 443.765L141.578 440.46L153.018 447.832L148.95 437.24L152.171 433.172L120.478 418.512L126.155 413.597L122.088 412.834V404.699L131.07 398.174L140.815 384.362L175.813 381.057L179.881 369.701L174.118 362.414L170.051 364.786V360.719L164.373 365.634V362.414L157.086 371.312L148.103 373.769L143.273 372.922L130.223 372.159L131.07 368.091L107.428 385.124L109.038 389.192L105.818 401.394L98.5299 399.784L100.14 403.852L92.7675 404.699L95.225 399.784L91.1575 402.242L84.6324 397.327L86.3272 402.242L83.8697 399.784L75.7346 409.529L60.2272 416.902L57.007 409.529L48.0246 413.597L43.1943 406.309L50.4821 396.564L54.5495 397.327L61.0746 381.904L68.3623 377.836L63.532 379.447L68.3623 376.227L65.9895 374.616L80.5649 360.719L70.8198 364.786L69.2097 359.956L55.3969 360.719L51.3295 355.041L53.7868 343.686L57.8544 340.381V345.296H61.0746L59.4645 341.229L65.9895 342.076L61.0746 338.771L62.6846 334.704L76.4973 338.008L66.7522 333.941L72.4297 332.246H69.2097L70.8198 329.026L76.4973 329.873L73.2772 328.179L74.8872 324.958L77.3448 328.179V324.111L83.0223 331.483L80.5649 335.551L85.4798 336.314L87.9373 333.941L83.8697 334.704L85.4798 329.873L83.0223 330.636L78.9548 324.958H83.0223L81.4123 321.738L83.8697 325.806L83.0223 320.044L87.0899 319.281L90.3948 316.823L91.1575 324.111L92.0049 320.891V324.958L95.225 323.348L93.6149 327.416L96.8351 320.044L101.75 328.179L102.597 320.891V329.873L104.207 324.958L104.97 329.873L109.885 324.958L114.8 329.026L112.343 331.483L116.41 335.551L124.545 333.094L116.41 332.246L114.8 327.416H128.613L126.155 330.636L129.375 332.246L130.223 328.179L135.138 329.873L131.833 326.568L140.815 330.636L137.51 327.416L146.493 324.958V327.416L148.103 324.111L153.781 327.416L149.713 324.111L158.696 323.348V320.044L165.221 326.568L164.373 320.891L170.898 324.958L171.746 318.433L174.118 321.738L174.966 318.433L178.186 320.044L174.966 324.958L180.643 320.044L184.711 324.958L182.254 319.281L186.321 322.501L196.151 317.671L196.914 324.111L199.371 319.281L203.439 320.044L199.371 322.501L203.439 321.738L200.219 324.111L198.524 324.958H199.371L209.116 322.501V323.348L208.354 328.179L210.726 324.958L213.184 320.891L214.794 329.026V329.873L226.996 324.111L229.454 329.026L219.709 333.941L232.759 329.873L226.234 334.704L229.454 335.551L236.826 331.483L237.589 334.704L231.064 338.008L238.436 337.161L240.047 346.906L235.132 347.754L231.064 342.839L230.301 345.296L229.454 350.211H233.521L234.369 355.889L240.047 354.279L241.657 359.109L238.436 355.889L235.979 359.109L240.047 363.176L234.369 367.244L239.199 364.024L244.961 368.854L253.859 391.649V393.259L253.097 406.309L243.267 409.529L236.826 411.987L216.489 381.057L217.251 394.107L213.184 393.259L218.099 403.089L211.574 406.309L207.506 416.055L213.184 432.325L219.709 428.257L216.489 419.359L220.556 416.055L225.386 423.427L222.166 425.037L225.386 424.19L230.301 430.715L231.911 433.172L234.369 425.037L235.132 420.122L237.589 419.359L243.267 417.664L253.097 415.292L257.927 425.8L271.74 399.784L270.977 393.259L280.722 406.309L279.875 410.377L270.129 411.224L270.977 420.122L278.264 422.58L283.179 415.292L288.857 416.902L288.01 412.834L307.585 411.224L306.737 414.444L316.482 408.767L318.94 409.529L314.11 410.377L310.042 417.664L317.33 420.122L320.55 416.055L329.532 418.512L338.515 415.292L340.125 424.19L341.735 419.359H347.413L345.803 409.529L349.023 406.309L371.055 420.122L367.75 418.512L379.19 433.172L384.868 423.427L379.953 415.292L374.276 414.444L375.123 408.767L376.733 394.954L384.021 390.039L389.698 373.769L397.833 374.616L402.748 376.989L397.833 392.497L401.901 399.784L401.138 411.224L399.528 424.19L404.358 430.715L394.613 450.205L380.8 452.662L396.223 459.187L410.036 440.46L409.273 426.647L418.171 424.19L420.628 438.85L429.611 442.917L423.086 439.697L426.306 433.172L423.086 425.037L414.951 420.122L405.206 421.732L406.816 411.224L407.663 403.852L402.748 393.259L410.883 383.514L410.036 375.379L415.798 396.564L425.544 399.784L414.951 387.582L423.086 388.429L420.628 383.514L423.933 381.057L430.374 385.124V386.819L431.221 388.429V395.717L432.068 397.327V407.157L432.831 408.767V410.377H436.899L439.356 409.529H443.424L445.034 408.767L449.101 411.987L448.339 408.767L445.881 388.429L433.679 379.447L430.374 365.634L454.016 359.109L447.491 347.754L451.559 350.211L449.949 343.686L469.439 329.026L465.372 330.636L466.219 327.416L474.354 324.958V329.026L480.879 320.891L484.947 321.738L480.032 318.433L483.252 316.823L486.557 315.976L483.252 308.688L486.557 298.943L493.844 299.706L490.624 305.468L500.369 303.011V308.688L509.352 299.706L523.164 304.621L524.775 307.841L519.86 307.078L527.232 311.146L519.86 338.771L520.707 350.974V344.449L532.062 331.483L527.995 333.941L526.385 329.873L530.452 326.568L535.367 329.026L534.52 324.958L542.655 331.483L545.112 322.501L554.857 316.823L555.705 320.891L562.23 320.044H562.993L571.128 314.366L566.297 302.163H575.195L581.72 296.486L588.245 298.943L587.398 303.011L593.075 302.163L591.465 307.078L611.803 310.298L602.905 295.638L610.193 296.486L612.65 288.351L621.548 285.893L617.481 282.673L622.396 276.995H621.548L615.108 276.148L613.413 272.08V271.233L612.65 272.08L611.803 274.538V265.555H607.736L621.548 250.133L619.938 259.03L622.396 250.133L626.463 255.81L621.548 254.963L628.921 259.03L622.396 249.285L624.006 245.218L630.531 241.997L632.141 246.828L645.953 238.693L645.191 225.727L649.258 215.135L659.851 214.287H660.614L670.359 212.677L664.681 206.152L667.986 189.119L663.918 185.052L670.359 184.204L675.274 176.069L671.206 173.612L664.681 176.917L659.851 175.307L659.004 174.459L659.851 171.239L661.461 164.714L658.156 154.122L664.681 139.462L672.816 119.971L687.476 113.446L678.494 116.666L676.121 112.599L674.426 104.464L678.494 95.5659L685.866 98.7861V102.091L689.086 100.396L689.934 108.531L690.697 104.464H695.611L700.526 108.531L702.899 103.701L706.204 107.769L702.899 109.379L706.204 110.226L705.357 118.361L698.069 123.191L702.137 132.174H692.391L694.001 136.241L702.899 135.394L708.661 138.699L712.729 141.072L718.407 161.409L717.559 156.579L720.864 157.342L715.949 150.054L721.627 146.834H718.407L735.439 141.072L741.202 143.529V154.122L753.405 172.849L770.437 191.577L776.115 193.95L768.827 198.017L772.047 210.22L778.572 215.982L771.285 214.287L779.42 224.117L776.115 224.88L776.962 230.558L798.91 247.675L801.368 240.387L805.435 245.218L818.485 246.065V254.2L833.061 259.03L837.975 275.3L840.433 276.995L842.891 277.758L844.501 278.605L846.958 279.368L848.568 280.215V291.571L855.856 294.028L868.058 314.366L823.315 298.943L807.893 288.351L797.3 277.758L796.453 268.86L785.097 254.2L772.047 237.93L767.98 226.49L751.71 220.05L749.337 213.525L746.879 216.745L748.49 224.117L758.235 226.49V231.405L769.675 246.828L763.912 243.608L764.76 246.065L765.607 247.675L761.54 246.828L759.082 244.455L754.167 240.387V242.76L756.625 261.488L772.047 282.673L776.115 285.13L776.962 280.215H780.182L779.42 303.773H776.115V296.486L766.37 308.688L770.437 314.366L763.912 326.568L766.37 330.636H762.302L757.472 349.364L766.37 373.769L772.047 392.497L776.115 420.969H781.03L784.25 413.597L792.385 420.969L790.775 411.224L796.453 420.122V408.767L794.08 406.309L797.3 399.784H799.758L811.96 397.327L814.418 401.394L811.113 403.089L823.315 405.462L832.298 423.427L838.823 428.257L847.721 436.392L850.178 442.917L862.381 473.847L871.363 516.98L867.296 538.081L855.856 541.386L859.161 551.893L855.093 554.351L858.313 557.656L856.703 568.164L863.228 577.146L857.466 602.399L859.923 608.076L869.668 606.466L885.939 613.754L893.311 621.889L896.531 634.092L892.464 636.549L894.074 641.379L888.396 644.684L890.854 647.904L887.633 647.142L889.244 651.972L885.939 649.515L884.329 659.344L881.108 658.497L883.566 656.04L877.803 653.582L876.193 639.769L873.736 643.074L870.516 637.312L871.363 640.617L867.296 639.769L868.058 634.092H872.126L863.991 627.567L856.703 630.872V633.244L853.398 636.549L854.246 632.482L850.178 636.549L849.331 630.024L852.636 625.109L848.568 625.957L846.111 616.212L832.298 625.957L822.553 652.819L824.163 641.379L819.248 646.294L820.095 629.177L813.57 625.957L809.503 633.244L807.045 647.142L805.435 661.717L796.453 669.852L799.758 677.225L809.503 672.31L817.638 680.445L821.705 672.31L824.925 664.175L841.196 656.04L842.891 662.565L837.975 664.175L832.298 676.377L833.908 681.292L829.84 684.512L832.298 685.36L831.45 690.19L828.993 701.63L830.688 704.85L837.975 702.393L840.433 701.63L853.398 714.595L865.601 715.443L850.178 726.035L856.703 721.968L869.531 723.561C786.404 854.841 639.881 942 473 942C274.579 942 104.937 818.781 36.4197 644.687L49.7194 646.294L61.922 654.43L67.5996 670.7L80.5649 683.75L93.6149 691.885L95.225 692.648L106.665 693.495L112.343 690.19L113.953 678.835L105.818 664.175L90.3948 629.177L97.6825 631.634L108.275 625.957L106.665 618.669L112.343 622.737L120.478 619.432L94.4623 610.534L84.6324 612.144L88.7 608.076L79.8022 611.297V619.432L83.0223 622.737L92.0049 627.567L67.5996 625.109L64.2947 619.432L68.3623 609.687L63.532 606.466L74.1246 608.076L75.7346 604.009L64.2947 594.264L66.7522 593.416L64.2947 589.349L70.0571 595.026L69.2097 588.501L59.4645 585.281L54.5495 589.349L47.5161 590.111L47.2619 590.196V590.111L46.4145 590.196L47.3466 589.857L48.0246 586.891L41.5843 596.636L36.6693 595.026L37.5167 591.806L26.0768 604.772L22.9602 605.439ZM674.426 224.117L676.884 218.355L673.664 224.117L679.341 229.795L682.561 237.083L685.866 237.93V237.083L674.426 224.117ZM646.801 259.03L638.666 245.218L645.953 259.03L649.258 260.725L660.614 265.555L650.021 260.725L646.801 259.03ZM602.058 319.281L595.533 315.213L601.888 319.959M600.533 327.585L602.058 320.044L601.888 319.959L602.058 319.281M600.533 327.585L603.668 333.094ZM603.668 333.094L617.481 359.956Z" fill="#0F100F"/>
<path d="M89.1177 203.496C94.8363 195.366 100.807 187.425 107.017 179.685L115.563 180.984L113.105 182.594L110.733 185.815L116.41 187.509L109.038 192.34L115.563 189.882L113.953 198.017L119.63 198.865L114.8 202.932L117.173 206.152L113.953 203.78L102.597 214.287L101.75 211.067L100.903 214.287L92.7675 210.22L89.1177 203.496Z" fill="#0F100F"/>
<path d="M107.847 178.655C110.852 174.931 113.914 171.254 117.03 167.625L118.868 167.172L113.953 172.002L121.24 167.934L114.8 176.917L107.847 178.655Z" fill="#0F100F"/>
<path d="M416.894 7.32177C418.95 7.07673 421.009 6.84499 423.073 6.62663L423.086 6.84265L417.408 7.69006L416.894 7.32177Z" fill="#0F100F"/>
<path d="M438.293 5.26521L440.204 6.07996L443.7 4.90082C441.895 5.01209 440.093 5.13357 438.293 5.26521Z" fill="#0F100F"/>
<path d="M447.084 4.70441C452.646 4.40149 458.234 4.19547 463.846 4.08804L462.151 6.07996L445.034 10.1476L447.084 4.70441Z" fill="#0F100F"/>
<path d="M414.104 23.1128H423.086L436.136 18.2826L442.576 21.5027L430.374 25.5703L440.204 24.8076L439.356 28.8751L445.881 24.8076L451.559 28.8751L442.576 31.2478H449.101L440.966 32.9426L447.491 33.7053L440.204 35.3154L443.424 37.0103L440.204 38.6204L430.374 28.0278L423.086 27.1804L427.154 35.3154L423.086 39.3831L420.628 29.6378L416.561 28.0278L415.798 32.0952L412.493 30.4852L414.104 23.1128Z" fill="#0F100F"/>
<path d="M377.496 30.4852L372.665 23.1128L383.258 23.9602L377.496 30.4852Z" fill="#0F100F"/>
<path d="M388.088 23.9602L394.613 23.1128L397.071 26.4177L394.613 28.0278L393.766 29.6378L395.461 28.8751L404.358 28.0278L397.833 30.4852L401.901 35.3154L395.461 31.2478L398.681 36.1628H393.003L392.156 38.6204L385.631 27.1804L388.088 23.9602Z" fill="#0F100F"/>
<path d="M357.158 28.0278L360.463 23.9602L368.598 26.4177L375.123 37.7729L381.563 35.3154L387.326 41.8405L378.343 42.6879L376.733 37.7729L370.208 41.8405L371.055 39.3831H363.683L371.055 37.7729L366.14 37.0103L367.75 34.5527L364.53 37.0103L359.615 32.0952L360.463 34.5527L352.328 33.7053L339.278 42.6879L333.6 41.8405H331.99V37.7729H327.922L329.532 36.1628L333.6 31.2478L340.888 32.9426L339.278 29.6378L352.328 24.8076L357.158 28.0278Z" fill="#0F100F"/>
<path d="M456.474 32.9426L449.101 36.1628L451.559 32.9426H456.474Z" fill="#0F100F"/>
<path d="M447.491 37.7729L448.339 42.6879L456.474 35.3154L457.236 36.1628L458.846 39.3831L464.609 37.7729L453.169 45.1453L450.711 47.5181H444.271L440.204 45.908L447.491 37.7729Z" fill="#0F100F"/>
<path d="M356.395 41.8405L360.463 44.2979L358.853 41.0779L362.92 44.2979L362.073 41.0779L366.14 41.8405L359.615 49.2129L366.14 54.0431L354.785 52.433L352.328 60.5681L356.395 54.0431L360.463 63.7882V58.1106L362.073 60.5681L365.293 57.348L366.14 63.0255L362.92 66.2457L354.785 64.6356L358.005 66.2457L355.548 70.3134L362.92 67.0931L359.615 68.7032L371.818 77.6857L366.14 78.4484L356.395 75.2281L365.293 80.0585L360.463 84.126L355.548 89.8883L359.615 88.1935V94.7185L361.225 86.5834L362.073 84.126L366.14 81.7533L364.53 84.9734L367.75 84.126L371.818 80.0585V82.5159L367.75 88.1935L375.123 80.0585L379.953 81.7533L372.665 87.4308L380.8 82.5159L377.496 88.1935L383.258 85.8208L382.411 88.1935L386.478 87.4308L381.563 93.9558L374.276 93.1084L379.953 94.7185L378.343 98.7861L368.598 97.176L375.123 102.091L370.208 108.531L369.36 109.379L354.785 115.056V110.989L350.718 116.666L343.345 115.904L341.735 111.836L343.345 106.158L349.023 102.854L344.193 104.464L345.803 97.176L340.125 105.311V92.261H343.345L339.278 89.8883L344.193 88.1935L339.278 89.0409L338.515 84.9734L344.955 83.3633L340.888 81.7533L349.87 75.2281L340.125 76.8383L349.87 71.9233L337.668 72.7708L341.735 70.3134H336.82L340.125 67.0931L336.82 66.2457L341.735 63.7882L340.125 58.1106H349.87L346.65 53.2804L341.735 54.8905L336.057 55.6532L334.447 51.5856L337.668 47.5181L339.278 45.908L347.413 49.9756L344.193 46.7554L349.023 48.3655L346.65 45.908L351.48 46.7554L352.328 42.6879L357.158 45.1453L356.395 41.8405Z" fill="#0F100F"/>
<path d="M423.933 49.9756L427.154 45.1453L433.679 46.7554L432.831 50.823L423.933 49.9756Z" fill="#0F100F"/>
<path d="M370.208 49.9756V46.7554L373.428 49.9756H370.208Z" fill="#0F100F"/>
<path d="M381.563 49.9756L379.19 47.5181H387.326L381.563 49.9756Z" fill="#0F100F"/>
<path d="M397.833 55.6532L394.613 49.9756L397.833 50.823L405.206 54.0431L409.273 52.433L406.816 57.348H410.883L411.731 63.0255L399.528 58.1106L397.833 55.6532Z" fill="#0F100F"/>
<path d="M384.868 55.6532L386.478 50.823H387.326L392.156 51.5856L393.766 58.958L384.868 55.6532Z" fill="#0F100F"/>
<path d="M421.476 54.8905L432.068 54.0431L424.696 58.1106L421.476 54.8905Z" fill="#0F100F"/>
<path d="M371.055 56.5006L377.496 54.8905L380.8 57.348L377.496 58.958L384.868 61.4155L375.885 65.483L387.326 63.7882L386.478 68.7032L392.156 69.5507L393.003 71.9233L387.326 71.1606L393.003 73.618L387.326 75.9908L391.393 78.4484L388.936 84.126L375.123 74.3807L374.276 77.6857L371.055 69.5507L366.988 71.9233L363.683 69.5507L367.75 61.4155L370.208 64.6356L369.36 56.5006L373.428 59.7207L371.055 56.5006Z" fill="#0F100F"/>
<path d="M707.814 101.244L706.204 87.4308L711.034 90.651L712.729 100.396L707.814 101.244Z" fill="#0F100F"/>
<path d="M633.751 139.462L635.446 131.326L641.886 140.309L644.343 143.529L636.208 140.309L633.751 139.462Z" fill="#0F100F"/>
<path d="M172.508 156.579V147.597L177.423 154.969L172.508 156.579Z" fill="#0F100F"/>
<path d="M200.219 163.867L202.591 154.969L205.049 158.189L200.219 163.867Z" fill="#0F100F"/>
<path d="M192.846 160.647L197.761 159.036L196.914 163.104L188.016 167.172L192.846 160.647Z" fill="#0F100F"/>
<path d="M195.303 167.172L198.524 160.647V165.477L195.303 167.172Z" fill="#0F100F"/>
<path d="M226.996 176.917L222.166 178.527V175.307L226.996 176.917Z" fill="#0F100F"/>
<path d="M661.461 183.442L662.224 178.527L665.529 180.984L661.461 183.442Z" fill="#0F100F"/>
<path d="M583.33 234.625L593.075 224.88L596.38 231.405L591.465 235.472L583.33 234.625Z" fill="#0F100F"/>
<path d="M787.555 233.015V227.337L794.08 237.083L787.555 233.015Z" fill="#0F100F"/>
<path d="M279.112 241.15L291.315 228.947L297.84 232.252L292.925 231.405L291.315 236.32L297.84 234.625L290.467 243.608L302.67 235.472L296.992 241.997L300.212 241.15L297.84 247.675L296.145 253.353L292.077 252.59L288.857 251.743L266.909 260.725L268.519 254.2L272.587 247.675L275.044 252.59V248.523L280.722 250.895L274.197 246.828L277.502 243.608L287.247 248.523L288.857 244.455H284.789L288.857 241.997L279.112 241.15Z" fill="#0F100F"/>
<path d="M301.907 241.997L305.127 237.083L307.585 239.54L311.652 237.083L310.805 238.693L309.195 245.218L315.72 241.997L311.652 245.218L316.482 246.065L315.72 252.59L303.517 253.353L301.06 246.065H306.737L304.28 243.608L301.907 241.997Z" fill="#0F100F"/>
<path d="M571.128 244.455L583.33 237.93L586.635 245.218L577.653 244.455L588.245 246.065L584.178 255.81L581.72 260.725L571.975 258.268L567.908 250.133H573.585L576.805 249.285L571.128 244.455Z" fill="#0F100F"/>
<path d="M289.704 256.658L291.315 253.353L295.382 254.963L289.704 256.658Z" fill="#0F100F"/>
<path d="M597.99 255.81L604.515 254.2L606.973 257.42L600.448 264.793V265.555L599.601 263.945L597.99 255.81Z" fill="#0F100F"/>
<path d="M281.569 262.335L288.857 257.42L292.925 259.878L288.857 266.403L283.179 267.165L286.4 263.945L281.569 262.335Z" fill="#0F100F"/>
<path d="M445.881 281.063L449.949 266.403L458.084 272.08V277.758L451.559 282.673L445.881 281.063Z" fill="#0F100F"/>
<path d="M362.073 272.928L352.328 273.69L363.683 268.013L362.073 272.928Z" fill="#0F100F"/>
<path d="M379.36 279.199L379.953 275.3H384.868L379.36 279.199Z" fill="#0F100F"/>
<path d="M377.496 280.215L373.428 282.673V277.758L377.496 280.215Z" fill="#0F100F"/>
<path d="M451.559 288.351L458.846 277.758L460.541 281.826L462.151 277.758L465.372 280.215H466.219L467.405 283.012L467.829 283.436L468.676 285.893L469.439 287.503L470.286 289.961L461.304 292.418L451.559 288.351Z" fill="#0F100F"/>
<path d="M379.19 279.368L379.36 279.283L379.19 280.215V279.368Z" fill="#0F100F"/>
<path d="M475.964 299.706L472.744 281.826L476.812 288.351L477.574 283.436L484.947 289.198L475.964 299.706Z" fill="#0F100F"/>
<path d="M447.491 287.503L445.881 283.436H452.406L451.559 286.74L447.491 287.503Z" fill="#0F100F"/>
<path d="M179.033 313.603V311.146H183.948L179.033 313.603Z" fill="#0F100F"/>
<path d="M180.728 316.739L176.576 315.976L184.711 313.603L180.728 316.739Z" fill="#0F100F"/>
<path d="M180.728 316.739L185.558 317.671L180.643 316.823L180.728 316.739Z" fill="#0F100F"/>
<path d="M188.779 315.976L195.303 314.366V317.671L188.779 315.976Z" fill="#0F100F"/>
<path d="M678.493 95.5651L674.426 104.463L676.121 112.598L678.493 116.665L687.476 113.445L672.816 119.97L664.681 139.461L658.156 154.121L661.46 164.713L659.85 171.238L659.003 174.458L659.85 175.306L664.681 176.916L671.206 173.611L675.273 176.069L670.358 184.204L663.918 185.051L667.985 189.119L664.681 206.151L670.358 212.677L660.613 214.286H659.85L649.258 215.134L645.19 225.726L645.953 238.692L632.14 246.827L630.53 241.997L624.005 245.217L622.395 249.284L628.92 259.03L621.548 254.962L626.463 255.809L622.395 250.132L619.938 259.03L621.548 250.132L607.735 265.554H611.803V271.232V274.537L612.65 272.08L613.413 271.232V272.08L615.107 276.147L621.548 276.994H622.395L617.48 282.672L621.548 285.892L612.65 288.35L610.192 296.485L602.905 295.637L611.803 310.298L591.465 307.077L593.075 302.162L587.397 303.01L588.245 298.942L581.72 296.485L575.195 302.162H566.297L571.127 314.365L562.992 320.043H562.229L555.704 320.89L554.857 316.823L545.112 322.5L542.654 331.483L534.519 324.958L535.367 329.025L530.452 326.568L526.384 329.873L527.994 333.94L532.062 331.483L520.706 344.448V350.973L519.859 338.77L527.232 311.145L519.859 307.077L524.774 307.84L523.164 304.62L509.351 299.705L500.369 308.687V303.01L490.624 305.467L493.844 299.705L486.556 298.942L483.251 308.687L486.556 315.975L483.251 316.823L480.031 318.433L484.946 321.737L480.878 320.89L474.353 329.025V324.958L466.218 327.415L465.371 330.635L469.438 329.025L449.948 343.685L451.558 350.21L447.491 347.753L454.016 359.108L430.373 365.633L433.678 379.446L445.881 388.428L448.338 408.766L449.101 411.986L445.033 408.766L443.423 409.529H439.356L436.898 410.376H432.831V408.766L432.068 407.156V397.326L431.22 395.716V388.428L430.373 386.818V385.123L423.933 381.056L420.628 383.513L423.085 388.428L414.95 387.581L425.543 399.783L415.798 396.563L410.035 375.378L410.883 383.513L402.748 393.258L407.663 403.851L406.815 411.223L405.205 421.731L414.95 420.121L423.085 425.036L426.306 433.171L423.085 439.696L429.61 442.916L420.628 438.849L418.17 424.189L409.273 426.646L410.035 440.459L396.223 459.187L380.8 452.662L394.613 450.204L404.358 430.714L399.528 424.189L401.138 411.223L401.9 399.783L397.833 392.496L402.748 376.988L397.833 374.616L389.698 373.768L384.02 390.038L376.732 394.953L375.122 408.766L374.275 414.444L379.952 415.291L384.867 423.426L379.19 433.171L367.75 418.511L371.055 420.121L349.022 406.309L345.802 409.529L347.412 419.358H341.734L340.124 424.189L338.514 415.291L329.532 418.511L320.549 416.054L317.329 420.121L310.042 417.664L314.109 410.376L318.939 409.529L316.482 408.766L306.737 414.444L307.584 411.223L288.009 412.834L288.856 416.901L283.179 415.291L278.264 422.579L270.976 420.121L270.129 411.223L279.874 410.376L280.721 406.309L270.976 393.258L271.739 399.783L257.926 425.799L253.096 415.291L243.266 417.664L237.588 419.358L235.131 420.121L234.368 425.036L231.911 433.171L230.301 430.714L225.386 424.189L222.166 425.036L225.386 423.426L220.556 416.054L216.488 419.358L219.708 428.256L213.183 432.324L207.506 416.054L211.573 406.309L218.098 403.088L213.183 393.258L217.251 394.106L216.488 381.056L236.826 411.986L243.266 409.529L253.096 406.309L253.859 393.258V391.648L244.961 368.853L239.198 364.023L234.368 367.243L240.046 363.176L235.978 359.108L238.436 355.888L241.656 359.108L240.046 354.278L234.368 355.888L233.945 352.837L223.267 354.108L214.963 361.396L216.064 370.802L204.624 375.717L188.1 407.156L182.253 408.935L182.422 422.409L157.085 429.104L148.441 431.476L152.17 433.171L148.95 437.239L153.017 447.831L141.577 440.459L140.052 442.069L140.137 445.459H136.662L127.172 454.95L126.155 459.187L126.833 455.288L126.494 455.627L121.24 459.271L113.952 476.474L123.612 493.761L117.257 507.234V514.607L115.647 516.132L118.02 524.098L108.19 520.962L104.207 534.097L117.257 540.622L117.087 547.91L113.952 552.571L112.511 553.672L117.257 561.638L115.647 569.858L127.765 576.213L127.934 585.28L140.645 596.89L140.306 597.992L136.154 602.737L132.171 606.127L132.002 609.431L127.934 615.279L123.273 611.635L117.087 611.211L112.172 616.55L120.477 619.431L112.342 622.736L106.664 618.668L108.274 625.956L97.6818 631.633L90.9873 629.345L90.6483 629.684L105.817 664.174L106.241 664.852L112.681 666.801L130.476 685.528L133.442 690.782L144.12 694.426L151.407 709.341L159.373 721.797L167.762 718.662L164.373 705.697L168.44 691.037L165.22 694.257L164.373 678.834L174.118 668.241L185.558 672.309L191.066 666.801L187.761 662.31V661.801L191.998 662.31L191.235 652.734L182.507 643.836L184.032 639.43L180.05 634.684L195.472 615.618L203.438 624.176L205.048 615.363L225.471 609.008L231.233 614.601L237.588 613.16L237.673 616.889L243.436 618.668L249.113 632.905L251.401 627.82L258.011 636.294L265.976 631.888L272.501 635.616L275.722 633.159L277.501 634.176L279.789 634.091L287.501 644.514L291.992 641.379L302.669 644.599L305.889 639.345L305.211 636.379L300.72 632.82L295.72 626.888L304.364 624.176L305.211 616.38L311.821 617.482L312.669 617.397L307.838 612.906L310.635 610.448L306.143 607.991L307.669 604.771H324.786L329.786 605.533L334.277 603.923L362.072 599.771L366.309 595.026L379.444 597.653L384.105 605.533L382.664 610.618L382.918 611.465L390.63 612.736L390.121 610.025L393.087 615.363L402.663 613.753L399.612 621.38L400.121 621.719L407.663 620.956L416.306 613.245L416.984 613.669L426.051 609.008L423.085 614.431L432.831 622.482L452.406 652.564L452.745 654.005L457.405 647.31L464.693 653.497L479.353 648.836L489.607 657.479L496.301 664.259H504.352L508.589 659.344L513.842 666.631L518.334 665.699L550.281 636.379L565.28 635.786L569.602 641.379H572.144L591.634 638.243L596.38 629.345L590.617 621.634L594.007 604.771L620.531 604.855L624.853 613.499L633.75 614.431L646.97 603.923L666.291 600.788L668.409 600.873L675.443 605.618L691.459 598.246L704.678 583.501L707.22 576.298L707.983 570.536L721.457 564.943L735.439 562.485L739.761 550.961L733.829 521.725L725.101 518.505L725.694 509.522L736.456 494.947L756.624 488.422L784.419 504.862L786.114 505.624L790.012 508.76L799.842 500.625L809.502 498.93L820.01 506.98L821.196 504.269L820.095 505.54L821.366 503.93L827.552 490.117L830.687 464.864L827.382 456.729H824.925L825.772 452.662V451.899L821.705 446.137L820.857 416.901L820.095 416.054L818.485 415.291L816.027 412.834L814.417 411.986L812.722 410.376H810.35H809.502L810.35 407.919L811.112 403.851L810.35 408.766L811.112 409.529L812.722 410.376H816.79H817.637L819.84 414.105L820.01 414.274L820.857 415.291V415.715L822.552 418.511L820.095 413.596L823.315 416.901L825.772 414.444L824.162 420.121L824.925 420.969L826.62 421.731L830.687 425.799L832.297 426.646L833.907 428.256L835.517 429.104L836.365 430.714L837.128 431.561L836.365 433.171L835.517 433.934L833.06 438.849L832.297 439.696L829.84 444.526L828.992 445.374L827.382 448.594L826.62 449.441L825.772 451.051L832.297 468.169L829.077 486.558L832.382 479.27L850.347 516.132L847.89 518.251L850.178 526.725L843.059 522.742L842.297 533.334L854.16 543.842L856.703 549.52L854.245 556.13L857.719 557.062L855.092 554.35L859.16 551.893L855.855 541.385L867.295 538.08L871.363 516.98L862.38 473.847L850.178 442.916L847.72 436.391L838.822 428.256L832.297 423.426L823.315 405.461L811.112 403.088L814.417 401.394L811.96 397.326L799.757 399.783H797.299L794.079 406.309L796.452 408.766V420.121L790.774 411.223L792.385 420.969L784.249 413.596L781.029 420.969H776.114L772.047 392.496L766.369 373.768L757.471 349.363L762.302 330.635H766.369L763.912 326.568L770.437 314.365L766.369 308.687L776.114 296.485V303.773H779.419L780.182 280.215H776.962L776.114 285.13L772.047 282.672L756.624 261.487L754.167 242.759V240.387L759.082 244.454L761.539 246.827L765.607 247.674L764.759 246.064L763.912 243.607L769.674 246.827L758.234 231.404V226.489L748.489 224.116L746.879 216.744L749.336 213.524L751.709 220.049L767.979 226.489L772.047 237.929L785.097 254.199L796.452 268.859L797.299 277.757L807.892 288.35L823.315 298.942L868.058 314.365L855.855 294.027L848.567 291.57V280.215L846.957 279.367L844.5 278.605L842.89 277.757L840.432 276.994L837.975 275.3L833.06 259.03L818.485 254.199V246.064L805.435 245.217L801.367 240.387L798.91 247.674L776.962 230.557L776.114 224.879L779.419 224.116L771.284 214.286L778.572 215.981L772.047 210.219L768.827 198.016L776.114 193.949L770.437 191.576L753.404 172.848L741.201 154.121V143.528L735.439 141.071L718.406 146.833H721.626L715.949 150.053L720.864 157.341L717.559 156.578L718.406 161.408L712.728 141.071L708.661 138.698L702.898 135.393L694.001 136.241L692.391 132.173H702.136L698.068 123.19L705.356 118.36L706.203 110.225L702.898 109.378L706.203 107.768L702.898 103.7L700.526 108.53L695.611 104.463H690.696L689.933 108.53L689.086 100.395L685.866 102.09V98.7852L678.493 95.5651ZM635.445 131.326L633.75 139.461L636.208 140.308L644.343 143.528L641.885 140.308L635.445 131.326ZM662.223 178.526L661.46 183.441L665.528 180.984L662.223 178.526ZM676.883 218.354L674.426 224.116L685.866 237.082V237.929L682.561 237.082L679.341 229.794L673.663 224.116L676.883 218.354ZM593.075 224.879L583.33 234.624L591.465 235.472L596.38 231.404L593.075 224.879ZM787.554 227.337V233.014L794.079 237.082L787.554 227.337ZM583.33 237.929L571.127 244.454L576.805 249.284L573.585 250.132H567.907L571.974 258.267L581.72 260.724L584.177 255.809L588.245 246.064L577.652 244.454L586.635 245.217L583.33 237.929ZM638.665 245.217L646.8 259.03L650.02 260.724L660.613 265.554L649.258 260.724L645.953 259.03L638.665 245.217ZM604.515 254.199L597.99 255.809L599.6 263.945L600.447 265.554V264.792L606.972 257.419L604.515 254.199ZM449.948 266.402L445.881 281.062L451.558 282.672L458.083 277.757V272.08L449.948 266.402ZM363.682 268.012L352.327 273.69L362.072 272.927L363.682 268.012ZM379.952 275.3L379.359 279.198L384.867 275.3H380.8H379.952ZM373.427 277.757V282.672L377.495 280.215L373.427 277.757ZM458.846 277.757L451.558 288.35L461.303 292.417L470.286 289.96L469.438 287.502L468.676 285.892L467.828 283.435L467.405 283.011L466.218 280.215H465.371L462.151 277.757L460.541 281.825L458.846 277.757ZM379.359 279.283L379.19 279.367V280.215L379.359 279.283ZM472.743 281.825L475.964 299.705L484.946 289.197L477.574 283.435L476.811 288.35L472.743 281.825ZM445.881 283.435L447.491 287.502L451.558 286.74L452.406 283.435H445.881ZM595.532 315.212L602.057 319.28L601.888 319.958L602.057 320.043L600.532 327.585L603.667 333.093L617.48 359.955L642.733 378.683L670.358 377.836L689.933 360.718L693.153 363.176L703.746 356.651L724.931 376.988L722.474 379.446L724.084 376.988L716.796 369.701L703.746 357.498L693.153 364.023L689.933 361.566L676.883 376.226L689.933 383.513L694.763 398.173L682.561 424.189L670.358 434.781L669.596 438.849L674.426 440.459L668.324 441.222L667.985 442.916L663.918 455.966L651.715 453.509L663.918 455.119L667.985 442.916V441.306L668.324 441.222L669.596 434.781L682.561 423.426L691.543 391.648L679.341 377.836L658.156 379.446L659.003 388.428L650.868 392.496L658.156 388.428V381.056L644.343 380.293L618.328 362.413L603.667 333.093L600.447 328.178L600.532 327.585L600.447 327.415L601.888 319.958L595.532 315.212ZM868.058 318.433L874.583 328.178L872.125 321.737L868.058 318.433ZM533.757 319.28L529.689 322.5L534.519 324.11L533.757 319.28ZM392.155 324.11L379.952 330.635L369.36 329.025L365.292 330.635L349.87 338.008L350.717 344.448L343.345 348.515L346.649 351.82L342.582 349.363L336.82 351.82L343.345 355.888L336.057 357.498L344.955 361.566L345.802 355.041L349.022 357.498L346.649 353.43L350.717 356.651V350.973L353.09 354.278L354.785 347.753L357.157 349.363L361.225 346.143L366.987 340.38L390.545 333.093L392.155 324.11ZM502.826 326.568L509.351 327.415L501.979 335.55L501.216 339.618H495.454L496.81 341.228H497.149L500.369 345.295L496.81 341.228H494.691L493.844 340.38L493.081 338.77L494.691 337.16L490.624 331.483L497.149 336.313L504.436 330.635L502.826 326.568ZM519.096 350.973L519.859 351.82L514.181 365.633L509.351 372.921L507.656 374.616L508.504 372.921L519.096 350.973ZM331.989 359.108V362.413L327.074 363.176L331.142 365.633L319.787 372.158V376.988L326.312 377.836L324.617 388.428L338.514 392.496L333.599 375.378L336.057 367.243L343.345 362.413L338.514 359.108H331.989ZM393.003 368.09L392.155 372.921L396.223 372.158L397.07 368.09H393.003ZM231.063 372.921L225.386 381.056L221.318 380.293L231.063 372.921ZM804.587 381.903V385.123L811.112 385.886L804.587 381.903ZM811.112 385.886L811.96 386.395V385.971L811.112 385.886ZM811.96 386.395V394.953L821.705 403.088L834.755 408.766L844.5 416.901L879.498 448.594L874.583 439.696L878.65 434.781L883.565 438.001L881.108 433.934L865.6 431.561L855.092 418.511L857.465 410.376H864.838L850.178 405.461L833.907 399.783L811.96 386.395ZM299.449 395.716L292.924 398.173L294.534 403.851L301.906 402.241L299.449 395.716ZM342.582 397.326L340.887 402.241L344.955 407.156L347.412 404.698V403.851L346.649 403.088L342.582 397.326ZM466.981 404.698V405.461L468.676 412.834L464.608 407.919L466.218 405.461L466.981 404.698ZM456.473 409.529L460.541 413.596L467.828 449.441L460.541 414.444L450.711 411.223L456.473 409.529ZM475.964 409.529H484.099L472.743 413.596L475.964 409.529ZM313.262 419.358L302.669 422.579L292.924 447.831L303.517 451.051L311.652 446.475L315.719 443.764V444.188L316.482 443.764V456.729L315.719 444.188L311.652 446.475L303.517 451.899L292.077 448.594L301.906 422.579L313.262 419.358ZM491.386 420.121L481.641 425.799L477.574 424.189L491.386 420.121ZM200.981 421.731V422.579L202.591 429.866L200.218 427.494L195.303 433.171L200.981 421.731ZM195.303 423.426L194.455 428.256L192.083 425.036L195.303 423.426ZM170.05 432.324L170.898 450.204L157.848 452.662L160.305 433.171L170.05 432.324ZM194.455 433.171L196.913 441.306L191.235 456.729L185.558 458.339L182.253 453.509L187.168 455.119L185.558 442.916L189.625 433.934L188.778 442.069L192.083 435.629L190.388 442.916H194.455V433.171ZM231.911 443.764L231.063 452.662L240.046 472.999L230.301 452.662L231.911 443.764ZM65.9889 447.831L63.5314 450.204V451.051L65.9889 452.662L63.1925 451.984L75.1409 468L80.0558 459.78L74.3782 450.882L71.6665 454.272L68.3616 451.051L74.2935 448.34L70.0565 450.204L65.9889 448.594V447.831ZM63.5314 450.204L62.8535 449.865V450.289L63.5314 450.204ZM380.8 450.204L375.885 453.509L367.75 451.051L363.682 456.729L358.852 469.779L359.615 486.049L353.937 495.794L371.817 519.352L407.663 522.657L430.373 530.792L439.356 542.995L443.423 544.605L451.558 547.825L471.048 563.333L476.811 570.62L474.353 581.213L475.964 570.62L464.608 559.265L443.423 546.215L438.508 543.758L431.22 532.402L412.493 525.115L375.122 522.657L379.19 528.335L378.342 538.927V528.335L353.09 495.794L358.852 484.439L358.005 469.779L362.92 456.729L367.75 451.051L380.8 450.204ZM483.251 454.272L489.014 457.577L482.488 455.119L478.421 457.577L480.878 480.372V488.507L493.081 499.015L480.031 488.507L478.421 459.187L477.574 457.577L483.251 454.272ZM146.492 466.474L145.645 471.389L142.425 467.322L146.492 466.474ZM188.015 470.542L192.083 471.389L191.235 473.847L188.015 470.542ZM183.1 481.982L188.015 485.202L183.1 483.592L183.948 486.812L186.32 494.947L179.88 498.252L177.423 486.049L181.49 490.879L183.1 481.982ZM201.828 517.742L207.506 518.59L197.76 529.182L201.828 517.742ZM293.771 522.657L292.077 536.47L287.246 538.08L288.009 542.995L292.077 545.452L288.856 544.605V551.13L287.246 539.69L282.331 537.317L288.856 536.47L285.636 532.402L290.467 530.792L293.771 522.657ZM200.218 529.182L204.285 540.537L218.098 542.148L225.386 548.673L229.453 560.028L224.623 548.673L218.098 542.995L204.285 540.537L200.218 529.945V529.182ZM647.648 529.182L654.088 547.825L651.715 558.418H654.935L643.58 579.603V587.738L637.055 595.026L628.92 595.873L637.818 588.501L642.733 574.688L646.8 555.198L644.343 530.792L647.648 529.182ZM602.057 545.452L606.125 551.13L615.87 568.163L612.65 565.79L613.413 568.163L619.938 573.078V580.365L616.717 573.925L612.65 574.688L615.87 573.078L602.905 547.825L596.38 551.13L602.057 561.723L597.99 558.418L598.837 555.96L591.465 552.74L597.142 547.825L602.057 545.452ZM279.111 552.74V554.35L267.671 555.96L279.111 552.74ZM231.911 560.028L234.368 563.333L244.113 564.943L246.571 561.723L245.724 564.943H249.791L226.996 566.553L225.386 569.01L221.064 571.214L220.556 571.637L221.318 577.145L228.691 577.993L220.81 582.654L220.895 583.077L226.233 586.891L218.098 585.28H221.318L220.895 583.077L220.556 582.823L220.81 582.654L218.861 573.078L220.556 571.637V571.468L221.064 571.214L229.453 564.095V563.333L231.911 560.028ZM535.367 579.603L536.977 582.06L529.689 588.501L533.757 594.263V603.161L526.384 591.805L535.367 579.603ZM198.523 595.873L189.625 598.33L185.558 605.618L186.32 613.753L180.643 612.906H179.88L165.22 626.803L179.033 612.906L183.1 608.838L188.015 598.33L198.523 595.873ZM428 602.398H433.678L430.373 607.228L423.933 605.618L428 602.398ZM162.763 611.296L164.373 616.973L160.305 621.888L150.56 630.023L143.272 628.413L145.645 623.498L148.95 626.803L153.78 620.278L156.238 622.736L162.763 618.668V611.296ZM285.636 622.736L287.246 628.413H283.179L285.636 622.736Z" fill="#745F39"/>
<path d="M83.3056 622.735L91.5688 627.354L67.6269 625.094L64.2369 619.431L68.3332 609.839L63.8838 606.59L74.0538 608.073L75.8194 604.118L88.32 608.073L79.7744 611.211V619.431L83.3056 622.735Z" fill="#745F39"/>
<path fill-rule="evenodd" clip-rule="evenodd" d="M227.834 341.452L229.461 342.265L229.685 341.818L228.058 341.004L227.834 341.452Z" fill="#303336"/>
<path fill-rule="evenodd" clip-rule="evenodd" d="M229.824 342.855V341.228H229.324V342.855H229.824Z" fill="#303336"/>
<path fill-rule="evenodd" clip-rule="evenodd" d="M61.7812 450.378L63.4083 452.818L63.8243 452.541L62.1973 450.1L61.7812 450.378Z" fill="#303336"/>
<path fill-rule="evenodd" clip-rule="evenodd" d="M73.1651 372.269L73.498 372.361L83.9944 366.709L87.9736 367.505L88.1994 367.436L96.2462 359.39L101.817 360.186L102.095 359.999L103.702 353.57L118.232 341.462L127.021 339.864L133.447 343.88L133.803 343.78L136.204 338.978L153.901 330.934L157.856 333.307L158.081 333.323L177.431 325.26L180.567 329.181L180.895 329.237L187.159 325.322L190.296 332.38L190.525 332.529H191.338V332.029H190.687L187.499 324.856L187.138 324.745L180.819 328.695L177.704 324.801L177.413 324.726L158.005 332.813L154.046 330.437L153.813 330.424L135.916 338.559L135.796 338.675L133.479 343.31L127.204 339.388L127.026 339.354L118.078 340.981L117.962 341.035L103.319 353.238L103.237 353.369L101.664 359.659L96.1931 358.877L95.981 358.948L87.9405 366.988L84.0042 366.201L83.8366 366.226L73.4711 371.807L71.1534 367.945L70.7246 368.202L73.1651 372.269Z" fill="#303336"/>
<path fill-rule="evenodd" clip-rule="evenodd" d="M25.1313 438.749L10.5566 454.134L10.9196 454.478L25.5628 439.021L25.6313 438.849V434.148L30.3414 432.578L30.1833 432.104L25.3022 433.731L25.1313 433.968V438.749Z" fill="#303336"/>
<path fill-rule="evenodd" clip-rule="evenodd" d="M29.6936 394.866L27.2531 383.477L26.7642 383.582L29.2047 394.971L29.6936 394.866Z" fill="#303336"/>
<path fill-rule="evenodd" clip-rule="evenodd" d="M50.4275 510.203L42.4399 511.002L42.4897 511.5L50.6248 510.686L50.8301 510.535L59.7411 489.472L70.2289 484.632L70.3587 484.491L76.0533 469.035L76.0187 468.798L63.816 452.528L63.416 452.828L75.5371 468.989L69.9253 484.221L59.4437 489.059L59.3183 489.189L50.4275 510.203Z" fill="#303336"/>
<path fill-rule="evenodd" clip-rule="evenodd" d="M191.44 332.508L198.761 329.254L198.558 328.797L191.237 332.051L191.44 332.508Z" fill="#303336"/>
<path fill-rule="evenodd" clip-rule="evenodd" d="M176.882 371.495L197.22 348.716L197.283 348.571L198.891 329.276H203.172L200.055 337.068L200.08 337.299L206.588 347.062L206.918 347.141L219.854 339.865L227.898 341.473L227.996 340.983L219.861 339.356L219.689 339.383L206.875 346.591L200.568 337.132L203.774 329.119L203.542 328.776H198.66L198.411 329.005L196.791 348.446L176.509 371.162L176.882 371.495Z" fill="#303336"/>
<path fill-rule="evenodd" clip-rule="evenodd" d="M182.638 408.938V422.579H182.138V408.749L182.32 408.509L187.913 406.911L204.946 375.277L205.062 375.169L215.477 370.361L214.68 361.589L214.761 361.38L222.896 354.059L223.231 354.43L215.189 361.668L215.991 370.492L215.847 370.742L205.347 375.588L188.303 407.241L188.151 407.363L182.638 408.938Z" fill="#303336"/>
<path fill-rule="evenodd" clip-rule="evenodd" d="M103.725 473.791L101.285 458.334L101.22 458.202L89.0177 445.186L88.8895 445.113L81.5679 443.486L81.4595 443.974L88.7057 445.585L100.803 458.488L103.231 473.869L103.725 473.791Z" fill="#303336"/>
<path fill-rule="evenodd" clip-rule="evenodd" d="M103.725 473.791L101.285 458.334L101.22 458.202L89.0177 445.186L88.8895 445.113L81.5679 443.486L81.4595 443.974L88.7057 445.585L100.803 458.488L103.231 473.869L103.725 473.791Z" fill="#303336"/>
<path fill-rule="evenodd" clip-rule="evenodd" d="M74.0522 475.664L87.0684 484.612L87.3534 484.611L95.4885 478.917L95.2018 478.507L87.2087 484.102L74.3355 475.252L74.0522 475.664Z" fill="#303336"/>
<path fill-rule="evenodd" clip-rule="evenodd" d="M74.0522 475.664L87.0684 484.612L87.3534 484.611L95.4885 478.917L95.2018 478.507L87.2087 484.102L74.3355 475.252L74.0522 475.664Z" fill="#303336"/>
<path fill-rule="evenodd" clip-rule="evenodd" d="M128.134 583.654V576.333L128.001 576.112L115.963 569.692L117.553 561.739L117.063 561.641L115.436 569.776L115.564 570.045L127.634 576.483V583.654H128.134Z" fill="#303336"/>
<path fill-rule="evenodd" clip-rule="evenodd" d="M117.559 547.859V540.538L117.42 540.314L104.404 533.806L104.181 534.253L117.059 540.692V547.859H117.559Z" fill="#303336"/>
<path fill-rule="evenodd" clip-rule="evenodd" d="M116.295 444.728L121.14 459.265L121.614 459.107L116.733 444.464L116.595 444.313L110.9 441.873L110.703 442.332L116.295 444.728Z" fill="#303336"/>
<path fill-rule="evenodd" clip-rule="evenodd" d="M113.834 476.389L123.596 494.287L124.035 494.047L114.273 476.15L113.834 476.389Z" fill="#303336"/>
<path fill-rule="evenodd" clip-rule="evenodd" d="M113.834 476.389L123.596 494.287L124.035 494.047L114.273 476.15L113.834 476.389Z" fill="#303336"/>
<path fill-rule="evenodd" clip-rule="evenodd" d="M84.975 529.823L76.8399 517.62L76.4238 517.897L84.559 530.1L84.975 529.823Z" fill="#303336"/>
<path fill-rule="evenodd" clip-rule="evenodd" d="M147.469 431.77L182.45 422.821L182.326 422.337L147.345 431.285L147.469 431.77Z" fill="#303336"/>
<path fill-rule="evenodd" clip-rule="evenodd" d="M121.145 459.088L113.823 476.172L114.283 476.369L121.604 459.285L121.145 459.088Z" fill="#303336"/>
<path fill-rule="evenodd" clip-rule="evenodd" d="M222.9 354.056L223.098 354.492L235.301 352.865L235.235 352.369L223.853 353.887L229.738 348.737L229.823 348.549V342.855H229.323V348.436L222.9 354.056Z" fill="#303336"/>
<path fill-rule="evenodd" clip-rule="evenodd" d="M123.593 494.057L117.084 507.073L117.532 507.296L124.04 494.28L123.593 494.057Z" fill="#303336"/>
<path fill-rule="evenodd" clip-rule="evenodd" d="M55.3711 498.458L68.3873 504.966L68.6109 504.519L55.5947 498.011L55.3711 498.458Z" fill="#303336"/>
<path fill-rule="evenodd" clip-rule="evenodd" d="M76.8452 517.627L68.7101 504.61L68.2861 504.875L76.4212 517.892L76.8452 517.627Z" fill="#303336"/>
<path fill-rule="evenodd" clip-rule="evenodd" d="M104.531 534.104L108.599 521.088L108.122 520.939L104.054 533.955L104.531 534.104Z" fill="#303336"/>
<path fill-rule="evenodd" clip-rule="evenodd" d="M108.282 521.25L118.044 524.504L118.202 524.03L108.44 520.776L108.282 521.25Z" fill="#303336"/>
<path fill-rule="evenodd" clip-rule="evenodd" d="M95.3428 478.96H101.037L101.261 478.822L103.701 473.941L103.254 473.718L100.883 478.46H95.3428V478.96Z" fill="#303336"/>
<path fill-rule="evenodd" clip-rule="evenodd" d="M95.3428 478.96H101.037L101.261 478.822L103.701 473.941L103.254 473.718L100.883 478.46H95.3428V478.96Z" fill="#303336"/>
<path fill-rule="evenodd" clip-rule="evenodd" d="M117.522 561.561L112.641 553.426L112.212 553.683L117.093 561.818L117.522 561.561Z" fill="#303336"/>
<path fill-rule="evenodd" clip-rule="evenodd" d="M91.4529 536.293L84.9449 529.785L84.5913 530.138L91.0994 536.646L91.4529 536.293Z" fill="#303336"/>
<path fill-rule="evenodd" clip-rule="evenodd" d="M115.441 516.204L117.882 524.339L118.361 524.195L115.92 516.06L115.441 516.204Z" fill="#303336"/>
<path fill-rule="evenodd" clip-rule="evenodd" d="M91.4541 536.646L97.1487 530.952L96.7951 530.598L91.1006 536.293L91.4541 536.646Z" fill="#303336"/>
<path fill-rule="evenodd" clip-rule="evenodd" d="M74.7925 451.993L79.6736 460.128L80.1023 459.871L75.2212 451.736L74.7925 451.993Z" fill="#303336"/>
<path fill-rule="evenodd" clip-rule="evenodd" d="M79.6736 459.872L74.7925 468.007L75.2212 468.265L80.1023 460.13L79.6736 459.872Z" fill="#303336"/>
<path fill-rule="evenodd" clip-rule="evenodd" d="M126.435 456.109L137.01 445.533L136.657 445.18L126.081 455.755L126.435 456.109Z" fill="#303336"/>
<path fill-rule="evenodd" clip-rule="evenodd" d="M96.8682 531.004L104.19 534.258L104.393 533.801L97.0712 530.547L96.8682 531.004Z" fill="#303336"/>
<path fill-rule="evenodd" clip-rule="evenodd" d="M114.261 552.878L117.515 547.997L117.099 547.72L113.845 552.601L114.261 552.878Z" fill="#303336"/>
<path fill-rule="evenodd" clip-rule="evenodd" d="M126.118 455.724L121.237 458.978L121.515 459.394L126.396 456.14L126.118 455.724Z" fill="#303336"/>
<path fill-rule="evenodd" clip-rule="evenodd" d="M117.058 507.183V514.505H117.558V507.183H117.058Z" fill="#303336"/>
<path fill-rule="evenodd" clip-rule="evenodd" d="M103.35 474.044L107.418 476.484L107.675 476.056L103.607 473.615L103.35 474.044Z" fill="#303336"/>
<path fill-rule="evenodd" clip-rule="evenodd" d="M103.35 474.044L107.418 476.484L107.675 476.056L103.607 473.615L103.35 474.044Z" fill="#303336"/>
<path fill-rule="evenodd" clip-rule="evenodd" d="M109.216 477.331L114.097 476.517L114.014 476.024L109.133 476.837L109.216 477.331Z" fill="#303336"/>
<path fill-rule="evenodd" clip-rule="evenodd" d="M109.216 477.331L114.097 476.517L114.014 476.024L109.133 476.837L109.216 477.331Z" fill="#303336"/>
<path fill-rule="evenodd" clip-rule="evenodd" d="M115.858 516.31L117.485 514.683L117.131 514.329L115.504 515.956L115.858 516.31Z" fill="#303336"/>
<path fill-rule="evenodd" clip-rule="evenodd" d="M140.087 445.107H136.833V445.607H140.087V445.107Z" fill="#303336"/>
<path fill-rule="evenodd" clip-rule="evenodd" d="M107.435 476.494L109.062 477.308L109.286 476.86L107.659 476.047L107.435 476.494Z" fill="#303336"/>
<path fill-rule="evenodd" clip-rule="evenodd" d="M107.435 476.494L109.062 477.308L109.286 476.86L107.659 476.047L107.435 476.494Z" fill="#303336"/>
<path fill-rule="evenodd" clip-rule="evenodd" d="M112.538 553.777L114.165 552.964L113.941 552.517L112.314 553.33L112.538 553.777Z" fill="#303336"/>
<path fill-rule="evenodd" clip-rule="evenodd" d="M140.337 445.357V442.917H139.837V445.357H140.337Z" fill="#303336"/>
<path fill-rule="evenodd" clip-rule="evenodd" d="M144.267 433.379L147.521 431.752L147.298 431.305L144.043 432.932L144.267 433.379Z" fill="#303336"/>
<path fill-rule="evenodd" clip-rule="evenodd" d="M205.383 615.573L203.785 623.564L203.294 623.466L204.921 615.331L205.09 615.142L225.428 608.634L225.58 609.11L205.383 615.573Z" fill="#303336"/>
<path fill-rule="evenodd" clip-rule="evenodd" d="M195.22 615.547L202.542 623.682L202.913 623.348L195.592 615.213L195.22 615.547Z" fill="#303336"/>
<path fill-rule="evenodd" clip-rule="evenodd" d="M257.844 636.678L258.175 636.746L266.179 631.943L272.557 635.93L272.84 635.918L276.094 633.477L275.794 633.077L272.677 635.415L266.314 631.438L266.053 631.436L258.114 636.199L251.741 627.436L251.309 627.484L248.868 633.179L249.328 633.376L251.595 628.085L257.844 636.678Z" fill="#303336"/>
<path fill-rule="evenodd" clip-rule="evenodd" d="M287.127 644.809L287.471 644.875L292.352 641.621L292.075 641.205L287.398 644.323L280.216 633.949L279.805 634.234L287.127 644.809Z" fill="#303336"/>
<path fill-rule="evenodd" clip-rule="evenodd" d="M237.458 613.26V617.007H237.958V612.939L237.647 612.697L231.276 614.289L225.682 608.695L225.328 609.049L231.023 614.743L231.26 614.809L237.458 613.26Z" fill="#303336"/>
<path fill-rule="evenodd" clip-rule="evenodd" d="M193.165 618.785L195.606 615.531L195.206 615.231L192.765 618.485L193.165 618.785Z" fill="#303336"/>
<path fill-rule="evenodd" clip-rule="evenodd" d="M243.214 618.84L248.863 633.368L249.329 633.186L243.635 618.543L243.471 618.393L237.776 616.766L237.639 617.247L243.214 618.84Z" fill="#303336"/>
<path fill-rule="evenodd" clip-rule="evenodd" d="M277.457 634.315L277.569 634.341H280.009V633.841H277.628L276.054 633.054L275.83 633.501L277.457 634.315Z" fill="#303336"/>
<path fill-rule="evenodd" clip-rule="evenodd" d="M304.184 624.133L295.401 626.528L295.533 627.01L304.482 624.57L304.664 624.353L305.451 616.493L313.315 618.066L313.527 617.631L308.069 612.952L311.074 610.699L311.036 610.275L306.378 607.947L307.824 605.054H324.753V604.554H307.67L307.446 604.693L305.819 607.947L305.931 608.282L310.45 610.542L307.52 612.739L307.507 613.129L312.475 617.388L305.278 615.948L304.98 616.169L304.184 624.133Z" fill="#303336"/>
<path fill-rule="evenodd" clip-rule="evenodd" d="M292.139 641.652L302.714 644.906L303.005 644.791L306.259 639.097L305.825 638.849L302.67 644.37L292.286 641.174L292.139 641.652Z" fill="#303336"/>
<path fill-rule="evenodd" clip-rule="evenodd" d="M452.681 652.663L446.173 642.901L445.757 643.178L452.265 652.94L452.681 652.663Z" fill="#303336"/>
<path fill-rule="evenodd" clip-rule="evenodd" d="M399.828 621.981L403.082 613.846L402.809 613.507L393.218 615.105L390.051 609.562L389.591 609.747L390.309 612.617L382.561 611.068L382.463 611.558L390.598 613.185L390.89 612.879L390.516 611.384L392.87 615.505L393.129 615.627L402.452 614.073L399.363 621.796L399.828 621.981Z" fill="#303336"/>
<path fill-rule="evenodd" clip-rule="evenodd" d="M362.043 599.692L346.679 602.117L346.757 602.611L362.214 600.171L362.367 600.084L366.434 595.203L366.05 594.883L362.043 599.692Z" fill="#303336"/>
<path fill-rule="evenodd" clip-rule="evenodd" d="M423.508 614.509L433.109 622.51L432.789 622.895L423.027 614.759L422.97 614.443L425.815 609.466L416.791 613.977L416.567 613.53L426.329 608.649L426.658 608.997L423.508 614.509Z" fill="#303336"/>
<path fill-rule="evenodd" clip-rule="evenodd" d="M346.686 602.116L334.483 603.743L334.549 604.238L346.752 602.611L346.686 602.116Z" fill="#303336"/>
<path fill-rule="evenodd" clip-rule="evenodd" d="M346.686 602.116L334.483 603.743L334.549 604.238L346.752 602.611L346.686 602.116Z" fill="#303336"/>
<path fill-rule="evenodd" clip-rule="evenodd" d="M382.752 611.381L384.379 605.687L384.353 605.489L379.472 597.354L379.043 597.612L383.869 605.654L382.271 611.244L382.752 611.381Z" fill="#303336"/>
<path fill-rule="evenodd" clip-rule="evenodd" d="M379.305 597.237L366.288 594.797L366.196 595.288L379.212 597.729L379.305 597.237Z" fill="#303336"/>
<path fill-rule="evenodd" clip-rule="evenodd" d="M295.279 626.934L300.973 633.442L301.35 633.113L295.655 626.605L295.279 626.934Z" fill="#303336"/>
<path fill-rule="evenodd" clip-rule="evenodd" d="M407.624 620.835L399.571 621.64L399.621 622.138L407.756 621.324L407.899 621.26L416.848 613.125L416.512 612.755L407.624 620.835Z" fill="#303336"/>
<path fill-rule="evenodd" clip-rule="evenodd" d="M446.176 642.905L433.159 622.567L432.738 622.837L445.754 643.174L446.176 642.905Z" fill="#303336"/>
<path fill-rule="evenodd" clip-rule="evenodd" d="M334.436 603.754L329.555 605.381L329.713 605.855L334.594 604.228L334.436 603.754Z" fill="#303336"/>
<path fill-rule="evenodd" clip-rule="evenodd" d="M305.386 636.336L301.318 633.082L301.006 633.473L305.073 636.727L305.386 636.336Z" fill="#303336"/>
<path fill-rule="evenodd" clip-rule="evenodd" d="M329.674 605.372L324.793 604.558L324.711 605.052L329.592 605.865L329.674 605.372Z" fill="#303336"/>
<path fill-rule="evenodd" clip-rule="evenodd" d="M304.991 636.61L305.804 639.05L306.279 638.892L305.465 636.452L304.991 636.61Z" fill="#303336"/>
<path fill-rule="evenodd" clip-rule="evenodd" d="M549.927 636.345L533.657 650.988L533.991 651.36L550.196 636.776L565.427 635.974L569.415 641.557L569.618 641.662H572.059V641.162H569.747L565.754 635.572L565.538 635.468L550.081 636.281L549.927 636.345Z" fill="#303336"/>
<path fill-rule="evenodd" clip-rule="evenodd" d="M596.171 629.239L593.8 633.98L594.248 634.203L596.688 629.322L596.662 629.057L591.037 621.824L594.231 605.055H602.973V604.555H594.024L593.778 604.758L590.524 621.842L590.573 622.042L596.171 629.239Z" fill="#303336"/>
<path fill-rule="evenodd" clip-rule="evenodd" d="M491.685 659.121L479.483 648.545L479.24 648.497L464.597 653.378L464.755 653.852L479.263 649.016L491.358 659.499L491.685 659.121Z" fill="#303336"/>
<path fill-rule="evenodd" clip-rule="evenodd" d="M452.224 654.429L452.682 654.568L457.404 647.485L464.511 653.803L464.843 653.429L457.521 646.921L457.147 646.969L452.724 653.604V652.802H452.224V654.429Z" fill="#303336"/>
<path fill-rule="evenodd" clip-rule="evenodd" d="M708.144 570.815L707.351 576.368L706.856 576.297L707.669 570.602L707.822 570.407L721.651 564.712L721.842 565.174L708.144 570.815Z" fill="#303336"/>
<path fill-rule="evenodd" clip-rule="evenodd" d="M625.107 613.518L621.099 604.701L620.872 604.555H602.975V605.055H620.711L624.712 613.857L624.917 614.002L633.865 614.816L634.046 614.761L647.01 604.227L666.469 600.984L666.387 600.491L646.863 603.745L646.746 603.797L633.809 614.309L625.107 613.518Z" fill="#303336"/>
<path fill-rule="evenodd" clip-rule="evenodd" d="M736.145 534.892L739.399 551.163L739.889 551.065L736.636 534.797L736.635 534.794L734.195 521.781L734.035 521.592L725.267 518.404L726.057 509.715L736.545 495.194L756.696 488.746L783.444 504.957L783.703 504.53L756.857 488.26L756.652 488.235L736.314 494.743L736.187 494.835L725.612 509.478L725.565 509.602L724.752 518.551L724.915 518.808L733.73 522.013L736.145 534.892Z" fill="#303336"/>
<path fill-rule="evenodd" clip-rule="evenodd" d="M786.124 505.333L784.497 504.52L784.273 504.967L785.9 505.78L786.124 505.333Z" fill="#303336"/>
<path fill-rule="evenodd" clip-rule="evenodd" d="M20.7507 499.049V492.541L20.5497 492.296L16.7195 491.53L18.3067 482.006L17.8135 481.924L16.1865 491.686L16.3841 491.972L20.2507 492.746V499.049H20.7507Z" fill="#303336"/>
<path fill-rule="evenodd" clip-rule="evenodd" d="M32.1305 515.247L29.69 507.112L29.5976 506.982L20.752 500.548V499.049H20.252V500.676L20.3549 500.878L29.2353 507.336L31.6516 515.391L32.1305 515.247Z" fill="#303336"/>
<path fill-rule="evenodd" clip-rule="evenodd" d="M32.54 518.337L24.542 519.137L24.5917 519.634L32.7268 518.821L32.9256 518.684L36.1197 512.295L42.495 511.499L42.433 511.002L35.925 511.816L35.7324 511.952L32.54 518.337Z" fill="#303336"/>
<path fill-rule="evenodd" clip-rule="evenodd" d="M24.8143 528.294L22.3738 513.651L22.2319 513.465L11.6563 508.584L11.4468 509.038L21.9023 513.863L24.3211 528.376L24.8143 528.294Z" fill="#303336"/>
<path fill-rule="evenodd" clip-rule="evenodd" d="M128.135 585.28V583.653H127.635V585.28H128.135Z" fill="#303336"/>
<path fill-rule="evenodd" clip-rule="evenodd" d="M58.4898 560.835L55.2358 581.173L55.7296 581.252L58.9836 560.914L58.4898 560.835Z" fill="#303336"/>
<path fill-rule="evenodd" clip-rule="evenodd" d="M140.258 596.486L128.056 585.097L127.714 585.462L139.917 596.852L140.258 596.486Z" fill="#303336"/>
<path fill-rule="evenodd" clip-rule="evenodd" d="M127.837 615.016L123.163 611.121L122.843 611.505L127.724 615.573L128.088 615.526L132.155 609.832L131.748 609.541L127.837 615.016Z" fill="#303336"/>
<path fill-rule="evenodd" clip-rule="evenodd" d="M117.424 611.562L113.431 616.353L113.047 616.033L117.115 611.152L117.307 611.062H123.002V611.562H117.424Z" fill="#303336"/>
<path fill-rule="evenodd" clip-rule="evenodd" d="M136.672 602.171L131.791 606.239L132.111 606.623L136.992 602.556L136.672 602.171Z" fill="#303336"/>
<path fill-rule="evenodd" clip-rule="evenodd" d="M56.5367 558.368L54.0962 549.42L53.6138 549.551L56.0543 558.5L56.5367 558.368Z" fill="#303336"/>
<path fill-rule="evenodd" clip-rule="evenodd" d="M47.2344 546.455L53.7425 549.709L53.9661 549.262L47.458 546.008L47.2344 546.455Z" fill="#303336"/>
<path fill-rule="evenodd" clip-rule="evenodd" d="M56.1191 558.612L58.5597 561.052L58.9132 560.699L56.4727 558.258L56.1191 558.612Z" fill="#303336"/>
<path fill-rule="evenodd" clip-rule="evenodd" d="M132.201 609.687V606.433H131.701V609.687H132.201Z" fill="#303336"/>
<path fill-rule="evenodd" clip-rule="evenodd" d="M90.6135 630.223L93.8675 627.783L93.5675 627.383L90.3135 629.823L90.6135 630.223Z" fill="#303336"/>
<path fill-rule="evenodd" clip-rule="evenodd" d="M55.7324 583.654V581.214H55.2324V583.654H55.7324Z" fill="#303336"/>
<path fill-rule="evenodd" clip-rule="evenodd" d="M254.617 800.236L260.28 808.326L260.689 808.039L254.995 799.904L254.914 799.83L237.906 790.111L236.311 786.125L236.126 785.972L219.042 782.718L218.861 782.752L209.997 788.393L201.961 786.786L201.863 787.276L209.998 788.903L210.181 788.869L219.046 783.228L235.898 786.437L237.474 790.378L237.582 790.502L254.617 800.236Z" fill="#303336"/>
<path fill-rule="evenodd" clip-rule="evenodd" d="M232.749 747.406L242.511 750.66L242.838 750.451L243.636 743.269L253.925 738.52L257.87 742.465L258.27 742.176L255.981 737.598L260.413 736.859L271.713 746.545L272.039 746.166L260.65 736.403L260.446 736.347L255.565 737.16L255.382 737.519L257.134 741.022L254.156 738.044L253.874 737.993L243.298 742.874L243.155 743.074L242.375 750.088L232.907 746.932L232.749 747.406Z" fill="#303336"/>
<path fill-rule="evenodd" clip-rule="evenodd" d="M153.447 749.62L159.799 756.765L159.425 757.097L152.917 749.776L152.927 749.433L157.688 744.671L155.392 739.314L136.876 742.534L136.62 742.418L127.675 727.781L120.358 717.211L120.328 716.984L123.554 708.114L120.356 697.721L109.062 692.074L109.286 691.627L120.675 697.321L120.802 697.471L124.056 708.047L124.052 708.206L120.843 717.033L128.091 727.502L128.098 727.514L136.958 742.012L155.501 738.788L155.774 738.935L158.215 744.63L158.162 744.905L153.447 749.62Z" fill="#303336"/>
<path fill-rule="evenodd" clip-rule="evenodd" d="M202.549 623.692L203.362 624.506L203.789 624.329V623.516H203.289V623.726L202.902 623.339L202.549 623.692Z" fill="#303336"/>
<path fill-rule="evenodd" clip-rule="evenodd" d="M142.249 735.823L139.849 743.022L140.323 743.18L142.764 735.859L142.729 735.632L136.459 727.011L140.941 726.264L141.142 725.957L137.075 709.687L136.59 709.808L140.591 725.815L135.977 726.584L135.816 726.978L142.249 735.823Z" fill="#303336"/>
<path fill-rule="evenodd" clip-rule="evenodd" d="M112.99 754.489L113.24 754.739H118.121V754.239H113.49V749.608L113.364 749.391L101.975 742.883L101.81 742.853L96.9287 743.667L97.0109 744.16L101.804 743.361L112.99 749.753V754.489Z" fill="#303336"/>
<path fill-rule="evenodd" clip-rule="evenodd" d="M143.977 694.498L151.251 709.046L151.698 708.822L144.377 694.179L144.227 694.052L133.746 690.827L130.541 685.218L130.106 685.466L133.36 691.161L133.504 691.276L143.977 694.498Z" fill="#303336"/>
<path fill-rule="evenodd" clip-rule="evenodd" d="M143.977 694.498L151.251 709.046L151.698 708.822L144.377 694.179L144.227 694.052L133.746 690.827L130.541 685.218L130.106 685.466L133.36 691.161L133.504 691.276L143.977 694.498Z" fill="#303336"/>
<path fill-rule="evenodd" clip-rule="evenodd" d="M143.977 694.498L151.251 709.046L151.698 708.822L144.377 694.179L144.227 694.052L133.746 690.827L130.541 685.218L130.106 685.466L133.36 691.161L133.504 691.276L143.977 694.498Z" fill="#303336"/>
<path fill-rule="evenodd" clip-rule="evenodd" d="M187.843 662.099L192.35 668.108L191.95 668.408L187.069 661.9L187.31 661.503L191.874 662.264L191.095 652.913L182.211 644.029L182.15 643.773L183.777 638.892L184.252 639.05L182.674 643.785L191.513 652.624L191.585 652.78L192.399 662.542L192.109 662.81L187.843 662.099Z" fill="#303336"/>
<path fill-rule="evenodd" clip-rule="evenodd" d="M227.903 746.602L232.784 747.416L232.866 746.922L228.105 746.129L219.215 729.965L218.972 729.836L201.888 731.463L201.936 731.961L218.856 730.35L227.725 746.476L227.903 746.602Z" fill="#303336"/>
<path fill-rule="evenodd" clip-rule="evenodd" d="M140.9 596.419H140.086V596.919H140.9V596.419Z" fill="#303336"/>
<path fill-rule="evenodd" clip-rule="evenodd" d="M112.293 666.853L130.144 685.515L130.505 685.169L112.608 666.458L112.496 666.391L106.801 664.764L106.664 665.245L112.293 666.853Z" fill="#303336"/>
<path fill-rule="evenodd" clip-rule="evenodd" d="M112.293 666.853L130.144 685.515L130.505 685.169L112.608 666.458L112.496 666.391L106.801 664.764L106.664 665.245L112.293 666.853Z" fill="#303336"/>
<path fill-rule="evenodd" clip-rule="evenodd" d="M159.398 722.081L159.707 722.18L169.469 718.112L169.276 717.651L159.71 721.637L151.687 708.8L151.238 708.854L148.096 718.279L136.987 709.55L136.678 709.943L148.067 718.891L148.458 718.774L151.545 709.515L159.398 722.081Z" fill="#303336"/>
<path fill-rule="evenodd" clip-rule="evenodd" d="M137.084 742.287V732.525L136.968 732.314L128.019 726.62L127.751 727.041L136.584 732.662V742.287H137.084Z" fill="#303336"/>
<path fill-rule="evenodd" clip-rule="evenodd" d="M180.284 634.886L184.193 638.795L183.84 639.148L179.772 635.081L179.754 634.748L192.77 618.478L193.161 618.79L180.284 634.886Z" fill="#303336"/>
<path fill-rule="evenodd" clip-rule="evenodd" d="M137.469 601.374L136.656 602.187L137.009 602.541L137.823 601.727L137.469 601.374Z" fill="#303336"/>
<path fill-rule="evenodd" clip-rule="evenodd" d="M123.742 705.919L136.758 709.987L136.907 709.51L123.891 705.442L123.742 705.919Z" fill="#303336"/>
<path fill-rule="evenodd" clip-rule="evenodd" d="M123.742 705.919L136.758 709.987L136.907 709.51L123.891 705.442L123.742 705.919Z" fill="#303336"/>
<path fill-rule="evenodd" clip-rule="evenodd" d="M243.158 703.181L232.583 747.111L233.069 747.228L243.6 703.483L266.884 702.68L273.314 709.914L273.688 709.582L267.18 702.26L266.984 702.176L243.393 702.99L243.158 703.181Z" fill="#303336"/>
<path fill-rule="evenodd" clip-rule="evenodd" d="M97.2126 744.668L96.3991 741.414L95.9141 741.535L96.7275 744.79L97.2126 744.668Z" fill="#303336"/>
<path fill-rule="evenodd" clip-rule="evenodd" d="M137.842 601.707L141.096 597.64L140.705 597.327L137.451 601.395L137.842 601.707Z" fill="#303336"/>
<path fill-rule="evenodd" clip-rule="evenodd" d="M453.851 865.127H454.351V854.552L454.202 854.323L446.972 851.11L442.943 841.44L442.755 841.289L424.191 838.061L420.984 828.44L420.833 828.285L406.079 822.849L413.497 820.624L413.668 820.324L410.414 807.308L410.209 807.121L399.829 805.524L399.04 796.064L410.274 783.226L424.787 784.838L425.029 784.719L429.843 776.695L441.103 775.891L441.226 775.848L459.123 763.645L458.841 763.232L441 775.397L429.678 776.206L429.481 776.326L424.683 784.324L410.199 782.715L409.983 782.798L398.594 795.815L398.533 796L399.347 805.762L399.558 805.988L409.969 807.59L413.125 820.214L405.219 822.585L405.204 823.06L420.548 828.713L423.764 838.361L423.958 838.528L442.534 841.758L446.549 851.394L446.678 851.526L453.851 854.714V865.127Z" fill="#303336"/>
<path fill-rule="evenodd" clip-rule="evenodd" d="M455.617 727.421L455.729 727.895H457.356V727.395H456.788L457.468 727.055L457.244 726.607L455.617 727.421Z" fill="#303336"/>
<path fill-rule="evenodd" clip-rule="evenodd" d="M269.142 879.683L257.891 888.523L258.2 888.916L269.589 879.967L269.672 879.692L268.045 874.811L267.893 874.655L259.109 871.461V853.856L263.9 849.863L263.869 849.457L259.944 847.102L260.709 841.746L264.603 840.968L264.782 840.824L271.181 826.426L284.774 833.622L285.091 833.551L289.908 827.129L303.631 825.514L303.826 825.378L308.663 815.702L319.048 811.708L340.915 822.237L341.127 822.239L349.936 818.235L353.883 821.394L354.207 821.384L371.104 806.096L377.381 813.158V827.706L377.747 827.928L394.753 819.02L410.936 822.257L411.034 821.767L394.764 818.513L394.599 818.536L377.881 827.293V813.063L377.818 812.897L371.31 805.576L370.956 805.556L354.03 820.87L350.128 817.749L349.869 817.717L341.027 821.736L319.167 811.211L318.969 811.203L308.393 815.27L308.26 815.392L303.439 825.033L289.743 826.645L289.572 826.743L284.82 833.08L271.179 825.858L270.833 825.978L264.378 840.503L260.437 841.291L260.239 841.501L259.425 847.195L259.544 847.445L263.31 849.704L258.699 853.547L258.609 853.739V871.636L258.774 871.871L267.609 875.083L269.142 879.683Z" fill="#303336"/>
<path fill-rule="evenodd" clip-rule="evenodd" d="M321.672 886.5L316.032 898.587L315.579 898.376L321.273 886.173L321.452 886.034L350.574 880.371L352.981 868.333L353.161 868.141L361.826 865.777L357.88 857.096L358.124 856.743L370.019 857.536L369.249 852.147L369.32 851.935L376.523 844.732L372.52 835.124L372.559 834.868L376.626 829.987L376.773 829.901L407.686 824.206L407.777 824.698L376.952 830.376L373.04 835.072L377.049 844.694L376.995 844.967L369.762 852.2L370.558 857.771L370.294 858.056L358.508 857.27L362.403 865.838L362.241 866.183L353.441 868.582L351.031 880.634L350.834 880.83L321.672 886.5Z" fill="#303336"/>
<path fill-rule="evenodd" clip-rule="evenodd" d="M466.429 893.385L456.667 887.691L456.429 887.683L453.429 889.184L448.797 876.06L454.854 877.574L455.077 877.521L460.771 872.64L460.796 872.284L454.288 864.963L453.914 865.295L460.253 872.426L454.85 877.057L448.467 875.462L448.17 875.787L453.051 889.617L453.399 889.758L456.532 888.191L466.177 893.817L466.429 893.385Z" fill="#303336"/>
<path fill-rule="evenodd" clip-rule="evenodd" d="M398.152 905.16L408.728 893.771L408.787 893.54L407.16 887.032L406.675 887.153L408.269 893.53L397.786 904.82L398.152 905.16Z" fill="#303336"/>
<path fill-rule="evenodd" clip-rule="evenodd" d="M270.799 814.079L269.999 826.877L270.498 826.908L271.311 813.892L271.111 813.631L263.084 812.026L260.701 808.053L260.272 808.311L262.713 812.378L262.878 812.495L270.799 814.079Z" fill="#303336"/>
<path fill-rule="evenodd" clip-rule="evenodd" d="M270.963 756.348L282.352 761.229L282.549 760.769L271.325 755.959L272.124 746.377L271.626 746.335L270.812 756.097L270.963 756.348Z" fill="#303336"/>
<path fill-rule="evenodd" clip-rule="evenodd" d="M401.526 869.096L416.006 878.75L415.728 879.166L401.085 869.403L400.989 869.11L404.16 860.389L400.317 858.852L400.16 858.62V852.112L400.41 851.862H431.214L440.902 841.367L441.269 841.706L431.507 852.281L431.324 852.362H400.66V858.451L404.571 860.015L404.713 860.332L401.526 869.096Z" fill="#303336"/>
<path fill-rule="evenodd" clip-rule="evenodd" d="M327.728 807.468L326.135 814.636L326.623 814.745L328.25 807.423L328.161 807.172L289.926 777.073L289.617 777.465L327.728 807.468Z" fill="#303336"/>
<path fill-rule="evenodd" clip-rule="evenodd" d="M327.728 807.468L326.135 814.636L326.623 814.745L328.25 807.423L328.161 807.172L289.926 777.073L289.617 777.465L327.728 807.468Z" fill="#303336"/>
<path fill-rule="evenodd" clip-rule="evenodd" d="M380.12 769.657L384.745 776.594L385.161 776.317L380.28 768.995L379.843 769.036L377.504 774.493L365.946 769.099L376.953 762.023L376.93 761.589L373.676 759.962L373.452 760.409L376.314 761.84L365.294 768.924L365.323 769.361L377.526 775.055L377.862 774.927L380.12 769.657Z" fill="#303336"/>
<path fill-rule="evenodd" clip-rule="evenodd" d="M380.045 785.949L366.313 781.91L366.172 782.39L380.002 786.458L380.189 786.439L394.019 779.117L393.968 778.655L385.019 776.214L384.887 776.697L393.226 778.971L380.045 785.949Z" fill="#303336"/>
<path fill-rule="evenodd" clip-rule="evenodd" d="M375.782 755.192L373.341 760.073L373.789 760.297L376.178 755.519L382.499 753.938L397.884 759.606L398.219 759.399L399.016 752.222L404.577 749.839L404.38 749.38L398.685 751.82L398.535 752.022L397.757 759.027L382.6 753.442L382.453 753.434L375.945 755.061L375.782 755.192Z" fill="#303336"/>
<path fill-rule="evenodd" clip-rule="evenodd" d="M459.111 758.345L450.976 753.464L450.841 753.428L418.3 754.242L418.313 754.741L450.781 753.93L458.853 758.773L459.111 758.345Z" fill="#303336"/>
<path fill-rule="evenodd" clip-rule="evenodd" d="M355.918 792.49L369.512 793.29L369.483 793.789L355.653 792.976L355.418 792.726V788.658L355.61 788.415L372.694 784.348L372.81 784.834L355.918 788.856V792.49Z" fill="#303336"/>
<path fill-rule="evenodd" clip-rule="evenodd" d="M344.634 775.558L346.112 773.34L345.696 773.062L344.069 775.503L344.153 775.859L349.848 779.113L350.191 779.015L355.036 770.134L373.679 760.407L373.448 759.963L354.737 769.725L354.633 769.827L349.875 778.552L344.634 775.558Z" fill="#303336"/>
<path fill-rule="evenodd" clip-rule="evenodd" d="M384.811 798.625L385.011 798.663L398.841 795.409L398.726 794.922L385.006 798.151L376.962 792.52L376.791 792.477L369.47 793.29L369.525 793.787L376.753 792.984L384.811 798.625Z" fill="#303336"/>
<path fill-rule="evenodd" clip-rule="evenodd" d="M338.794 818.894L346.116 807.504L346.148 807.309L343.708 797.546L343.586 797.389L336.265 793.321L336.022 793.758L343.249 797.773L345.637 807.325L338.374 818.623L338.794 818.894Z" fill="#303336"/>
<path fill-rule="evenodd" clip-rule="evenodd" d="M357.897 777.137L353.829 783.645L354.253 783.91L358.184 777.62L360.411 779.105L360.671 779.115L367.808 775.15L370.93 779.053L371.32 778.74L368.066 774.673L367.749 774.61L360.561 778.604L358.247 777.062L357.897 777.137Z" fill="#303336"/>
<path fill-rule="evenodd" clip-rule="evenodd" d="M340.034 789.295L335.967 793.363L336.32 793.716L340.293 789.743L348.297 791.344L348.546 791.249L353.427 784.741L353.027 784.441L348.241 790.823L340.26 789.227L340.034 789.295Z" fill="#303336"/>
<path fill-rule="evenodd" clip-rule="evenodd" d="M286.3 763.6L289.53 777.327L290.017 777.212L286.763 763.382L286.648 763.225L282.58 760.785L282.323 761.214L286.3 763.6Z" fill="#303336"/>
<path fill-rule="evenodd" clip-rule="evenodd" d="M328.255 753.708L329.068 747.2L328.741 746.932L326.485 747.684L319.268 736.458L319.073 736.344L292.228 734.717L292.197 735.216L318.916 736.835L326.169 748.118L326.459 748.22L328.523 747.532L327.759 753.646L328.255 753.708Z" fill="#303336"/>
<path fill-rule="evenodd" clip-rule="evenodd" d="M328.255 753.708L329.068 747.2L328.741 746.932L326.485 747.684L319.268 736.458L319.073 736.344L292.228 734.717L292.197 735.216L318.916 736.835L326.169 748.118L326.459 748.22L328.523 747.532L327.759 753.646L328.255 753.708Z" fill="#303336"/>
<path fill-rule="evenodd" clip-rule="evenodd" d="M407.909 887.27L416.044 879.135L415.69 878.781L407.555 886.916L407.909 887.27Z" fill="#303336"/>
<path fill-rule="evenodd" clip-rule="evenodd" d="M418.391 754.255L404.561 749.374L404.395 749.846L418.224 754.727L418.391 754.255Z" fill="#303336"/>
<path fill-rule="evenodd" clip-rule="evenodd" d="M375.392 789.322L372.951 786.068L372.551 786.368L374.992 789.622L375.392 789.322Z" fill="#303336"/>
<path fill-rule="evenodd" clip-rule="evenodd" d="M292.428 734.838L282.666 718.568L282.237 718.825L291.999 735.095L292.428 734.838Z" fill="#303336"/>
<path fill-rule="evenodd" clip-rule="evenodd" d="M335.912 770.86L336.141 771.011H344.276V770.511H336.306L331.49 759.274L331.26 759.122H327.481L328.254 753.713L327.759 753.642L326.945 759.337L327.193 759.622H331.095L335.912 770.86Z" fill="#303336"/>
<path fill-rule="evenodd" clip-rule="evenodd" d="M366.381 782.358L371.262 779.104L370.985 778.688L366.104 781.942L366.381 782.358Z" fill="#303336"/>
<path fill-rule="evenodd" clip-rule="evenodd" d="M349.972 784.027H354.04V783.527H349.972V784.027Z" fill="#303336"/>
<path fill-rule="evenodd" clip-rule="evenodd" d="M344.069 770.9L345.696 773.34L346.112 773.063L344.485 770.623L344.069 770.9Z" fill="#303336"/>
<path fill-rule="evenodd" clip-rule="evenodd" d="M351.6 784.841H353.227V784.341H351.6V784.841Z" fill="#303336"/>
<path d="M384.745 776.594L380.12 769.657L377.861 774.927L377.526 775.055L365.323 769.361L365.293 768.924L376.313 761.84L373.452 760.409L373.676 759.962L376.93 761.589L376.953 762.023L365.945 769.099L377.503 774.493L379.842 769.036L380.28 768.995L385.161 776.317L384.745 776.594Z" fill="#303336"/>
<path d="M366.313 781.91L380.045 785.949L393.226 778.971L384.887 776.697L385.019 776.214L393.968 778.655L394.019 779.117L380.189 786.439L380.002 786.458L366.172 782.39L366.313 781.91Z" fill="#303336"/>
<path d="M373.341 760.074L375.782 755.192L375.945 755.062L382.453 753.435L382.6 753.443L397.757 759.027L398.535 752.023L398.685 751.82L404.38 749.38L404.577 749.839L399.016 752.223L398.219 759.399L397.884 759.606L382.499 753.938L376.178 755.519L373.789 760.297L373.341 760.074Z" fill="#303336"/>
<path d="M450.976 753.464L459.111 758.345L458.853 758.774L450.781 753.93L418.313 754.742L418.3 754.242L450.841 753.428L450.976 753.464Z" fill="#303336"/>
<path d="M369.512 793.29L355.918 792.491V788.856L372.81 784.835L372.694 784.348L355.61 788.416L355.418 788.659V792.726L355.653 792.976L369.483 793.789L369.512 793.29Z" fill="#303336"/>
<path fill-rule="evenodd" clip-rule="evenodd" d="M344.634 775.558L346.112 773.34L345.696 773.062L344.069 775.503L344.153 775.859L349.848 779.113L350.191 779.015L355.036 770.134L373.679 760.407L373.448 759.963L354.737 769.725L354.633 769.827L349.875 778.552L344.634 775.558Z" fill="#303336"/>
<path fill-rule="evenodd" clip-rule="evenodd" d="M384.81 798.625L385.01 798.663L398.84 795.409L398.725 794.922L385.005 798.151L376.961 792.52L376.79 792.477L369.469 793.29L369.524 793.787L376.752 792.984L384.81 798.625Z" fill="#303336"/>
<path fill-rule="evenodd" clip-rule="evenodd" d="M338.794 818.894L346.116 807.504L346.148 807.309L343.708 797.546L343.586 797.389L336.265 793.321L336.022 793.758L343.249 797.773L345.637 807.325L338.374 818.623L338.794 818.894Z" fill="#303336"/>
<path fill-rule="evenodd" clip-rule="evenodd" d="M357.896 777.137L353.828 783.645L354.252 783.91L358.183 777.62L360.41 779.105L360.67 779.115L367.807 775.15L370.929 779.053L371.319 778.74L368.065 774.673L367.748 774.61L360.56 778.604L358.246 777.062L357.896 777.137Z" fill="#303336"/>
<path fill-rule="evenodd" clip-rule="evenodd" d="M340.034 789.295L335.967 793.363L336.32 793.716L340.293 789.743L348.297 791.344L348.546 791.249L353.427 784.741L353.027 784.441L348.241 790.823L340.26 789.227L340.034 789.295Z" fill="#303336"/>
<path fill-rule="evenodd" clip-rule="evenodd" d="M328.255 753.708L329.068 747.2L328.741 746.932L326.485 747.684L319.268 736.458L319.073 736.344L292.228 734.717L292.197 735.216L318.916 736.835L326.169 748.118L326.459 748.22L328.523 747.532L327.759 753.646L328.255 753.708Z" fill="#303336"/>
<path fill-rule="evenodd" clip-rule="evenodd" d="M418.391 754.255L404.561 749.374L404.395 749.846L418.224 754.727L418.391 754.255Z" fill="#303336"/>
<path fill-rule="evenodd" clip-rule="evenodd" d="M375.392 789.322L372.951 786.068L372.551 786.368L374.992 789.622L375.392 789.322Z" fill="#303336"/>
<path fill-rule="evenodd" clip-rule="evenodd" d="M292.428 734.838L282.666 718.568L282.237 718.825L291.999 735.095L292.428 734.838Z" fill="#303336"/>
<path fill-rule="evenodd" clip-rule="evenodd" d="M335.912 770.86L336.141 771.011H344.276V770.511H336.306L331.49 759.274L331.26 759.122H327.481L328.254 753.713L327.759 753.642L326.945 759.337L327.193 759.622H331.095L335.912 770.86Z" fill="#303336"/>
<path fill-rule="evenodd" clip-rule="evenodd" d="M366.381 782.358L371.262 779.104L370.985 778.688L366.104 781.942L366.381 782.358Z" fill="#303336"/>
<path fill-rule="evenodd" clip-rule="evenodd" d="M349.972 784.027H354.04V783.527H349.972V784.027Z" fill="#303336"/>
<path fill-rule="evenodd" clip-rule="evenodd" d="M344.068 770.9L345.695 773.34L346.111 773.063L344.484 770.623L344.068 770.9Z" fill="#303336"/>
<path fill-rule="evenodd" clip-rule="evenodd" d="M351.599 784.841H353.226V784.341H351.599V784.841Z" fill="#303336"/>
<path fill-rule="evenodd" clip-rule="evenodd" d="M461.158 761.689L458.844 763.231L459.122 763.647L461.562 762.02L461.672 761.785L460.871 754.573L466.493 748.147L466.549 747.93L462.481 729.219L462.316 729.035L457.435 727.408L457.277 727.882L462.023 729.464L466.034 747.913L460.422 754.326L460.361 754.518L461.158 761.689Z" fill="#303336"/>
<path fill-rule="evenodd" clip-rule="evenodd" d="M471.898 720.095L457.254 726.603L457.457 727.06L472.016 720.589L480.062 723.003L480.351 722.64L477.146 717.03L481.949 696.216L496.35 699.416L496.537 699.384L503.045 695.316L503.162 695.104V678.194L509.508 675.814L509.669 675.605L510.464 667.654L518.202 666.107L520.572 673.219L520.757 673.384L539.39 677.435L548.24 687.09L553.106 708.177L553.385 708.368L576.124 705.12L594.706 708.351L607.664 723.738L607.934 723.814L639.661 713.239L639.503 712.764L607.937 723.286L595.03 707.959L594.882 707.874L576.171 704.62L576.093 704.619L553.542 707.84L548.713 686.913L548.653 686.8L539.705 677.038L539.573 676.963L521.002 672.926L518.606 665.739L518.32 665.573L510.185 667.2L509.985 667.42L509.187 675.401L502.825 677.787L502.662 678.021V694.966L496.359 698.906L481.815 695.674L481.518 695.862L476.637 717.013L476.663 717.193L479.607 722.344L472.071 720.084L471.898 720.095Z" fill="#303336"/>
<path fill-rule="evenodd" clip-rule="evenodd" d="M533.652 650.993L518.195 665.637L518.539 666L533.996 651.356L533.652 650.993Z" fill="#303336"/>
<path fill-rule="evenodd" clip-rule="evenodd" d="M591.429 637.931L572.019 641.166L572.101 641.66L591.625 638.406L591.798 638.288L594.239 634.22L593.81 633.963L591.429 637.931Z" fill="#303336"/>
<path fill-rule="evenodd" clip-rule="evenodd" d="M475.402 902.75L478.656 900.309L478.623 899.888L466.421 893.38L466.186 893.821L478.042 900.145L475.102 902.35L475.402 902.75Z" fill="#303336"/>
<path fill-rule="evenodd" clip-rule="evenodd" d="M514.506 667.302L508.812 659.167L508.415 659.15L504.422 663.941H496.508L491.7 659.134L491.347 659.487L496.228 664.368L496.404 664.441H504.54L504.732 664.352L508.59 659.722L514.097 667.589L514.506 667.302Z" fill="#303336"/>
<path fill-rule="evenodd" clip-rule="evenodd" d="M461.562 759.977L459.122 758.35L458.844 758.766L461.285 760.393L461.562 759.977Z" fill="#303336"/>
<path fill-rule="evenodd" clip-rule="evenodd" d="M489.828 896.615L478.438 899.869L478.576 900.35L489.871 897.122L496.293 900.333L496.516 899.886L490.008 896.632L489.828 896.615Z" fill="#303336"/>
<path fill-rule="evenodd" clip-rule="evenodd" d="M645.977 709.525L639.469 712.779L639.692 713.226L646.157 709.994L685.971 706.744L686.15 706.646L701.571 686.354L716.162 679.059L716.25 678.985L723.572 669.223L723.604 669.166L730.112 652.896L730.034 652.605L722.808 646.986V637.533L736.459 633.518L736.633 633.331L739.054 622.029L747.12 615.577L747.209 615.43L751.261 595.171L766.66 580.582L766.567 580.163L749.483 574.469L749.185 574.586L744.343 583.463L730.871 589.803L725.243 564.077L724.938 563.888L721.684 564.701L721.806 565.186L724.81 564.435L730.449 590.216L730.8 590.389L744.63 583.881L744.743 583.774L749.524 575.009L766.013 580.506L750.859 594.862L750.786 594.995L746.736 615.243L738.672 621.694L738.584 621.837L736.175 633.081L722.488 637.106L722.308 637.346V647.108L722.405 647.306L729.578 652.885L723.152 668.949L715.886 678.638L701.295 685.933L701.208 686.005L685.819 706.254L646.068 709.499L645.977 709.525Z" fill="#303336"/>
<path fill-rule="evenodd" clip-rule="evenodd" d="M675.238 605.827L675.479 605.847L691.749 598.525L691.833 598.463L704.849 583.82L704.9 583.733L707.34 576.411L706.866 576.253L704.442 583.526L691.495 598.091L675.4 605.334L668.193 600.53L667.916 600.946L675.238 605.827Z" fill="#303336"/>
<path fill-rule="evenodd" clip-rule="evenodd" d="M668.055 600.488H666.428V600.988H668.055V600.488Z" fill="#303336"/>
<path fill-rule="evenodd" clip-rule="evenodd" d="M735.388 562.28L725.771 563.883L725.853 564.376L735.615 562.749L735.81 562.587L739.877 551.198L739.406 551.03L735.388 562.28Z" fill="#303336"/>
<path fill-rule="evenodd" clip-rule="evenodd" d="M837.504 619.515L842.385 601.617L842.392 601.519L840.786 589.477L851.224 583.054L851.285 582.681L847.31 577.911L852.954 562.59L852.954 562.416L850.656 556.289L857.573 557.057L857.629 556.56L850.307 555.747L850.045 556.083L852.453 562.504L846.791 577.874L846.833 578.12L850.716 582.779L840.386 589.136L840.269 589.382L841.89 601.535L837.022 619.383L837.504 619.515Z" fill="#303336"/>
<path fill-rule="evenodd" clip-rule="evenodd" d="M854.672 555.84L859.307 557.385L859.148 557.859L854.267 556.232L854.112 555.907L856.518 549.493L854.139 543.943L841.98 533.405L841.895 533.197L842.708 522.622L842.791 522.454L849.972 516.071L832.156 478.819L832.607 478.603L850.504 516.025L850.445 516.32L843.199 522.761L842.403 533.11L854.51 543.603L854.576 543.694L857.017 549.388L857.021 549.574L854.672 555.84Z" fill="#303336"/>
<path fill-rule="evenodd" clip-rule="evenodd" d="M790.077 508.488L786.169 505.361L785.856 505.752L789.924 509.006L790.24 509.003L799.95 500.911L809.538 499.313L820.028 507.382L820.41 507.282L832.612 478.809L832.153 478.612L820.077 506.789L809.757 498.85L809.563 498.802L799.801 500.429L799.682 500.484L790.077 508.488Z" fill="#303336"/>
<path fill-rule="evenodd" clip-rule="evenodd" d="M870.368 612.042L864.727 619.296L865.121 619.603L870.816 612.281L870.868 612.127V606.433H870.368V612.042Z" fill="#303336"/>
<path fill-rule="evenodd" clip-rule="evenodd" d="M837.013 619.449V623.517H837.513V619.449H837.013Z" fill="#303336"/>
<path fill-rule="evenodd" clip-rule="evenodd" d="M864.674 619.449V623.517H865.174V619.449H864.674Z" fill="#303336"/>
<path fill-rule="evenodd" clip-rule="evenodd" d="M862.691 630.976L865.945 626.095L865.529 625.818L862.275 630.699L862.691 630.976Z" fill="#303336"/>
<path fill-rule="evenodd" clip-rule="evenodd" d="M864.687 623.596L865.501 626.036L865.975 625.878L865.161 623.438L864.687 623.596Z" fill="#303336"/>
<path fill-rule="evenodd" clip-rule="evenodd" d="M854.458 638.75L851.204 637.123L850.98 637.57L854.235 639.197L854.458 638.75Z" fill="#303336"/>
<path fill-rule="evenodd" clip-rule="evenodd" d="M854.485 638.765L852.045 637.138L851.768 637.554L854.208 639.181L854.485 638.765Z" fill="#303336"/>
<path fill-rule="evenodd" clip-rule="evenodd" d="M860.679 633.101L859.866 633.915L860.219 634.268L861.033 633.454L860.679 633.101Z" fill="#303336"/>
<path fill-rule="evenodd" clip-rule="evenodd" d="M851.906 637.095H851.093V637.595H851.906V637.095Z" fill="#303336"/>
<path fill-rule="evenodd" clip-rule="evenodd" d="M291.321 901.974L291.416 901.985L315.008 900.358L315.214 900.221L316.027 898.594L315.58 898.37L314.831 899.869L291.43 901.483L256.495 890.109L256.34 890.584L291.321 901.974Z" fill="#303336"/>
<path fill-rule="evenodd" clip-rule="evenodd" d="M528.019 932.06L528.141 932.086L547.665 931.272L547.644 930.773L528.185 931.584L515.226 925.104L515.076 925.081L499.686 927.511L469.04 915.414L471.407 905.946L475.409 902.745L475.096 902.355L471.029 905.609L470.942 905.743L468.502 915.505L468.653 915.799L499.566 928.001L499.697 928.016L515.074 925.588L528.019 932.06Z" fill="#303336"/>
<path fill-rule="evenodd" clip-rule="evenodd" d="M559.597 929.975L547.639 930.773L547.672 931.271L559.875 930.458L560.108 930.197L559.301 913.254L563.84 910.228L567.992 917.61L567.799 917.848L568.187 918.164L568.256 918.079L571.029 923.01L571.313 923.128L603.854 914.179L603.995 913.8L597.487 904.038L597.268 903.927L578.558 904.74L578.375 904.832L568.331 917.193L564.143 909.748L563.787 909.663L558.906 912.917L558.795 913.137L559.597 929.975ZM568.595 917.662L578.692 905.235L597.149 904.432L603.387 913.789L571.369 922.594L568.595 917.662Z" fill="#303336"/>
<path fill-rule="evenodd" clip-rule="evenodd" d="M606.868 902.35L597.184 906.385L597.376 906.847L607.138 902.779L607.258 902.674L612.932 892.947L626.731 880.771L626.401 880.396L612.571 892.599L612.52 892.66L606.868 902.35Z" fill="#303336"/>
<path fill-rule="evenodd" clip-rule="evenodd" d="M535.337 917.678L496.509 899.882L496.3 900.336L535.349 918.233L535.677 918.118L537.237 914.996L559.054 914.188L559.035 913.689L537.071 914.502L536.856 914.64L535.337 917.678Z" fill="#303336"/>
<path fill-rule="evenodd" clip-rule="evenodd" d="M699.144 935.726L698.33 934.913L697.977 935.266L698.79 936.08L699.144 935.726Z" fill="#303336"/>
<path d="M902.421 410.41L904.667 415.61C905.902 418.471 906.972 420.633 907.045 420.415C907.167 420.05 904.128 403.536 903.891 403.277C903.834 403.214 903.479 404.793 903.104 406.786L902.421 410.41Z" fill="#0F100F"/>
<path d="M906.207 433.041C906.975 434.763 908.049 436.892 908.594 437.772C909.139 438.652 909.642 439.314 909.711 439.245C909.781 439.175 909.134 436.74 908.273 433.834L906.488 427.808C906.302 427.18 906.158 427.284 905.54 428.488L904.811 429.909L906.207 433.041Z" fill="#0F100F"/>
<path d="M4.60876 448.897C4.61868 448.701 4.62873 448.505 4.6389 448.309L14.1355 454.915L14.2398 455.082L15.8668 465.658L15.8368 465.82L12.8734 471.006L15.5591 470.334L15.8368 470.453L19.0908 476.147L19.1213 476.307L18.3077 482.001L17.8128 481.931L18.6141 476.321L15.4966 470.865L12.4263 471.633L12.1486 471.266L15.3594 465.648L13.7619 455.264L4.60876 448.897Z" fill="#303336"/>
<path d="M4.20791 487.098C4.20281 486.925 4.19779 486.752 4.19287 486.579L17.308 489.858L17.1867 490.343L4.20791 487.098Z" fill="#303336"/>
<path d="M7.61501 531.516C7.59335 531.342 7.57178 531.168 7.55032 530.994L17.1408 526.481L17.2883 526.461L27.0504 528.088L27.2303 528.217L34.5062 541.961L48.2438 546.809L48.4103 547.055L47.5968 566.579L47.5513 566.713L37.8803 580.414L45.1244 593.292L44.6886 593.537L37.367 580.521L37.3807 580.255L47.1003 566.485L47.9031 547.219L34.2477 542.4L34.11 542.281L26.8462 528.56L17.2831 526.967L7.61501 531.516Z" fill="#303336"/>
<path d="M675.671 896.069C675.827 895.994 675.984 895.919 676.14 895.844L675.624 892.746L675.617 892.716L673.176 884.581L672.844 884.42L668.954 885.976L664.188 879.621L664.023 879.524L658.329 878.71L658.048 878.909L657.27 882.801L645.791 884.331L648.739 879.91L648.708 879.594L646.267 877.154L645.94 877.13L643.326 879.091L644.7 874.969L644.524 874.647L641.27 873.834L641.022 873.91L634.599 881.137L626.591 880.336L626.541 880.833L634.676 881.647L634.888 881.564L641.295 874.356L644.141 875.067L642.599 879.692L642.986 879.971L646.067 877.66L648.209 879.803L645.069 884.513L645.31 884.9L657.045 883.335L653.188 891.048L653.235 891.337L656.954 895.056L646.866 896.608L646.72 896.685L636.958 907.261L636.896 907.386L635.899 912.937C636.081 912.87 636.262 912.803 636.444 912.735L637.375 907.546L647.028 897.088L657.517 895.475L657.656 895.051L653.716 891.111L657.703 883.137L657.647 883.059L657.725 883.074L658.492 879.239L663.85 880.004L668.669 886.429L668.962 886.511L672.776 884.986L675.133 892.844L675.671 896.069Z" fill="#303336"/>
<path d="M578.869 930.002C579.032 929.964 579.194 929.927 579.357 929.889L578.811 927.708L578.392 927.592L575.25 930.734L564.01 926.719L563.684 926.889L561.855 933.595C562.038 933.56 562.22 933.525 562.402 933.489L564.096 927.281L574.484 930.991C575.005 930.876 575.526 930.761 576.047 930.644L578.433 928.257L578.869 930.002Z" fill="#303336"/>
<path d="M357.356 927.635L359.751 925.64L364.476 928.79L364.648 928.83L376.851 927.203L376.998 927.129L398.149 905.164L397.789 904.817L376.698 926.719L364.675 928.322L359.873 925.12L359.574 925.136L356.758 927.483C356.957 927.534 357.157 927.585 357.356 927.635Z" fill="#303336"/>
<path d="M120.971 782.906L127.246 776.631L127.225 776.259L119.173 769.817L116.755 744.025L120.717 740.855L120.811 740.66V727.109L127.855 727.892L127.91 727.395L120.589 726.582L120.311 726.83V740.54L116.337 743.719L116.245 743.937L118.685 769.969L118.778 770.141L126.695 776.475L120.64 782.53C120.75 782.656 120.86 782.781 120.971 782.906Z" fill="#303336"/>
<path d="M157.428 504.565C160.052 504.802 162 505.628 162 506C162 506.371 160.055 507.197 157.434 507.435C157.196 510.056 156.371 512 156 512C155.628 512 154.802 510.053 154.564 507.429C151.944 507.171 150 506.286 150 506C150 505.713 151.947 504.828 154.57 504.571C154.827 501.947 155.713 500 156 500C156.286 500 157.171 501.944 157.428 504.565Z" fill="#D9D9D6"/>
<path d="M27.4449 611.397C7.70228 544.59 49.1028 478.58 93.394 432.763C192.957 330.403 336.295 268.415 473.51 235.435M473.51 235.435C439.31 265.242 406.394 296.852 375.885 330.464C284.969 429.986 200.185 547.646 157.785 674.749C143.736 722.4 128.105 788.249 168.69 826.9M473.51 235.435C455.404 293.765 439.407 353.005 424.697 412.511C391.105 555.169 360.347 698.309 353.036 845.594C354.958 871.869 346.687 912.73 368.615 928.16M473.51 235.435C491.617 293.765 507.613 353.005 522.323 412.511C555.916 555.169 586.673 698.309 593.984 845.594C592.063 871.869 600.334 912.73 578.406 928.16M473.51 235.435C507.71 265.242 540.626 296.852 571.136 330.464C662.052 429.986 746.835 547.646 789.235 674.749C803.284 722.4 818.915 788.249 778.33 826.9M473.51 235.435C610.725 268.415 754.064 330.403 853.626 432.763C897.918 478.58 939.318 544.59 919.575 611.397M473.51 235.435C570.867 213.36 678.113 204.153 776.253 226.607C833.215 241.208 899.129 270.4 919.575 334.099M473.51 235.435C519.708 196.06 570.798 158.061 625.66 131.059C670.424 110.143 733.492 84.5508 778.33 118.596M473.51 235.435C490.818 181.203 507.181 131.169 531.151 79.1302C544.367 57.6473 552.922 22.4861 578.406 17.3353M473.51 235.435C456.202 181.203 439.839 131.169 415.87 79.1302C402.653 57.6472 394.098 22.486 368.615 17.3353M473.51 235.435C427.313 196.061 376.222 158.061 321.36 131.059C276.597 110.143 213.528 84.5508 168.69 118.596M473.51 235.435C376.153 213.36 268.907 204.153 170.767 226.607C113.806 241.208 47.8911 270.4 27.4449 334.099M940.866 472.748C940.757 509.368 935.308 544.657 924.249 578.682C902.302 650.109 857.55 711.216 802.217 759.393C685.441 857.464 524.475 894.458 375.365 866.365C218.848 838.962 69.425 731.822 22.2521 577.124C11.6291 543.565 6.19921 508.806 6.1543 472.748M553.999 12.1425C662.127 31.2211 769.768 91.7255 829.739 188.699C877.994 263.367 891.553 361.176 864.012 445.745C850.65 488.388 827.241 529.244 797.024 563.623C686.966 689.653 497.798 732.165 339.535 683.058C223.831 650.203 117.593 560.16 82.4892 444.187C60.8677 375.827 65.1174 297.317 94.4325 232.319C145.258 112.47 268.412 33.3185 393.021 12.1425M247.621 319.559C284.105 433.892 421.199 489.977 533.228 461.843C629.991 443.376 718.085 353.03 706.15 250.494C697.335 148.253 598.646 75.6397 501.032 67.1866C392.64 55.036 273.122 115.842 245.025 224.53C237.236 255.399 238.508 289.278 247.621 319.559Z" stroke="#5F5E58" stroke-miterlimit="10"/>
<path d="M941 473.31C941 732.055 731.693 941.81 473.5 941.81C215.307 941.81 6 732.055 6 473.31C6 214.564 215.307 4.80957 473.5 4.80957C731.693 4.80957 941 214.564 941 473.31Z" stroke="#5F5E58" stroke-linecap="round" stroke-linejoin="round"/>
<path d="M171.512 496.56H176.336C178.016 496.56 179.232 497.016 179.984 497.928C180.752 498.84 181.136 500.176 181.136 501.936C181.136 503.52 180.728 504.752 179.912 505.632C179.096 506.512 177.912 506.952 176.36 506.952H174.224V516H171.512V496.56ZM175.472 505.008C176.272 505.008 176.888 504.92 177.32 504.744C177.768 504.568 178.088 504.264 178.28 503.832C178.472 503.4 178.568 502.776 178.568 501.96C178.568 500.968 178.496 500.24 178.352 499.776C178.208 499.312 177.92 498.984 177.488 498.792C177.072 498.6 176.408 498.504 175.496 498.504H174.224V505.008H175.472Z" fill="#C0A968"/>
<path d="M188.731 516.216C186.827 516.216 185.459 515.68 184.627 514.608C183.811 513.52 183.403 511.952 183.403 509.904V502.536C183.403 500.52 183.819 498.992 184.651 497.952C185.483 496.912 186.843 496.392 188.731 496.392C190.619 496.392 191.971 496.92 192.787 497.976C193.619 499.016 194.035 500.536 194.035 502.536V509.928C194.035 511.944 193.619 513.496 192.787 514.584C191.955 515.672 190.603 516.216 188.731 516.216ZM188.731 514.08C189.739 514.08 190.419 513.784 190.771 513.192C191.123 512.6 191.299 511.704 191.299 510.504V501.984C191.299 500.8 191.123 499.928 190.771 499.368C190.419 498.792 189.739 498.504 188.731 498.504C187.707 498.504 187.019 498.792 186.667 499.368C186.315 499.928 186.139 500.8 186.139 501.984V510.504C186.139 511.704 186.315 512.6 186.667 513.192C187.019 513.784 187.707 514.08 188.731 514.08Z" fill="#C0A968"/>
<path d="M202.293 516.216C200.373 516.216 199.021 515.648 198.237 514.512C197.453 513.36 197.061 511.776 197.061 509.76V502.896C197.061 500.768 197.445 499.152 198.213 498.048C198.981 496.944 200.341 496.392 202.293 496.392C204.037 496.392 205.285 496.864 206.037 497.808C206.805 498.752 207.189 500.144 207.189 501.984V503.52H204.621V502.152C204.621 501.256 204.581 500.568 204.501 500.088C204.421 499.608 204.213 499.224 203.877 498.936C203.557 498.648 203.037 498.504 202.317 498.504C201.581 498.504 201.029 498.664 200.661 498.984C200.309 499.288 200.077 499.72 199.965 500.28C199.853 500.824 199.797 501.56 199.797 502.488V510.192C199.797 511.184 199.877 511.96 200.037 512.52C200.197 513.08 200.453 513.48 200.805 513.72C201.173 513.96 201.677 514.08 202.317 514.08C203.005 514.08 203.517 513.928 203.853 513.624C204.189 513.32 204.397 512.904 204.477 512.376C204.573 511.848 204.621 511.128 204.621 510.216V508.776H207.189V510.216C207.189 512.152 206.821 513.64 206.085 514.68C205.365 515.704 204.101 516.216 202.293 516.216Z" fill="#C0A968"/>
<path d="M215.365 516.216C213.445 516.216 212.093 515.648 211.309 514.512C210.525 513.36 210.133 511.776 210.133 509.76V502.896C210.133 500.768 210.517 499.152 211.285 498.048C212.053 496.944 213.413 496.392 215.365 496.392C217.109 496.392 218.357 496.864 219.109 497.808C219.877 498.752 220.261 500.144 220.261 501.984V503.52H217.693V502.152C217.693 501.256 217.653 500.568 217.573 500.088C217.493 499.608 217.285 499.224 216.949 498.936C216.629 498.648 216.109 498.504 215.389 498.504C214.653 498.504 214.101 498.664 213.733 498.984C213.381 499.288 213.149 499.72 213.037 500.28C212.925 500.824 212.869 501.56 212.869 502.488V510.192C212.869 511.184 212.949 511.96 213.109 512.52C213.269 513.08 213.525 513.48 213.877 513.72C214.245 513.96 214.749 514.08 215.389 514.08C216.077 514.08 216.589 513.928 216.925 513.624C217.261 513.32 217.469 512.904 217.549 512.376C217.645 511.848 217.693 511.128 217.693 510.216V508.776H220.261V510.216C220.261 512.152 219.893 513.64 219.157 514.68C218.437 515.704 217.173 516.216 215.365 516.216Z" fill="#C0A968"/>
<path d="M223.564 496.56H225.964V510.024L231.652 496.56H233.596V516H231.22V502.32L225.58 516H223.564V496.56Z" fill="#C0A968"/>
<path d="M240.242 507.264C239.346 506.864 238.642 506.216 238.13 505.32C237.634 504.424 237.386 503.296 237.386 501.936C237.386 498.352 239.418 496.56 243.482 496.56H247.418V516H244.706V507.936H243.17L242.546 507.912L239.186 516H236.162L240.242 507.264ZM244.706 505.992V498.504H243.626C242.378 498.504 241.45 498.776 240.842 499.32C240.25 499.848 239.954 500.712 239.954 501.912C239.954 503.32 240.242 504.352 240.818 505.008C241.394 505.664 242.354 505.992 243.698 505.992H244.706Z" fill="#C0A968"/>
</svg>
