<svg width="56" height="57" viewBox="0 0 56 57" fill="none" xmlns="http://www.w3.org/2000/svg">
<path fill-rule="evenodd" clip-rule="evenodd" d="M2 4.42285C2 3.31828 2.89543 2.42285 4 2.42285H52C53.1046 2.42285 54 3.31828 54 4.42285V52.4229C54 53.5274 53.1046 54.4229 52 54.4229H4C2.89543 54.4229 2 53.5274 2 52.4229V4.42285ZM4 3.92285H52C52.2761 3.92285 52.5 4.14671 52.5 4.42285V52.4229C52.5 52.699 52.2761 52.9229 52 52.9229H38.4723V35.3951H45.0001C45.6904 35.3951 46.2501 34.8354 46.2501 34.1451V27.7562C46.2501 27.0658 45.6904 26.5062 45.0001 26.5062H38.4723V20.2284H45.0001C45.6904 20.2284 46.2501 19.6688 46.2501 18.9784V12.9784C46.2501 12.288 45.6904 11.7284 45.0001 11.7284H39.3334C33.9486 11.7284 29.5834 16.0936 29.5834 21.4784V26.5062H25.7778C25.0875 26.5062 24.5278 27.0658 24.5278 27.7562V34.1451C24.5278 34.8354 25.0875 35.3951 25.7778 35.3951H29.5834V52.9229H4C3.72386 52.9229 3.5 52.699 3.5 52.4229V4.42285C3.5 4.14671 3.72386 3.92285 4 3.92285ZM31.0834 52.9229H36.9723V35.1451C36.9723 34.4547 37.5319 33.8951 38.2223 33.8951H44.7501V28.0062H38.2223C37.5319 28.0062 36.9723 27.4465 36.9723 26.7562V19.9784C36.9723 19.288 37.5319 18.7284 38.2223 18.7284H44.7501V13.2284H39.3334C34.777 13.2284 31.0834 16.9221 31.0834 21.4784V26.7562C31.0834 27.4465 30.5237 28.0062 29.8334 28.0062H26.0278V33.8951H29.8334C30.5237 33.8951 31.0834 34.4547 31.0834 35.1451V52.9229Z" fill="#C0A968"/>
</svg>
