<svg width="56" height="57" viewBox="0 0 56 57" fill="none" xmlns="http://www.w3.org/2000/svg">
<path fill-rule="evenodd" clip-rule="evenodd" d="M28 40.4228C34.6274 40.4228 40 35.0503 40 28.4228C40 21.7954 34.6274 16.4228 28 16.4228C21.3726 16.4228 16 21.7954 16 28.4228C16 35.0503 21.3726 40.4228 28 40.4228ZM28 38.9228C33.799 38.9228 38.5 34.2218 38.5 28.4228C38.5 22.6239 33.799 17.9228 28 17.9228C22.201 17.9228 17.5 22.6239 17.5 28.4228C17.5 34.2218 22.201 38.9228 28 38.9228Z" fill="#C0A968"/>
<path d="M44 14.4228C45.1046 14.4228 46 13.5274 46 12.4228C46 11.3183 45.1046 10.4228 44 10.4228C42.8954 10.4228 42 11.3183 42 12.4228C42 13.5274 42.8954 14.4228 44 14.4228Z" fill="#C0A968"/>
<path fill-rule="evenodd" clip-rule="evenodd" d="M4 2.42285C2.89543 2.42285 2 3.31828 2 4.42285V52.4229C2 53.5274 2.89543 54.4229 4 54.4229H52C53.1046 54.4229 54 53.5274 54 52.4229V4.42285C54 3.31828 53.1046 2.42285 52 2.42285H4ZM52 3.92285H4C3.72386 3.92285 3.5 4.14671 3.5 4.42285V52.4229C3.5 52.699 3.72386 52.9229 4 52.9229H52C52.2761 52.9229 52.5 52.699 52.5 52.4229V4.42285C52.5 4.14671 52.2761 3.92285 52 3.92285Z" fill="#C0A968"/>
</svg>
