<svg width="56" height="57" viewBox="0 0 56 57" fill="none" xmlns="http://www.w3.org/2000/svg">
<path fill-rule="evenodd" clip-rule="evenodd" d="M39 26.6908C40.3333 27.4606 40.3333 29.3851 39 30.1549L21.6667 40.1623C20.3333 40.9321 18.6667 39.9699 18.6667 38.4303L18.6667 18.4154C18.6667 16.8758 20.3333 15.9136 21.6667 16.6834L39 26.6908ZM38.25 28.8559L20.9167 38.8633C20.5833 39.0557 20.1667 38.8152 20.1667 38.4303L20.1667 18.4154C20.1667 18.0305 20.5833 17.79 20.9167 17.9824L38.25 27.9898C38.5833 28.1823 38.5833 28.6634 38.25 28.8559Z" fill="#C0A968"/>
<path fill-rule="evenodd" clip-rule="evenodd" d="M2 4.42285C2 3.31828 2.89543 2.42285 4 2.42285H52C53.1046 2.42285 54 3.31828 54 4.42285V52.4229C54 53.5274 53.1046 54.4229 52 54.4229H4C2.89543 54.4229 2 53.5274 2 52.4229V4.42285ZM4 3.92285H52C52.2761 3.92285 52.5 4.14671 52.5 4.42285V52.4229C52.5 52.699 52.2761 52.9229 52 52.9229H4C3.72386 52.9229 3.5 52.699 3.5 52.4229V4.42285C3.5 4.14671 3.72386 3.92285 4 3.92285Z" fill="#C0A968"/>
</svg>
