<svg width="56" height="57" viewBox="0 0 56 57" fill="none" xmlns="http://www.w3.org/2000/svg">
<path fill-rule="evenodd" clip-rule="evenodd" d="M28 40.2842C34.6274 40.2842 40 34.9116 40 28.2842C40 21.6568 34.6274 16.2842 28 16.2842C21.3726 16.2842 16 21.6568 16 28.2842C16 34.9116 21.3726 40.2842 28 40.2842ZM28 38.7842C33.799 38.7842 38.5 34.0832 38.5 28.2842C38.5 22.4852 33.799 17.7842 28 17.7842C22.201 17.7842 17.5 22.4852 17.5 28.2842C17.5 34.0832 22.201 38.7842 28 38.7842Z" fill="black"/>
<path d="M44 14.2842C45.1046 14.2842 46 13.3887 46 12.2842C46 11.1796 45.1046 10.2842 44 10.2842C42.8954 10.2842 42 11.1796 42 12.2842C42 13.3887 42.8954 14.2842 44 14.2842Z" fill="black"/>
<path fill-rule="evenodd" clip-rule="evenodd" d="M4 2.28418C2.89543 2.28418 2 3.17961 2 4.28418V52.2842C2 53.3887 2.89543 54.2842 4 54.2842H52C53.1046 54.2842 54 53.3887 54 52.2842V4.28418C54 3.17961 53.1046 2.28418 52 2.28418H4ZM52 3.78418H4C3.72386 3.78418 3.5 4.00804 3.5 4.28418V52.2842C3.5 52.5603 3.72386 52.7842 4 52.7842H52C52.2761 52.7842 52.5 52.5603 52.5 52.2842V4.28418C52.5 4.00804 52.2761 3.78418 52 3.78418Z" fill="black"/>
</svg>
