<svg width="100%" height="100%" viewBox="0 0 260 240" fill="none" xmlns="http://www.w3.org/2000/svg">
<path d="M116.09 121.682L128.938 127.134C129.09 127.185 129.191 127.236 129.342 127.236C129.494 127.236 129.595 127.236 129.747 127.185L141.634 122.65C142.14 122.446 142.444 121.885 142.292 121.376C141.837 119.491 141.128 118.115 140.471 116.892C139.51 115.006 138.852 113.784 139.51 111.491C140.016 109.86 143 107.873 144.467 108.178C144.518 108.178 144.669 108.331 144.821 108.535C145.125 108.892 145.327 109.299 145.58 109.758L145.782 110.115C145.984 110.471 146.389 110.675 146.794 110.624C147.198 110.573 147.553 110.319 147.704 109.962C148.665 107.618 148.615 105.325 147.553 103.592C146.541 101.911 144.669 100.841 142.292 100.637C141.735 100.586 141.23 100.637 140.673 100.688C140.269 100.739 139.56 100.79 139.409 100.739C137.183 98.8536 134.907 99.4651 132.934 99.9746C127.117 101.452 122.716 105.07 119.732 110.777C118.416 113.274 116.494 117.401 115.381 120.408C115.331 120.815 115.584 121.478 116.09 121.682ZM121.805 111.643C124.486 106.548 128.432 103.287 133.844 101.911C135.716 101.452 136.93 101.198 138.195 102.319C139.004 102.981 140.117 102.879 141.078 102.777C141.483 102.726 141.938 102.675 142.292 102.726C143.961 102.879 145.226 103.541 145.883 104.663C146.237 105.274 146.44 105.987 146.389 106.803C146.086 106.497 145.63 106.14 145.074 105.987C142.393 105.427 138.346 108.077 137.537 110.828C136.627 113.936 137.588 115.873 138.65 117.86C139.156 118.777 139.611 119.745 140.016 120.917L129.444 124.943L117.961 120.102C119.023 117.299 120.642 113.834 121.805 111.643Z" fill="#D9D9D6"/>
<path d="M259.646 84.3313C259.545 84.0255 259.342 83.7708 259.089 83.6689C258.837 83.516 258.482 83.516 258.23 83.6179L130.051 135.949L1.92214 83.6179C1.61863 83.516 1.31514 83.516 1.06222 83.6689C0.809305 83.8217 0.556383 84.0765 0.5058 84.3313C0.354049 84.7899 -2.37746 94.9809 9.71203 105.376C8.24511 118.42 24.5836 126.879 26.1517 127.643C26.3035 143.389 38.8988 148.637 39 148.637L71.3229 161.885C71.5758 161.987 71.8793 161.987 72.1322 161.885L91.0506 154.14L115.938 164.28L109.767 176.306C109.615 176.662 109.615 177.07 109.817 177.376C110.019 177.682 110.374 177.885 110.728 177.885H149.323C149.728 177.885 150.082 177.682 150.233 177.376C150.436 177.07 150.436 176.662 150.284 176.306L144.163 164.382L169.051 154.242L187.969 161.987C188.222 162.089 188.525 162.089 188.778 161.987L221.101 148.739C221.253 148.688 233.798 143.491 233.949 127.745C234.86 127.287 251.907 118.777 250.389 105.427C262.529 94.981 259.747 84.7899 259.646 84.3313ZM147.451 145.427C141.381 147.873 135.514 150.268 130.051 152.459C124.588 150.268 118.72 147.873 112.65 145.427L130.051 138.344L147.451 145.427ZM138.549 158.268L141.128 163.21L130.051 167.745L119.023 163.21L121.603 158.217C124.233 157.147 127.066 156.026 130.101 154.803C133.086 156.076 135.918 157.198 138.549 158.268ZM2.32681 86.1657L127.117 137.121L109.716 144.255C66.3151 126.675 13.3035 105.07 11.533 104.153C2.32681 96.4587 2.02331 89.0192 2.32681 86.1657ZM11.7859 106.548C21.1945 110.624 68.7937 129.987 106.782 145.427L91.0506 151.847L27.0622 125.707C26.9105 125.656 11.3813 117.911 11.7859 106.548ZM71.7276 159.745L39.8093 146.65C39.3541 146.446 28.9338 142.115 28.3268 128.561L88.1673 152.968L71.7276 159.745ZM93.9844 153.019L109.716 146.599C115.887 149.096 121.755 151.49 127.117 153.631C124.79 154.599 122.514 155.516 120.339 156.382C120.086 156.484 119.883 156.637 119.782 156.892L116.949 162.395L93.9844 153.019ZM147.553 175.694H112.549L117.961 165.198L129.595 169.936C129.747 169.987 129.848 170.038 130 170.038C130.152 170.038 130.303 169.987 130.405 169.936L142.089 165.198L147.553 175.694ZM143.152 162.395L140.319 156.892C140.218 156.637 140.016 156.484 139.763 156.382C137.588 155.516 135.362 154.599 132.984 153.631C138.346 151.44 144.214 149.096 150.385 146.599L166.117 153.019L143.152 162.395ZM220.292 146.65L188.374 159.694L171.934 152.968L231.774 128.561C231.167 142.115 220.747 146.497 220.292 146.65ZM233.089 125.707L169 151.847L153.268 145.427C191.257 130.038 238.907 110.675 248.265 106.599C248.72 117.911 233.191 125.656 233.089 125.707ZM248.669 104C248.669 104 248.669 104.051 248.669 104C246.646 105.07 193.685 126.624 150.335 144.204L132.934 137.07L257.724 86.1147C258.078 89.0192 257.774 96.4587 248.669 104Z" fill="#D9D9D6"/>
<path d="M175.475 111.949C175.12 111.949 174.766 111.796 174.564 111.439C164.65 96.3567 148.008 87.3376 130.05 87.3376C112.397 87.3376 95.9064 96.1529 85.9415 110.879C85.5874 111.389 84.9298 111.49 84.4239 111.185C83.9181 110.828 83.8169 110.166 84.1204 109.656C94.4901 94.3185 111.689 85.1465 130.05 85.1465C148.716 85.1465 166.066 94.5223 176.385 110.217C176.739 110.726 176.587 111.389 176.082 111.745C175.879 111.898 175.677 111.949 175.475 111.949Z" fill="#D9D9D6"/>
<path d="M130.05 197.095C108.856 197.095 89.2294 184.662 80.0232 165.452C79.7703 164.892 79.9726 164.229 80.529 163.974C81.0854 163.72 81.743 163.923 81.9959 164.484C90.8481 182.93 109.716 194.904 130.05 194.904C150.436 194.904 168.747 183.49 177.852 165.044C178.105 164.484 178.762 164.28 179.319 164.535C179.875 164.79 180.078 165.452 179.825 166.013C170.366 185.172 151.296 197.095 130.05 197.095Z" fill="#D9D9D6"/>
<path d="M130.051 204.637C105.821 204.637 84.1207 191.032 73.4475 169.121C73.1946 168.561 73.3969 167.898 73.9533 167.643C74.5098 167.389 75.1673 167.592 75.4202 168.153C85.7393 189.299 106.681 202.446 130.051 202.446C153.572 202.446 175.272 188.535 185.237 167.083C185.49 166.522 186.148 166.319 186.704 166.573C187.261 166.828 187.463 167.49 187.21 168.051C176.84 190.217 154.432 204.637 130.051 204.637Z" fill="#D9D9D6"/>
<path d="M182.708 109.35C182.354 109.35 182 109.147 181.798 108.841C170.619 90.7008 151.245 79.8473 130.101 79.8473C109.564 79.8473 90.5446 90.1912 79.2645 107.465C78.9104 107.975 78.2528 108.128 77.747 107.771C77.2411 107.414 77.0894 106.752 77.4435 106.242C89.1789 88.3059 108.856 77.6052 130.101 77.6052C152.054 77.6052 172.085 88.8154 183.669 107.618C183.973 108.128 183.821 108.79 183.315 109.147C183.113 109.3 182.91 109.35 182.708 109.35Z" fill="#D9D9D6"/>
<path d="M220.14 73.8344L180.331 29.8089C180.179 29.6561 179.977 29.5541 179.724 29.5541C179.521 29.5032 179.268 29.6561 179.117 29.8089L170.871 39.1847L137.082 0.611467C136.93 0.4586 136.728 0.356689 136.475 0.356689C136.222 0.356689 136.019 0.4586 135.868 0.611467L127.268 10.3949L121.552 3.92357C121.401 3.7707 121.198 3.66879 120.945 3.66879C120.692 3.66879 120.49 3.7707 120.338 3.92357L93.8326 34.1911L84.9804 24.1529C84.6769 23.7962 84.0699 23.7962 83.7664 24.1529L39.1517 74.9554C38.8482 75.3121 38.8987 75.8217 39.2022 76.1274C39.354 76.2803 39.5563 76.3312 39.7586 76.3312C39.961 76.3312 40.2139 76.2293 40.3657 76.0764L84.3734 25.9873L92.7197 35.465L53.3151 80.5096C53.0116 80.8662 53.0622 81.3758 53.3657 81.6815C53.5174 81.8344 53.7197 81.8854 53.9221 81.8854C54.1244 81.8854 54.3773 81.7834 54.5291 81.6306L93.8326 36.7389L105.315 49.7834L93.2762 63.4905C93.0738 63.7452 93.0232 64.1019 93.1244 64.3567C93.2762 64.6624 93.5291 64.8662 93.8832 64.8662H118.922C119.226 64.8662 119.529 64.6624 119.681 64.3567C119.833 64.051 119.782 63.6943 119.529 63.4905L107.49 49.7834L122.463 32.7643H138.498L148.21 43.6688L143.556 48.9682C143.354 49.2229 143.303 49.5796 143.405 49.8344C143.556 50.1401 143.809 50.344 144.163 50.344H154.482C154.786 50.344 155.089 50.1401 155.241 49.8344C155.393 49.5287 155.342 49.172 155.089 48.9682L150.385 43.6688L157.214 35.8726L165.459 45.2994L152.914 59.5669C152.712 59.8217 152.661 60.1784 152.763 60.4331C152.914 60.7389 153.167 60.9427 153.521 60.9427H179.42C179.724 60.9427 180.027 60.7389 180.179 60.4841C180.331 60.1783 180.28 59.8217 180.027 59.6178L167.584 45.3503L170.821 41.6815L205.015 80.6115C205.319 80.9682 205.825 80.9682 206.179 80.6624C206.533 80.3567 206.533 79.8471 206.229 79.4904L171.934 40.4076L179.673 31.5924L218.875 74.9554C219.179 75.3121 219.685 75.3121 220.039 75.0064C220.443 74.7006 220.443 74.1911 220.14 73.8344ZM143.202 31.0828H139.206L131.012 21.8599C130.86 21.707 130.657 21.6051 130.405 21.6051C130.152 21.6051 129.949 21.707 129.798 21.8599L121.704 31.0828H111.233L127.218 12.8917L143.202 31.0828ZM117.101 63.1847H95.7042L106.428 51.0064L117.101 63.1847ZM106.377 48.5096L94.8948 35.465L120.895 5.75796L126.105 11.6688L108.755 31.3885C108.552 31.6433 108.502 32 108.603 32.2548C108.755 32.5605 109.008 32.7643 109.362 32.7643H120.187L106.377 48.5096ZM123.879 31.0828L130.405 23.6433L137.031 31.0828H123.879ZM152.661 48.6624H145.984L149.323 44.8917L152.661 48.6624ZM177.65 59.3121H155.342L166.521 46.5732L177.65 59.3121ZM166.572 44.0764L157.871 34.0892C157.72 33.9363 157.517 33.7834 157.265 33.7834C157.012 33.7834 156.809 33.8854 156.657 34.0382L149.323 42.3949L140.724 32.7134H145.074C145.377 32.7134 145.681 32.5096 145.833 32.2038C145.984 31.8981 145.934 31.5414 145.681 31.3376L128.381 11.6178L136.525 2.3949L169.86 40.4076L166.572 44.0764Z" fill="#C0A968"/>
<path d="M132.175 231.592C132.175 232.815 131.214 233.783 130 233.783C128.786 233.783 127.825 232.815 127.825 231.592C127.825 230.369 128.786 229.401 130 229.401C131.214 229.401 132.175 230.369 132.175 231.592Z" fill="#C0A968"/>
<path d="M52.5056 178.14C53.9219 180.892 52.8597 183.898 49.5212 185.63C46.2332 187.312 43.1476 186.446 41.7313 183.694C40.9725 182.267 41.0737 180.688 41.8324 179.006L37.6846 181.146L38.4939 182.726L37.5328 183.236L35.3071 178.904L36.2682 178.395L37.0776 179.974L49.0659 173.758L48.2566 172.178L49.2176 171.669L50.634 174.471L48.6106 175.49C50.3811 175.694 51.6962 176.509 52.5056 178.14ZM48.9647 184.459C51.7468 183.032 52.6067 180.79 51.4939 178.548C50.3811 176.306 48.1048 175.796 45.2721 177.274C42.5406 178.701 41.5795 180.994 42.6924 183.134C43.8052 185.274 46.1826 185.885 48.9647 184.459Z" fill="#D9D9D6"/>
<path d="M60.144 194.599C62.3191 194.14 63.786 194.497 65.0505 195.974L65.3035 196.28L64.2918 197.146L64.0895 196.892C62.319 194.7 59.8404 194.904 56.8054 197.401L54.0739 199.694L55.1867 201.07L54.3268 201.783L51.2412 198.013L52.1011 197.299L53.214 198.675L60.5486 192.56L59.4358 191.185L60.2957 190.471L62.2684 192.866L60.144 194.599Z" fill="#D9D9D6"/>
<path d="M67.2253 213.146L68.5404 214.268L67.8322 215.134L64.1396 211.975L64.8478 211.108L66.2136 212.229L72.3342 204.892L71.019 203.771L71.7272 202.904L74.1046 204.943L67.2253 213.146ZM76.1786 201.019C76.5326 201.325 76.6338 201.885 76.2797 202.242C75.9762 202.599 75.4198 202.65 75.0151 202.344C74.6105 201.987 74.6105 201.478 74.914 201.121C75.3186 200.764 75.8245 200.713 76.1786 201.019Z" fill="#D9D9D6"/>
<path d="M88.8753 214.981C90.1399 215.643 90.7469 216.56 90.5951 217.783C92.5679 217.529 94.0348 217.579 95.1982 218.14C97.3733 219.21 97.2722 220.637 96.0076 223.236L93.1243 229.044L94.6924 229.809L94.1866 230.777L89.8363 228.586L90.3422 227.618L91.9103 228.382L94.743 222.675C95.7546 220.688 96.0076 219.72 94.5406 218.955C93.4784 218.446 92.0621 218.395 90.241 218.853L86.8013 225.834L88.3694 226.599L87.8636 227.567L83.5134 225.376L84.0192 224.407L85.5873 225.172L88.42 219.465C89.4317 217.478 89.6846 216.509 88.2177 215.796C87.1554 215.286 85.7391 215.236 83.9181 215.694L80.4784 222.624L82.0465 223.388L81.5406 224.357L77.1904 222.165L77.6963 221.197L79.2644 221.962L83.5134 213.35L81.9453 212.586L82.4511 211.618L85.2332 212.993L84.5251 214.471C86.2449 214.318 87.7624 214.42 88.8753 214.981Z" fill="#D9D9D6"/>
<path d="M110.727 234.191C112.65 234.599 114.117 233.987 115.331 232.356L116.241 232.968C114.875 234.955 112.801 235.821 110.373 235.363C106.984 234.7 105.315 231.949 106.074 228.127C106.832 224.407 109.463 222.471 112.548 223.083C115.685 223.694 117.354 226.446 116.646 230.114L116.595 230.471L107.439 228.637C106.832 231.694 108.046 233.681 110.727 234.191ZM115.432 229.146C115.786 226.599 114.521 224.764 112.346 224.306C110.171 223.847 108.299 225.07 107.642 227.567L115.432 229.146Z" fill="#D9D9D6"/>
<path d="M150.031 222.675C153.015 221.962 155.696 223.745 156.505 227.414C157.315 231.032 155.747 233.834 152.762 234.548C151.194 234.904 149.677 234.446 148.26 233.325L149.322 237.911L151.042 237.503L151.295 238.573L146.54 239.694L146.287 238.624L148.007 238.217L144.972 225.019L143.252 225.427L143 224.357L146.035 223.643L146.54 225.885C147.147 224.153 148.26 223.083 150.031 222.675ZM155.241 227.669C154.533 224.612 152.56 223.185 150.182 223.745C147.754 224.306 146.692 226.344 147.4 229.503C148.108 232.51 150.081 233.987 152.459 233.427C154.786 232.917 155.949 230.777 155.241 227.669Z" fill="#D9D9D6"/>
<path d="M168.595 218.802C168.646 216.56 169.354 215.185 171.074 214.318L171.428 214.166L172.035 215.388L171.782 215.541C169.253 216.815 168.848 219.261 170.619 222.777L172.187 225.987L173.755 225.223L174.261 226.191L169.91 228.382L169.405 227.363L170.973 226.599L166.774 217.987L165.206 218.752L164.7 217.783L167.482 216.408L168.595 218.802Z" fill="#D9D9D6"/>
<path d="M178.914 204.28C179.268 203.975 179.824 204.026 180.128 204.433C180.431 204.841 180.33 205.401 179.926 205.707C179.521 206.013 179.015 205.911 178.712 205.503C178.408 205.096 178.509 204.535 178.914 204.28ZM188.575 215.796L189.992 214.726L190.649 215.592L186.754 218.548L186.097 217.682L187.513 216.611L181.797 208.917L180.381 209.987L179.723 209.121L182.202 207.236L188.575 215.796Z" fill="#D9D9D6"/>
<path d="M206.331 198.42L207.443 197.095L208.253 197.809L206.229 200.153L204.813 198.93C205.167 200.764 204.813 202.293 203.751 203.516C201.727 205.86 198.541 205.962 195.759 203.516C192.977 201.07 192.622 197.86 194.646 195.516C195.809 194.14 197.327 193.63 199.047 193.885L194.443 189.86L193.28 191.185L192.471 190.471L194.494 188.127L206.331 198.42ZM201.93 196.382C199.552 194.293 197.175 194.344 195.556 196.229C193.938 198.114 194.292 200.407 196.669 202.497C198.996 204.535 201.475 204.535 203.043 202.7C204.661 200.866 204.307 198.471 201.93 196.382Z" fill="#D9D9D6"/>
<path d="M217.155 181.35C218.015 179.618 217.863 177.987 216.649 176.407L217.509 175.694C219.077 177.528 219.33 179.771 218.217 182.013C216.7 185.121 213.614 186.038 210.175 184.255C206.786 182.522 205.673 179.414 207.038 176.611C208.455 173.758 211.54 172.841 214.828 174.522L215.132 174.675L210.933 183.083C213.665 184.509 215.891 183.847 217.155 181.35ZM213.513 175.49C211.186 174.471 209.062 175.185 208.05 177.223C207.038 179.261 207.747 181.401 209.922 182.675L213.513 175.49Z" fill="#D9D9D6"/>
</svg>
