<svg width="72" height="56" viewBox="0 0 72 56" fill="none" xmlns="http://www.w3.org/2000/svg">
<g clip-path="url(#clip0)">
<path d="M32.1759 33.2321L35.7085 34.7211C35.7502 34.735 35.778 34.7489 35.8197 34.7489C35.8614 34.7489 35.8893 34.7489 35.931 34.735L39.1993 33.4965C39.3383 33.4408 39.4218 33.2877 39.3801 33.1486C39.2549 32.6337 39.0602 32.2579 38.8794 31.9239C38.6151 31.409 38.4343 31.075 38.6151 30.4488C38.7542 30.0035 39.5748 29.4608 39.9781 29.5443C39.992 29.5443 40.0337 29.586 40.0754 29.6417C40.1589 29.7391 40.2145 29.8504 40.284 29.9757L40.3397 30.0731C40.3953 30.1705 40.5066 30.2262 40.6178 30.2122C40.7291 30.1983 40.8264 30.1287 40.8682 30.0313C41.1324 29.3912 41.1185 28.765 40.8264 28.2918C40.5483 27.8326 40.0337 27.5403 39.3801 27.4847C39.2271 27.4707 39.088 27.4847 38.935 27.4986C38.8237 27.5125 38.629 27.5264 38.5873 27.5125C37.9754 26.9976 37.3496 27.1646 36.8072 27.3038C35.2078 27.7073 33.9978 28.6954 33.1773 30.254C32.8157 30.9359 32.2872 32.0631 31.9812 32.8842C31.9673 32.9955 32.0369 33.1764 32.1759 33.2321ZM33.7475 30.4906C34.4846 29.0989 35.5694 28.2083 37.0575 27.8326C37.5721 27.7073 37.9059 27.6377 38.2535 27.9439C38.4761 28.1248 38.782 28.097 39.0463 28.0691C39.1575 28.0552 39.2827 28.0413 39.3801 28.0552C39.839 28.097 40.1867 28.2779 40.3675 28.584C40.4648 28.751 40.5205 28.9459 40.5066 29.1685C40.4231 29.085 40.2979 28.9876 40.145 28.9459C39.4079 28.7928 38.2953 29.5164 38.0727 30.2679C37.8224 31.1168 38.0866 31.6456 38.3787 32.1883C38.5178 32.4388 38.643 32.7032 38.7542 33.0233L35.8475 34.1227L32.6905 32.8007C32.9826 32.0353 33.4276 31.089 33.7475 30.4906Z" fill="#D9D9D6"/>
<path d="M71.6455 23.0314C71.6177 22.9479 71.5621 22.8783 71.4926 22.8505C71.423 22.8087 71.3257 22.8087 71.2561 22.8365L36.0144 37.1285L0.786516 22.8365C0.70307 22.8087 0.619628 22.8087 0.55009 22.8505C0.480552 22.8922 0.411013 22.9618 0.397106 23.0314C0.355383 23.1566 -0.395623 25.9399 2.92828 28.7788C2.52496 32.3413 7.01711 34.6514 7.44824 34.8602C7.48996 39.1603 10.9529 40.5936 10.9808 40.5936L19.8677 44.2119C19.9372 44.2397 20.0207 44.2397 20.0902 44.2119L25.2916 42.0966L32.1342 44.8659L30.4374 48.1502C30.3957 48.2476 30.3957 48.3589 30.4513 48.4424C30.507 48.5259 30.6043 48.5816 30.7017 48.5816H41.3132C41.4244 48.5816 41.5218 48.5259 41.5635 48.4424C41.6191 48.3589 41.6191 48.2476 41.5774 48.1502L39.8946 44.8938L46.7371 42.1244L51.9385 44.2397C52.0081 44.2675 52.0915 44.2675 52.161 44.2397L61.048 40.6215C61.0897 40.6076 64.5388 39.1881 64.5805 34.888C64.8308 34.7627 69.5177 32.4387 69.1005 28.7927C72.4383 25.9399 71.6734 23.1566 71.6455 23.0314ZM40.7986 39.7169C39.1297 40.3849 37.5164 41.039 36.0144 41.6374C34.5123 41.039 32.8991 40.3849 31.2302 39.7169L36.0144 37.7826L40.7986 39.7169ZM38.3508 43.2238L39.0601 44.5737L36.0144 45.8122L32.9825 44.5737L33.6918 43.2099C34.415 42.9177 35.1938 42.6115 36.0283 42.2775C36.8488 42.6254 37.6277 42.9316 38.3508 43.2238ZM0.897779 23.5323L35.2077 37.4486L30.4235 39.3968C18.4908 34.5957 3.91572 28.6953 3.42895 28.4448C0.897776 26.3434 0.814333 24.3117 0.897779 23.5323ZM3.49849 29.0988C6.0853 30.2121 19.1723 35.5003 29.6169 39.7169L25.2916 41.4704L7.69858 34.3313C7.65685 34.3174 3.38723 32.2022 3.49849 29.0988ZM19.9789 43.6274L11.2033 40.0509C11.0781 39.9952 8.21315 38.8124 8.04626 35.1106L24.4989 41.7765L19.9789 43.6274ZM26.0983 41.7904L30.4235 40.037C32.1203 40.7189 33.7335 41.3729 35.2077 41.9574C34.568 42.2218 33.9421 42.4723 33.3441 42.7089C33.2746 42.7367 33.2189 42.7785 33.1911 42.8481L32.4123 44.351L26.0983 41.7904ZM40.8264 47.9832H31.2024L32.6905 45.1164L35.8892 46.4106C35.9309 46.4245 35.9587 46.4385 36.0005 46.4385C36.0422 46.4385 36.0839 46.4245 36.1117 46.4106L39.3244 45.1164L40.8264 47.9832ZM39.6164 44.351L38.8376 42.8481C38.8098 42.7785 38.7542 42.7367 38.6846 42.7089C38.0866 42.4723 37.4747 42.2218 36.821 41.9574C38.2952 41.359 39.9085 40.7189 41.6052 40.037L45.9305 41.7904L39.6164 44.351ZM60.8255 40.0509L52.0498 43.6135L47.5298 41.7765L63.9825 35.1106C63.8156 38.8124 60.9506 40.0092 60.8255 40.0509ZM64.3441 34.3313L46.7232 41.4704L42.3979 39.7169C52.8425 35.5142 65.9434 30.2261 68.5163 29.1128C68.6415 32.2022 64.3719 34.3174 64.3441 34.3313ZM68.6276 28.403C68.6276 28.403 68.6276 28.4169 68.6276 28.403C68.0713 28.6953 53.5101 34.5818 41.5913 39.3829L36.8071 37.4347L71.1171 23.5184C71.2144 24.3117 71.131 26.3434 68.6276 28.403Z" fill="#D9D9D6"/>
<path d="M48.5029 30.5738C48.4055 30.5738 48.3081 30.5321 48.2525 30.4347C45.5266 26.3155 40.951 23.8523 36.0139 23.8523C31.1601 23.8523 26.6263 26.2598 23.8865 30.2816C23.7891 30.4208 23.6083 30.4486 23.4693 30.3651C23.3302 30.2677 23.3024 30.0868 23.3858 29.9476C26.2369 25.7588 30.9654 23.2539 36.0139 23.2539C41.1458 23.2539 45.9161 25.8145 48.7532 30.1007C48.8505 30.2399 48.8088 30.4208 48.6697 30.5182C48.6141 30.5599 48.5585 30.5738 48.5029 30.5738Z" fill="#D9D9D6"/>
<path d="M36.0146 53.8281C30.1874 53.8281 24.7912 50.4325 22.2601 45.1861C22.1905 45.033 22.2462 44.8521 22.3991 44.7825C22.5521 44.713 22.7329 44.7686 22.8025 44.9217C25.2363 49.9594 30.4238 53.2297 36.0146 53.2297C41.6194 53.2297 46.6539 50.1125 49.1573 45.0748C49.2268 44.9217 49.4076 44.866 49.5606 44.9356C49.7136 45.0052 49.7692 45.1861 49.6997 45.3392C47.099 50.5717 41.8558 53.8281 36.0146 53.8281Z" fill="#D9D9D6"/>
<path d="M36.014 55.8877C29.3523 55.8877 23.386 52.1721 20.4515 46.1881C20.3819 46.035 20.4376 45.8541 20.5906 45.7845C20.7435 45.7149 20.9243 45.7706 20.9939 45.9237C23.831 51.6989 29.5887 55.2893 36.014 55.2893C42.481 55.2893 48.4474 51.4902 51.1872 45.6314C51.2567 45.4783 51.4375 45.4227 51.5905 45.4923C51.7435 45.5618 51.7991 45.7428 51.7296 45.8958C48.8785 51.9494 42.7175 55.8877 36.014 55.8877Z" fill="#D9D9D6"/>
<path d="M50.4918 29.8641C50.3944 29.8641 50.2971 29.8085 50.2414 29.725C47.1679 24.7708 41.8413 21.8066 36.0279 21.8066C30.3814 21.8066 25.1522 24.6316 22.0508 29.3492C21.9534 29.4884 21.7727 29.5302 21.6336 29.4327C21.4945 29.3353 21.4528 29.1544 21.5501 29.0153C24.7767 24.1167 30.1867 21.1943 36.0279 21.1943C42.0638 21.1943 47.5712 24.2559 50.756 29.391C50.8394 29.5302 50.7977 29.7111 50.6586 29.8085C50.603 29.8502 50.5474 29.8641 50.4918 29.8641Z" fill="#D9D9D6"/>
<path d="M60.7841 20.1646L49.8388 8.14099C49.7971 8.09925 49.7415 8.07141 49.672 8.07141C49.6163 8.0575 49.5468 8.09925 49.5051 8.14099L47.2381 10.7016L37.9479 0.166993C37.9062 0.125245 37.8505 0.0974121 37.781 0.0974121C37.7115 0.0974121 37.6558 0.125245 37.6141 0.166993L35.2498 2.83891L33.6783 1.07155C33.6365 1.0298 33.5809 1.00197 33.5114 1.00197C33.4418 1.00197 33.3862 1.0298 33.3445 1.07155L26.0569 9.33779L23.6231 6.59629C23.5397 6.49888 23.3728 6.49888 23.2893 6.59629L11.0229 20.4708C10.9394 20.5682 10.9533 20.7074 11.0368 20.7908C11.0785 20.8326 11.1341 20.8465 11.1897 20.8465C11.2454 20.8465 11.3149 20.8187 11.3566 20.7769L23.4562 7.09728L25.751 9.6857L14.917 21.9876C14.8335 22.0851 14.8474 22.2242 14.9309 22.3077C14.9726 22.3495 15.0282 22.3634 15.0839 22.3634C15.1395 22.3634 15.209 22.3356 15.2508 22.2938L26.0569 10.0336L29.2139 13.5962L25.9039 17.3396C25.8483 17.4092 25.8344 17.5066 25.8622 17.5762C25.9039 17.6597 25.9735 17.7154 26.0708 17.7154H32.9551C33.0385 17.7154 33.122 17.6597 33.1637 17.5762C33.2054 17.4927 33.1915 17.3953 33.122 17.3396L29.812 13.5962L33.9286 8.94814H38.3373L41.0076 11.9262L39.7281 13.3735C39.6724 13.4431 39.6585 13.5405 39.6863 13.6101C39.7281 13.6936 39.7976 13.7492 39.8949 13.7492H42.7321C42.8155 13.7492 42.899 13.6936 42.9407 13.6101C42.9824 13.5266 42.9685 13.4292 42.899 13.3735L41.6056 11.9262L43.4831 9.79702L45.75 12.3715L42.301 16.2681C42.2453 16.3377 42.2314 16.4351 42.2592 16.5047C42.301 16.5881 42.3705 16.6438 42.4678 16.6438H49.5885C49.672 16.6438 49.7554 16.5881 49.7971 16.5186C49.8389 16.4351 49.8249 16.3377 49.7554 16.282L46.3341 12.3854L47.2242 11.3835L56.6257 22.0155C56.7092 22.1129 56.8483 22.1129 56.9456 22.0294C57.043 21.9459 57.043 21.8067 56.9595 21.7093L47.5302 11.0356L49.6581 8.62806L60.4364 20.4708C60.5199 20.5682 60.6589 20.5682 60.7563 20.4847C60.8675 20.4012 60.8675 20.262 60.7841 20.1646ZM39.6307 8.4889H38.532L36.279 5.97006C36.2373 5.92831 36.1816 5.90048 36.1121 5.90048C36.0426 5.90048 35.9869 5.92831 35.9452 5.97006L33.72 8.4889H30.8411L35.2359 3.52081L39.6307 8.4889ZM32.4544 17.2561H26.5715L29.5199 13.9301L32.4544 17.2561ZM29.506 13.2483L26.349 9.6857L33.4975 1.57253L34.9299 3.18682L30.1597 8.5724C30.104 8.64198 30.0901 8.73939 30.1179 8.80897C30.1597 8.89247 30.2292 8.94814 30.3265 8.94814H33.3028L29.506 13.2483ZM34.318 8.4889L36.1121 6.45713L37.934 8.4889H34.318ZM42.2314 13.29H40.3956L41.3135 12.2602L42.2314 13.29ZM49.1017 16.1985H42.9685L46.0421 12.7194L49.1017 16.1985ZM46.056 12.0375L43.6639 9.30996C43.6222 9.26821 43.5665 9.22646 43.497 9.22646C43.4275 9.22646 43.3718 9.25429 43.3301 9.29604L41.3135 11.5783L38.9492 8.93422H40.1453C40.2287 8.93422 40.3122 8.87855 40.3539 8.79506C40.3956 8.71156 40.3817 8.61415 40.3122 8.55848L35.5558 3.1729L37.7949 0.654061L46.96 11.0356L46.056 12.0375Z" fill="#C0A968"/>
</g>
<defs>
<clipPath id="clip0">
<rect width="71.4848" height="56" fill="white" transform="translate(0.257812)"/>
</clipPath>
</defs>
</svg>
