<svg width="91" height="20" viewBox="0 0 91 20" fill="none" xmlns="http://www.w3.org/2000/svg">
<g clip-path="url(#merlo)">
<path d="M70.822 10.6634L70.822 3.52417L67.8813 3.52417L67.8813 12.8452L68.6058 12.8452L70.822 12.8452L77.1808 12.8452L77.1808 10.6634L70.822 10.6634Z" fill="#BBBBBB"/>
<path d="M39.5107 5.92528L39.5107 12.8452L42.226 12.8452L42.226 3.52417L37.6433 3.52417L35.0568 8.98418L32.4704 3.52417L27.8877 3.52417L27.8877 12.8452L30.6029 12.8452L30.6029 5.92528L34.0641 12.8452L36.0496 12.8452L39.5107 5.92528Z" fill="#BBBBBB"/>
<path d="M54.01 5.7007L54.01 3.52417L46.6692 3.52417L45.4296 3.52417L43.7339 3.52417L43.7339 12.8452L45.4296 12.8452L46.6692 12.8452L54.01 12.8452L54.01 10.6634L46.6692 10.6634L46.6692 9.11787L53.5539 9.11787L53.5539 7.21944L46.6692 7.21944L46.6692 5.7007L54.01 5.7007Z" fill="#BBBBBB"/>
<path d="M90.1938 14.1394L27.9468 14.1394L27.9468 16.225L90.1938 16.225L90.1938 14.1394Z" fill="#BBBBBB"/>
<path d="M90.0113 4.83967C89.9415 4.66854 89.8503 4.51881 89.743 4.38511C89.2976 3.79152 88.5893 3.40649 87.7843 3.40649L86.255 3.40649C86.094 3.40649 85.9276 3.40649 85.7666 3.40649L84.6827 3.40649L83.4216 3.40649L82.4504 3.40649C82.2518 3.40649 82.0533 3.40649 81.8548 3.40649L80.3469 3.40649C79.6654 3.40649 79.0483 3.68455 78.6029 4.13376C78.1575 4.51879 77.8945 5.1017 77.8945 5.98942L77.8945 10.3211C77.8945 11.2623 78.1897 11.8612 78.6834 12.2409C79.118 12.6473 79.7029 12.8933 80.3469 12.8933L81.2806 12.8933C81.6616 12.9094 82.0533 12.9093 82.4504 12.9093L83.4216 12.9093L84.6827 12.9093L85.7881 12.9093C86.1423 12.9093 86.4911 12.9094 86.8238 12.8933L87.7789 12.8933C88.5087 12.8933 89.1634 12.5725 89.6088 12.0698C89.802 11.8719 89.9522 11.6312 90.0542 11.3264C90.1508 11.0644 90.2044 10.781 90.2044 10.4868L90.2044 5.81296C90.2205 5.46536 90.1454 5.13379 90.0113 4.83967ZM81.1464 10.5777C80.803 10.5777 80.5239 10.3211 80.5239 10.0056L80.5239 6.31029C80.5239 5.99477 80.803 5.73807 81.1464 5.73807L86.9633 5.73807C87.3067 5.73807 87.5858 5.99477 87.5858 6.31029L87.5858 10.0056C87.5858 10.3211 87.3067 10.5777 86.9633 10.5777L81.1464 10.5777Z" fill="#BBBBBB"/>
<path d="M55.1104 3.52415L55.1104 12.8452L58.051 12.8452L58.051 5.82902L62.9127 5.82902C63.4117 5.82902 63.7659 6.35844 63.7659 6.82369C63.7659 7.32103 63.4279 7.75419 62.7678 7.75419L58.4964 7.75419L64.0986 12.8452L67.3397 12.8452L63.5459 9.48684C66.2558 9.48684 66.4812 7.83441 66.4812 6.52957C66.4812 3.96802 65.145 3.5188 63.3796 3.5188L55.1104 3.5188L55.1104 3.52415Z" fill="#BBBBBB"/>
<path fill-rule="evenodd" clip-rule="evenodd" d="M24.227 10.302C24.227 10.302 24.2326 10.1757 24.2326 10.0495L24.2326 9.9506C24.227 9.82432 24.227 9.69805 24.227 9.69805C24.205 8.86896 24.1387 7.16684 23.8848 5.05842C23.6585 3.42768 23.079 2.25815 22.1572 1.58829C21.3896 1.0251 20.52 0.915892 20.0356 0.855056L20.0156 0.852542C16.196 0.468194 14.2918 0.308953 12.393 0.292481L12.0729 0.292481C10.1687 0.308953 8.2644 0.473684 4.45036 0.852542L4.44055 0.853791C3.9635 0.914466 3.0817 1.02662 2.30877 1.58829C1.387 2.25815 0.807425 3.42219 0.581122 5.05842C0.321701 7.16684 0.255482 8.86896 0.238923 9.69805C0.238923 9.69805 0.233398 9.82432 0.233398 9.9506L0.233398 10.0495C0.238918 10.1757 0.238923 10.302 0.238923 10.302C0.261002 11.1311 0.32722 12.8332 0.581122 14.9417C0.807425 16.5724 1.387 17.7419 2.30877 18.4118C3.07635 18.975 3.94593 19.0842 4.43036 19.145L4.45036 19.1475C8.26992 19.5319 10.1742 19.6911 12.0729 19.7076L12.3986 19.7076C14.2973 19.6911 16.196 19.5264 20.0156 19.1475L20.0254 19.1463C20.5025 19.0856 21.3843 18.9734 22.1572 18.4118C23.079 17.7419 23.6585 16.5779 23.8848 14.9417C24.1443 12.8332 24.2105 11.1311 24.227 10.302ZM3.64361 16.2355L7.64675 16.2355L11.1133 13.7541L12.9431 16.2355L15.8515 16.2355L18.4219 10.4813L18.4327 16.2355L20.7938 16.2355L20.7938 3.83948L17.9819 5.86628L14.2632 14.0215L11.6069 10.4813L3.64361 16.2355ZM5.94569 6.79142L5.94569 14.3424L3.58996 16.0162L3.58996 3.52397L5.03882 3.52397C6.40919 3.52397 7.06484 4.33503 7.34013 4.67557C7.34403 4.6804 7.34787 4.68514 7.35162 4.68978L9.91127 8.17647L11.4138 4.86624C11.666 4.29939 12.4924 3.52397 13.9788 3.52397L20.783 3.52397L17.6278 5.89834L13.5441 5.89834L11.4943 10.3155L9.60002 11.6792L5.94569 6.79142Z" fill="#BBBBBB"/>
<path d="M24.432 9.70082L24.4267 9.70082C24.3998 8.52433 24.3032 6.89328 24.094 5.12319C23.5412 1.08032 21.0138 0.711349 19.8655 0.566961C16.2594 0.208665 14.3222 0.0375278 12.4012 0.0214846C12.3475 0.0214846 12.2992 0.0214846 12.2456 0.0214846C12.1919 0.0214846 12.1329 0.0214846 12.0792 0.0214846C10.1581 0.0375277 8.22095 0.208665 4.61492 0.56696C3.46657 0.706001 0.939132 1.07498 0.386421 5.12319C0.171776 6.89327 0.0751755 8.52433 0.053711 9.70082L0.0483396 9.70082C0.0483396 9.79708 0.0483396 9.90405 0.0483396 10.011C0.0483396 10.118 0.0483396 10.2249 0.0483396 10.3212L0.053711 10.3212C0.0805416 11.4977 0.177142 13.1287 0.386421 14.8988C0.939132 18.9417 3.46657 19.3106 4.61492 19.455C8.22095 19.8133 10.1581 19.9845 12.0792 20.0005C12.1329 20.0005 12.1812 20.0005 12.2348 20.0005C12.2885 20.0005 12.3475 20.0005 12.4012 20.0005C14.3222 19.9845 16.2594 19.8133 19.8655 19.455C21.0138 19.316 23.5412 18.947 24.094 14.8988C24.3086 13.1287 24.4052 11.4977 24.4267 10.3212L24.432 10.3212C24.432 10.2249 24.432 10.118 24.432 10.011C24.432 9.90405 24.432 9.79708 24.432 9.70082ZM23.9008 10.0591C23.9008 10.1821 23.8954 10.3051 23.8954 10.3051C23.8793 11.1126 23.8149 12.7704 23.5627 14.8239C23.3427 16.4176 22.7792 17.5512 21.8831 18.2037C21.1265 18.7545 20.2625 18.8614 19.8011 18.9203C16.0877 19.2892 14.2417 19.4497 12.3958 19.4657C12.3958 19.4657 12.2348 19.4657 12.2294 19.4657L12.0792 19.4657C10.2333 19.4497 8.38194 19.2946 4.66858 18.9203C4.20173 18.8614 3.34316 18.7598 2.58653 18.2037C1.69039 17.5512 1.12693 16.4122 0.90692 14.8239C0.660078 12.7704 0.5957 11.1126 0.574236 10.3051C0.574236 10.3051 0.57423 10.1821 0.568864 10.0591C0.568864 10.0484 0.568864 10.0163 0.568864 10.0163C0.568864 10.0163 0.568864 9.97355 0.568864 9.96286C0.568864 9.83986 0.574236 9.71688 0.574236 9.71688C0.590334 8.90938 0.654712 7.25159 0.90692 5.19807C1.12693 3.60446 1.69039 2.47074 2.58653 1.81832C3.34316 1.2675 4.20709 1.16056 4.66858 1.10173C8.37657 0.732739 10.2279 0.572298 12.0792 0.556255L12.0738 0.556255C12.0738 0.556255 12.2348 0.556255 12.2402 0.556255L12.3904 0.556255C14.2364 0.572298 16.0877 0.727392 19.8011 1.10173C20.2679 1.16056 21.1265 1.26216 21.8831 1.81832C22.7792 2.47074 23.3427 3.60981 23.5627 5.19807C23.8096 7.25159 23.8739 8.90938 23.8954 9.71688C23.8954 9.71688 23.8954 9.83986 23.9008 9.96286C23.9008 9.97355 23.9008 10.0057 23.9008 10.0057C23.9008 10.0057 23.9008 10.0484 23.9008 10.0591Z" fill="#BBBBBB"/>
</g>
<defs>
<clipPath id="merlo">
<rect width="90.2582" height="20.0004" fill="white"/>
</clipPath>
</defs>
</svg>
