<svg width="101" height="28" viewBox="0 0 101 28" fill="none" xmlns="http://www.w3.org/2000/svg">
<g clip-path="url(#pistenbully)">
<path d="M2.41044 22.6332C2.11966 22.5607 2.11966 21.6905 2.11966 21.5455C2.11966 21.2554 2.11966 20.9654 2.19236 20.6753C2.19236 20.5303 2.26505 20.3853 2.26505 20.2402C2.26505 19.8777 2.41044 19.5151 2.55583 19.225C2.62852 19.1525 2.62852 19.0075 2.62852 18.935C2.9193 18.1373 3.28278 17.3396 3.64625 16.542L3.93703 15.9618C3.93703 15.5268 4.15511 15.2367 4.3732 14.8741L4.66398 14.3665C4.88206 14.0039 5.10015 13.6414 5.39093 13.2788C5.46362 13.1338 5.53632 12.9887 5.60901 12.9162C5.68171 12.8437 5.68171 12.7712 5.7544 12.6987C5.7544 12.6261 5.82709 12.6261 5.82709 12.5536C5.89979 12.4811 5.89979 12.4086 5.97248 12.3361C5.97248 12.2636 5.89979 12.1185 5.82709 12.046C5.7544 11.901 5.68171 11.8285 5.68171 11.6835C5.7544 11.5384 5.97248 11.4659 6.04518 11.4659C6.33596 11.4659 6.48135 11.3934 6.69943 11.2484C6.91752 10.9583 7.1356 10.7408 7.28099 10.4507C7.35369 10.3057 7.42638 10.1606 7.57177 10.0881L8.22602 9.21794C8.37141 9.07291 8.5168 8.85536 8.66219 8.71033L8.80758 8.5653C8.88028 8.49279 9.17105 8.13021 9.17105 7.98518L9.02567 7.98518C8.80758 7.98518 8.5895 8.0577 8.37141 8.13021C8.22602 8.13021 8.15333 8.20273 8.08063 8.20273L7.86255 8.20273C6.84482 8.27524 5.89979 8.42027 5.10015 8.63782C4.59128 8.78285 4.22781 8.92788 3.93703 9.07291C3.79164 9.14542 3.64625 9.14542 3.57356 9.21794C3.28278 9.29045 3.06469 9.43548 2.84661 9.58051C2.70122 9.65303 2.62852 9.72554 2.55583 9.79806C2.33775 10.0156 2.11966 10.3057 1.75619 10.3057L1.68349 10.3057C1.32002 10.2332 0.811155 9.87057 0.738461 9.43548C0.520376 8.34776 1.82888 7.62261 2.77391 7.40506C3.79164 7.18752 4.73667 6.89746 5.60901 6.67991C5.82709 6.67991 6.04518 6.6074 6.26326 6.53488C6.69943 6.38985 7.1356 6.24482 7.64446 6.17231C7.93524 6.09979 8.22602 6.09979 8.5168 6.09979C8.80758 6.09979 9.02567 6.09979 9.31644 6.02728C9.53453 5.95476 9.75261 5.95476 9.898 5.95476C10.0434 5.95476 10.1888 5.88225 10.4069 5.88225C10.625 5.80973 10.9157 5.30212 10.9884 5.08458C10.9884 4.93955 11.0611 4.86703 11.0611 4.722C11.0611 4.57697 11.1338 4.43194 11.1338 4.28691C11.2792 3.99685 11.4246 3.92434 11.57 3.77931C11.7154 3.70679 11.8608 3.63428 12.0062 3.63428C12.1515 3.63428 12.2242 3.63428 12.3696 3.70679C12.6604 3.85182 13.0239 3.99685 13.0966 4.57697C13.0966 4.86703 13.0239 5.08458 13.0239 5.30212C12.9512 5.44715 12.9512 5.59219 12.9512 5.73722C12.9512 5.95476 13.0966 6.02728 13.3874 6.17231C13.7508 6.31734 14.0416 6.46237 14.3324 6.67991L14.4051 6.75243C14.4778 6.82494 14.6232 6.89746 14.6959 6.89746C14.8412 6.96997 14.9139 7.04249 15.0593 7.115C15.4955 7.33255 15.9317 7.76764 16.2951 8.13021C16.6586 8.42027 16.8767 8.92788 17.0948 9.43548C17.2402 9.94309 17.1675 10.5232 16.8767 11.0308C16.3678 11.9735 15.6409 12.6261 14.6959 12.9162C13.9689 13.1338 12.9512 13.4238 11.9335 13.4963L11.2792 13.4963C10.9157 13.4963 10.3342 13.4963 9.9707 13.4238C9.75261 13.3513 9.53453 13.3513 9.31644 13.3513C9.09836 13.3513 8.95297 13.4238 8.80758 13.4963C8.29872 13.7864 8.00794 14.3665 7.64446 14.9466C7.49907 15.1642 7.35368 15.4542 7.2083 15.6718C7.1356 15.8168 6.91752 16.1069 6.84482 16.1794C6.77213 16.2519 6.69943 16.3969 6.69943 16.4694C6.62674 16.542 6.62674 16.6145 6.55404 16.687C6.40865 16.9771 6.19057 17.1946 5.97248 17.4847C5.60901 17.9923 5.17284 18.4999 4.88206 19.0075C4.73667 19.2975 4.59128 19.5151 4.3732 19.7326C4.22781 19.9502 4.08242 20.1677 3.93703 20.4578C3.79164 20.7478 3.57356 20.8929 3.42817 21.1104C3.28278 21.2554 3.13739 21.4005 3.06469 21.5455C2.992 21.6905 2.84661 21.9081 2.77391 22.1256C2.70122 22.4157 2.55583 22.6332 2.41044 22.6332ZM10.2615 10.5957L10.4796 10.5957C11.4246 10.4507 12.2242 10.0881 13.1693 9.72554L13.6781 9.508C14.3324 9.29045 15.4228 8.85536 15.5682 8.20273C15.5682 8.0577 15.5682 7.98518 15.4228 7.91267C14.8412 7.55009 14.1143 7.40506 13.7508 7.26003L13.0239 7.115C12.8785 7.115 12.8058 7.04249 12.7331 7.04249C12.5877 7.04249 12.4423 7.04249 12.3696 7.115C12.1515 7.26003 12.0062 7.62261 11.8608 7.91267C11.7881 8.13021 11.6427 8.34776 11.57 8.49279C11.4246 8.63782 11.3519 8.85536 11.2792 9.00039C11.1338 9.21794 10.9884 9.508 10.843 9.72554C10.7703 9.79806 10.6976 9.87058 10.6976 9.94309C10.625 10.0156 10.5523 10.0881 10.5523 10.2332C10.4069 10.3782 10.3342 10.5232 10.2615 10.5957Z" fill="#BBBBBB"/>
<path d="M16.9493 9.29038C16.8039 8.85529 16.5131 8.34769 16.2223 8.05762C15.8589 7.69505 15.4227 7.33247 15.0592 7.11493C14.8411 6.9699 14.5504 6.82487 14.3323 6.75235C14.0415 6.60732 13.678 6.38978 13.3872 6.24475C13.0965 6.09972 12.8057 6.0272 12.8057 5.66463C12.8057 5.30205 13.0965 5.01199 13.0238 4.5769C12.9511 4.21433 12.733 3.99678 12.3695 3.85175C12.1514 3.77923 11.9333 3.77923 11.7153 3.85175C11.5699 3.92426 11.4245 3.99678 11.2791 4.28684C11.2064 4.5769 11.2064 4.79445 11.1337 5.08451C11.061 5.30205 10.7702 5.95469 10.4794 5.95469C10.116 6.0272 9.89788 6.0272 9.38902 6.09972C8.80746 6.17223 8.2259 6.17223 7.64435 6.24475C6.99009 6.46229 6.33584 6.67984 5.68159 6.82487C4.73655 7.11493 3.71883 7.40499 2.7738 7.55002C2.04685 7.76756 0.738342 8.4202 0.883731 9.43541C0.956426 9.79799 1.39259 10.088 1.68337 10.1606C2.11954 10.2331 2.41032 9.72547 2.7011 9.43541C3.06457 9.14535 3.42805 9.07284 3.86422 8.92781C4.22769 8.78278 4.59116 8.63775 5.02733 8.49272C5.97237 8.27517 6.99009 8.13014 8.00782 8.05762C8.2259 8.05762 9.02555 7.76756 9.24363 7.91259C9.38902 8.05762 8.88016 8.63775 8.73477 8.78278C8.37129 9.21787 8.00782 9.65296 7.71704 10.1606C7.42626 10.5957 7.20818 11.0307 6.8447 11.3208C6.62662 11.4658 6.40853 11.5383 6.19045 11.6109C6.11775 11.6109 5.89967 11.6109 5.82698 11.6834C5.82698 11.8284 6.11776 12.1185 6.11776 12.2635C6.11776 12.481 5.97237 12.5536 5.89967 12.6986C5.75428 12.9161 5.68159 13.1337 5.5362 13.3512L4.66386 14.6565C4.44578 15.0916 4.155 15.4542 3.93691 15.8893C3.50074 16.8319 2.99188 17.8472 2.7011 18.7899C2.55571 19.2249 2.41032 19.66 2.33763 20.0951C2.33763 20.5302 2.19224 20.9653 2.19224 21.4004C2.19224 21.763 2.26493 22.3431 2.41032 22.3431C2.55571 22.4156 2.84649 21.4729 3.06457 21.1103C3.35535 20.7478 3.71883 20.4577 3.93691 20.0226C4.22769 19.515 4.59116 19.0799 4.88194 18.5723C5.17272 18.0647 5.60889 17.4846 5.97237 16.977C6.19045 16.7594 6.33584 16.4694 6.55392 16.1793C6.62662 16.0343 6.69931 15.8893 6.8447 15.6717C6.9174 15.5267 6.99009 15.3816 7.20818 15.1641C7.71704 14.439 8.08051 13.4237 8.80746 12.9887C9.17094 12.7711 9.6798 12.8436 10.0433 12.9161C10.6248 13.0612 11.5699 12.9887 11.9333 12.9887C12.8784 12.9161 13.8234 12.6986 14.6957 12.4085C15.7135 12.1185 16.3677 11.3208 16.7312 10.5957C17.022 10.3056 17.1674 9.79799 16.9493 9.29038ZM13.678 9.72547C12.6603 10.088 11.6426 10.5231 10.5521 10.7407C10.3341 10.8132 10.2614 10.7407 10.0433 10.7407L9.97058 10.7407C10.116 10.5957 10.2614 10.3781 10.4067 10.2331C10.5521 10.088 10.6248 9.8705 10.7702 9.72547C11.061 9.3629 11.2791 8.92781 11.4972 8.56523C11.7879 8.20266 11.9333 7.4775 12.3695 7.11493C12.5876 6.9699 12.8784 6.9699 13.1691 7.04241C13.4599 7.11493 13.6053 7.11493 13.8961 7.18744C14.4777 7.33247 15.1319 7.4775 15.6408 7.84008C15.7862 7.98511 15.8589 8.05762 15.8589 8.27517C15.6408 9.00032 14.3323 9.43541 13.678 9.72547ZM12.5149 20.8928C12.3695 20.8928 12.2241 20.8203 12.2241 20.5302C12.1514 20.1676 12.2968 19.8051 12.3695 19.4425L12.4422 19.2975C12.5149 19.0799 12.5876 18.9349 12.6603 18.7899L12.733 18.6448C12.9511 18.2097 13.1691 17.7746 13.3872 17.4121L13.5326 17.1945C13.8961 16.5419 14.3323 15.8893 14.7684 15.3091L15.0592 14.874C15.1319 14.729 15.2773 14.584 15.35 14.439C15.5681 14.0764 15.7862 13.7138 16.0769 13.4237C16.5858 12.8436 17.1674 12.1185 17.3854 11.3208C17.3854 11.3208 17.5308 10.8132 17.6035 10.6682C17.6762 10.5231 17.8216 10.5231 17.8943 10.5231C18.1124 10.5231 18.3305 10.7407 18.4032 10.8857C18.7666 11.2483 18.8393 11.8284 18.8393 12.191L18.8393 12.4085C18.8393 12.6261 18.912 12.9161 18.8393 13.1337C18.7666 13.4237 18.694 13.7138 18.5486 13.9313L18.4759 14.0764C18.1124 14.874 17.6762 15.7442 17.022 16.7594C16.8766 17.0495 16.6585 17.267 16.4404 17.4846C16.295 17.6296 16.1496 17.7746 16.0769 17.9197L16.0042 17.8472C15.9315 17.9922 15.7862 18.1372 15.4954 18.3548L15.2773 18.5723C15.1319 18.7173 15.0592 18.7899 14.9138 18.8624C14.5503 19.1524 14.1869 19.37 13.8961 19.5875L13.7507 19.7326L13.5326 19.9501L13.4599 20.0951C13.3145 20.2402 13.2418 20.3852 13.0965 20.5302C12.8057 20.7478 12.6603 20.8928 12.5149 20.8928Z" fill="#BBBBBB"/>
<path d="M12.5144 19.2974C12.5871 19.0799 12.6598 18.9349 12.7325 18.6448C12.9506 18.1372 13.2414 17.6296 13.5321 17.1945C13.9683 16.3968 14.5499 15.5992 15.0587 14.874C15.3495 14.4389 15.713 13.8588 16.0765 13.4237C16.5853 12.8436 17.2396 12.0459 17.385 11.2483C17.385 11.1032 17.5304 10.7407 17.603 10.6681C17.8211 10.3781 18.0392 10.6681 18.1846 10.8132C18.4754 11.1757 18.5481 11.6834 18.6208 12.0459C18.6208 12.336 18.6935 12.6261 18.6208 12.9161C18.5481 13.2062 18.4027 13.5687 18.2573 13.8588C17.8211 14.8015 17.3123 15.6717 16.8034 16.4693C16.5126 16.9044 16.1491 17.1945 15.8584 17.5571C15.713 17.7021 15.6403 17.8471 15.2768 18.1372C15.0587 18.2822 14.9133 18.4998 14.6953 18.6448C14.3318 18.9349 14.041 19.1524 13.6775 19.37C13.5321 19.515 13.3867 19.5875 13.2414 19.805C13.096 19.9501 12.9506 20.1676 12.8052 20.3852C12.5871 20.6027 12.2963 20.8928 12.2236 20.4577C12.2963 20.0951 12.4417 19.5875 12.5144 19.2974ZM20.1474 22.1255C19.8566 22.1255 19.5658 22.053 19.275 21.8355C18.8389 21.5454 18.5481 21.2553 18.2573 20.8203C18.0392 20.4577 17.8211 20.0226 17.6757 19.5875C17.603 19.2249 17.4577 18.9349 17.385 18.6448C17.385 18.5723 17.3123 18.4998 17.2396 18.4273C17.0942 18.2822 17.0215 18.1372 16.9488 17.9922C16.9488 17.8471 16.9488 17.7746 17.0215 17.7021C17.1669 17.5571 17.385 17.5571 17.603 17.5571L17.7484 17.5571C18.33 17.5571 18.8389 17.9197 19.3477 18.2097C19.4931 18.2822 19.5658 18.3547 19.7112 18.4273C19.8566 18.4998 19.9293 18.5723 20.002 18.6448C20.2201 18.7898 20.3654 18.9349 20.6562 18.9349L20.8743 18.9349C21.5286 18.9349 22.2555 18.4998 22.3282 17.8471C22.4009 17.267 22.0374 16.977 21.674 16.6144C20.2928 15.3816 20.3654 13.3512 21.0197 11.9734C21.0197 11.9009 21.0924 11.8284 21.0924 11.7559C21.1651 11.6108 21.2378 11.3933 21.3832 11.2483C21.4559 11.1032 21.5286 11.0307 21.6013 10.8857C21.674 10.8132 21.7466 10.6681 21.8193 10.5956C22.1828 10.088 22.7644 9.65293 23.1278 9.29036C23.1278 9.29036 24.0002 8.49269 24.6544 8.34766C25.0179 8.34766 25.3087 8.27515 25.6722 8.27515L26.2537 8.27515C26.6899 8.34766 27.2715 8.42018 27.5622 8.85527C27.853 9.21784 27.7803 9.65293 27.4895 10.088C27.4895 10.088 27.3441 10.4506 26.908 10.8132L26.8353 10.8857C26.7626 10.9582 26.6172 11.1032 26.3264 11.2483C26.181 11.3208 26.0356 11.3933 25.8176 11.4658C25.8176 11.4658 25.3814 11.5383 25.236 11.6108L25.0179 11.6834C24.8725 11.6834 24.7271 11.7559 24.5817 11.7559C24.1456 11.9009 23.564 12.191 23.2732 12.481L23.0552 12.6986L22.8371 12.9161C22.5463 13.2062 22.2555 13.5687 21.9647 14.0764C21.7466 14.5114 21.7466 14.9465 21.9647 15.3091C22.1101 15.5992 22.3282 15.8892 22.5463 16.1068C22.6917 16.2518 22.8371 16.4694 22.9825 16.6144C23.2732 17.0495 23.3459 17.8471 23.3459 18.2822C23.2732 18.8623 22.8371 19.5875 22.619 19.805C22.4736 20.0226 22.2555 20.2401 22.1101 20.4577C21.9647 20.6027 21.8193 20.8203 21.674 20.9653C21.6013 21.0378 21.6013 21.1103 21.5286 21.1828C21.3105 21.4729 21.0924 21.763 20.8016 21.908C20.5108 22.053 20.3654 22.1255 20.1474 22.1255Z" fill="#BBBBBB"/>
<path d="M19.566 18.5722C19.9295 18.7897 20.1476 19.0073 20.5837 19.0798C21.3107 19.1523 22.3284 18.7172 22.4011 17.847C22.4738 17.1944 22.1103 16.9043 21.6742 16.5418C20.4383 15.3815 20.4383 13.4961 21.0926 12.0458C21.238 11.7558 21.3107 11.5382 21.4561 11.3207L21.8922 10.668C22.2557 10.2329 22.7646 9.72533 23.2007 9.43527C23.2007 9.43527 24.0004 8.71012 24.6546 8.49258C25.1635 8.34755 25.5997 8.34755 26.1085 8.42006C26.472 8.49258 27.0536 8.56509 27.2716 8.92767C27.4897 9.29024 27.417 9.65282 27.199 9.94288C27.199 9.94288 27.0536 10.3055 26.6174 10.5955C26.472 10.7405 26.3993 10.8856 26.0358 11.0306C25.9631 11.1031 25.8178 11.1756 25.527 11.2482C25.527 11.2482 25.0908 11.3207 24.9454 11.3932C24.7273 11.4657 24.5092 11.4657 24.2912 11.5382C23.855 11.6832 23.2007 11.9733 22.91 12.2634L22.4738 12.6985C22.1103 13.061 21.8195 13.4961 21.6015 13.9312C21.3834 14.3663 21.3834 14.8739 21.6015 15.309C21.8922 15.8166 22.2557 16.1792 22.6192 16.6143C22.8373 16.9768 22.9827 17.702 22.91 18.1371C22.8373 18.6447 22.5465 19.2248 22.2557 19.5874C21.9649 20.0225 21.6015 20.3851 21.3107 20.7476C21.0926 21.0377 20.8745 21.4728 20.511 21.6903C20.0749 21.9079 19.566 21.8354 19.1298 21.5453C18.6937 21.3277 18.4756 20.9652 18.1848 20.6026C17.9667 20.24 17.7486 19.8774 17.6759 19.4424C17.6032 19.1523 17.4579 18.7897 17.3852 18.4997C17.3125 18.2821 16.949 18.1371 16.949 17.9195C16.8763 17.6295 17.3125 17.6295 17.5306 17.6295C18.4029 17.7745 18.9844 18.2096 19.566 18.5722ZM19.8568 8.85515L19.7841 8.78264C19.566 8.49258 19.9295 7.6224 19.9295 7.54988C20.0749 6.96976 20.293 6.53467 20.5837 6.09958C20.7291 5.88203 20.8745 5.737 20.9472 5.51946C21.0199 5.37443 21.0926 5.2294 21.238 5.08437C21.3834 4.86682 21.5288 4.57676 21.6742 4.21419C21.6742 4.14167 21.6742 4.14167 21.7468 4.06916C21.7468 3.70658 21.8922 3.19897 22.2557 3.19897L22.3284 3.19897L22.4011 3.27149C22.4738 3.48904 22.5465 3.63407 22.6192 3.85161C22.6919 4.06916 22.8373 4.35922 22.8373 4.57676L22.91 4.79431C22.9827 5.15688 23.0554 5.44694 23.0554 5.88203L23.0554 6.31712C23.0554 6.6797 23.0554 7.04227 22.8373 7.40485C22.5465 7.83994 22.1103 8.13 21.8922 8.27503C21.5288 8.49258 21.1653 8.56509 20.8745 8.56509L20.511 8.56509C20.3656 8.56509 20.293 8.63761 20.2203 8.63761C20.1476 8.63761 20.0749 8.71012 20.0022 8.71012L19.8568 8.71012L19.8568 8.85515Z" fill="#BBBBBB"/>
<path d="M20.6569 6.17227C20.875 5.80969 21.093 5.51963 21.3111 5.22957C21.5292 4.93951 21.6746 4.64945 21.7473 4.28688C21.82 4.06933 21.8927 3.34418 22.2562 3.4167C22.3288 3.85179 22.6196 4.28688 22.6923 4.72197C22.765 5.22957 22.9104 5.51963 22.8377 6.02724C22.765 6.53484 22.9104 6.96994 22.6196 7.47754C22.4015 7.84012 22.0381 8.13018 21.7473 8.34772C21.4565 8.56527 21.093 8.56527 20.8023 8.63778C20.6569 8.63778 20.5115 8.56527 20.3661 8.63778C20.2207 8.63778 20.0753 8.78281 19.9299 8.78281C19.6391 8.92784 19.9299 7.69509 20.0026 7.62257C20.148 7.04245 20.3661 6.60736 20.6569 6.17227ZM24.437 22.4156L24.3643 22.3431C24.1462 21.9806 24.9459 19.5876 24.9459 19.4425C25.3093 18.5723 25.7455 17.5571 26.3271 16.6144C26.3271 16.5419 26.3998 16.5419 26.3998 16.4694C26.4724 16.3969 26.5451 16.2519 26.5451 16.1794L26.0363 16.1794C25.6001 16.1794 25.0912 16.0343 24.8732 16.0343C24.3643 15.8893 23.8554 15.8168 23.4193 15.3817C23.2012 15.0916 22.9831 14.439 23.2739 14.0764C23.3466 14.0039 23.4193 14.0039 23.492 14.0039C23.6374 14.0039 23.71 14.1489 23.7827 14.2214C23.7827 14.294 23.8554 14.294 23.8554 14.3665C23.9281 14.5115 24.0735 14.5115 24.2189 14.5115C24.6551 14.5115 25.0912 14.439 25.4547 14.3665L25.8182 14.2214C26.2544 14.0764 26.6905 13.9314 27.1994 13.7864C27.7083 13.6413 28.1444 13.4238 28.3625 13.2062C28.6533 12.9162 28.7987 12.6261 29.0168 12.3361C29.0895 12.191 29.1622 12.046 29.2349 11.9735C29.3075 11.8284 29.3802 11.6834 29.5256 11.6109C29.671 11.4659 29.7437 11.2483 29.8891 11.1033C30.0345 10.8858 30.1799 10.5957 30.398 10.3781C30.4707 10.2331 30.6161 10.0881 30.6887 9.94305C30.8341 9.72551 30.9795 9.50796 31.0522 9.36293C31.1249 9.2179 31.2703 9.00036 31.4157 8.78281C31.4884 8.7103 31.5611 8.56527 31.6338 8.49275C31.8519 8.27521 32.0699 7.98515 32.0699 7.62257L32.0699 7.26C32.0699 6.89742 32.1426 6.53484 32.4334 6.3173C32.5061 6.24478 32.6515 6.24478 32.7242 6.24478C33.015 6.24478 33.3058 6.53484 33.4511 6.75239C33.8146 7.55006 33.5965 8.34772 33.3058 9.00036C33.1604 9.58048 32.8696 10.0881 32.5788 10.6682C32.5061 10.8132 32.4334 10.8858 32.3607 11.0308C32.1426 11.3208 31.9246 11.6834 31.8519 12.046C31.9973 12.046 32.1426 11.9735 32.3607 11.901C32.5788 11.8284 32.7242 11.8284 32.8696 11.7559C33.015 11.7559 33.0877 11.6834 33.2331 11.6834C33.5965 11.6109 33.96 11.4659 34.2508 11.3934L34.3962 11.3208C34.7597 11.2483 34.9777 11.0308 35.2685 10.7407L35.4866 10.5232C35.9955 10.1606 36.2862 9.94305 36.7224 9.79802C37.1586 9.58048 37.7401 9.50796 38.1763 9.43545L38.1763 9.29042L38.249 9.2179C38.3217 9.14539 38.3944 9.07287 38.5398 9.07287C38.6852 9.07287 38.8306 9.14539 38.9033 9.29042C39.1213 9.65299 39.4121 10.3056 39.4121 10.7407L39.4121 11.5384C39.3394 11.9735 39.2667 12.191 39.194 12.191C39.1213 12.5536 38.6852 12.9887 38.3217 13.3513C37.7401 13.9314 36.8678 14.1489 35.9955 14.3665L35.7047 14.439C35.3412 14.5115 34.905 14.584 34.6143 14.8016C34.2508 15.0191 34.0327 15.3817 33.8873 15.8168L33.6692 16.2519C33.5965 16.4694 33.5238 16.6144 33.3785 16.7595C33.0877 17.1946 32.8696 17.6297 32.7242 18.0647C32.6515 18.3548 32.7242 18.7899 33.015 18.8624C33.1604 18.8624 33.3058 18.9349 33.4511 18.9349C33.8146 18.9349 34.1054 18.8624 34.4689 18.7899C34.8324 18.7174 35.1958 18.4273 35.4866 18.0647L35.632 17.9197C35.7774 17.7022 35.9228 17.5571 36.0682 17.4121C36.2135 17.2671 36.2862 17.122 36.4316 17.0495L36.5043 16.9045C36.7951 16.5419 37.1586 16.1068 37.4494 15.6717C37.7401 15.3092 37.9582 14.9466 38.249 14.584C38.3944 14.439 38.6125 14.2214 38.7579 14.0039C39.0486 13.7138 39.2667 13.4238 39.4848 13.1337L39.8483 12.6261C40.2845 12.046 40.7206 11.4659 41.0841 10.8132C41.1568 10.6682 41.3022 10.4507 41.4476 10.2331C41.5203 10.1606 41.593 10.0156 41.6657 9.79802L41.6657 9.72551C41.6657 9.58048 41.7384 9.29042 41.8837 9.2179L41.9564 9.2179C42.0291 9.2179 42.1018 9.2179 42.1745 9.29042C42.4653 9.58048 42.538 10.7407 42.538 11.1033C42.538 11.4659 42.3926 11.7559 42.3199 12.046C42.2472 12.2635 42.1745 12.5536 42.1018 12.7711C42.1745 12.6986 42.3199 12.6261 42.3926 12.5536C42.4653 12.4811 42.538 12.4811 42.538 12.4086C42.6834 12.3361 42.7561 12.2635 42.9015 12.191C43.0469 12.1185 43.1922 11.9735 43.3376 11.901C43.4103 11.8284 43.5557 11.8284 43.6284 11.7559C43.7738 11.6834 43.9192 11.6109 44.1373 11.4659C44.7188 11.1033 45.3731 10.7407 45.9546 10.4507C46.1727 10.3781 46.3908 10.3056 46.5362 10.1606L46.6816 10.0156C46.7543 9.94305 46.827 9.79802 46.9724 9.72551L47.4812 9.72551C47.772 9.72551 47.9901 9.87054 48.1355 10.0156C48.499 10.4507 48.5717 11.2483 48.499 11.7559L48.4263 11.9735C48.2809 12.9887 48.0628 14.0039 47.6993 14.9466C47.4812 15.4542 47.3358 15.8893 47.1178 16.3969C46.9724 16.7595 46.7543 17.0495 46.6089 17.3396C46.4635 17.5571 46.3908 17.7747 46.2454 17.9922C45.8093 18.7899 45.3004 19.4425 44.5008 19.9501L43.8465 20.3852C43.7011 20.5303 43.483 20.6028 43.3376 20.7478C43.1196 20.8928 43.0469 20.8928 42.9015 20.9653L42.9015 21.1104C42.8288 21.1104 42.8288 21.1829 42.7561 21.1829C42.6107 21.2554 42.3199 21.4004 42.1745 21.4004C41.9564 21.4004 41.811 21.3279 41.7384 21.1104C41.6657 20.9653 41.6657 20.6753 41.7384 20.4577L41.7384 20.3852C41.811 20.0952 41.8837 19.515 42.1745 19.1525L42.2472 19.0074C42.3199 18.8624 42.3926 18.7899 42.4653 18.6449L42.6834 18.2098C42.7561 18.1373 42.7561 18.0647 42.8288 17.9922C43.0469 17.5571 43.3376 17.1946 43.6284 16.832L44.0646 16.2519C44.2827 15.9618 44.5008 15.6717 44.6461 15.4542C44.8642 15.1641 45.0096 14.8741 45.2277 14.6565C45.5309 14.1027 45.8709 13.5698 46.2454 13.0612C46.3181 12.8437 46.4635 12.6986 46.5362 12.4811C46.6089 12.3361 46.6816 12.1185 46.827 11.9735C46.8997 11.8284 46.9724 11.5384 46.7543 11.3934C46.6816 11.3208 46.6816 11.3208 46.6089 11.3208C46.5362 11.3208 46.3908 11.3934 46.2454 11.4659C46.0273 11.6109 45.7366 11.7559 45.5185 11.9735L45.0823 12.1185C44.8642 12.2635 44.21 12.6986 43.7011 13.1337C43.2649 13.4963 42.8288 13.9314 42.3926 14.3665L42.1018 14.6565L41.593 15.1641L41.3749 15.3817L40.6479 16.1068C40.5025 16.2519 40.4298 16.3244 40.3572 16.4694C40.2845 16.5419 40.2118 16.687 40.0664 16.7595L39.7756 17.0495L39.6302 17.1946C39.3394 17.4846 39.1213 17.7747 38.9033 17.9922L38.6852 18.2823C38.0309 19.0074 37.304 19.7326 36.577 20.3127C36.4316 20.3852 36.3589 20.5303 36.2135 20.6753C36.0682 20.8203 35.9228 20.9653 35.7774 21.0379C35.632 21.1829 35.4866 21.2554 35.2685 21.2554C35.0504 21.2554 34.8323 21.1104 34.6143 20.8203C34.5416 20.7478 34.5416 20.6028 34.4689 20.5303C34.4689 20.4577 34.3962 20.3852 34.3962 20.3127C34.3962 20.3127 34.3235 20.3127 34.2508 20.4577C33.96 20.8203 33.5965 20.9653 33.1604 20.9653C32.8696 20.9653 32.5788 20.8928 32.288 20.6753C32.0699 20.5303 31.9246 20.3852 31.7792 20.1677C31.4884 19.7326 31.343 19.2975 31.1976 18.5724C31.1249 17.9922 31.1249 17.4846 31.1976 16.977L31.1976 16.832C31.2703 16.1794 31.4884 15.7443 31.7792 15.1641C32.0699 14.6565 32.3607 14.0764 32.7969 13.5688C32.8696 13.4963 32.9423 13.4238 33.015 13.2787C32.8696 13.3513 32.7242 13.3513 32.6515 13.4238L32.5061 13.4963C32.288 13.5688 32.1426 13.7138 31.7792 13.9314C31.5611 14.0764 31.343 14.2214 31.1249 14.439C30.8341 14.6565 30.5434 14.8741 30.1072 15.1641C29.7437 15.3817 29.4529 15.9618 29.3075 16.3969C29.2348 16.5419 29.1622 16.6144 29.1622 16.687C29.0895 16.832 29.0168 16.977 28.8714 17.122C28.726 17.4121 28.5079 17.7022 28.3625 17.9922L28.0717 18.4998C27.6356 19.225 27.1267 19.9501 26.5451 20.6028C26.2544 20.9653 25.9636 21.2554 25.6001 21.5455C25.4547 21.6905 25.3093 21.763 25.2366 21.8355L25.0912 21.9806C25.0912 21.9806 25.0186 22.0531 25.0186 22.1256C24.8732 22.3431 24.7278 22.4882 24.5824 22.4882L24.437 22.4156ZM37.9582 10.5957C37.8128 10.5957 37.5948 10.6682 37.4494 10.7407C37.304 10.8132 36.7224 11.2483 36.577 11.4659C36.2862 11.7559 36.0682 12.046 35.8501 12.3361C35.7774 12.4811 35.632 12.6261 35.4866 12.7711C35.4139 12.9162 35.3412 13.0612 35.4866 13.2062L35.632 13.2062C35.7774 13.2062 35.9228 13.1337 36.0682 13.0612C36.5043 12.6986 36.9405 12.4811 37.4494 12.191L37.7401 12.046C38.1763 11.7559 38.4671 11.3208 38.5398 11.0308C38.5398 10.9583 38.5398 10.8858 38.4671 10.8132C38.3217 10.6682 38.1763 10.5957 37.9582 10.5957Z" fill="#BBBBBB"/>
<path d="M47.045 9.94294C46.8269 10.0155 46.8269 10.233 46.6815 10.378C46.5361 10.5231 46.2454 10.6681 46.1 10.7406C45.4457 11.0307 44.8642 11.3932 44.2826 11.7558C44.0645 11.9008 43.7737 12.0459 43.483 12.1909C43.1922 12.3359 42.9014 12.5535 42.6106 12.6985C42.4652 12.771 42.1017 13.1336 41.8837 13.0611C41.8837 12.4084 42.2471 11.9008 42.3198 11.2482C42.3198 10.6681 42.1744 9.43533 41.8837 9.50784C41.7383 9.58036 41.7383 9.87042 41.7383 10.0155C41.7383 10.3055 41.5929 10.4505 41.5202 10.5231C41.3748 10.6681 41.3021 10.9581 41.1567 11.1032C40.7205 11.9008 40.139 12.626 39.5574 13.4237C39.194 13.9313 38.6124 14.4389 38.3216 14.874C38.0308 15.2365 37.7401 15.5991 37.522 15.9617C37.2312 16.3968 36.8677 16.8319 36.5769 17.1944C36.4316 17.412 36.2862 17.557 36.1408 17.702C35.9954 17.8471 35.7773 18.1371 35.6319 18.3547C35.3411 18.7173 34.9777 19.0073 34.5415 19.0798C34.0326 19.1524 33.4511 19.2974 33.0149 19.1524C32.6514 19.0798 32.5787 18.4997 32.6514 18.2097C32.7968 17.702 33.0149 17.267 33.3057 16.8319C33.4511 16.6143 33.5238 16.3243 33.6692 16.1067C33.8872 15.5991 34.0326 15.164 34.5415 14.8014C34.9777 14.5114 35.4865 14.5114 35.9954 14.3664C36.795 14.2213 37.6674 14.0038 38.2489 13.4237C38.5397 13.1336 38.9759 12.626 39.0486 12.3359C39.0486 12.3359 39.194 12.1184 39.194 11.6833C39.194 11.4658 39.2667 11.4658 39.2667 10.8856C39.2667 10.4505 38.9759 9.87042 38.7578 9.43533C38.6851 9.36282 38.467 9.21778 38.3943 9.36281C38.3943 9.36281 38.467 9.50784 38.2489 9.65287C37.7401 9.65287 37.2312 9.79791 36.8677 9.94294C36.4316 10.1605 36.1408 10.3055 35.7046 10.6681C35.3411 10.9581 34.9777 11.3207 34.5415 11.4658C34.1053 11.6108 33.7419 11.6833 33.3057 11.8283C33.0149 11.9008 32.7968 11.9008 32.506 11.9734C32.288 12.0459 32.0699 12.1184 31.7791 12.1184C31.7791 11.5383 32.288 11.0307 32.506 10.5231C32.7968 10.0155 33.0876 9.43533 33.233 8.92772C33.4511 8.20257 33.8145 7.33239 33.4511 6.46221C33.3057 6.17215 32.9422 5.88209 32.6514 6.09964C32.288 6.31718 32.4333 6.96982 32.3607 7.33239C32.288 7.84 31.8518 8.20257 31.6337 8.49263C31.3429 8.85521 31.1975 9.2903 30.9068 9.72539C30.616 10.1605 30.3252 10.5231 30.1071 10.8856C29.889 11.1757 29.6709 11.5383 29.5256 11.8283C29.2348 12.2634 29.0167 12.6985 28.6532 13.1336C28.3624 13.4962 27.8536 13.6412 27.4174 13.7862C26.8358 13.9313 26.327 14.1488 25.7454 14.2938C25.382 14.4389 24.9458 14.4389 24.5096 14.4389C24.2915 14.4389 24.1461 14.3664 24.0734 14.2213C23.9281 14.0763 23.9281 13.7862 23.71 14.0038C23.4192 14.2938 23.6373 14.874 23.8554 15.0915C24.2188 15.5266 24.7277 15.5991 25.2366 15.7441C25.5273 15.8167 26.1816 15.9617 26.6178 15.8892C26.7632 15.8892 26.9812 15.8167 27.0539 15.9617C27.0539 16.1067 26.8358 16.3968 26.8358 16.4693C26.327 17.3395 25.8908 18.3547 25.4546 19.2974C25.3093 19.5874 24.5823 22.053 24.8731 22.053C25.0185 22.053 25.2366 21.6904 25.3093 21.6179C25.5273 21.4728 25.6727 21.3278 25.8181 21.1828C26.1816 20.8927 26.4724 20.6027 26.7632 20.2401C27.4901 19.4424 27.999 18.5722 28.5805 17.702C28.8713 17.267 29.0894 16.8319 29.3802 16.3243C29.5983 15.9617 29.9617 15.019 30.3979 14.7289C31.1248 14.2213 31.561 13.8587 32.1426 13.4962C32.506 13.2061 32.7241 13.1336 33.0149 12.9886C33.0149 12.9886 33.5965 12.771 33.7419 12.8435C33.7419 12.8435 33.5238 13.2061 33.3057 13.3511C32.8695 13.7862 32.5787 14.3664 32.288 14.874C31.9972 15.3816 31.7791 15.8892 31.7064 16.4693C31.6337 17.0494 31.6337 17.6295 31.7064 18.2097C31.7791 18.7173 31.9245 19.2974 32.2153 19.7325L32.6514 20.1676C33.233 20.6027 33.8872 20.5301 34.3961 19.95C34.8323 19.5149 34.8323 19.95 35.0504 20.3126C35.2684 20.6752 35.5592 20.8202 35.9227 20.5301C36.2135 20.3126 36.4316 20.095 36.7223 19.805C37.4493 19.2249 38.1762 18.4997 38.7578 17.7746C39.0486 17.4845 39.412 17.0494 39.7028 16.6868L40.139 16.2517C40.3571 16.0342 40.5025 15.7441 40.7206 15.5991L41.4475 14.874C41.6656 14.6564 41.8837 14.3664 42.1744 14.1488C42.6833 13.6412 43.2649 13.0611 43.7737 12.626C44.2099 12.2634 44.7915 11.8283 45.2276 11.6108C45.5184 11.3932 45.9546 11.1032 46.2453 10.9581C46.5361 10.8131 46.7542 10.7406 46.9723 10.8856C47.1904 11.1032 47.1904 11.4658 47.045 11.6833C46.8269 12.0459 46.6815 12.4084 46.4634 12.771C46.2454 13.1336 45.9546 13.5687 45.6638 14.0038C45.373 14.4389 45.1549 14.874 44.8642 15.2365C44.6461 15.5266 44.2826 16.1067 43.9918 16.3968C43.701 16.8319 43.3376 17.267 43.1195 17.702C42.9741 17.9196 42.8287 18.1371 42.756 18.3547C42.6833 18.5722 42.6106 18.7173 42.4652 18.8623C42.2471 19.2249 42.1017 19.66 42.0291 20.095C42.0291 20.2401 41.9564 20.5301 42.0291 20.7477C42.2471 21.1828 42.756 20.8202 43.0468 20.6752C43.2649 20.6027 43.3376 20.5301 43.5556 20.3851C43.9191 20.095 44.2826 19.8775 44.7188 19.5874C45.4457 19.0798 45.9546 18.4272 46.3907 17.6295C46.6815 17.1219 47.045 16.6143 47.2631 16.0342C47.4812 15.5266 47.6266 15.0915 47.8446 14.5839C48.2081 13.5687 48.4262 12.481 48.5716 11.3932C48.4989 10.9581 48.2081 9.43533 47.045 9.94294ZM35.3411 12.626C35.7773 12.1184 35.9954 11.7558 36.4316 11.3207C36.4316 11.3207 37.2312 10.6681 37.3766 10.5956C37.8128 10.378 38.3216 10.4505 38.5397 10.6681C38.8305 10.9581 38.467 11.6833 37.8128 12.1184C37.2312 12.481 36.6496 12.771 36.1408 13.2061C35.9227 13.3511 35.4865 13.4237 35.4138 13.2786C35.1957 13.0611 35.1957 12.771 35.3411 12.626Z" fill="#BBBBBB"/>
<path d="M48.1354 23.6482C48.0627 23.6482 47.9173 23.5757 47.8447 23.3582C47.6993 22.9231 47.8447 22.4155 47.9173 21.9804L47.99 21.7628C48.1354 21.1827 48.3535 20.5301 48.717 19.8049C49.3712 18.4271 50.0255 17.2669 50.7524 16.1792C50.9705 15.8166 51.1886 15.5265 51.4067 15.309C51.5521 15.164 51.6248 14.9464 51.7702 14.8014C51.9156 14.5838 52.061 14.4388 52.2063 14.2213C52.4244 14.0037 52.5698 13.7862 52.7152 13.4961C53.006 12.9885 53.3695 12.5534 53.7329 12.0458C54.0237 11.6107 54.3872 11.1756 54.678 10.7405C54.7507 10.668 54.8233 10.523 54.896 10.4505C54.9687 10.378 54.9687 10.3055 55.0414 10.2329L53.0787 10.2329C52.6425 10.2329 52.2063 10.1604 51.9883 9.94288L51.8429 9.79785L51.9883 9.72533C52.2063 9.5803 52.6425 9.50779 52.7152 9.50779C52.9333 9.43527 53.0787 9.43527 53.2968 9.36276L53.4421 9.36276C53.8783 9.29024 54.3872 9.14521 54.9687 8.85515L55.1141 8.78264C55.2595 8.71012 55.4049 8.63761 55.5503 8.63761C55.623 8.56509 55.6957 8.56509 55.6957 8.49258C55.6957 8.42006 55.7684 8.34755 55.9138 8.27503L56.4226 8.27503C57.0042 8.13 57.5131 7.47737 57.8038 7.11479C57.9492 6.89724 58.0946 6.6797 58.24 6.53467L58.3127 6.46215C58.3854 6.38964 58.4581 6.31712 58.4581 6.24461C58.5308 6.17209 58.5308 6.09958 58.6035 6.02706C58.6035 6.02706 58.6762 5.95455 58.6762 5.88203C58.8943 5.737 59.0396 5.44694 59.0396 5.37443C59.0396 5.37443 58.967 5.30191 58.5308 5.30191C58.3127 5.30191 58.0946 5.30191 57.8765 5.2294C57.5858 5.2294 57.295 5.15688 57.0042 5.15688L56.7134 5.15688C56.2772 5.15688 55.9138 5.15688 55.4776 5.08437L55.1141 5.08437C54.896 5.08437 54.678 5.08437 54.4599 5.15688C54.2418 5.15688 54.0237 5.2294 53.8056 5.2294L53.3695 5.2294C52.1336 5.2294 50.9705 5.37443 49.8801 5.51946L49.5166 5.59197C49.0805 5.66449 48.6443 5.66449 48.2081 5.80952L48.1354 5.88203C47.6266 6.02706 47.3358 6.17209 47.4085 6.60718C47.4085 6.6797 47.4812 6.75221 47.4812 6.82473C47.5539 6.96976 47.6266 7.1873 47.6266 7.33233C47.5539 7.6224 47.1904 7.69491 46.8996 7.76743L46.7542 7.76743C46.5361 7.83994 46.3908 7.83994 46.2454 7.83994L45.5184 7.83994C45.373 7.83994 45.3003 7.83994 45.2276 7.76743C44.8642 7.6224 44.5007 7.1873 44.3553 6.89724C44.2826 6.60718 44.2826 6.24461 44.3553 6.02706C44.5007 5.80952 44.6461 5.59197 44.8642 5.37443C45.3003 4.93934 45.8819 4.79431 46.3908 4.72179C46.8269 4.64928 47.2631 4.50425 47.772 4.35922C48.0627 4.2867 48.3535 4.14167 48.6443 4.06916C49.4439 3.7791 50.1709 3.48904 51.0432 3.41652C52.279 3.27149 53.2968 3.19897 54.3145 3.19897L57.6584 3.19897C58.1673 3.19897 58.6035 3.19897 58.967 3.27149L59.1123 3.27149C60.4935 3.41652 61.8747 3.48904 63.2559 3.7791C63.4013 3.7791 63.474 3.7791 63.6194 3.85161C63.8375 3.85161 64.0556 3.92413 64.2737 3.99664L64.4918 4.06916C64.9279 4.21419 65.4368 4.35922 65.873 4.64928C66.0183 4.72179 66.1637 4.86682 66.3091 4.93934C66.5999 5.08437 66.8907 5.30191 67.1815 5.59197C67.3995 5.95455 67.6176 6.24461 67.6176 6.82473C67.6176 7.91246 67.1815 8.78264 66.3818 9.36276C66.0183 9.65282 65.5822 9.94288 65.2187 10.1604C65.2187 10.1604 64.8552 10.378 64.4191 10.523C64.201 10.5955 63.9102 10.668 63.6921 10.7405C63.3286 10.8131 62.9652 10.8856 62.529 11.0306L62.0928 11.1031C61.9474 11.1031 61.8747 11.1756 61.7294 11.1756C61.584 11.2482 61.4386 11.2482 61.2932 11.2482C61.2205 11.2482 61.0751 11.3207 61.0024 11.3207L61.0751 11.3932C61.2205 11.5382 61.3659 11.6832 61.5113 11.7558C61.8747 11.9733 62.1655 12.1908 62.4563 12.5534L62.7471 12.8435C62.8198 12.916 62.9652 12.9885 63.0379 13.061C63.2559 13.2786 63.474 13.4961 63.6194 13.7862C63.7648 14.0037 63.9102 14.2213 64.0556 14.5113C64.1283 14.7289 64.201 14.8739 64.2737 15.0189L64.3464 15.164C64.4918 15.6716 64.7098 16.1792 64.5645 16.6868C64.4507 17.249 64.2247 17.7827 63.9 18.2561C63.5753 18.7295 63.1585 19.1329 62.6744 19.4424L62.3836 19.5874C62.0201 19.8049 61.6567 20.0225 61.2205 20.24C61.0024 20.3851 60.6389 20.5301 60.4208 20.6026C60.2028 20.6751 59.912 20.7476 59.6939 20.8201L59.3304 20.8927C58.8943 21.0377 58.4581 21.1102 57.9492 21.1827L57.5858 21.1827C57.4404 21.1827 57.295 21.1827 57.1496 21.1102C57.0042 21.0377 56.8588 20.9652 56.7134 20.8201L56.568 20.6751C56.2772 20.4576 55.8411 20.0225 55.5503 19.5874C55.2595 19.1523 55.2595 18.5722 55.3322 18.0646L55.3322 17.9195C55.3322 17.2669 55.3322 16.5418 55.9865 16.1792C56.4226 15.9616 56.7134 15.6716 56.7861 15.2365L56.7861 15.164C56.7861 15.0914 56.7861 14.9464 56.8588 14.8739L56.9315 14.8014L57.0769 14.8739C57.5131 15.164 57.7311 15.454 57.8765 15.9616C57.8765 16.0341 57.9492 16.1067 57.9492 16.1792C58.0219 16.3242 58.0946 16.4692 58.0946 16.6868L58.0946 16.8318C58.0946 16.9768 58.1673 17.2669 58.24 17.3394C58.3854 17.557 58.6762 17.702 59.1123 17.702L59.8393 17.702C60.2755 17.702 60.7116 17.6295 61.0751 17.4844C61.2932 17.4119 61.5113 17.2669 61.7294 17.1219C61.8747 17.0494 62.0928 16.9043 62.2382 16.7593L62.3836 16.6868C62.8198 16.3242 63.0379 15.9616 63.1106 15.5265C63.2559 14.5838 62.3836 13.8587 61.584 13.2061L61.3659 13.061C61.0751 12.8435 60.7843 12.6259 60.4208 12.4809C60.0574 12.2634 59.6212 12.1183 59.185 11.9733C58.7489 11.8283 58.3854 11.8283 57.9492 11.7558C57.6584 11.7558 57.4404 11.9008 57.2223 12.1908C57.0769 12.3359 57.0042 12.5534 56.8588 12.6985C56.7134 12.916 56.568 13.1335 56.3499 13.4236C55.9865 13.8587 55.6957 14.2938 55.4049 14.7289L55.1141 15.164C55.0414 15.309 54.9687 15.454 54.896 15.5265C54.678 15.8891 54.5326 16.1792 54.1691 16.6143C54.0237 16.7593 53.8783 16.9768 53.7329 17.1219C53.5148 17.4119 53.2968 17.6295 53.0787 17.9195C52.7879 18.2096 52.3517 18.7897 51.9156 19.2248L51.6975 19.4424C51.5521 19.5874 51.4794 19.7324 51.334 19.8774C51.1886 20.095 50.9705 20.24 50.8251 20.4576C50.5344 20.8201 50.3163 21.0377 50.0255 21.4003C49.8074 21.6178 49.662 21.8354 49.5166 22.0529C49.2985 22.343 49.0805 22.633 48.7897 22.9231C48.717 22.9956 48.717 22.9956 48.6443 23.1406C48.6443 23.3582 48.4262 23.6482 48.1354 23.6482ZM60.2028 8.42006C60.4935 8.42006 60.9297 8.34755 61.2205 8.27503L61.584 8.27503C63.0379 8.13 64.5644 7.47736 65.5095 6.89724C66.091 6.60718 66.1637 6.38964 66.1637 6.31712C66.1637 6.24461 66.091 6.17209 66.0183 6.09958C65.6549 5.88203 65.146 5.80952 64.7098 5.80952L64.5645 5.80952C64.2737 5.737 63.9829 5.737 63.6921 5.66449C62.8925 5.51946 62.0201 5.44694 61.1478 5.37443L60.7116 5.37443C60.4935 5.37443 60.4208 5.37443 60.3482 5.44694C60.2755 5.59197 60.3482 5.80952 60.3482 6.02706C60.3482 6.24461 60.4208 6.38964 60.3482 6.60718C60.3482 6.60718 60.3482 7.04227 60.2028 7.6224L60.2028 7.69491C60.0574 8.05749 60.0574 8.27503 60.0574 8.34755C60.1301 8.42006 60.1301 8.42006 60.2028 8.42006Z" fill="#BBBBBB"/>
<path d="M67.4723 6.82472C67.4723 6.31711 67.3269 6.02705 66.9634 5.66448C66.6 5.22939 66.0911 5.08436 65.6549 4.72178C65.2188 4.43172 64.6372 4.21418 64.1283 4.06914C63.8376 3.92411 63.4741 3.99663 63.1833 3.92411C61.7294 3.63405 60.3482 3.56154 58.8943 3.41651C57.5131 3.27148 56.0592 3.41651 54.678 3.41651C53.4422 3.41651 52.1337 3.48902 50.8979 3.63405C49.8075 3.77908 48.717 4.21417 47.6993 4.57675C47.2632 4.64927 46.827 4.72178 46.3181 4.86681C45.8093 4.93933 45.2277 5.08436 44.8642 5.44693C44.7188 5.59196 44.5008 5.80951 44.4281 6.02705C44.3554 6.2446 44.3554 6.53466 44.4281 6.82472C44.5734 7.11478 44.8642 7.54987 45.2277 7.62238C45.4458 7.6949 45.7366 7.62238 45.9546 7.62238C46.2454 7.62238 46.4635 7.62238 46.7543 7.54987C46.9724 7.47735 47.4812 7.47735 47.5539 7.18729C47.4812 7.04226 47.2632 6.7522 47.2632 6.60717C47.1905 5.95454 47.6993 5.80951 48.2082 5.66448C48.7171 5.51945 49.2986 5.44693 49.8802 5.37442C51.1887 5.22939 52.4245 5.08436 53.8057 5.08436C54.3145 5.08436 54.8234 4.93933 55.3323 4.93933C55.9138 5.01184 56.4227 5.01184 56.9316 5.01184C57.5131 5.01184 58.022 5.08436 58.6035 5.08436C58.7489 5.08436 59.1851 5.08436 59.2578 5.3019C59.3305 5.51945 58.967 5.88202 58.8943 6.02705C58.7489 6.17208 58.6762 6.38963 58.5308 6.53466C58.3855 6.7522 58.1674 6.89723 58.022 7.11478C57.6585 7.54987 57.1496 8.27502 56.5681 8.42005C56.4227 8.49256 56.1319 8.34753 55.9865 8.42005C55.8411 8.49256 55.8411 8.71011 55.6231 8.78262C55.4777 8.85514 55.1869 8.92765 55.0415 9.00017C54.5326 9.21772 54.0238 9.36275 53.5149 9.50778C53.2241 9.58029 53.1514 9.58029 52.788 9.65281C52.788 9.65281 52.3518 9.72532 52.1337 9.87035C52.3518 10.0879 52.9333 10.0879 53.2968 10.0879C53.733 10.0879 54.1692 10.1604 54.6053 10.0879C54.7507 10.0879 55.405 9.94287 55.1869 10.2329C55.0415 10.378 54.8961 10.5955 54.8234 10.7405C54.1692 11.6832 53.4422 12.5534 52.8606 13.4961C52.5699 13.9312 52.2064 14.3663 51.8429 14.8014C51.5521 15.2365 51.2614 15.599 50.8252 16.2517C50.0982 17.4119 49.3713 18.5722 48.7897 19.8774C48.499 20.4576 48.2082 21.1102 48.0628 21.7628C47.9174 22.1979 47.772 22.8506 47.9174 23.2856C48.1355 23.8658 48.5717 22.9956 48.7897 22.778C49.2259 22.3429 49.5894 21.8353 50.0256 21.3277C50.3163 20.9652 50.6071 20.7476 50.8979 20.385C51.1887 20.0225 51.4794 19.7324 51.7702 19.3698C52.2791 18.7897 52.788 18.1371 53.1514 17.7745C53.5149 17.3394 53.8784 16.9043 54.1692 16.4692C54.678 15.8891 54.8234 15.5265 55.1869 15.0189C55.5504 14.4388 55.9138 13.7862 56.4227 13.2786C56.7135 12.916 56.9316 12.4809 57.2223 12.0458C57.4404 11.7557 57.6585 11.5382 58.022 11.5382C58.5308 11.5382 58.8943 11.6107 59.3305 11.7557C59.7667 11.9008 60.2028 12.0458 60.639 12.2633C61.0752 12.4809 61.4386 12.771 61.8021 13.061C62.5291 13.6411 63.5468 14.4388 63.4014 15.5265C63.3287 16.0341 63.0379 16.4692 62.6744 16.7593C62.4564 16.9043 62.311 17.1219 62.0929 17.2669C61.8748 17.4119 61.6567 17.5569 61.4386 17.6295C60.9298 17.847 60.4209 17.847 59.912 17.847C59.4032 17.847 58.7489 17.9195 58.3855 17.4844C58.2401 17.3394 58.2401 16.9768 58.2401 16.7593C58.1674 16.4692 58.0947 16.3242 58.022 16.0341C57.8766 15.599 57.6585 15.309 57.295 15.0189C57.2223 15.0914 57.2223 15.2365 57.2223 15.3815C57.1496 15.8891 56.7862 16.1792 56.35 16.3967C55.7684 16.6868 55.7684 17.4119 55.7684 17.992C55.7684 18.4996 55.6957 19.0798 55.9865 19.5874C56.2046 19.9499 56.6408 20.385 57.0043 20.6751C57.1496 20.8201 57.295 20.9652 57.5131 21.0377C57.7312 21.1102 58.022 21.1102 58.2401 21.0377C58.8216 20.9652 59.4032 20.8201 59.9847 20.6751L60.639 20.4576C60.8571 20.385 61.2205 20.1675 61.4386 20.095C61.9475 19.8774 62.3837 19.5874 62.8925 19.2973C63.9103 18.7172 64.4918 17.702 64.7099 16.6868C64.7826 16.1792 64.6372 15.6716 64.4918 15.2365C64.4191 15.0189 64.3464 14.8014 64.201 14.5838C64.0556 14.2938 63.9103 14.0762 63.7649 13.8587C63.5468 13.6411 63.4014 13.4236 63.1833 13.206C63.0379 13.061 62.8198 12.8435 62.6017 12.6984C62.311 12.4084 62.0202 12.1908 61.6567 11.9733C61.4386 11.8283 61.2205 11.6107 61.0025 11.4657C60.9298 11.2481 61.1479 11.1756 61.3659 11.1756C61.6567 11.1031 61.8748 11.0306 62.1656 10.9581C62.8198 10.813 63.256 10.7405 63.7649 10.5955C63.9829 10.523 64.2737 10.4505 64.4918 10.378C64.8553 10.2329 65.2915 10.0154 65.2915 10.0154C65.6549 9.87035 66.0911 9.50778 66.4546 9.21772C67.0361 8.71011 67.4723 7.83993 67.4723 6.82472ZM65.5095 7.04226C64.2737 7.6949 62.8925 8.27502 61.584 8.42005C61.2932 8.42005 60.0574 8.78263 59.9847 8.56508C59.912 8.42005 60.1301 7.83993 60.2028 7.6949C60.3482 7.11478 60.3482 6.67969 60.3482 6.67969C60.4209 6.31711 60.2028 5.80951 60.3482 5.44693C60.4209 5.15687 61.0025 5.22939 61.2205 5.3019C62.3837 5.37442 63.4741 5.51945 64.5645 5.73699C65.0734 5.80951 65.6549 5.80951 66.0184 6.09957C66.6727 6.38963 65.873 6.82472 65.5095 7.04226ZM66.0911 21.4728C65.2915 21.4728 64.7826 20.3125 64.7826 19.8049C64.7099 18.7172 64.928 17.702 65.4368 16.6868L65.5822 16.3967C65.8003 15.9616 66.0184 15.5265 66.3092 15.164C66.6727 14.6563 67.0361 14.1487 67.3996 13.7137C67.8358 13.1335 68.1265 12.6984 68.4173 12.1908L68.8535 11.5382C68.9989 11.3932 69.1443 11.1756 69.217 11.0306L69.4351 10.5955C69.5804 10.3054 69.7258 10.0154 69.9439 9.72532C70.0166 9.65281 70.0166 9.58029 70.0893 9.43526C70.3074 9.1452 70.4528 8.71011 70.9616 8.71011L71.1797 8.71011C71.6886 8.71011 71.9794 9.00017 72.0521 9.58029C72.1248 10.0879 71.834 10.523 71.5432 10.8856C71.3978 11.1031 71.3251 11.3207 71.1797 11.5382C71.107 11.7557 71.0343 11.9733 70.889 12.1183C70.4528 12.771 70.162 13.4236 69.7985 14.0762C69.6531 14.2938 69.5804 14.5113 69.4351 14.7289C69.3624 14.8739 69.2897 15.0189 69.1443 15.164C68.9262 15.454 68.7081 15.8166 68.6354 16.1066L68.7081 16.0341C68.7808 15.9616 68.7808 15.8891 68.8535 15.8891C68.9989 15.7441 69.1443 15.599 69.2897 15.5265C69.3624 15.454 69.5077 15.3815 69.5804 15.309C70.0166 14.9464 70.3801 14.4388 70.889 13.9312C71.4705 13.2786 72.1975 12.6984 72.8517 12.1908L73.4333 11.7557C73.7967 11.4657 74.0875 11.2481 74.5964 11.1756L74.7418 11.1756C75.1052 11.1756 75.6141 11.2481 75.9049 11.6107C76.5591 12.2633 76.2684 13.2786 76.123 14.0762L76.0503 14.3663C75.7595 15.454 75.396 16.4692 74.9599 17.4119C74.5237 18.3546 73.9421 19.1523 73.3606 19.9499C73.1425 20.3125 72.7063 20.6026 72.4155 20.8926L72.1975 21.1102C71.9794 21.3277 71.6886 21.5453 71.3251 21.5453C71.1797 21.5453 70.9616 21.4728 70.8163 21.4003C70.5255 21.2552 70.2347 20.8201 70.162 20.4576C70.0893 20.24 70.162 20.095 70.162 19.9499C70.162 19.8774 70.162 19.8049 70.2347 19.7324C70.2347 19.6599 70.2347 19.5149 70.3074 19.4423C70.3074 19.2973 70.3074 19.1523 70.3801 19.0073C70.5255 18.4996 70.9616 18.1371 71.3251 17.7745C71.5432 17.6295 71.834 17.1219 72.1975 16.5417C72.4882 16.1066 72.7063 15.7441 72.9971 15.3815C73.3606 14.8739 73.6513 14.5113 73.8694 14.0762C73.9421 14.0037 73.9421 13.9312 74.0148 13.8587C74.2329 13.5686 74.451 13.1335 74.3783 12.8435L74.3056 12.771C74.1602 12.771 73.9421 12.9885 73.7967 13.061L73.724 13.1335C73.3606 13.4236 73.1425 13.6411 72.8517 14.0037C72.7063 14.1487 72.5609 14.3663 72.4155 14.5113C72.2701 14.7289 72.0521 14.8739 71.9067 15.0914C71.834 15.2365 71.7613 15.309 71.6886 15.3815C71.6886 15.454 71.6159 15.5265 71.5432 15.599C71.4705 15.7441 71.3251 15.8891 71.2524 15.9616L71.1797 16.1066C70.889 16.5417 70.5255 16.9043 70.2347 17.3394L69.7985 17.847C69.3624 18.4996 68.9262 19.0798 68.4173 19.7324L68.3446 19.8049C68.0539 20.1675 67.7631 20.5301 67.3269 20.7476C67.1815 20.8201 67.1088 20.8926 66.9634 21.0377C66.7453 21.2552 66.4546 21.4002 66.1638 21.4728C66.1638 21.4002 66.1638 21.4728 66.0911 21.4728Z" fill="#BBBBBB"/>
<path d="M65.5097 16.6869C65.8005 16.1793 66.0185 15.6717 66.382 15.1641C66.7455 14.6565 67.109 14.1489 67.4724 13.7138C67.8359 13.2062 68.1994 12.7711 68.4902 12.191C68.7083 11.7559 69.0717 11.3933 69.2898 11.0307C69.5079 10.5956 69.726 10.1605 70.0168 9.72544C70.3075 9.36287 70.4529 8.85526 70.8891 8.78275C71.398 8.71023 71.7614 9.00029 71.8341 9.5079C71.9068 10.0155 71.616 10.3781 71.3253 10.7407C71.0345 11.1032 70.9618 11.6108 70.7437 11.9734C70.1622 12.8436 69.7987 13.7138 69.2898 14.584C68.999 15.0916 68.4902 15.8167 68.4175 16.3968C68.7083 16.3243 68.781 16.1068 68.9263 15.9617C69.1444 15.7442 69.4352 15.5267 69.6533 15.3091C70.0895 14.874 70.5256 14.4389 70.9618 13.9313C71.6887 13.1337 72.5611 12.481 73.4334 11.9009C73.7969 11.6108 74.1604 11.3208 74.6692 11.2483C75.0327 11.1757 75.6143 11.3208 75.8323 11.6108C76.4866 12.2635 76.1231 13.4237 75.905 14.1489C75.6143 15.1641 75.3235 16.1793 74.8146 17.122C74.3784 18.0647 73.7969 18.7898 73.2153 19.5875C72.9245 20.0226 72.4157 20.3852 72.0522 20.7477C71.6887 21.1103 71.3253 21.3279 70.8164 21.0378C70.5256 20.8203 70.3075 20.4577 70.2348 20.1676C70.1621 19.8776 70.2348 19.805 70.3075 19.5875C70.3802 19.37 70.3802 19.0799 70.4529 18.8623C70.5983 18.4273 71.0345 18.0647 71.3253 17.7021C71.5433 17.5571 71.9068 16.977 72.2703 16.3968C72.4884 16.0343 72.7792 15.6717 73.0699 15.3091L73.9423 14.0038C74.0877 13.6413 74.5965 13.0611 74.4511 12.626C74.2331 12.191 73.7969 12.626 73.5788 12.8436C73.2153 13.1337 72.9972 13.3512 72.7065 13.7863C72.4157 14.1489 72.0522 14.5114 71.7614 14.874C71.616 15.0916 71.5433 15.2366 71.398 15.3816C71.2526 15.5267 71.1072 15.7442 71.0345 15.8892C70.7437 16.3243 70.3802 16.6869 70.0895 17.122C69.4352 17.9922 68.8536 18.7898 68.2721 19.5875C67.9813 19.9501 67.6905 20.3126 67.2544 20.6027C66.8909 20.8203 66.5274 21.2553 66.1639 21.2553C65.437 21.3279 64.9281 20.3126 64.8554 19.66C64.7827 18.6448 65.0008 17.6296 65.5097 16.6869ZM75.3235 20.5302C75.1781 20.5302 75.1054 20.4577 74.96 20.3852C74.4511 19.8776 74.8873 18.9349 75.1054 18.5723C75.1781 18.4273 75.2508 18.2822 75.3962 18.0647C75.4689 17.8471 75.6143 17.6296 75.7596 17.412C75.8323 17.267 75.905 17.122 75.9777 17.0495C76.0504 16.9044 76.1231 16.7594 76.1958 16.6869C76.2685 16.5419 76.4139 16.3968 76.4866 16.1793C76.7047 15.8167 76.9228 15.4541 77.1408 15.1641L77.4316 14.8015C77.7951 14.2939 78.1586 13.7863 78.5947 13.3512C78.9582 12.9161 79.3217 12.481 79.6125 12.0459C79.8306 11.7559 80.0486 11.4658 80.2667 11.2483C80.4121 11.0307 80.6302 10.8132 80.7756 10.6681C81.0664 10.233 81.4298 9.72544 81.7206 9.21784C81.866 9.00029 82.0114 8.85526 82.0841 8.71023C82.2295 8.49269 82.4476 8.27514 82.593 7.98508C82.8837 7.54999 83.0291 7.1149 83.2472 6.53478C83.3199 6.31723 83.3199 6.1722 83.3199 5.95466L83.3199 5.80963C83.2472 5.51957 83.2472 5.30202 83.3199 5.15699C83.3926 5.01196 83.538 5.01196 83.6107 5.01196C84.0469 5.01196 84.3376 6.09969 84.3376 6.1722C84.6284 7.18742 84.3376 8.20263 84.1195 9.21784L84.0469 9.58041C83.8288 10.5231 83.3926 11.4658 83.0291 12.336L82.8837 12.6986C82.5203 13.6413 82.1568 14.2214 81.7206 14.8015C81.5752 15.019 81.4298 15.2366 81.3571 15.4541C80.7756 16.4693 80.2667 16.9044 80.2667 16.9044C80.0486 17.1945 79.7579 17.412 79.4671 17.5571C79.3217 17.6296 79.1763 17.7746 79.0309 17.8471C78.6674 18.1372 78.3767 18.4998 78.0132 18.7898C77.6497 19.1524 77.2862 19.515 76.9228 19.805C76.8501 19.8776 76.7047 19.9501 76.632 20.0226L76.4139 20.2401C76.2685 20.3852 76.0504 20.4577 75.8323 20.5302C75.6143 20.4577 75.4689 20.5302 75.3235 20.5302Z" fill="#BBBBBB"/>
<path d="M75.2506 18.6448C75.4686 18.2822 75.614 17.9197 75.8321 17.5571C75.9775 17.3395 76.0502 17.0495 76.2683 16.7594C76.5591 16.2518 76.8498 15.7442 77.2133 15.2366C77.6495 14.6565 78.0857 14.0039 78.5945 13.4237C78.958 12.9886 79.3215 12.5535 79.6123 12.0459C79.9757 11.5383 80.4119 11.1032 80.7754 10.5956C81.0661 10.1606 81.4296 9.65294 81.7931 9.14534C82.0839 8.71025 82.3747 8.34767 82.6654 7.91258C82.9562 7.40498 83.1016 6.96989 83.3197 6.46228C83.3924 6.24474 83.4651 6.02719 83.3924 5.80964C83.3924 5.66461 83.247 5.22952 83.3197 5.08449C83.6105 4.6494 83.9739 5.88216 84.0466 6.02719C84.3374 7.18743 84.0466 8.20264 83.7559 9.36288C83.4651 10.4506 83.0289 11.4658 82.5927 12.481C82.0839 13.7138 81.575 14.2939 81.0661 15.2366C80.4846 16.2518 79.9757 16.6144 79.9757 16.6144C79.6123 17.0495 79.1761 17.267 78.8126 17.6296C78.0857 18.2097 77.4314 19.0074 76.7772 19.5875C76.5591 19.7325 76.4864 19.8776 76.2683 20.0226C76.1229 20.1676 75.9775 20.2401 75.7594 20.3127C75.5413 20.3852 75.396 20.4577 75.2506 20.3127C74.669 19.8776 75.0325 19.0799 75.2506 18.6448ZM79.0307 21.4729L78.8126 21.4729L78.7399 21.4004C78.6672 21.1828 78.8126 20.8203 79.2488 19.9501C79.2488 19.8776 79.3215 19.8776 79.3215 19.8051C79.3942 19.7325 79.3942 19.66 79.4669 19.515C79.5396 19.2975 79.6849 19.0074 79.8303 18.7898C79.903 18.7173 79.903 18.6448 79.9757 18.5723C80.0484 18.4998 80.0484 18.3548 80.1938 18.2822C80.3392 18.1372 80.4846 17.8471 80.63 17.7021C80.7027 17.6296 80.7027 17.5571 80.7754 17.5571C80.8481 17.4121 80.9208 17.3395 80.9935 17.267C81.0661 17.1945 81.0661 17.122 81.1388 17.0495C81.3569 16.7594 81.575 16.3968 81.7931 16.1068C82.302 15.3091 82.8835 14.5115 83.4651 13.8588C83.6105 13.7138 83.6832 13.5688 83.7559 13.4962L83.8286 13.3512C83.9012 13.2062 84.1193 13.0612 84.2647 12.8436L84.3374 12.7711C84.5555 12.5535 84.7736 12.2635 84.919 11.9734L85.1371 11.6834C85.3551 11.3933 85.5732 11.1032 85.7913 10.7407L86.4456 9.87049L86.5183 9.72546C86.6636 9.50791 86.8817 9.21785 87.0271 8.92779C87.0998 8.78276 87.1725 8.71025 87.1725 8.56522C87.1725 8.4927 87.2452 8.42019 87.2452 8.42019C87.2452 8.42019 87.3179 8.27516 87.3906 8.20264C87.3906 8.20264 87.536 7.91258 87.536 7.84007C87.6814 7.47749 87.8268 7.18743 87.9721 6.89737L88.0448 6.67983C88.1175 6.38977 88.2629 6.17222 88.3356 5.88216C88.4083 5.5921 88.4083 5.37455 88.4083 5.15701L88.4083 4.79443L88.6991 4.79443C88.8445 4.79443 88.9899 4.86695 89.1353 5.01198C89.7895 5.88216 89.0626 9.21785 88.9172 9.65294C88.3356 11.5383 87.6087 13.6413 86.4456 15.4542L86.3729 15.5267C85.9367 16.1793 85.5005 16.8319 84.9917 17.3395L84.8463 17.4846L84.6282 17.7021C84.4828 17.8471 84.3374 18.0647 84.1193 18.2097C83.7559 18.4998 83.3924 18.8624 82.9562 19.1524C82.8108 19.2249 82.7381 19.2975 82.5927 19.37C82.3747 19.515 82.1566 19.66 82.0112 19.8051C81.8658 19.9501 81.6477 20.0951 81.5023 20.1676C81.3569 20.2401 81.1388 20.3852 80.9935 20.5302C80.7027 20.7478 80.3392 21.0378 80.0484 21.2554L79.903 21.3279C79.5396 21.2554 79.3215 21.4729 79.0307 21.4729Z" fill="#BBBBBB"/>
<path d="M79.3941 19.805C79.5395 19.4424 79.6122 19.1524 79.8303 18.8623C79.9757 18.7173 79.9757 18.4997 80.1211 18.3547C80.2665 18.1372 80.63 17.6296 80.63 17.5571C80.7753 17.3395 80.848 17.267 81.0661 17.0494C81.8658 15.9617 82.52 14.8015 83.3924 13.7863C83.5377 13.6412 83.6831 13.4237 83.8285 13.2787C83.9739 13.1336 84.192 12.8436 84.3374 12.6985C84.6282 12.336 84.9189 11.9009 85.137 11.6833C85.5732 11.1032 86.0094 10.4506 86.3728 9.87045C86.4455 9.72542 86.809 9.29033 86.9544 8.92776C87.0271 8.71021 87.1725 8.56518 87.2452 8.42015L87.3906 8.13009C87.4633 7.98506 87.4633 7.91255 87.536 7.76752C87.6813 7.40494 87.8267 7.11488 87.9721 6.7523C88.1175 6.38973 88.2629 6.09967 88.3356 5.73709C88.4083 5.37452 88.4083 5.08446 88.4083 4.72188C89.6441 4.50434 88.6991 8.78273 88.5537 9.36285C87.9721 11.3933 87.2452 13.4237 86.0821 15.1641C85.6459 15.8167 85.2097 16.5418 84.6282 17.0494C84.4828 17.1945 84.3374 17.267 84.2647 17.412C84.1193 17.5571 83.9739 17.7746 83.7558 17.9196C83.3924 18.2097 83.0289 18.5723 82.6654 18.8623C82.3746 19.0799 82.0112 19.2974 81.7204 19.515C81.4296 19.805 80.9934 19.8775 80.7027 20.1676C80.4119 20.3851 80.0484 20.6752 79.7576 20.8927C79.4668 21.1103 79.1761 21.3278 78.8126 21.2553C78.5945 21.2553 79.3941 19.8775 79.3941 19.805ZM83.1743 27.2016C83.0289 27.2016 82.9562 27.129 82.8835 27.0565C82.7381 26.839 82.8835 26.4039 83.0289 26.0413L83.9012 24.301L84.5555 23.4308L84.8463 23.1407C85.2097 22.7056 85.5005 22.343 85.9367 21.9805L86.3001 21.6904C86.6636 21.3278 87.0271 20.9653 87.4633 20.6752L87.536 20.6027C87.754 20.4577 87.9721 20.3126 88.1175 20.0951C88.1902 19.9501 88.1902 19.8775 88.2629 19.7325L88.2629 19.515C88.2629 19.2974 88.3356 19.0799 88.3356 18.8623C88.3356 18.5723 88.4083 18.2097 88.4083 17.9196C88.6264 16.9044 88.9899 15.9617 89.3533 15.019L89.5714 14.3664C89.6441 14.1488 89.6441 13.9313 89.7168 13.7863C89.7895 13.5687 89.8622 13.4237 89.9349 13.2061L90.153 12.5535C90.2984 12.2635 90.3711 11.9009 90.4438 11.5383C90.5891 11.0307 90.5164 10.3781 90.153 10.1605C90.0803 10.1605 90.0803 10.1605 90.0076 10.088C89.9349 10.088 89.7895 10.0155 89.6441 9.94297L89.426 9.94297L89.426 9.87045C89.426 9.65291 89.6441 9.50788 89.9349 9.50788C90.2257 9.50788 90.6618 9.65291 90.8072 9.79794C91.1707 10.088 91.3888 10.5231 91.4615 10.8857C91.5342 11.3933 91.6069 11.9009 91.6069 12.4085C91.6069 12.8436 91.6069 13.4962 91.5342 14.1488C91.4615 14.6564 91.3888 15.1641 91.2434 15.5991C91.1707 15.8892 91.098 16.2518 91.0253 16.6144C91.0253 16.8319 90.9526 17.0494 90.9526 17.1945C90.8799 17.5571 90.8799 17.7021 90.8799 17.7021C90.9526 17.7021 91.0253 17.6296 91.098 17.6296C91.3888 17.4845 91.5342 17.267 91.7523 17.122C91.8976 16.9769 92.043 16.9044 92.1884 16.7594C92.3338 16.6144 92.4792 16.5418 92.5519 16.3968L92.8427 16.1068L93.715 15.3816C93.9331 15.1641 94.2239 14.9465 94.442 14.729L94.7327 14.4389L94.9508 14.2214L95.387 13.7863C95.9686 13.2787 96.5501 12.6985 97.1317 12.1184L97.4224 11.8284L98.004 11.2482C98.1494 11.1032 98.2221 10.8857 98.2221 10.6681C98.2221 10.5231 98.2948 10.3781 98.3675 10.233C98.4402 10.0155 98.6583 9.94297 98.8763 9.94297C99.1671 9.94297 99.4579 10.088 99.676 10.3055C99.9668 10.7406 99.9668 11.3208 99.8214 11.7558C99.6033 12.481 99.1671 13.1336 98.731 13.7863L98.4402 14.2214C98.2948 14.4389 98.2221 14.5839 98.0767 14.8015C97.6405 15.5266 97.1317 16.3243 96.5501 16.9044C96.1866 17.267 95.8959 17.6296 95.6051 18.0647C95.1689 18.5723 94.7327 19.1524 94.2239 19.66L93.7877 20.0951L93.0608 20.8202C92.6973 21.1103 92.2611 21.4004 91.825 21.6179L91.6796 21.6904C90.5164 22.343 89.3533 22.9957 88.2629 23.5033C87.9721 23.6483 87.754 23.7934 87.4633 23.9384C87.1725 24.0834 86.8817 24.2284 86.5909 24.446C86.1548 24.6635 85.7186 24.9536 85.3551 25.2437C85.0643 25.4612 84.0466 26.4039 84.0466 26.4039C83.6831 26.9115 83.3924 27.129 83.1743 27.2016Z" fill="#BBBBBB"/>
<path d="M83.1746 26.0413C83.3927 25.4612 83.6835 24.881 84.0469 24.3734C84.265 23.9383 84.6285 23.5758 84.992 23.2132C85.3554 22.7781 85.6462 22.488 86.0097 22.053C86.5186 21.5453 86.9547 21.1103 87.4636 20.7477C87.6817 20.6027 87.9724 20.3851 88.1178 20.1676C88.3359 19.95 88.2632 19.7325 88.2632 19.5149C88.3359 19.0073 88.3359 18.4997 88.4086 17.9921C88.6267 16.9769 88.9902 16.0342 89.3537 15.0915C89.499 14.6564 89.5717 14.2938 89.7171 13.8587C89.8625 13.4237 89.9352 12.9886 90.0806 12.626C90.226 12.2634 90.2987 11.9734 90.3714 11.6108C90.4441 11.1757 90.5168 10.378 90.0079 10.088C89.8625 10.0154 89.7171 10.088 89.5717 9.87042C89.6444 9.43533 90.4441 9.72539 90.6622 9.87042C90.9529 10.088 91.2437 10.5231 91.3164 10.8856C91.3891 11.3207 91.4618 11.9008 91.4618 12.3359C91.4618 12.6985 91.4618 13.2786 91.3891 14.0763C91.3164 14.5839 91.2437 15.0915 91.0983 15.5266C90.9529 16.0342 90.8802 16.6143 90.8075 17.1219C90.8075 17.267 90.6622 17.6295 90.8075 17.7746C90.9529 17.9196 91.171 17.7746 91.2437 17.702C91.6072 17.4845 91.898 17.1219 92.2614 16.9044C92.5522 16.6868 92.6249 16.5418 92.9157 16.2517C93.2065 16.0342 93.4973 15.7441 93.788 15.5266C94.0061 15.3091 94.2969 15.0915 94.515 14.874L94.9512 14.4389C95.6781 13.7862 96.405 13.0611 97.132 12.3359L98.0043 11.4658C98.2951 11.1757 98.2224 10.7406 98.3678 10.378C98.5132 10.0154 99.1674 10.1605 99.3855 10.5231C99.6763 10.8856 99.6036 11.4658 99.4582 11.9008C99.1674 12.771 98.5859 13.4962 98.077 14.2938C97.4955 15.164 96.9139 16.1792 96.187 16.9769C95.3873 17.8471 94.6604 18.8623 93.788 19.66L92.6249 20.8202C92.1887 21.1828 91.6799 21.4728 91.2437 21.6904C90.1533 22.343 88.9902 22.9231 87.8271 23.5033C87.2455 23.7933 86.7366 24.1559 86.1551 24.446C85.7189 24.6635 85.2827 24.9536 84.9193 25.3161C84.4831 25.6787 84.1196 26.0413 83.7561 26.4039C83.6108 26.5489 83.32 26.9115 83.0292 26.9115C82.7384 27.0565 83.0292 26.3313 83.1746 26.0413Z" fill="#BBBBBB"/>
</g>
<defs>
<clipPath id="pistenbully">
<rect width="100.21" height="26.4027" fill="white" transform="translate(0.258301 0.798828)"/>
</clipPath>
</defs>
</svg>
